<?xml version="1.0" encoding="utf-8"?>
<svg fill="none" height="24" viewBox="0 0 24 24" width="24" xmlns="http://www.w3.org/2000/svg">
<path d="M5 20.9994C4.45 20.9994 3.97917 20.8036 3.5875 20.4119C3.19583 20.0202 3 19.5494 3 18.9994V5.52439C3 4.90773 3.2875 4.48273 3.8625 4.24939C4.4375 4.01606 4.95 4.12439 5.4 4.57439L6.525 5.69939L5.475 6.74939L6.15 7.42439L7.2 6.37439L10.125 9.29939L9.075 10.3494L9.75 11.0244L10.8 9.97439L13.75 12.9244L12.7 13.9744L13.375 14.6494L14.425 13.5994L17.35 16.5244L16.3 17.5744L16.975 18.2494L18.025 17.1994L19.15 18.3244C19.65 18.8244 19.775 19.3952 19.525 20.0369C19.275 20.6786 18.8167 20.9994 18.15 20.9994H5ZM5 18.9994H16.575L5 7.42439V18.9994Z" fill="#423E3E"/>
</svg>