<?xml version="1.0" encoding="utf-8"?>
<svg fill="none" height="12" viewBox="0 0 12 12" width="12" xmlns="http://www.w3.org/2000/svg">
<path d="M4.23525 3.87537C4.12842 3.87537 4.03958 3.83941 3.96875 3.76749C3.89792 3.69566 3.8625 3.60662 3.8625 3.50037V2.77537C3.8625 2.66912 3.89867 2.58003 3.971 2.50812C4.04325 2.43628 4.13283 2.40037 4.23975 2.40037C4.34658 2.40037 4.43542 2.43628 4.50625 2.50812C4.57708 2.58003 4.6125 2.66912 4.6125 2.77537V3.50037C4.6125 3.60662 4.57633 3.69566 4.504 3.76749C4.43175 3.83941 4.34217 3.87537 4.23525 3.87537ZM4.23525 8.38787C4.12842 8.38787 4.03958 8.35191 3.96875 8.27999C3.89792 8.20816 3.8625 8.11912 3.8625 8.01287V6.31287C3.8625 6.20662 3.89867 6.11753 3.971 6.04562C4.04325 5.97378 4.13283 5.93787 4.23975 5.93787C4.34658 5.93787 4.43542 5.97378 4.50625 6.04562C4.57708 6.11753 4.6125 6.20662 4.6125 6.31287V8.01287C4.6125 8.11912 4.57633 8.20816 4.504 8.27999C4.43175 8.35191 4.34217 8.38787 4.23525 8.38787ZM2.75 11.0004C2.54375 11.0004 2.36721 10.9269 2.22038 10.78C2.07346 10.6332 2 10.4566 2 10.2504V1.75037C2 1.54412 2.07346 1.36753 2.22038 1.22062C2.36721 1.07378 2.54375 1.00037 2.75 1.00037H9.25C9.45625 1.00037 9.63283 1.07378 9.77975 1.22062C9.92658 1.36753 10 1.54412 10 1.75037V10.2504C10 10.4566 9.92658 10.6332 9.77975 10.78C9.63283 10.9269 9.45625 11.0004 9.25 11.0004H2.75ZM2.75 10.2504H9.25V5.27537H2.75V10.2504ZM2.75 4.52537H9.25V1.75037H2.75V4.52537Z" fill="#423E3E"/>
</svg>