<svg width="12" height="12" viewBox="0 0 12 12" fill="none" xmlns="http://www.w3.org/2000/svg">
<path d="M1.87275 11.5C1.76592 11.5 1.67708 11.464 1.60625 11.3921C1.53542 11.3203 1.5 11.2312 1.5 11.125V0.875C1.5 0.76875 1.53617 0.679667 1.6085 0.60775C1.68075 0.535917 1.77033 0.5 1.87725 0.5C1.98408 0.5 2.07292 0.535917 2.14375 0.60775C2.21458 0.679667 2.25 0.76875 2.25 0.875V1.5H9.75V0.875C9.75 0.76875 9.78617 0.679667 9.8585 0.60775C9.93075 0.535917 10.0203 0.5 10.1272 0.5C10.2341 0.5 10.3229 0.535917 10.3938 0.60775C10.4646 0.679667 10.5 0.76875 10.5 0.875V11.125C10.5 11.2312 10.4638 11.3203 10.3915 11.3921C10.3193 11.464 10.2297 11.5 10.1228 11.5C10.0159 11.5 9.92708 11.464 9.85625 11.3921C9.78542 11.3203 9.75 11.2312 9.75 11.125V10.5H2.25V11.125C2.25 11.2312 2.21383 11.3203 2.1415 11.3921C2.06925 11.464 1.97967 11.5 1.87275 11.5ZM2.25 5.6375H3.625V4.0125C3.625 3.90625 3.66096 3.81717 3.73288 3.74525C3.80471 3.67342 3.89375 3.6375 4 3.6375H6C6.10625 3.6375 6.19533 3.67342 6.26725 3.74525C6.33908 3.81717 6.375 3.90625 6.375 4.0125V5.6375H9.75V2.25H2.25V5.6375ZM2.25 9.75H5.625V8.125C5.625 8.01875 5.66096 7.92967 5.73288 7.85775C5.80471 7.78592 5.89375 7.75 6 7.75H8C8.10625 7.75 8.19533 7.78592 8.26725 7.85775C8.33908 7.92967 8.375 8.01875 8.375 8.125V9.75H9.75V6.3875H2.25V9.75ZM4.375 5.6375H5.625V4.3875H4.375V5.6375ZM6.375 9.75H7.625V8.5H6.375V9.75Z" fill="#423E3E"/>
</svg>
