<svg width="24" height="24" viewBox="0 0 24 24" fill="none" xmlns="http://www.w3.org/2000/svg">
<path d="M4.5 10V19.5H19.5V10H4.5ZM4.5 8.5H19.5V4.5H4.5V8.5ZM11.9978 17.325C11.5159 17.325 11.1042 17.1537 10.7625 16.811C10.4208 16.4682 10.25 16.0562 10.25 15.575C10.25 15.3417 10.2875 15.1042 10.3625 14.8625C10.4375 14.6208 10.55 14.3583 10.7 14.075C10.85 13.7917 11.0087 13.5253 11.1762 13.2758C11.3436 13.0262 11.518 12.7767 11.6995 12.5273C11.7832 12.4091 11.8833 12.35 12 12.35C12.1167 12.35 12.2168 12.4091 12.3005 12.5273C12.482 12.7767 12.6564 13.0262 12.8238 13.2758C12.9913 13.5253 13.15 13.7917 13.3 14.075C13.45 14.3583 13.5625 14.6208 13.6375 14.8625C13.7125 15.1042 13.75 15.3417 13.75 15.575C13.75 16.0562 13.5784 16.4682 13.2352 16.811C12.8921 17.1537 12.4796 17.325 11.9978 17.325ZM17.5 7.25C17.7 7.25 17.875 7.175 18.025 7.025C18.175 6.875 18.25 6.7 18.25 6.5C18.25 6.3 18.175 6.125 18.025 5.975C17.875 5.825 17.7 5.75 17.5 5.75C17.3 5.75 17.125 5.825 16.975 5.975C16.825 6.125 16.75 6.3 16.75 6.5C16.75 6.7 16.825 6.875 16.975 7.025C17.125 7.175 17.3 7.25 17.5 7.25ZM4.5 21C4.1 21 3.75 20.85 3.45 20.55C3.15 20.25 3 19.9 3 19.5V4.5C3 4.1 3.15 3.75 3.45 3.45C3.75 3.15 4.1 3 4.5 3H19.5C19.9 3 20.25 3.15 20.55 3.45C20.85 3.75 21 4.1 21 4.5V19.5C21 19.9 20.85 20.25 20.55 20.55C20.25 20.85 19.9 21 19.5 21H4.5Z" fill="#423E3E"/>
</svg>
