<svg width="24" height="24" viewBox="0 0 24 24" fill="none" xmlns="http://www.w3.org/2000/svg">
<path d="M6.52406 18V20.25C6.52406 20.4625 6.45173 20.6406 6.30706 20.7843C6.16256 20.9281 5.9834 21 5.76956 21C5.5559 21 5.37823 20.9281 5.23656 20.7843C5.0949 20.6406 5.02406 20.4625 5.02406 20.25V10.2L2.47406 12.125C2.30673 12.2583 2.1274 12.3125 1.93606 12.2875C1.74473 12.2625 1.5824 12.1667 1.44906 12C1.31573 11.8333 1.26573 11.65 1.29906 11.45C1.3324 11.25 1.4324 11.0833 1.59906 10.95L11.0991 3.7C11.2324 3.6 11.3758 3.52083 11.5293 3.4625C11.6828 3.40417 11.8394 3.375 11.9991 3.375C12.1587 3.375 12.3153 3.40417 12.4688 3.4625C12.6223 3.52083 12.7657 3.6 12.8991 3.7L22.3991 10.95C22.5657 11.0833 22.6616 11.25 22.6866 11.45C22.7116 11.65 22.6574 11.8333 22.5241 12C22.3907 12.1667 22.2284 12.2625 22.0371 12.2875C21.8457 12.3125 21.6664 12.2583 21.4991 12.125L18.9491 10.175V20.25C18.9491 20.4625 18.8767 20.6406 18.7321 20.7843C18.5876 20.9281 18.4084 21 18.1946 21C17.9809 21 17.8032 20.9281 17.6616 20.7843C17.5199 20.6406 17.4491 20.4625 17.4491 20.25V18H6.52406ZM6.52406 12.5H17.4491V10H6.52406V12.5ZM6.52406 16.5H17.4491V14H6.52406V16.5ZM7.24906 8.5H16.7491L11.9991 4.875L7.24906 8.5Z" fill="#2C2E25"/>
</svg>
