<svg width="24" height="24" viewBox="0 0 24 24" fill="none" xmlns="http://www.w3.org/2000/svg">
<path d="M1 19.5V10C1 9.7875 1.07233 9.60933 1.217 9.4655C1.3615 9.32183 1.54067 9.25 1.7545 9.25C1.96817 9.25 2.14583 9.32183 2.2875 9.4655C2.42917 9.60933 2.5 9.7875 2.5 10V11.25H5.25V3.75C5.25 3.5375 5.32233 3.35933 5.467 3.2155C5.6115 3.07183 5.79067 3 6.0045 3C6.21817 3 6.39583 3.07183 6.5375 3.2155C6.67917 3.35933 6.75 3.5375 6.75 3.75V5H9.25V3.75C9.25 3.5375 9.32233 3.35933 9.467 3.2155C9.6115 3.07183 9.79067 3 10.0045 3C10.2182 3 10.3958 3.07183 10.5375 3.2155C10.6792 3.35933 10.75 3.5375 10.75 3.75V5H13.25V3.75C13.25 3.5375 13.3223 3.35933 13.467 3.2155C13.6115 3.07183 13.7907 3 14.0045 3C14.2182 3 14.3958 3.07183 14.5375 3.2155C14.6792 3.35933 14.75 3.5375 14.75 3.75V5H17.25V3.75C17.25 3.5375 17.3223 3.35933 17.467 3.2155C17.6115 3.07183 17.7907 3 18.0045 3C18.2182 3 18.3958 3.07183 18.5375 3.2155C18.6792 3.35933 18.75 3.5375 18.75 3.75V11.25H21.5V10C21.5 9.7875 21.5723 9.60933 21.717 9.4655C21.8615 9.32183 22.0407 9.25 22.2545 9.25C22.4682 9.25 22.6458 9.32183 22.7875 9.4655C22.9292 9.60933 23 9.7875 23 10V19.5C23 19.9125 22.8532 20.2656 22.5595 20.5592C22.2657 20.8531 21.9125 21 21.5 21H15C14.7875 21 14.6094 20.9281 14.4658 20.7843C14.3219 20.6406 14.25 20.4625 14.25 20.25V18C14.25 17.3667 14.0333 16.8333 13.6 16.4C13.1667 15.9667 12.6333 15.75 12 15.75C11.3667 15.75 10.8333 15.9667 10.4 16.4C9.96667 16.8333 9.75 17.3667 9.75 18V20.25C9.75 20.4625 9.67817 20.6406 9.5345 20.7843C9.39067 20.9281 9.2125 21 9 21H2.5C2.0875 21 1.73442 20.8531 1.44075 20.5592C1.14692 20.2656 1 19.9125 1 19.5ZM2.5 19.5H8.25V18C8.25 16.95 8.6125 16.0625 9.3375 15.3375C10.0625 14.6125 10.95 14.25 12 14.25C13.05 14.25 13.9375 14.6125 14.6625 15.3375C15.3875 16.0625 15.75 16.95 15.75 18V19.5H21.5V12.75H18C17.7875 12.75 17.6094 12.6781 17.4657 12.5343C17.3219 12.3906 17.25 12.2125 17.25 12V6.5H6.75V12C6.75 12.2125 6.67817 12.3906 6.5345 12.5343C6.39067 12.6781 6.2125 12.75 6 12.75H2.5V19.5ZM9.45 11.75H10.5642C10.6263 11.75 10.6727 11.7292 10.7035 11.6875C10.7345 11.6458 10.75 11.6 10.75 11.55V9.75C10.75 9.5375 10.6777 9.35933 10.533 9.2155C10.3885 9.07183 10.2093 9 9.9955 9C9.78183 9 9.60417 9.07183 9.4625 9.2155C9.32083 9.35933 9.25 9.5375 9.25 9.75V11.55C9.25 11.6 9.27083 11.6458 9.3125 11.6875C9.35417 11.7292 9.4 11.75 9.45 11.75ZM13.45 11.75H14.5642C14.6263 11.75 14.6727 11.7292 14.7035 11.6875C14.7345 11.6458 14.75 11.6 14.75 11.55V9.75C14.75 9.5375 14.6777 9.35933 14.533 9.2155C14.3885 9.07183 14.2093 9 13.9955 9C13.7818 9 13.6042 9.07183 13.4625 9.2155C13.3208 9.35933 13.25 9.5375 13.25 9.75V11.55C13.25 11.6 13.2708 11.6458 13.3125 11.6875C13.3542 11.7292 13.4 11.75 13.45 11.75Z" fill="#2C2E25"/>
</svg>
