<svg width="24" height="24" viewBox="0 0 24 24" fill="none" xmlns="http://www.w3.org/2000/svg">
<path d="M4.5 23C4.0875 23 3.73442 22.8531 3.44075 22.5592C3.14692 22.2656 3 21.9125 3 21.5V15.75C3 14.4358 3.46308 13.3157 4.38925 12.3895C5.31558 11.4632 6.43583 11 7.75 11H9.25V2.5C9.25 2.0875 9.39692 1.73433 9.69075 1.4405C9.98442 1.14683 10.3375 1 10.75 1H13.25C13.6625 1 14.0157 1.14683 14.3095 1.4405C14.6032 1.73433 14.75 2.0875 14.75 2.5V11H16.25C17.5642 11 18.6843 11.4632 19.6105 12.3895C20.5368 13.3157 21 14.4358 21 15.75V21.5C21 21.9125 20.8532 22.2656 20.5595 22.5592C20.2657 22.8531 19.9125 23 19.5 23H4.5ZM4.5 21.5H7.125V18.25C7.125 18.0375 7.19733 17.8593 7.342 17.7155C7.4865 17.5718 7.66567 17.5 7.8795 17.5C8.09317 17.5 8.27083 17.5718 8.4125 17.7155C8.55417 17.8593 8.625 18.0375 8.625 18.25V21.5H11.25V18.25C11.25 18.0375 11.3223 17.8593 11.467 17.7155C11.6115 17.5718 11.7907 17.5 12.0045 17.5C12.2182 17.5 12.3958 17.5718 12.5375 17.7155C12.6792 17.8593 12.75 18.0375 12.75 18.25V21.5H15.375V18.25C15.375 18.0375 15.4473 17.8593 15.592 17.7155C15.7365 17.5718 15.9157 17.5 16.1295 17.5C16.3432 17.5 16.5208 17.5718 16.6625 17.7155C16.8042 17.8593 16.875 18.0375 16.875 18.25V21.5H19.5V15.75C19.5 14.8472 19.184 14.0798 18.552 13.448C17.9202 12.816 17.1528 12.5 16.25 12.5H7.75C6.84717 12.5 6.07983 12.816 5.448 13.448C4.816 14.0798 4.5 14.8472 4.5 15.75V21.5ZM13.25 11V2.5H10.75V11H13.25Z" fill="#2C2E25"/>
</svg>
