<svg width="24" height="24" viewBox="0 0 24 24" fill="none" xmlns="http://www.w3.org/2000/svg">
<path d="M5.125 16.5752C4.675 16.5752 4.30833 16.6835 4.025 16.9002C3.74167 17.1169 3.45 17.2919 3.15 17.4252C2.83333 17.5752 2.5625 17.6085 2.3375 17.5252C2.1125 17.4419 2 17.2585 2 16.9752C2 16.7919 2.06667 16.6252 2.2 16.4752C2.33333 16.3252 2.54167 16.1502 2.825 15.9502C3.225 15.6669 3.63333 15.4502 4.05 15.3002C4.46667 15.1502 4.85833 15.0752 5.225 15.0752C5.99167 15.0752 6.58333 15.3002 7 15.7502C7.41667 16.2002 7.95 16.4252 8.6 16.4252C9.25 16.4252 9.79167 16.2002 10.225 15.7502C10.6583 15.3002 11.25 15.0752 12 15.0752C12.75 15.0752 13.3375 15.3002 13.7625 15.7502C14.1875 16.2002 14.725 16.4252 15.375 16.4252C16.025 16.4252 16.5625 16.2002 16.9875 15.7502C17.4125 15.3002 18.0167 15.0752 18.8 15.0752C19.1833 15.0752 19.5833 15.1502 20 15.3002C20.4167 15.4502 20.825 15.6669 21.225 15.9502C21.5083 16.1335 21.7083 16.3085 21.825 16.4752C21.9417 16.6419 22 16.8085 22 16.9752C22 17.2585 21.8875 17.4419 21.6625 17.5252C21.4375 17.6085 21.1667 17.5752 20.85 17.4252C20.55 17.2919 20.2583 17.1169 19.975 16.9002C19.6917 16.6835 19.325 16.5752 18.875 16.5752C18.175 16.5752 17.6042 16.8002 17.1625 17.2502C16.7208 17.7002 16.125 17.9252 15.375 17.9252C14.625 17.9252 14.0333 17.7002 13.6 17.2502C13.1667 16.8002 12.6333 16.5752 12 16.5752C11.3667 16.5752 10.8292 16.8002 10.3875 17.2502C9.94583 17.7002 9.35 17.9252 8.6 17.9252C7.85 17.9252 7.25833 17.7002 6.825 17.2502C6.39167 16.8002 5.825 16.5752 5.125 16.5752ZM5.125 12.5752C4.675 12.5752 4.30833 12.6835 4.025 12.9002C3.74167 13.1169 3.45 13.2919 3.15 13.4252C2.83333 13.5752 2.5625 13.6085 2.3375 13.5252C2.1125 13.4419 2 13.2585 2 12.9752C2 12.7919 2.07917 12.6127 2.2375 12.4377C2.39583 12.2627 2.65833 12.0502 3.025 11.8002C3.425 11.5335 3.77917 11.346 4.0875 11.2377C4.39583 11.1294 4.71667 11.0752 5.05 11.0752C5.9 11.0752 6.54167 11.3002 6.975 11.7502C7.40833 12.2002 7.95 12.4252 8.6 12.4252C9.25 12.4252 9.79167 12.2002 10.225 11.7502C10.6583 11.3002 11.25 11.0752 12 11.0752C12.75 11.0752 13.3375 11.3002 13.7625 11.7502C14.1875 12.2002 14.725 12.4252 15.375 12.4252C16.025 12.4252 16.5625 12.2002 16.9875 11.7502C17.4125 11.3002 18.0167 11.0752 18.8 11.0752C19.1833 11.0752 19.5833 11.1502 20 11.3002C20.4167 11.4502 20.825 11.6669 21.225 11.9502C21.5083 12.1335 21.7083 12.3085 21.825 12.4752C21.9417 12.6419 22 12.8085 22 12.9752C22 13.2585 21.8875 13.4419 21.6625 13.5252C21.4375 13.6085 21.1667 13.5752 20.85 13.4252C20.55 13.2919 20.2583 13.1169 19.975 12.9002C19.6917 12.6835 19.325 12.5752 18.875 12.5752C18.175 12.5752 17.6042 12.8002 17.1625 13.2502C16.7208 13.7002 16.125 13.9252 15.375 13.9252C14.625 13.9252 14.0333 13.7002 13.6 13.2502C13.1667 12.8002 12.6333 12.5752 12 12.5752C11.3667 12.5752 10.8292 12.8002 10.3875 13.2502C9.94583 13.7002 9.35 13.9252 8.6 13.9252C7.85 13.9252 7.25833 13.7002 6.825 13.2502C6.39167 12.8002 5.825 12.5752 5.125 12.5752ZM5.125 8.5752C4.675 8.5752 4.30833 8.68353 4.025 8.9002C3.74167 9.11686 3.45 9.29186 3.15 9.4252C2.83333 9.5752 2.5625 9.60853 2.3375 9.5252C2.1125 9.44186 2 9.25853 2 8.9752C2 8.79186 2.06667 8.62103 2.2 8.4627C2.33333 8.30436 2.55 8.1252 2.85 7.9252C3.25 7.65853 3.65833 7.4502 4.075 7.3002C4.49167 7.1502 4.88333 7.0752 5.25 7.0752C6 7.0752 6.58333 7.3002 7 7.7502C7.41667 8.2002 7.95 8.4252 8.6 8.4252C9.25 8.4252 9.79167 8.2002 10.225 7.7502C10.6583 7.3002 11.25 7.0752 12 7.0752C12.75 7.0752 13.3375 7.3002 13.7625 7.7502C14.1875 8.2002 14.725 8.4252 15.375 8.4252C16.025 8.4252 16.5625 8.2002 16.9875 7.7502C17.4125 7.3002 18.0083 7.0752 18.775 7.0752C19.1417 7.0752 19.5333 7.1502 19.95 7.3002C20.3667 7.4502 20.775 7.66686 21.175 7.9502C21.4583 8.1502 21.6667 8.3252 21.8 8.4752C21.9333 8.6252 22 8.79186 22 8.9752C22 9.25853 21.8875 9.44186 21.6625 9.5252C21.4375 9.60853 21.1667 9.5752 20.85 9.4252C20.55 9.29186 20.2583 9.11686 19.975 8.9002C19.6917 8.68353 19.325 8.5752 18.875 8.5752C18.175 8.5752 17.6042 8.8002 17.1625 9.2502C16.7208 9.7002 16.125 9.9252 15.375 9.9252C14.625 9.9252 14.0333 9.7002 13.6 9.2502C13.1667 8.8002 12.6333 8.5752 12 8.5752C11.3667 8.5752 10.8292 8.8002 10.3875 9.2502C9.94583 9.7002 9.35 9.9252 8.6 9.9252C7.85 9.9252 7.25833 9.7002 6.825 9.2502C6.39167 8.8002 5.825 8.5752 5.125 8.5752Z" fill="#2C2E25"/>
</svg>
