<svg width="24" height="24" viewBox="0 0 24 24" fill="none" xmlns="http://www.w3.org/2000/svg">
<path d="M16.9 19C16.8333 19 16.7722 18.9889 16.7167 18.9667C16.6611 18.9444 16.6056 18.9056 16.55 18.85L12.5167 14.8167C12.4611 14.7611 12.4222 14.7056 12.4 14.65C12.3778 14.5944 12.3667 14.5333 12.3667 14.4667C12.3667 14.4 12.3778 14.3389 12.4 14.2833C12.4222 14.2278 12.4611 14.1722 12.5167 14.1167L13.9333 12.7C13.9889 12.6444 14.0444 12.6056 14.1 12.5833C14.1556 12.5611 14.2167 12.55 14.2833 12.55C14.35 12.55 14.4111 12.5611 14.4667 12.5833C14.5222 12.6056 14.5778 12.6444 14.6333 12.7L18.6667 16.7333C18.7222 16.7889 18.7611 16.8444 18.7833 16.9C18.8056 16.9556 18.8167 17.0167 18.8167 17.0833C18.8167 17.15 18.8056 17.2111 18.7833 17.2667C18.7611 17.3222 18.7222 17.3778 18.6667 17.4333L17.25 18.85C17.1944 18.9056 17.1389 18.9444 17.0833 18.9667C17.0278 18.9889 16.9667 19 16.9 19ZM16.9 17.8L17.6167 17.0833L14.2833 13.75L13.5667 14.4667L16.9 17.8ZM7.41667 19C7.35 19 7.28611 18.9889 7.225 18.9667C7.16389 18.9444 7.10556 18.9056 7.05 18.85L5.65 17.45C5.59444 17.3944 5.55556 17.3361 5.53333 17.275C5.51111 17.2139 5.5 17.15 5.5 17.0833C5.5 17.0167 5.51111 16.9556 5.53333 16.9C5.55556 16.8444 5.59444 16.7889 5.65 16.7333L9.4 12.9833H10.8167L11.45 12.35L8.53333 9.43333H7.58333L5.5 7.35L7.15 5.7L9.23333 7.78333V8.73333L12.15 11.65L14.3167 9.48333L13.2 8.36667L14.1333 7.43333H12.25L11.95 7.13333L14.0833 5L14.3833 5.3V7.18333L15.3167 6.25L18.1333 9.06667C18.3 9.23333 18.4306 9.425 18.525 9.64167C18.6194 9.85833 18.6667 10.0889 18.6667 10.3333C18.6667 10.5556 18.6306 10.7694 18.5583 10.975C18.4861 11.1806 18.3833 11.3667 18.25 11.5333L16.8333 10.1167L15.9 11.05L15.0333 10.1833L11.5167 13.7V15.1L7.76667 18.85C7.71111 18.9056 7.65556 18.9444 7.6 18.9667C7.54444 18.9889 7.48333 19 7.41667 19ZM7.41667 17.8L10.75 14.4667V13.75H10.0333L6.7 17.0833L7.41667 17.8ZM7.41667 17.8L6.7 17.0833L7.06667 17.4333L7.41667 17.8Z" fill="#FFF7EE"/>
</svg>
