<svg width="24" height="24" viewBox="0 0 24 24" fill="none" xmlns="http://www.w3.org/2000/svg">
<mask id="mask0_8026_302399" style="mask-type:alpha" maskUnits="userSpaceOnUse" x="0" y="0" width="24" height="24">
<rect width="24" height="24" fill="#D9D9D9"/>
</mask>
<g mask="url(#mask0_8026_302399)">
<path d="M8.875 21C8.675 21 8.47917 20.9583 8.2875 20.875C8.09583 20.7917 7.93333 20.6833 7.8 20.55L3.45 16.2C3.31667 16.0667 3.20833 15.9042 3.125 15.7125C3.04167 15.5208 3 15.325 3 15.125V8.875C3 8.675 3.04167 8.47917 3.125 8.2875C3.20833 8.09583 3.31667 7.93333 3.45 7.8L7.8 3.45C7.93333 3.31667 8.09583 3.20833 8.2875 3.125C8.47917 3.04167 8.675 3 8.875 3H15.125C15.325 3 15.5208 3.04167 15.7125 3.125C15.9042 3.20833 16.0667 3.31667 16.2 3.45L20.55 7.8C20.6833 7.93333 20.7917 8.09583 20.875 8.2875C20.9583 8.47917 21 8.675 21 8.875V15.125C21 15.325 20.9583 15.5208 20.875 15.7125C20.7917 15.9042 20.6833 16.0667 20.55 16.2L16.2 20.55C16.0667 20.6833 15.9042 20.7917 15.7125 20.875C15.5208 20.9583 15.325 21 15.125 21H8.875ZM8.875 19.5H15.125L19.5 15.125V8.875L15.125 4.5H8.875L4.5 8.875V15.125L8.875 19.5ZM12 13.05L14.55 15.6C14.7 15.75 14.875 15.825 15.075 15.825C15.275 15.825 15.45 15.75 15.6 15.6C15.75 15.45 15.825 15.275 15.825 15.075C15.825 14.875 15.75 14.7 15.6 14.55L13.05 12L15.6 9.45C15.75 9.3 15.825 9.125 15.825 8.925C15.825 8.725 15.75 8.55 15.6 8.4C15.45 8.25 15.275 8.175 15.075 8.175C14.875 8.175 14.7 8.25 14.55 8.4L12 10.95L9.45 8.4C9.3 8.25 9.125 8.175 8.925 8.175C8.725 8.175 8.55 8.25 8.4 8.4C8.25 8.55 8.175 8.725 8.175 8.925C8.175 9.125 8.25 9.3 8.4 9.45L10.95 12L8.4 14.55C8.25 14.7 8.175 14.875 8.175 15.075C8.175 15.275 8.25 15.45 8.4 15.6C8.55 15.75 8.725 15.825 8.925 15.825C9.125 15.825 9.3 15.75 9.45 15.6L12 13.05Z" fill="#2C2E25"/>
</g>
</svg>
