<svg width="48" height="48" viewBox="0 0 48 48" fill="none" xmlns="http://www.w3.org/2000/svg">
<path d="M23.9998 12.6452C25.2442 11.0452 26.5627 9.8674 27.9553 9.11185C29.3479 8.35629 30.8442 7.97852 32.4442 7.97852C35.0813 7.97852 37.2961 8.87481 39.0887 10.6674C40.8813 12.46 41.7776 14.6896 41.7776 17.3563C41.7776 17.5933 41.785 17.8156 41.7998 18.023C41.8146 18.2304 41.8072 18.4526 41.7776 18.6896C41.7776 19.0748 41.6368 19.3933 41.3553 19.6452C41.0739 19.897 40.7405 20.023 40.3553 20.023C39.9702 20.023 39.6442 19.8822 39.3776 19.6007C39.1109 19.3193 38.9776 18.9859 38.9776 18.6007C39.0072 18.3933 39.0368 18.1933 39.0665 18.0007C39.0961 17.8081 39.1109 17.5933 39.1109 17.3563C39.1109 15.4007 38.4887 13.7933 37.2442 12.5341C35.9998 11.2748 34.3998 10.6452 32.4442 10.6452C31.022 10.6452 29.7109 11.0526 28.5109 11.8674C27.3109 12.6822 26.2961 13.8007 25.4664 15.223C25.3183 15.5193 25.1035 15.7341 24.822 15.8674C24.5405 16.0007 24.2516 16.0674 23.9553 16.0674C23.659 16.0674 23.3776 15.9933 23.1109 15.8452C22.8442 15.697 22.6368 15.4748 22.4887 15.1785C21.6887 13.7563 20.6813 12.6452 19.4664 11.8452C18.2516 11.0452 16.9479 10.6452 15.5553 10.6452C13.5998 10.6452 11.9998 11.2748 10.7553 12.5341C9.51089 13.7933 8.88867 15.4007 8.88867 17.3563C8.88867 17.5933 8.90349 17.8081 8.93312 18.0007C8.96275 18.1933 8.99238 18.3933 9.02201 18.6007C9.02201 18.9859 8.88867 19.3193 8.62201 19.6007C8.35534 19.8822 8.02941 20.023 7.64423 20.023C7.25904 20.023 6.92571 19.897 6.64423 19.6452C6.36275 19.3933 6.22201 19.0748 6.22201 18.6896C6.19238 18.4526 6.18497 18.2304 6.19978 18.023C6.2146 17.8156 6.22201 17.5933 6.22201 17.3563C6.22201 14.6896 7.1183 12.46 8.91089 10.6674C10.7035 8.87481 12.9183 7.97852 15.5553 7.97852C17.2442 7.97852 18.8072 8.37852 20.2442 9.17852C21.6813 9.97852 22.9331 11.1341 23.9998 12.6452ZM23.9998 39.623C23.6739 39.623 23.3553 39.5711 23.0442 39.4674C22.7331 39.3637 22.459 39.1933 22.222 38.9563C20.3257 37.2081 18.6294 35.6156 17.1331 34.1785C15.6368 32.7415 14.3109 31.4007 13.1553 30.1563C12.859 29.8304 12.7405 29.5044 12.7998 29.1785C12.859 28.8526 13.0072 28.5711 13.2442 28.3341C13.4813 28.097 13.7702 27.9637 14.1109 27.9341C14.4516 27.9044 14.7553 28.0378 15.022 28.3341C16.1479 29.5193 17.4442 30.823 18.9109 32.2452C20.3776 33.6674 22.0739 35.2674 23.9998 37.0452C25.9257 35.2674 27.6146 33.6674 29.0665 32.2452C30.5183 30.823 31.8072 29.5193 32.9331 28.3341C33.1998 28.0378 33.5035 27.9119 33.8442 27.9563C34.185 28.0007 34.4739 28.1415 34.7109 28.3785C34.9479 28.6156 35.0961 28.9044 35.1553 29.2452C35.2146 29.5859 35.0961 29.9193 34.7998 30.2452C33.6739 31.4896 32.3553 32.8156 30.8442 34.223C29.3331 35.6304 27.6442 37.2081 25.7776 38.9563C25.5405 39.1933 25.2665 39.3637 24.9553 39.4674C24.6442 39.5711 24.3257 39.623 23.9998 39.623ZM22.3109 30.6452C22.5776 30.6452 22.8146 30.5637 23.022 30.4007C23.2294 30.2378 23.3776 30.023 23.4664 29.7563L26.1776 21.7119L28.222 24.7341C28.3702 24.9119 28.5331 25.0526 28.7109 25.1563C28.8887 25.26 29.0961 25.3119 29.3331 25.3119H41.7776C42.1627 25.3119 42.4813 25.1859 42.7331 24.9341C42.985 24.6822 43.1109 24.3637 43.1109 23.9785C43.1109 23.5933 42.985 23.2748 42.7331 23.023C42.4813 22.7711 42.1627 22.6452 41.7776 22.6452H30.0887L26.8887 17.9341C26.7405 17.7267 26.5627 17.5785 26.3553 17.4896C26.1479 17.4007 25.9257 17.3563 25.6887 17.3563C25.422 17.3563 25.1776 17.4378 24.9553 17.6007C24.7331 17.7637 24.5776 17.9785 24.4887 18.2452L21.822 26.2896L19.7331 23.223C19.585 23.0452 19.4294 22.9044 19.2665 22.8007C19.1035 22.697 18.9035 22.6452 18.6664 22.6452H6.22201C5.83682 22.6452 5.5183 22.7711 5.26645 23.023C5.0146 23.2748 4.88867 23.5933 4.88867 23.9785C4.88867 24.3637 5.0146 24.6822 5.26645 24.9341C5.5183 25.1859 5.83682 25.3119 6.22201 25.3119H17.8665L21.0665 30.0674C21.2146 30.2748 21.3998 30.423 21.622 30.5119C21.8442 30.6007 22.0739 30.6452 22.3109 30.6452Z" fill="#2C2E25"/>
</svg>
