<svg width="24" height="24" viewBox="0 0 24 24" fill="none" xmlns="http://www.w3.org/2000/svg">
<path d="M10.5004 14.525L8.77544 22.375C8.7421 22.5583 8.65044 22.7083 8.50044 22.825C8.35044 22.9417 8.18377 23 8.00044 23C7.75044 23 7.54627 22.9042 7.38794 22.7125C7.2296 22.5208 7.17544 22.3083 7.22544 22.075L10.0754 7.5C10.1588 7.1 10.3504 6.79167 10.6504 6.575C10.9504 6.35833 11.2671 6.25 11.6004 6.25C11.9338 6.25 12.2463 6.325 12.5379 6.475C12.8296 6.625 13.0671 6.84167 13.2504 7.125L14.2254 8.725C14.5421 9.25833 14.9796 9.73333 15.5379 10.15C16.0963 10.5667 16.7504 10.8917 17.5004 11.125V9.75C17.5004 9.61667 17.5504 9.5 17.6504 9.4C17.7504 9.3 17.8671 9.25 18.0004 9.25C18.1338 9.25 18.2504 9.3 18.3504 9.4C18.4504 9.5 18.5004 9.61667 18.5004 9.75V22.5C18.5004 22.6333 18.4504 22.75 18.3504 22.85C18.2504 22.95 18.1338 23 18.0004 23C17.8671 23 17.7504 22.95 17.6504 22.85C17.5504 22.75 17.5004 22.6333 17.5004 22.5V12.65C16.6504 12.4667 15.8504 12.1417 15.1004 11.675C14.3504 11.2083 13.6838 10.6333 13.1004 9.95L12.3754 13.575L14.2754 15.375C14.3588 15.4583 14.4171 15.5458 14.4504 15.6375C14.4838 15.7292 14.5004 15.825 14.5004 15.925V22.25C14.5004 22.4667 14.4296 22.6458 14.2879 22.7875C14.1463 22.9292 13.9671 23 13.7504 23C13.5338 23 13.3546 22.9292 13.2129 22.7875C13.0713 22.6458 13.0004 22.4667 13.0004 22.25V16.9L10.5004 14.525ZM6.75044 12.8L5.60044 12.575C5.40044 12.5417 5.24627 12.4375 5.13794 12.2625C5.0296 12.0875 4.9921 11.9 5.02544 11.7L5.77544 7.775C5.85877 7.29167 6.1171 6.92083 6.55044 6.6625C6.98377 6.40417 7.45877 6.325 7.97544 6.425C8.17544 6.45833 8.33377 6.56667 8.45044 6.75C8.5671 6.93333 8.60877 7.125 8.57544 7.325L7.62544 12.2C7.5921 12.4 7.48794 12.5583 7.31294 12.675C7.13794 12.7917 6.95044 12.8333 6.75044 12.8ZM13.2504 5.15C12.7504 5.15 12.3213 4.97083 11.9629 4.6125C11.6046 4.25417 11.4254 3.825 11.4254 3.325C11.4254 2.825 11.6046 2.39583 11.9629 2.0375C12.3213 1.67917 12.7504 1.5 13.2504 1.5C13.7504 1.5 14.1796 1.67917 14.5379 2.0375C14.8963 2.39583 15.0754 2.825 15.0754 3.325C15.0754 3.825 14.8963 4.25417 14.5379 4.6125C14.1796 4.97083 13.7504 5.15 13.2504 5.15Z" fill="#2C2E25"/>
</svg>
