<svg width="24" height="24" viewBox="0 0 24 24" fill="none" xmlns="http://www.w3.org/2000/svg">
<path d="M11.2508 18.1248V5.8748L9.57578 7.5248C9.42578 7.6748 9.25078 7.7498 9.05078 7.7498C8.85078 7.7498 8.67578 7.6748 8.52578 7.5248C8.37578 7.3748 8.30078 7.1998 8.30078 6.9998C8.30078 6.7998 8.37578 6.6248 8.52578 6.4748L11.4758 3.5248C11.5591 3.44147 11.6424 3.38314 11.7258 3.3498C11.8091 3.31647 11.9008 3.2998 12.0008 3.2998C12.1008 3.2998 12.1924 3.31647 12.2758 3.3498C12.3591 3.38314 12.4424 3.44147 12.5258 3.5248L15.4758 6.4748C15.6258 6.6248 15.7008 6.7998 15.7008 6.9998C15.7008 7.1998 15.6258 7.3748 15.4758 7.5248C15.3258 7.6748 15.1466 7.7498 14.9383 7.7498C14.7299 7.7498 14.5508 7.6748 14.4008 7.5248L12.7508 5.8748V18.1248L14.4258 16.4748C14.5758 16.3415 14.7508 16.2706 14.9508 16.2623C15.1508 16.254 15.3258 16.3248 15.4758 16.4748C15.6258 16.6248 15.7008 16.7998 15.7008 16.9998C15.7008 17.1998 15.6258 17.3748 15.4758 17.5248L12.5258 20.4748C12.4424 20.5581 12.3591 20.6165 12.2758 20.6498C12.1924 20.6831 12.1008 20.6998 12.0008 20.6998C11.9008 20.6998 11.8091 20.6831 11.7258 20.6498C11.6424 20.6165 11.5591 20.5581 11.4758 20.4748L8.52578 17.5248C8.37578 17.3748 8.30078 17.1998 8.30078 16.9998C8.30078 16.7998 8.37578 16.6248 8.52578 16.4748C8.67578 16.3248 8.85078 16.254 9.05078 16.2623C9.25078 16.2706 9.42578 16.3415 9.57578 16.4748L11.2508 18.1248Z" fill="#2C2E25"/>
</svg>
