<svg width="24" height="24" viewBox="0 0 24 24" fill="none" xmlns="http://www.w3.org/2000/svg">
<path d="M20.5008 8.575L15.3508 13.7C14.8174 14.2333 14.1674 14.5 13.4008 14.5C12.6341 14.5 11.9841 14.2333 11.4508 13.7L10.2758 12.525C10.0424 12.2917 9.75078 12.175 9.40078 12.175C9.05078 12.175 8.75911 12.2917 8.52578 12.525L3.57578 17.475C3.42578 17.625 3.25078 17.7 3.05078 17.7C2.85078 17.7 2.67578 17.625 2.52578 17.475C2.37578 17.325 2.30078 17.15 2.30078 16.95C2.30078 16.75 2.37578 16.575 2.52578 16.425L7.47578 11.475C8.00911 10.9417 8.65911 10.675 9.42578 10.675C10.1924 10.675 10.8424 10.9417 11.3758 11.475L12.5258 12.625C12.7758 12.875 13.0716 13 13.4133 13C13.7549 13 14.0508 12.875 14.3008 12.625L19.4258 7.5H17.2508C17.0341 7.5 16.8549 7.42917 16.7133 7.2875C16.5716 7.14583 16.5008 6.96667 16.5008 6.75C16.5008 6.53333 16.5716 6.35417 16.7133 6.2125C16.8549 6.07083 17.0341 6 17.2508 6H21.2508C21.4674 6 21.6466 6.07083 21.7883 6.2125C21.9299 6.35417 22.0008 6.53333 22.0008 6.75V10.75C22.0008 10.9667 21.9299 11.1458 21.7883 11.2875C21.6466 11.4292 21.4674 11.5 21.2508 11.5C21.0341 11.5 20.8549 11.4292 20.7133 11.2875C20.5716 11.1458 20.5008 10.9667 20.5008 10.75V8.575Z" fill="#1C1B1F"/>
</svg>
