<svg width="14" height="14" viewBox="0 0 14 14" fill="none" xmlns="http://www.w3.org/2000/svg">
<path d="M7.00065 12.8337C6.19371 12.8337 5.50586 12.5493 4.93711 11.9805C4.36836 11.4118 4.08398 10.7239 4.08398 9.91699C4.08398 9.42116 4.19579 8.95449 4.4194 8.51699C4.64301 8.07949 4.97357 7.7538 5.41107 7.53991V2.75658C5.41107 2.31499 5.5656 1.93967 5.87467 1.6306C6.18374 1.32153 6.55907 1.16699 7.00065 1.16699C7.44223 1.16699 7.81756 1.32153 8.12663 1.6306C8.4357 1.93967 8.59023 2.31499 8.59023 2.75658V7.53991C9.02773 7.7538 9.35829 8.07949 9.5819 8.51699C9.80551 8.95449 9.91732 9.42116 9.91732 9.91699C9.91732 10.7239 9.63294 11.4118 9.06419 11.9805C8.49544 12.5493 7.8076 12.8337 7.00065 12.8337ZM6.28607 6.48991H7.71523V5.71699H7.00065V5.14824H7.71523V3.87949H7.00065V3.31803H7.71523V2.75658C7.71523 2.55406 7.6466 2.38436 7.50932 2.24747C7.37194 2.11049 7.2018 2.04199 6.9989 2.04199C6.7959 2.04199 6.62635 2.11049 6.49023 2.24747C6.35412 2.38436 6.28607 2.55406 6.28607 2.75658V6.48991Z" fill="#FFF7EE"/>
</svg>
