<svg width="32" height="32" viewBox="0 0 32 32" fill="none" xmlns="http://www.w3.org/2000/svg">
<path d="M14.338 20.1892C14.433 20.1953 14.5158 20.2402 14.5869 20.3245L18.8679 25.7964C18.948 25.8997 18.9143 25.9871 18.7961 25.9988C18.7882 25.9995 18.7799 25.9999 18.7713 26L11.8902 25.9959C11.7316 25.9875 11.6213 25.9094 11.5592 25.7615L10.1378 21.8152C10.1158 21.7496 10.1185 21.6841 10.1489 21.6214C10.1792 21.5587 10.2274 21.5154 10.2921 21.4917L14.2009 20.2046C14.2299 20.1967 14.2579 20.1917 14.2851 20.1896C14.3031 20.1882 14.3207 20.1881 14.338 20.1892Z" fill="#FF850F"/>
<path d="M25.9126 16.8232C25.9854 16.8289 26.019 16.8943 25.9891 16.9957L23.8589 23.66C23.8038 23.8106 23.6962 23.893 23.5376 23.9069L19.4138 24.0658C19.4052 24.066 19.3968 24.0658 19.3885 24.0651C19.3303 24.0609 19.2794 24.0375 19.236 23.9947C19.1864 23.946 19.1602 23.8874 19.1602 23.8177L19.1657 19.6327C19.174 19.4724 19.2498 19.3608 19.3959 19.2966L25.8278 16.8382C25.8438 16.8321 25.859 16.8278 25.8731 16.8254C25.8873 16.8229 25.9005 16.8222 25.9126 16.8232Z" fill="#FF850F"/>
<path d="M9.56289 12.0844C9.63045 12.0941 9.68566 12.1262 9.72702 12.182L12.1371 15.5706C12.1807 15.6385 12.2026 15.7068 12.2035 15.7754C12.2046 15.8439 12.1848 15.9128 12.144 15.982L8.36067 21.8208C8.35104 21.8352 8.34105 21.8476 8.33092 21.8581C8.25951 21.9332 8.17899 21.9096 8.14013 21.7942V21.7915L6.01683 15.1243C5.97411 14.9696 6.01272 14.8385 6.13262 14.7312L9.37816 12.1331C9.41954 12.1017 9.46406 12.0846 9.5128 12.0821C9.52902 12.0812 9.54569 12.0819 9.56289 12.0844Z" fill="#FF850F"/>
<path d="M19.7343 7.18623C19.7582 7.19085 19.7846 7.20294 19.8125 7.22313L25.3771 11.3453C25.5012 11.4471 25.5453 11.5755 25.5108 11.733L24.3844 15.7784C24.3637 15.8453 24.3237 15.8941 24.2631 15.9275C24.2335 15.9436 24.2028 15.9534 24.1713 15.9567C24.1555 15.9583 24.1395 15.9584 24.1233 15.9568C24.1071 15.9552 24.0907 15.952 24.0742 15.9471L20.1682 14.6474C20.04 14.6042 19.9298 14.4578 19.9256 14.3198L19.6167 7.33058C19.6142 7.24339 19.6477 7.19164 19.7005 7.18486C19.711 7.18351 19.7223 7.18392 19.7343 7.18623Z" fill="#FF850F"/>
<path d="M14.3473 6.06859C14.4796 5.97936 14.6147 5.97788 14.7498 6.06015L18.1773 8.4015C18.2903 8.48099 18.3193 8.64 18.2407 8.75435L15.8197 12.1346C15.7204 12.2601 15.5922 12.3061 15.4364 12.2699L8.81576 10.4081C8.68478 10.3691 8.66682 10.2687 8.77712 10.1851L14.3458 6.06859H14.3473Z" fill="#FF850F"/>
</svg>
