<svg width="24" height="24" viewBox="0 0 24 24" fill="none" xmlns="http://www.w3.org/2000/svg">
<path d="M2.74775 18C2.26592 18 1.85417 17.8284 1.5125 17.4853C1.17083 17.1421 1 16.7296 1 16.2478C1 15.7659 1.17075 15.3542 1.51225 15.0125C1.85392 14.6708 2.26458 14.5 2.74425 14.5C2.83142 14.5 2.91667 14.5042 3 14.5125C3.08333 14.5208 3.19167 14.5417 3.325 14.575L8.325 9.575C8.29167 9.44167 8.27083 9.33333 8.2625 9.25C8.25417 9.16667 8.25 9.08142 8.25 8.99425C8.25 8.51458 8.42158 8.10392 8.76475 7.76225C9.10792 7.42075 9.52042 7.25 10.0022 7.25C10.4841 7.25 10.8958 7.42192 11.2375 7.76575C11.5792 8.10975 11.75 8.52317 11.75 9.006C11.75 9.03533 11.725 9.225 11.675 9.575L14.425 12.325C14.5583 12.2917 14.6667 12.2708 14.75 12.2625C14.8333 12.2542 14.9167 12.25 15 12.25C15.0833 12.25 15.1667 12.2542 15.25 12.2625C15.3333 12.2708 15.4417 12.2917 15.575 12.325L19.575 8.325C19.5417 8.19167 19.5208 8.08333 19.5125 8C19.5042 7.91667 19.5 7.83142 19.5 7.74425C19.5 7.26458 19.6716 6.85392 20.0148 6.51225C20.3579 6.17075 20.7704 6 21.2523 6C21.7341 6 22.1458 6.17158 22.4875 6.51475C22.8292 6.85792 23 7.27042 23 7.75225C23 8.23408 22.8293 8.64583 22.4878 8.9875C22.1461 9.32917 21.7354 9.5 21.2558 9.5C21.1686 9.5 21.0833 9.49583 21 9.4875C20.9167 9.47917 20.8083 9.45833 20.675 9.425L16.675 13.425C16.7083 13.5583 16.7292 13.6667 16.7375 13.75C16.7458 13.8333 16.75 13.9186 16.75 14.0058C16.75 14.4854 16.5784 14.8961 16.2352 15.2378C15.8921 15.5793 15.4796 15.75 14.9977 15.75C14.5159 15.75 14.1042 15.5793 13.7625 15.2378C13.4208 14.8961 13.25 14.4854 13.25 14.0058C13.25 13.9186 13.2542 13.8333 13.2625 13.75C13.2708 13.6667 13.2917 13.5583 13.325 13.425L10.575 10.675C10.4417 10.7083 10.3333 10.7292 10.25 10.7375C10.1667 10.7458 10.0813 10.75 9.99375 10.75C9.96458 10.75 9.775 10.725 9.425 10.675L4.425 15.675C4.45833 15.8083 4.47917 15.9167 4.4875 16C4.49583 16.0833 4.5 16.1686 4.5 16.2558C4.5 16.7354 4.32842 17.1461 3.98525 17.4878C3.64208 17.8293 3.22958 18 2.74775 18Z" fill="#1C1B1F"/>
</svg>
