<svg width="14" height="14" viewBox="0 0 14 14" fill="none" xmlns="http://www.w3.org/2000/svg">
<path d="M6.16922 10.6602H2.58172C2.40672 10.6602 2.27547 10.5824 2.18797 10.4269C2.10047 10.2713 2.11019 10.1206 2.21714 9.9748L4.50672 6.66439H3.96714C3.79214 6.66439 3.66089 6.58661 3.57339 6.43105C3.48589 6.2755 3.49561 6.1248 3.60255 5.97897L6.63589 1.67689C6.6845 1.61855 6.7404 1.57237 6.80359 1.53835C6.86679 1.50432 6.93241 1.4873 7.00047 1.4873C7.06852 1.4873 7.13415 1.50432 7.19734 1.53835C7.26054 1.57237 7.31644 1.61855 7.36505 1.67689L10.3984 5.97897C10.5053 6.1248 10.5151 6.2755 10.4276 6.43105C10.3401 6.58661 10.2088 6.66439 10.0338 6.66439H9.5088L11.7838 9.9748C11.8907 10.1206 11.9005 10.2713 11.813 10.4269C11.7255 10.5824 11.5942 10.6602 11.4192 10.6602H7.8463V12.3956C7.8463 12.522 7.80498 12.6265 7.72234 12.7092C7.63971 12.7918 7.53519 12.8331 7.4088 12.8331H6.60672C6.48033 12.8331 6.37582 12.7918 6.29318 12.7092C6.21054 12.6265 6.16922 12.522 6.16922 12.3956V10.6602ZM3.44214 9.78522H6.19839H4.88589H9.11505H7.81714H10.5734H3.44214ZM3.44214 9.78522H10.5734L7.81714 5.78939H9.11505L7.00047 2.78522L4.88589 5.78939H6.19839L3.44214 9.78522Z" fill="#FFF7EE"/>
</svg>
