<svg width="24" height="24" viewBox="0 0 24 24" fill="none" xmlns="http://www.w3.org/2000/svg">
<path d="M4.5 21C4.0875 21 3.73442 20.8531 3.44075 20.5592C3.14692 20.2656 3 19.9125 3 19.5V4.5C3 4.0875 3.14692 3.73433 3.44075 3.4405C3.73442 3.14683 4.0875 3 4.5 3H19.5C19.9125 3 20.2657 3.14683 20.5595 3.4405C20.8532 3.73433 21 4.0875 21 4.5V7.85H19.5V4.5H4.5V19.5H19.5V16.175H21V19.5C21 19.9125 20.8532 20.2656 20.5595 20.5592C20.2657 20.8531 19.9125 21 19.5 21H4.5ZM13.45 16.675C12.9413 16.675 12.5058 16.4963 12.1435 16.139C11.7812 15.7815 11.6 15.3518 11.6 14.85V9.175C11.6 8.67317 11.7812 8.2435 12.1435 7.886C12.5058 7.52867 12.9413 7.35 13.45 7.35H20.2C20.7088 7.35 21.1443 7.52867 21.5065 7.886C21.8688 8.2435 22.05 8.67317 22.05 9.175V14.85C22.05 15.3518 21.8688 15.7815 21.5065 16.139C21.1443 16.4963 20.7088 16.675 20.2 16.675H13.45ZM20.55 15.175V8.85H13.1V15.175H20.55ZM16.306 13.6C16.752 13.6 17.1292 13.442 17.4375 13.126C17.7458 12.81 17.9 12.4263 17.9 11.975C17.9 11.5375 17.7417 11.1656 17.425 10.8593C17.1083 10.5531 16.7333 10.4 16.3 10.4C15.8667 10.4 15.4917 10.5531 15.175 10.8593C14.8583 11.1656 14.7 11.5375 14.7 11.975C14.7 12.4263 14.8562 12.81 15.1685 13.126C15.4807 13.442 15.8598 13.6 16.306 13.6Z" fill="#2C2E25"/>
</svg>
