<svg width="48" height="48" viewBox="0 0 48 48" fill="none" xmlns="http://www.w3.org/2000/svg">
<path d="M21.1494 36.5496H8.84938C8.24937 36.5496 7.79937 36.2829 7.49938 35.7496C7.19937 35.2163 7.23271 34.6996 7.59938 34.1996L15.4494 22.8496H13.5994C12.9994 22.8496 12.5494 22.5829 12.2494 22.0496C11.9494 21.5163 11.9827 20.9996 12.3494 20.4996L22.7494 5.74961C22.916 5.54961 23.1077 5.39128 23.3244 5.27461C23.541 5.15794 23.766 5.09961 23.9994 5.09961C24.2327 5.09961 24.4577 5.15794 24.6744 5.27461C24.891 5.39128 25.0827 5.54961 25.2494 5.74961L35.6494 20.4996C36.016 20.9996 36.0494 21.5163 35.7494 22.0496C35.4494 22.5829 34.9994 22.8496 34.3994 22.8496H32.5994L40.3994 34.1996C40.766 34.6996 40.7994 35.2163 40.4994 35.7496C40.1994 36.2829 39.7494 36.5496 39.1494 36.5496H26.8994V42.4996C26.8994 42.9329 26.7577 43.2913 26.4744 43.5746C26.191 43.8579 25.8327 43.9996 25.3994 43.9996H22.6494C22.216 43.9996 21.8577 43.8579 21.5744 43.5746C21.291 43.2913 21.1494 42.9329 21.1494 42.4996V36.5496ZM11.7994 33.5496H21.2494H16.7494H31.2494H26.7994H36.2494H11.7994ZM11.7994 33.5496H36.2494L26.7994 19.8496H31.2494L23.9994 9.54961L16.7494 19.8496H21.2494L11.7994 33.5496Z" fill="#FFF7EE"/>
</svg>
