<svg width="24" height="24" viewBox="0 0 24 24" fill="none" xmlns="http://www.w3.org/2000/svg">
<path d="M6 19.9998C5.7875 19.9998 5.60942 19.9279 5.46575 19.7841C5.32192 19.6404 5.25 19.4623 5.25 19.2498V15.7498H3.75C3.55 15.7498 3.375 15.6779 3.225 15.5341C3.075 15.3904 3 15.2123 3 14.9998C3 14.7873 3.07083 14.6091 3.2125 14.4653C3.35417 14.3216 3.53333 14.2498 3.75 14.2498H5.25V11.7498H3.75C3.55 11.7498 3.375 11.6779 3.225 11.5341C3.075 11.3904 3 11.2123 3 10.9998C3 10.7873 3.07083 10.6091 3.2125 10.4653C3.35417 10.3216 3.53333 10.2498 3.75 10.2498H5.25V7.0748C5.25 6.9763 5.26667 6.8808 5.3 6.7883C5.33333 6.69597 5.39167 6.60814 5.475 6.5248L7.475 4.5248C7.625 4.3748 7.8 4.2998 8 4.2998C8.2 4.2998 8.375 4.3748 8.525 4.5248L10 5.9998L11.475 4.5248C11.6262 4.3748 11.8056 4.2998 12.0133 4.2998C12.2211 4.2998 12.4 4.3748 12.55 4.5248L14.025 5.9998L15.475 4.5248C15.6262 4.3748 15.8056 4.2998 16.0133 4.2998C16.2211 4.2998 16.4 4.3748 16.55 4.5248L18.55 6.5248C18.6333 6.60814 18.6917 6.69597 18.725 6.7883C18.7583 6.8808 18.775 6.9763 18.775 7.0748V10.2498H20.25C20.4625 10.2498 20.6407 10.3221 20.7845 10.4668C20.9282 10.6113 21 10.7905 21 11.0043C21 11.218 20.9282 11.3956 20.7845 11.5373C20.6407 11.679 20.4625 11.7498 20.25 11.7498H18.775V14.2498H20.25C20.4625 14.2498 20.6407 14.3221 20.7845 14.4668C20.9282 14.6113 21 14.7905 21 15.0043C21 15.218 20.9282 15.3956 20.7845 15.5373C20.6407 15.679 20.4625 15.7498 20.25 15.7498H18.775V19.2498C18.775 19.4623 18.7032 19.6404 18.5595 19.7841C18.4157 19.9279 18.2375 19.9998 18.025 19.9998H6ZM6.75 10.2498H9.25V7.3748L8 6.1248L6.75 7.3748V10.2498ZM10.75 10.2498H13.25V7.3748L12 6.1248L10.75 7.3748V10.2498ZM14.775 10.2498H17.25V7.3748L16 6.1248L14.775 7.3498V10.2498ZM6.75 14.2498H9.25V11.7498H6.75V14.2498ZM10.75 14.2498H13.25V11.7498H10.75V14.2498ZM14.775 14.2498H17.25V11.7498H14.775V14.2498ZM6.75 18.4998H9.25V15.7498H6.75V18.4998ZM10.75 18.4998H13.25V15.7498H10.75V18.4998ZM14.775 18.4998H17.25V15.7498H14.775V18.4998Z" fill="#2C2E25"/>
</svg>
