<svg width="24" height="24" viewBox="0 0 24 24" fill="none" xmlns="http://www.w3.org/2000/svg">
<mask id="mask0_8026_302396" style="mask-type:alpha" maskUnits="userSpaceOnUse" x="0" y="0" width="24" height="24">
<rect width="24" height="24" fill="#D9D9D9"/>
</mask>
<g mask="url(#mask0_8026_302396)">
<path d="M5 18.9V20C5 20.2778 4.90217 20.5139 4.7065 20.7083C4.511 20.9028 4.2735 21 3.994 21C3.71467 21 3.47917 20.9028 3.2875 20.7083C3.09583 20.5139 3 20.2778 3 20V12.4C3 12.3222 3.00417 12.2444 3.0125 12.1668C3.02083 12.0889 3.04167 12.0083 3.075 11.925L5.025 6.025C5.125 5.70833 5.30625 5.45833 5.56875 5.275C5.83125 5.09167 6.125 5 6.45 5H17.55C17.875 5 18.1688 5.09167 18.4313 5.275C18.6938 5.45833 18.875 5.70833 18.975 6.025L20.925 11.925C20.9583 12.0083 20.9792 12.0889 20.9875 12.1668C20.9958 12.2444 21 12.3222 21 12.4V20C21 20.2778 20.9022 20.5139 20.7065 20.7083C20.511 20.9028 20.2735 21 19.994 21C19.7147 21 19.4792 20.9028 19.2875 20.7083C19.0958 20.5139 19 20.2778 19 20V18.9H5ZM5.075 10.65H18.925L17.55 6.5H6.45L5.075 10.65ZM7.144 16.15C7.53133 16.15 7.85417 16.0188 8.1125 15.7563C8.37083 15.4938 8.5 15.175 8.5 14.8C8.5 14.4112 8.36875 14.0806 8.10625 13.8082C7.84375 13.5361 7.525 13.4 7.15 13.4C6.76117 13.4 6.43058 13.5355 6.15825 13.8065C5.88608 14.0777 5.75 14.4068 5.75 14.794C5.75 15.1813 5.8855 15.5042 6.1565 15.7625C6.42767 16.0208 6.75683 16.15 7.144 16.15ZM16.875 16.15C17.2638 16.15 17.5944 16.0188 17.8667 15.7563C18.1389 15.4938 18.275 15.175 18.275 14.8C18.275 14.4112 18.1395 14.0806 17.8685 13.8082C17.5973 13.5361 17.2682 13.4 16.881 13.4C16.4937 13.4 16.1708 13.5355 15.9125 13.8065C15.6542 14.0777 15.525 14.4068 15.525 14.794C15.525 15.1813 15.6562 15.5042 15.9187 15.7625C16.1812 16.0208 16.5 16.15 16.875 16.15ZM4.5 17.4H19.5V12.15H4.5V17.4Z" fill="#2C2E25"/>
</g>
</svg>
