<svg width="48" height="48" viewBox="0 0 48 48" fill="none" xmlns="http://www.w3.org/2000/svg">
<path d="M8.493 23.75C7.231 23.75 6.16667 23.3143 5.3 22.443C4.43333 21.5717 4 20.505 4 19.243C4 17.981 4.43567 16.9167 5.307 16.05C6.17833 15.1833 7.245 14.75 8.507 14.75C9.769 14.75 10.8333 15.1857 11.7 16.057C12.5667 16.9283 13 17.995 13 19.257C13 20.519 12.5643 21.5833 11.693 22.45C10.8217 23.3167 9.755 23.75 8.493 23.75ZM17.743 15.25C16.481 15.25 15.4167 14.8143 14.55 13.943C13.6833 13.0717 13.25 12.005 13.25 10.743C13.25 9.481 13.6857 8.41667 14.557 7.55C15.4283 6.68333 16.495 6.25 17.757 6.25C19.019 6.25 20.0833 6.68567 20.95 7.557C21.8167 8.42833 22.25 9.495 22.25 10.757C22.25 12.019 21.8143 13.0833 20.943 13.95C20.0717 14.8167 19.005 15.25 17.743 15.25ZM30.243 15.25C28.981 15.25 27.9167 14.8143 27.05 13.943C26.1833 13.0717 25.75 12.005 25.75 10.743C25.75 9.481 26.1857 8.41667 27.057 7.55C27.9283 6.68333 28.995 6.25 30.257 6.25C31.519 6.25 32.5833 6.68567 33.45 7.557C34.3167 8.42833 34.75 9.495 34.75 10.757C34.75 12.019 34.3143 13.0833 33.443 13.95C32.5717 14.8167 31.505 15.25 30.243 15.25ZM39.493 23.75C38.231 23.75 37.1667 23.3143 36.3 22.443C35.4333 21.5717 35 20.505 35 19.243C35 17.981 35.4357 16.9167 36.307 16.05C37.1783 15.1833 38.245 14.75 39.507 14.75C40.769 14.75 41.8333 15.1857 42.7 16.057C43.5667 16.9283 44 17.995 44 19.257C44 20.519 43.5643 21.5833 42.693 22.45C41.8217 23.3167 40.755 23.75 39.493 23.75ZM13.3 44.25C11.9 44.25 10.75 43.7245 9.85 42.6735C8.95 41.6228 8.5 40.3817 8.5 38.95C8.5 37.55 8.925 36.3083 9.775 35.225C10.625 34.1417 11.5333 33.1 12.5 32.1C13.2333 31.3667 13.9167 30.5917 14.55 29.775C15.1833 28.9583 15.7833 28.1167 16.35 27.25C17.3167 25.7833 18.4 24.4167 19.6 23.15C20.8 21.8833 22.2667 21.25 24 21.25C25.7333 21.25 27.2083 21.8833 28.425 23.15C29.6417 24.4167 30.7333 25.8 31.7 27.3C32.2667 28.1667 32.8583 29 33.475 29.8C34.0917 30.6 34.7667 31.3667 35.5 32.1C36.4667 33.1 37.375 34.1417 38.225 35.225C39.075 36.3083 39.5 37.55 39.5 38.95C39.5 40.3817 39.05 41.6228 38.15 42.6735C37.25 43.7245 36.1 44.25 34.7 44.25C32.9 44.25 31.1167 44.1 29.35 43.8C27.5833 43.5 25.8 43.35 24 43.35C22.2 43.35 20.4167 43.5 18.65 43.8C16.8833 44.1 15.1 44.25 13.3 44.25Z" fill="#FFF7EE"/>
</svg>
