<svg width="24" height="24" viewBox="0 0 24 24" fill="none" xmlns="http://www.w3.org/2000/svg">
<path d="M16.325 6.225C16.525 6.225 16.7 6.15 16.85 6C17 5.85 17.075 5.675 17.075 5.475C17.075 5.275 17 5.1 16.85 4.95C16.7 4.8 16.525 4.725 16.325 4.725C16.125 4.725 15.95 4.8 15.8 4.95C15.65 5.1 15.575 5.275 15.575 5.475C15.575 5.675 15.65 5.85 15.8 6C15.95 6.15 16.125 6.225 16.325 6.225ZM12 6.225C12.2 6.225 12.375 6.15 12.525 6C12.675 5.85 12.75 5.675 12.75 5.475C12.75 5.275 12.675 5.1 12.525 4.95C12.375 4.8 12.2 4.725 12 4.725C11.8 4.725 11.625 4.8 11.475 4.95C11.325 5.1 11.25 5.275 11.25 5.475C11.25 5.675 11.325 5.85 11.475 6C11.625 6.15 11.8 6.225 12 6.225ZM7.675 6.225C7.875 6.225 8.05 6.15 8.2 6C8.35 5.85 8.425 5.675 8.425 5.475C8.425 5.275 8.35 5.1 8.2 4.95C8.05 4.8 7.875 4.725 7.675 4.725C7.475 4.725 7.3 4.8 7.15 4.95C7 5.1 6.925 5.275 6.925 5.475C6.925 5.675 7 5.85 7.15 6C7.3 6.15 7.475 6.225 7.675 6.225ZM4.5 8.475V19.5H19.5V8.475H4.5ZM10.45 12.225H13.575C13.7875 12.225 13.9657 12.1527 14.1095 12.008C14.2532 11.8635 14.325 11.6843 14.325 11.4705C14.325 11.2568 14.2532 11.0792 14.1095 10.9375C13.9657 10.7958 13.7875 10.725 13.575 10.725H10.45C10.2375 10.725 10.0594 10.7973 9.91575 10.942C9.77192 11.0865 9.7 11.2657 9.7 11.4795C9.7 11.6932 9.77192 11.8708 9.91575 12.0125C10.0594 12.1542 10.2375 12.225 10.45 12.225ZM4.5 21C4.1 21 3.75 20.85 3.45 20.55C3.15 20.25 3 19.9 3 19.5V4.5C3 4.1 3.15 3.75 3.45 3.45C3.75 3.15 4.1 3 4.5 3H19.5C19.9 3 20.25 3.15 20.55 3.45C20.85 3.75 21 4.1 21 4.5V19.5C21 19.9 20.85 20.25 20.55 20.55C20.25 20.85 19.9 21 19.5 21H4.5Z" fill="#2C2E25"/>
</svg>
