<svg width="24" height="24" viewBox="0 0 24 24" fill="none" xmlns="http://www.w3.org/2000/svg">
<path d="M10.9991 20.975L4.0491 14.125C3.76576 13.8417 3.61576 13.5125 3.5991 13.1375C3.58243 12.7625 3.6991 12.425 3.9491 12.125L7.5491 7.725C7.68243 7.548 7.8491 7.41208 8.0491 7.31725C8.2491 7.22242 8.46576 7.175 8.6991 7.175H15.3741C15.6074 7.175 15.8241 7.22242 16.0241 7.31725C16.2241 7.41208 16.3908 7.548 16.5241 7.725L20.1491 12.125C20.3991 12.425 20.5158 12.7667 20.4991 13.15C20.4824 13.5333 20.3324 13.8667 20.0491 14.15L13.0991 20.975C12.8106 21.2583 12.4593 21.4 12.0451 21.4C11.6311 21.4 11.2824 21.2583 10.9991 20.975ZM3.0491 4.175C3.1991 4.025 3.38243 3.95 3.5991 3.95C3.81576 3.95 3.9991 4.025 4.1491 4.175L4.8491 4.9C4.98243 5.05 5.05326 5.225 5.0616 5.425C5.06993 5.625 4.9991 5.8 4.8491 5.95C4.71576 6.08333 4.54493 6.15417 4.3366 6.1625C4.12826 6.17083 3.9491 6.10833 3.7991 5.975L3.0741 5.25C2.9241 5.1 2.84493 4.92083 2.8366 4.7125C2.82826 4.50417 2.8991 4.325 3.0491 4.175ZM12.0536 2C12.2673 2 12.4449 2.07183 12.5866 2.2155C12.7283 2.35933 12.7991 2.5375 12.7991 2.75V3.775C12.7991 3.9875 12.7268 4.16558 12.5821 4.30925C12.4376 4.45308 12.2584 4.525 12.0446 4.525C11.8309 4.525 11.6533 4.45308 11.5116 4.30925C11.3699 4.16558 11.2991 3.9875 11.2991 3.775V2.75C11.2991 2.5375 11.3714 2.35933 11.5161 2.2155C11.6606 2.07183 11.8398 2 12.0536 2ZM20.9708 4.18025C21.123 4.33392 21.1949 4.51308 21.1866 4.71775C21.1783 4.92258 21.0991 5.1 20.9491 5.25L20.2241 5.975C20.0741 6.10833 19.8991 6.175 19.6991 6.175C19.4991 6.175 19.3241 6.10133 19.1741 5.954C19.0241 5.80667 18.9491 5.63167 18.9491 5.429C18.9491 5.22633 19.0241 5.05 19.1741 4.9L19.8991 4.175C20.0503 4.025 20.2297 3.95 20.4373 3.95C20.6452 3.95 20.823 4.02675 20.9708 4.18025ZM5.8991 13.85L12.0491 19.9L18.1991 13.85H5.8991ZM5.6991 12.35H18.3991L15.3741 8.675H8.7241L5.6991 12.35Z" fill="#2C2E25"/>
</svg>
