<svg width="24" height="24" viewBox="0 0 24 24" fill="none" xmlns="http://www.w3.org/2000/svg">
<path d="M5.66669 12.0326C5.55169 12.1215 5.42852 12.1548 5.29719 12.1326C5.16574 12.1104 5.05557 12.0437 4.96669 11.9326C4.8778 11.8215 4.84413 11.6982 4.86569 11.5628C4.88735 11.4273 4.95435 11.3173 5.06669 11.2326L11.4 6.38262C11.4898 6.31595 11.5857 6.26595 11.6879 6.23262C11.7899 6.19928 11.8939 6.18262 12 6.18262C12.1061 6.18262 12.2102 6.19928 12.3122 6.23262C12.4143 6.26595 12.5102 6.31595 12.6 6.38262L14.9667 8.18262V7.43262C14.9667 7.20117 15.0479 7.0044 15.2104 6.84228C15.3728 6.68028 15.57 6.59928 15.802 6.59928C16.034 6.59928 16.2306 6.68028 16.3917 6.84228C16.5528 7.0044 16.6334 7.20117 16.6334 7.43262V9.46595L18.95 11.2326C19.0605 11.3173 19.1242 11.4273 19.1412 11.5628C19.1582 11.6982 19.1222 11.8215 19.0334 11.9326C18.9445 12.0437 18.8343 12.1104 18.7029 12.1326C18.5715 12.1548 18.4484 12.1215 18.3334 12.0326L12 7.18262L5.66669 12.0326Z" fill="#FFF7EE"/>
<path fill-rule="evenodd" clip-rule="evenodd" d="M12.4401 13.3382C12.9936 13.3382 13.4689 13.5254 13.862 13.9001C14.2573 14.2769 14.4531 14.772 14.4531 15.3779C14.4531 15.9804 14.2571 16.4732 13.862 16.8499C13.4689 17.2247 12.9937 17.4124 12.4401 17.4124C11.8899 17.4124 11.4165 17.2246 11.0234 16.8499C10.6282 16.4732 10.4323 15.9805 10.4323 15.3779C10.4323 14.772 10.6281 14.2769 11.0234 13.9001C11.4164 13.5255 11.89 13.3382 12.4401 13.3382ZM12.4401 14.1807C12.1409 14.1807 11.8814 14.2841 11.6589 14.4932C11.4412 14.6943 11.3281 14.9844 11.3281 15.3727C11.3281 15.7605 11.4406 16.052 11.6582 16.2568C11.8807 16.4624 12.1406 16.5648 12.4401 16.5648C12.7054 16.5648 12.9383 16.4862 13.1413 16.3291L13.2266 16.2568C13.4444 16.052 13.5573 15.7607 13.5573 15.3727C13.5573 14.9844 13.4442 14.695 13.2266 14.4938C13.0042 14.2849 12.743 14.1807 12.4401 14.1807ZM11.7031 16.3825C11.7122 16.3895 11.722 16.3953 11.7311 16.402C11.7179 16.3923 11.7044 16.383 11.6914 16.3727L11.7031 16.3825Z" fill="#FFF7EE"/>
<path d="M7.20247 13.4176C7.38643 13.4177 7.53564 13.567 7.53581 13.751V14.9378H9.05013V13.751C9.0503 13.5671 9.1996 13.4178 9.38346 13.4176H9.5918C9.77576 13.4177 9.92496 13.567 9.92513 13.751V16.999C9.92513 17.1831 9.77587 17.3323 9.5918 17.3324H9.38346C9.1995 17.3322 9.05013 17.183 9.05013 16.999V15.7646H7.53581V16.999C7.53581 17.1831 7.38654 17.3323 7.20247 17.3324H7C6.8159 17.3324 6.66667 17.1831 6.66667 16.999V13.751C6.66684 13.567 6.81601 13.4176 7 13.4176H7.20247Z" fill="#FFF7EE"/>
<path fill-rule="evenodd" clip-rule="evenodd" d="M16.5378 13.4176C16.7037 13.4176 16.853 13.5204 16.9121 13.6755L18.1322 16.8805L18.1452 16.9215C18.1952 17.127 18.0398 17.3323 17.821 17.3324H17.6413C17.4941 17.3324 17.3606 17.252 17.291 17.126L17.265 17.0693L17.0462 16.4684H15.6042L15.3848 17.0693C15.3272 17.2273 15.1772 17.3323 15.0091 17.3324H14.8516C14.6178 17.3323 14.4567 17.0981 14.5404 16.8799L15.7702 13.6748L15.7962 13.6195C15.8666 13.4962 15.9989 13.4176 16.1439 13.4176H16.5378ZM15.8978 15.6631H16.7526L16.3249 14.4945L15.8978 15.6631Z" fill="#FFF7EE"/>
</svg>
