<svg width="14" height="14" viewBox="0 0 14 14" fill="none" xmlns="http://www.w3.org/2000/svg">
<path d="M5.20625 12.25C5.08229 12.25 4.97841 12.208 4.8946 12.1241C4.8107 12.0403 4.76875 11.9365 4.76875 11.8125V9.23125H2.1875C2.06354 9.23125 1.95966 9.1893 1.87585 9.1054C1.79195 9.02159 1.75 8.91771 1.75 8.79375V5.19167C1.75 5.06771 1.79195 4.96378 1.87585 4.87987C1.95966 4.79607 2.06354 4.75417 2.1875 4.75417H4.76875V2.1875C4.76875 2.06354 4.8107 1.95961 4.8946 1.87571C4.97841 1.7919 5.08229 1.75 5.20625 1.75H8.80833C8.93229 1.75 9.03622 1.7919 9.12012 1.87571C9.20393 1.95961 9.24583 2.06354 9.24583 2.1875V4.75417H11.8125C11.9365 4.75417 12.0404 4.79607 12.1243 4.87987C12.2081 4.96378 12.25 5.06771 12.25 5.19167V8.79375C12.25 8.91771 12.2081 9.02159 12.1243 9.1054C12.0404 9.1893 11.9365 9.23125 11.8125 9.23125H9.24583V11.8125C9.24583 11.9365 9.20393 12.0403 9.12012 12.1241C9.03622 12.208 8.93229 12.25 8.80833 12.25H5.20625ZM5.64375 11.375H8.37083V8.35625H11.375V5.62917H8.37083V2.625H5.64375V5.62917H2.625V8.35625H5.64375V11.375Z" fill="#FFF7EE"/>
</svg>
