<svg width="32" height="32" viewBox="0 0 32 32" fill="none" xmlns="http://www.w3.org/2000/svg">
<path d="M23.8878 16.3332C23.8878 12.1604 20.5051 8.77767 16.3322 8.77767C12.1594 8.77767 8.77669 12.1604 8.77669 16.3332C8.77669 20.506 12.1594 23.8888 16.3322 23.8888C20.5051 23.8888 23.8878 20.506 23.8878 16.3332ZM25.2211 16.3332C25.2211 21.2424 21.2414 25.2221 16.3322 25.2221C11.4231 25.2221 7.44336 21.2424 7.44336 16.3332C7.44336 11.424 11.4231 7.44434 16.3322 7.44434C21.2414 7.44434 25.2211 11.424 25.2211 16.3332Z" fill="#2C2E25"/>
<path fill-rule="evenodd" clip-rule="evenodd" d="M18.0232 8.28526C21.753 9.06498 24.5545 12.3721 24.5545 16.3334C24.5544 20.5533 21.3752 24.0299 17.2815 24.5005C17.1014 24.1506 16.9989 23.7541 16.9989 23.3334V21.8243C16.9989 21.4919 16.7293 21.2223 16.3969 21.2223C16.1691 21.2224 15.9607 21.351 15.8587 21.5548L15.4199 22.4328C14.9766 23.3193 14.0732 23.8808 13.0831 23.8881C11.1622 23.0609 9.61986 21.5227 8.78711 19.6047C9.03299 19.2398 9.45027 19.0001 9.92339 19.0001C10.528 19.0001 11.0609 19.3967 11.2346 19.9758L11.4798 20.7931L11.4963 20.84C11.586 21.0689 11.8074 21.2223 12.0566 21.2223C12.3578 21.2223 12.6129 20.9995 12.6534 20.7011L13.6786 13.1381L13.7211 12.8703C14.1366 10.5995 15.8494 8.82859 18.0232 8.28526ZM16.11 13.889C15.6191 13.889 15.2211 14.287 15.2211 14.7779C15.2213 15.2687 15.6192 15.6668 16.11 15.6668C16.6009 15.6668 16.9988 15.2687 16.9989 14.7779C16.9989 14.287 16.6009 13.889 16.11 13.889Z" fill="#2C2E25"/>
</svg>
