<svg width="14" height="14" viewBox="0 0 14 14" fill="none" xmlns="http://www.w3.org/2000/svg">
<mask id="mask0_8019_261010" style="mask-type:alpha" maskUnits="userSpaceOnUse" x="0" y="0" width="14" height="14">
<rect width="14" height="14" fill="#D9D9D9"/>
</mask>
<g mask="url(#mask0_8019_261010)">
<path d="M5.17708 12.25C4.54514 12.25 4.01042 12.0287 3.57292 11.586C3.13542 11.1434 2.91667 10.6112 2.91667 9.98958V4.9C2.57639 4.77361 2.29688 4.57304 2.07812 4.29829C1.85938 4.02344 1.75 3.71034 1.75 3.35898C1.75 2.90855 1.90799 2.52778 2.22396 2.21667C2.53993 1.90556 2.9191 1.75 3.36146 1.75C3.80382 1.75 4.18056 1.90624 4.49167 2.21871C4.80278 2.53118 4.95833 2.91059 4.95833 3.35694C4.95833 3.70509 4.84896 4.01771 4.63021 4.29479C4.41146 4.57188 4.13194 4.77361 3.79167 4.9V9.98958C3.79167 10.3706 3.92535 10.6967 4.19271 10.968C4.46007 11.2393 4.79063 11.375 5.18438 11.375C5.57812 11.375 5.90625 11.2393 6.16875 10.968C6.43125 10.6967 6.5625 10.3706 6.5625 9.98958V4.01042C6.5625 3.37847 6.78125 2.84375 7.21875 2.40625C7.65625 1.96875 8.19097 1.75 8.82292 1.75C9.45486 1.75 9.98958 1.96875 10.4271 2.40625C10.8646 2.84375 11.0833 3.37847 11.0833 4.01042V9.1C11.4236 9.22639 11.7031 9.42744 11.9219 9.70317C12.1406 9.97899 12.25 10.2932 12.25 10.6458C12.25 11.0833 12.0941 11.4601 11.7822 11.776C11.4702 12.092 11.0914 12.25 10.6458 12.25C10.2083 12.25 9.8316 12.092 9.51562 11.776C9.19965 11.4601 9.04167 11.0833 9.04167 10.6458C9.04167 10.2929 9.15104 9.97621 9.36979 9.69573C9.58854 9.41524 9.86806 9.21667 10.2083 9.1V4.01042C10.2083 3.62153 10.0747 3.2934 9.80729 3.02604C9.53993 2.75868 9.21181 2.625 8.82292 2.625C8.43403 2.625 8.1059 2.75868 7.83854 3.02604C7.57118 3.2934 7.4375 3.62153 7.4375 4.01042V9.98958C7.4375 10.6112 7.21875 11.1434 6.78125 11.586C6.34375 12.0287 5.80903 12.25 5.17708 12.25ZM3.36146 4.08333C3.56076 4.08333 3.7309 4.01042 3.87188 3.86458C4.01285 3.71875 4.08333 3.54618 4.08333 3.34687C4.08333 3.14757 4.01348 2.97743 3.87377 2.83646C3.73397 2.69549 3.56076 2.625 3.35417 2.625C3.15972 2.625 2.98958 2.69485 2.84375 2.83456C2.69792 2.97437 2.625 3.14757 2.625 3.35417C2.625 3.54861 2.69792 3.71875 2.84375 3.86458C2.98958 4.01042 3.16215 4.08333 3.36146 4.08333ZM10.6531 11.375C10.8524 11.375 11.0226 11.3021 11.1635 11.1562C11.3045 11.0104 11.375 10.8378 11.375 10.6385C11.375 10.4392 11.3051 10.2691 11.1654 10.1281C11.0256 9.98715 10.8524 9.91667 10.6458 9.91667C10.4514 9.91667 10.2812 9.98652 10.1354 10.1262C9.98958 10.266 9.91667 10.4392 9.91667 10.6458C9.91667 10.8403 9.98958 11.0104 10.1354 11.1562C10.2812 11.3021 10.4538 11.375 10.6531 11.375Z" fill="#FFF7EE"/>
</g>
</svg>
