<svg width="24" height="24" viewBox="0 0 24 24" fill="none" xmlns="http://www.w3.org/2000/svg">
<path d="M4.5 21C4.1 21 3.75 20.85 3.45 20.55C3.15 20.25 3 19.9 3 19.5V4.5C3 4.1 3.15 3.75 3.45 3.45C3.75 3.15 4.1 3 4.5 3H19.5C19.9 3 20.25 3.15 20.55 3.45C20.85 3.75 21 4.1 21 4.5V19.5C21 19.9 20.85 20.25 20.55 20.55C20.25 20.85 19.9 21 19.5 21H4.5ZM4.5 11.75V19.5H19.5V11.75H16.75V16.75H7.25V11.75H4.5ZM8.75 15.25H15.25V11.75H8.75V15.25ZM4.5 10.25H19.5V4.5H4.5V10.25ZM7.9955 7.75C7.78183 7.75 7.60417 7.67767 7.4625 7.533C7.32083 7.3885 7.25 7.20933 7.25 6.9955C7.25 6.78183 7.32233 6.60417 7.467 6.4625C7.6115 6.32083 7.79067 6.25 8.0045 6.25C8.21817 6.25 8.39583 6.32233 8.5375 6.467C8.67917 6.6115 8.75 6.79067 8.75 7.0045C8.75 7.21817 8.67767 7.39583 8.533 7.5375C8.3885 7.67917 8.20933 7.75 7.9955 7.75ZM11.9955 7.75C11.7818 7.75 11.6042 7.67767 11.4625 7.533C11.3208 7.3885 11.25 7.20933 11.25 6.9955C11.25 6.78183 11.3223 6.60417 11.467 6.4625C11.6115 6.32083 11.7907 6.25 12.0045 6.25C12.2182 6.25 12.3958 6.32233 12.5375 6.467C12.6792 6.6115 12.75 6.79067 12.75 7.0045C12.75 7.21817 12.6777 7.39583 12.533 7.5375C12.3885 7.67917 12.2093 7.75 11.9955 7.75ZM15.9955 7.75C15.7818 7.75 15.6042 7.67767 15.4625 7.533C15.3208 7.3885 15.25 7.20933 15.25 6.9955C15.25 6.78183 15.3223 6.60417 15.467 6.4625C15.6115 6.32083 15.7907 6.25 16.0045 6.25C16.2182 6.25 16.3958 6.32233 16.5375 6.467C16.6792 6.6115 16.75 6.79067 16.75 7.0045C16.75 7.21817 16.6777 7.39583 16.533 7.5375C16.3885 7.67917 16.2093 7.75 15.9955 7.75Z" fill="#2C2E25"/>
</svg>
