<svg width="32" height="32" viewBox="0 0 32 32" fill="none" xmlns="http://www.w3.org/2000/svg">
<path d="M24.767 10.9663C24.1892 11.5441 23.5448 11.9719 22.8337 12.2497C22.1226 12.5275 21.3892 12.6663 20.6337 12.6663C19.8781 12.6663 19.1448 12.5275 18.4337 12.2497C17.7226 11.9719 17.0781 11.5441 16.5004 10.9663L14.0004 8.46634C13.6226 8.08856 13.2059 7.81079 12.7504 7.63301C12.2948 7.45523 11.8226 7.36634 11.3337 7.36634C10.8448 7.36634 10.3726 7.45523 9.91702 7.63301C9.46147 7.81079 9.0448 8.08856 8.66702 8.46634L7.10036 10.033C6.90036 10.233 6.66702 10.3275 6.40036 10.3163C6.13369 10.3052 5.90036 10.1997 5.70036 9.99967C5.50036 9.79967 5.40036 9.56079 5.40036 9.28301C5.40036 9.00523 5.50036 8.76634 5.70036 8.56634L7.23369 7.03301C7.81147 6.45523 8.45591 6.02745 9.16702 5.74967C9.87813 5.4719 10.6004 5.33301 11.3337 5.33301C12.067 5.33301 12.7837 5.4719 13.4837 5.74967C14.1837 6.02745 14.8226 6.45523 15.4004 7.03301L17.9004 9.53301C18.2781 9.91079 18.6948 10.1941 19.1504 10.383C19.6059 10.5719 20.0892 10.6663 20.6004 10.6663C21.1115 10.6663 21.6004 10.5719 22.067 10.383C22.5337 10.1941 22.9559 9.91079 23.3337 9.53301L24.9004 7.96634C25.1004 7.76634 25.3392 7.66634 25.617 7.66634C25.8948 7.66634 26.1337 7.76634 26.3337 7.96634C26.5337 8.16634 26.6337 8.40523 26.6337 8.68301C26.6337 8.96079 26.5337 9.19967 26.3337 9.39967L24.767 10.9663ZM24.767 17.9663C24.1892 18.5441 23.5448 18.9719 22.8337 19.2497C22.1226 19.5275 21.3892 19.6663 20.6337 19.6663C19.8781 19.6663 19.1448 19.5275 18.4337 19.2497C17.7226 18.9719 17.0781 18.5441 16.5004 17.9663L14.0004 15.4663C13.6226 15.0886 13.2059 14.8108 12.7504 14.633C12.2948 14.4552 11.8226 14.3663 11.3337 14.3663C10.8448 14.3663 10.3726 14.4552 9.91702 14.633C9.46147 14.8108 9.0448 15.0886 8.66702 15.4663L7.10036 17.033C6.90036 17.233 6.66702 17.333 6.40036 17.333C6.13369 17.333 5.90036 17.233 5.70036 17.033C5.50036 16.833 5.3948 16.5941 5.38369 16.3163C5.37258 16.0386 5.46702 15.7997 5.66702 15.5997L7.23369 14.033C7.81147 13.4552 8.45591 13.0275 9.16702 12.7497C9.87813 12.4719 10.6004 12.333 11.3337 12.333C12.067 12.333 12.7837 12.4719 13.4837 12.7497C14.1837 13.0275 14.8226 13.4552 15.4004 14.033L17.9004 16.533C18.2781 16.9108 18.7004 17.1941 19.167 17.383C19.6337 17.5719 20.1226 17.6663 20.6337 17.6663C21.1448 17.6663 21.6281 17.5719 22.0837 17.383C22.5392 17.1941 22.9559 16.9108 23.3337 16.533L24.9004 14.9663C25.1004 14.7663 25.3392 14.6663 25.617 14.6663C25.8948 14.6663 26.1337 14.7663 26.3337 14.9663C26.5337 15.1663 26.6337 15.4052 26.6337 15.683C26.6337 15.9608 26.5337 16.1997 26.3337 16.3997L24.767 17.9663ZM24.7337 24.9663C24.1559 25.5441 23.517 25.9719 22.817 26.2497C22.117 26.5275 21.3892 26.6663 20.6337 26.6663C19.8781 26.6663 19.1448 26.5275 18.4337 26.2497C17.7226 25.9719 17.0781 25.5441 16.5004 24.9663L13.967 22.4663C13.5892 22.0886 13.1726 21.8108 12.717 21.633C12.2615 21.4552 11.7892 21.3663 11.3004 21.3663C10.8115 21.3663 10.3392 21.4552 9.88369 21.633C9.42813 21.8108 9.01147 22.0886 8.63369 22.4663L7.06702 24.033C6.86702 24.233 6.63369 24.333 6.36702 24.333C6.10036 24.333 5.86702 24.233 5.66702 24.033C5.46702 23.833 5.37258 23.5997 5.38369 23.333C5.3948 23.0663 5.48925 22.833 5.66702 22.633L7.23369 21.033C7.81147 20.4552 8.45036 20.0275 9.15036 19.7497C9.85036 19.4719 10.567 19.333 11.3004 19.333C12.0337 19.333 12.7559 19.4719 13.467 19.7497C14.1781 20.0275 14.8226 20.4552 15.4004 21.033L17.9004 23.533C18.2781 23.9108 18.7004 24.1941 19.167 24.383C19.6337 24.5719 20.1226 24.6663 20.6337 24.6663C21.1448 24.6663 21.6281 24.5719 22.0837 24.383C22.5392 24.1941 22.9559 23.9108 23.3337 23.533L24.9004 21.9663C25.1004 21.7663 25.3337 21.6719 25.6004 21.683C25.867 21.6941 26.1004 21.7997 26.3004 21.9997C26.5004 22.1997 26.6004 22.433 26.6004 22.6997C26.6004 22.9663 26.5004 23.1997 26.3004 23.3997L24.7337 24.9663Z" fill="#2C2E25"/>
</svg>
