<svg width="18" height="18" viewBox="0 0 18 18" fill="none" xmlns="http://www.w3.org/2000/svg">
<path d="M14.9062 15.75C13.4563 15.75 11.9781 15.4 10.4719 14.7C8.96563 14 7.56875 13.0063 6.28125 11.7188C4.99375 10.4312 4 9.03438 3.3 7.52812C2.6 6.02187 2.25 4.54375 2.25 3.09375C2.25 2.85263 2.33038 2.65175 2.49113 2.49112C2.65175 2.33037 2.85263 2.25 3.09375 2.25H5.71875C5.89375 2.25 6.04375 2.3125 6.16875 2.4375C6.29375 2.5625 6.38125 2.71875 6.43125 2.90625L6.93619 5.262C6.96206 5.4415 6.95938 5.60312 6.92813 5.74687C6.89687 5.89062 6.82981 6.01394 6.72694 6.11681L4.85625 8.00625C5.18125 8.55625 5.525 9.06875 5.8875 9.54375C6.25 10.0188 6.65 10.4688 7.0875 10.8938C7.55 11.3688 8.0375 11.8031 8.55 12.1969C9.0625 12.5906 9.6 12.9375 10.1625 13.2375L11.9438 11.4C12.0688 11.2625 12.2134 11.1687 12.3778 11.1187C12.5422 11.0687 12.7038 11.0563 12.8625 11.0813L15.0938 11.5688C15.2812 11.6188 15.4375 11.719 15.5625 11.8695C15.6875 12.0201 15.75 12.1886 15.75 12.375V14.9062C15.75 15.1474 15.6696 15.3483 15.5089 15.5089C15.3483 15.6696 15.1474 15.75 14.9062 15.75ZM4.29375 6.975L5.8125 5.4375L5.38125 3.375H3.375C3.4 3.9 3.48438 4.45312 3.62812 5.03438C3.77188 5.61563 3.99375 6.2625 4.29375 6.975ZM11.2125 13.7812C11.725 14.0188 12.2812 14.2125 12.8813 14.3625C13.4812 14.5125 14.0625 14.6 14.625 14.625V12.6187L12.6938 12.225L11.2125 13.7812Z" fill="#65685C"/>
</svg>
