<svg width="25" height="24" viewBox="0 0 25 24" fill="none" xmlns="http://www.w3.org/2000/svg">
<mask id="mask0_8026_302384" style="mask-type:alpha" maskUnits="userSpaceOnUse" x="0" y="0" width="25" height="24">
<rect x="0.5" width="24" height="24" fill="#D9D9D9"/>
</mask>
<g mask="url(#mask0_8026_302384)">
<path d="M12.5 21.8996C12.4167 21.8996 12.3333 21.8934 12.25 21.8809C12.1667 21.8684 12.0833 21.8496 12 21.8246C9.7 21.0413 7.875 19.6371 6.525 17.6121C5.175 15.5871 4.5 13.3654 4.5 10.9469V6.04961C4.5 5.72861 4.59067 5.43978 4.772 5.18311C4.95317 4.92628 5.1875 4.74011 5.475 4.62461L11.975 2.19961C12.1583 2.13294 12.3333 2.09961 12.5 2.09961C12.6667 2.09961 12.8417 2.13294 13.025 2.19961L19.525 4.62461C19.8125 4.74011 20.0469 4.92628 20.2283 5.18311C20.4094 5.43978 20.5 5.72861 20.5 6.04961V10.9496C20.5 12.1163 20.3583 13.2746 20.075 14.4246C19.7917 15.5746 19.3 16.6579 18.6 17.6746C18.4667 17.8579 18.2875 17.9621 18.0625 17.9871C17.8375 18.0121 17.6417 17.9496 17.475 17.7996L14.575 15.0246C14.2583 15.2079 13.9237 15.3579 13.571 15.4746C13.2183 15.5913 12.8613 15.6496 12.5 15.6496C11.4667 15.6496 10.5875 15.2913 9.8625 14.5746C9.1375 13.8579 8.775 12.9788 8.775 11.9371C8.775 10.8954 9.1375 10.0121 9.8625 9.28711C10.5875 8.56211 11.4667 8.19961 12.5 8.19961C13.5333 8.19961 14.4125 8.56211 15.1375 9.28711C15.8625 10.0121 16.225 10.8996 16.225 11.9496C16.225 12.2996 16.175 12.6496 16.075 12.9996C15.975 13.3496 15.8167 13.6663 15.6 13.9496L17.8 16.0496C18.2 15.3329 18.5 14.5288 18.7 13.6371C18.9 12.7454 19 11.8496 19 10.9496V5.98761L12.5 3.62461L6 5.98761V10.9496C6 13.1329 6.60417 15.1038 7.8125 16.8621C9.02083 18.6204 10.5833 19.8163 12.5 20.4496C12.8833 20.3496 13.3375 20.1538 13.8625 19.8621C14.3875 19.5704 14.8667 19.2579 15.3 18.9246C15.4667 18.7913 15.65 18.7329 15.85 18.7496C16.05 18.7663 16.2167 18.8621 16.35 19.0371C16.4833 19.2121 16.5333 19.4079 16.5 19.6246C16.4667 19.8413 16.3583 20.0163 16.175 20.1496C15.6917 20.5163 15.1875 20.8329 14.6625 21.0996C14.1375 21.3663 13.5833 21.6079 13 21.8246C12.9167 21.8496 12.8333 21.8684 12.75 21.8809C12.6667 21.8934 12.5833 21.8996 12.5 21.8996ZM12.505 14.1496C13.1183 14.1496 13.6417 13.9371 14.075 13.5121C14.5083 13.0871 14.725 12.5621 14.725 11.9371C14.725 11.3121 14.5067 10.7829 14.07 10.3496C13.6332 9.91628 13.1082 9.69961 12.495 9.69961C11.8817 9.69961 11.3583 9.91628 10.925 10.3496C10.4917 10.7829 10.275 11.3121 10.275 11.9371C10.275 12.5621 10.4933 13.0871 10.93 13.5121C11.3668 13.9371 11.8918 14.1496 12.505 14.1496Z" fill="#2C2E25"/>
</g>
</svg>
