<svg width="24" height="24" viewBox="0 0 24 24" fill="none" xmlns="http://www.w3.org/2000/svg">
<path d="M3.52539 22C3.09206 22 2.73372 21.8583 2.45039 21.575C2.16706 21.2917 2.02539 20.9333 2.02539 20.5V3.5C2.02539 3.11667 2.16706 2.77083 2.45039 2.4625C2.73372 2.15417 3.09206 2 3.52539 2H20.5254C20.9087 2 21.2546 2.15417 21.5629 2.4625C21.8712 2.77083 22.0254 3.11667 22.0254 3.5V20.5C22.0254 20.9333 21.8712 21.2917 21.5629 21.575C21.2546 21.8583 20.9087 22 20.5254 22H3.52539ZM3.52539 20.5H20.5254V3.5H3.52539V20.5ZM8.14589 14.175C7.93222 14.175 7.75456 14.1027 7.61289 13.958C7.47122 13.8135 7.40039 13.6343 7.40039 13.4205C7.40039 13.2068 7.47272 13.0292 7.61739 12.8875C7.76189 12.7458 7.94106 12.675 8.15489 12.675C8.36856 12.675 8.54622 12.7473 8.68789 12.892C8.82956 13.0365 8.90039 13.2157 8.90039 13.4295C8.90039 13.6432 8.82806 13.8208 8.68339 13.9625C8.53889 14.1042 8.35972 14.175 8.14589 14.175ZM15.8959 14.175C15.6822 14.175 15.5046 14.1027 15.3629 13.958C15.2212 13.8135 15.1504 13.6343 15.1504 13.4205C15.1504 13.2068 15.2227 13.0292 15.3674 12.8875C15.5119 12.7458 15.6911 12.675 15.9049 12.675C16.1186 12.675 16.2962 12.7473 16.4379 12.892C16.5796 13.0365 16.6504 13.2157 16.6504 13.4295C16.6504 13.6432 16.5781 13.8208 16.4334 13.9625C16.2889 14.1042 16.1097 14.175 15.8959 14.175ZM5.77989 18.75C5.99356 18.75 6.17122 18.6781 6.31289 18.5342C6.45456 18.3906 6.52539 18.2125 6.52539 18V16.55H17.5254V18C17.5254 18.2125 17.5977 18.3906 17.7424 18.5342C17.8869 18.6781 18.0661 18.75 18.2799 18.75C18.4936 18.75 18.6712 18.6781 18.8129 18.5342C18.9546 18.3906 19.0254 18.2125 19.0254 18V11.6C19.0254 11.5183 19.0212 11.4396 19.0129 11.3637C19.0046 11.2879 18.9837 11.2083 18.9504 11.125L17.4504 6.75C17.3504 6.45367 17.1691 6.21292 16.9066 6.02775C16.6441 5.84258 16.3504 5.75 16.0254 5.75H8.02539C7.70039 5.75 7.40664 5.84258 7.14414 6.02775C6.88164 6.21292 6.70039 6.45367 6.60039 6.75L5.10039 11.125C5.06706 11.2083 5.04622 11.2879 5.03789 11.3637C5.02956 11.4396 5.02539 11.5183 5.02539 11.6V18C5.02539 18.2125 5.09772 18.3906 5.24239 18.5342C5.38689 18.6781 5.56606 18.75 5.77989 18.75ZM6.95039 10.3L7.95039 7.25H16.1004L17.1254 10.3H6.95039ZM6.52539 15.05V11.8H17.5254V15.05H6.52539Z" fill="#2C2E25"/>
</svg>
