<svg width="24" height="24" viewBox="0 0 24 24" fill="none" xmlns="http://www.w3.org/2000/svg">
<path d="M11.9989 6.32259C12.6211 5.52259 13.2804 4.9337 13.9767 4.55592C14.673 4.17815 15.4211 3.98926 16.2211 3.98926C17.5397 3.98926 18.6471 4.43741 19.5434 5.3337C20.4397 6.23 20.8878 7.34481 20.8878 8.67815C20.8878 8.79667 20.8915 8.90778 20.8989 9.01148C20.9063 9.11518 20.9026 9.2263 20.8878 9.34481C20.8878 9.53741 20.8174 9.69667 20.6767 9.82259C20.536 9.94852 20.3693 10.0115 20.1767 10.0115C19.9841 10.0115 19.8211 9.94111 19.6878 9.80037C19.5545 9.65963 19.4878 9.49296 19.4878 9.30037C19.5026 9.19667 19.5174 9.09667 19.5322 9.00037C19.5471 8.90407 19.5545 8.79667 19.5545 8.67815C19.5545 7.70037 19.2434 6.89667 18.6211 6.26704C17.9989 5.63741 17.1989 5.32259 16.2211 5.32259C15.51 5.32259 14.8545 5.5263 14.2545 5.9337C13.6545 6.34111 13.1471 6.90037 12.7322 7.61148C12.6582 7.75963 12.5508 7.86704 12.41 7.9337C12.2693 8.00037 12.1248 8.0337 11.9767 8.0337C11.8285 8.0337 11.6878 7.99667 11.5545 7.92259C11.4211 7.84852 11.3174 7.73741 11.2434 7.58926C10.8434 6.87815 10.3397 6.32259 9.73225 5.92259C9.12484 5.52259 8.47299 5.32259 7.77669 5.32259C6.79891 5.32259 5.99891 5.63741 5.37669 6.26704C4.75447 6.89667 4.44336 7.70037 4.44336 8.67815C4.44336 8.79667 4.45077 8.90407 4.46558 9.00037C4.4804 9.09667 4.49521 9.19667 4.51003 9.30037C4.51003 9.49296 4.44336 9.65963 4.31003 9.80037C4.17669 9.94111 4.01373 10.0115 3.82114 10.0115C3.62854 10.0115 3.46188 9.94852 3.32114 9.82259C3.1804 9.69667 3.11003 9.53741 3.11003 9.34481C3.09521 9.2263 3.09151 9.11518 3.09891 9.01148C3.10632 8.90778 3.11003 8.79667 3.11003 8.67815C3.11003 7.34481 3.55817 6.23 4.45447 5.3337C5.35077 4.43741 6.45817 3.98926 7.77669 3.98926C8.62114 3.98926 9.40262 4.18926 10.1211 4.58926C10.8397 4.98926 11.4656 5.56704 11.9989 6.32259ZM11.9989 19.8115C11.836 19.8115 11.6767 19.7856 11.5211 19.7337C11.3656 19.6819 11.2285 19.5967 11.11 19.4781C10.1619 18.6041 9.31373 17.8078 8.56558 17.0893C7.81743 16.3707 7.15447 15.7004 6.57669 15.0781C6.42854 14.9152 6.36929 14.7522 6.39892 14.5893C6.42854 14.4263 6.50262 14.2856 6.62114 14.167C6.73966 14.0485 6.8841 13.9819 7.05447 13.967C7.22484 13.9522 7.37669 14.0189 7.51003 14.167C8.07299 14.7596 8.72114 15.4115 9.45447 16.1226C10.1878 16.8337 11.036 17.6337 11.9989 18.5226C12.9619 17.6337 13.8063 16.8337 14.5322 16.1226C15.2582 15.4115 15.9026 14.7596 16.4656 14.167C16.5989 14.0189 16.7508 13.9559 16.9211 13.9781C17.0915 14.0004 17.236 14.0707 17.3545 14.1893C17.473 14.3078 17.5471 14.4522 17.5767 14.6226C17.6063 14.793 17.5471 14.9596 17.3989 15.1226C16.836 15.7448 16.1767 16.4078 15.4211 17.1115C14.6656 17.8152 13.8211 18.6041 12.8878 19.4781C12.7693 19.5967 12.6322 19.6819 12.4767 19.7337C12.3211 19.7856 12.1619 19.8115 11.9989 19.8115ZM11.1545 15.3226C11.2878 15.3226 11.4063 15.2819 11.51 15.2004C11.6137 15.1189 11.6878 15.0115 11.7322 14.8781L13.0878 10.8559L14.11 12.367C14.1841 12.4559 14.2656 12.5263 14.3545 12.5781C14.4434 12.63 14.5471 12.6559 14.6656 12.6559H20.8878C21.0804 12.6559 21.2397 12.593 21.3656 12.467C21.4915 12.3411 21.5545 12.1819 21.5545 11.9893C21.5545 11.7967 21.4915 11.6374 21.3656 11.5115C21.2397 11.3856 21.0804 11.3226 20.8878 11.3226H15.0434L13.4434 8.96704C13.3693 8.86333 13.2804 8.78926 13.1767 8.74481C13.073 8.70037 12.9619 8.67815 12.8434 8.67815C12.71 8.67815 12.5878 8.71889 12.4767 8.80037C12.3656 8.88185 12.2878 8.98926 12.2434 9.12259L10.91 13.1448L9.86558 11.6115C9.79151 11.5226 9.71373 11.4522 9.63225 11.4004C9.55077 11.3485 9.45077 11.3226 9.33225 11.3226H3.11003C2.91743 11.3226 2.75817 11.3856 2.63225 11.5115C2.50632 11.6374 2.44336 11.7967 2.44336 11.9893C2.44336 12.1819 2.50632 12.3411 2.63225 12.467C2.75817 12.593 2.91743 12.6559 3.11003 12.6559H8.93225L10.5322 15.0337C10.6063 15.1374 10.6989 15.2115 10.81 15.2559C10.9211 15.3004 11.036 15.3226 11.1545 15.3226Z" fill="#2C2E25"/>
</svg>
