<svg width="24" height="24" viewBox="0 0 24 24" fill="none" xmlns="http://www.w3.org/2000/svg">
<path d="M5.50003 20.001C5.08753 20.001 4.73445 19.8541 4.44078 19.5602C4.14695 19.2666 4.00003 18.9135 4.00003 18.501V10.001L2.50003 11.151C2.33986 11.2843 2.1582 11.3343 1.95503 11.301C1.75169 11.2676 1.58336 11.1646 1.45003 10.9917C1.31669 10.8312 1.26619 10.6494 1.29853 10.4462C1.33103 10.2431 1.43153 10.078 1.60003 9.95098L11.1 2.67598C11.2347 2.57598 11.3786 2.50098 11.5318 2.45098C11.6848 2.40098 11.8409 2.37598 12 2.37598C12.1592 2.37598 12.3153 2.40098 12.4683 2.45098C12.6214 2.50098 12.7654 2.57598 12.9 2.67598L22.425 9.95098C22.5917 10.0843 22.6875 10.251 22.7125 10.451C22.7375 10.651 22.6834 10.8343 22.55 11.001C22.4167 11.1676 22.25 11.2676 22.05 11.301C21.85 11.3343 21.6667 11.2843 21.5 11.151L12 3.87598L5.50003 8.85923V18.501H9.55003C9.76803 18.501 9.94753 18.5733 10.0885 18.718C10.2295 18.8625 10.3 19.0416 10.3 19.2555C10.3 19.4691 10.2282 19.6468 10.0845 19.7885C9.9407 19.9301 9.76253 20.001 9.55003 20.001H5.50003ZM15.2718 21.701C15.1739 21.701 15.0834 21.6843 15 21.651C14.9167 21.6176 14.8334 21.5593 14.75 21.476L11.925 18.651C11.775 18.501 11.7 18.326 11.7 18.126C11.7 17.926 11.775 17.751 11.925 17.601C12.075 17.451 12.25 17.376 12.45 17.376C12.65 17.376 12.825 17.451 12.975 17.601L15.275 19.901L20.425 14.776C20.575 14.626 20.75 14.551 20.95 14.551C21.15 14.551 21.325 14.626 21.475 14.776C21.625 14.926 21.7 15.101 21.7 15.301C21.7 15.501 21.625 15.676 21.475 15.826L15.8 21.476C15.7167 21.5593 15.6323 21.6176 15.5468 21.651C15.4611 21.6843 15.3694 21.701 15.2718 21.701Z" fill="#2C2E25"/>
</svg>
