<svg width="24" height="24" viewBox="0 0 24 24" fill="none" xmlns="http://www.w3.org/2000/svg">
<path d="M6.70039 7.75039L3.67539 10.7754C3.52539 10.9254 3.35039 11.0004 3.15039 11.0004C2.95039 11.0004 2.77539 10.9254 2.62539 10.7754C2.49206 10.6421 2.42122 10.4712 2.41289 10.2629C2.40456 10.0546 2.46706 9.87539 2.60039 9.72539L3.50039 8.80039L2.62539 7.92539C2.47539 7.77539 2.40039 7.60039 2.40039 7.40039C2.40039 7.20039 2.47539 7.02539 2.62539 6.87539L4.22539 5.27539L3.70039 4.75039C3.55039 4.60039 3.47539 4.42539 3.47539 4.22539C3.47539 4.02539 3.55039 3.85039 3.70039 3.70039C3.83372 3.56706 4.00456 3.49622 4.21289 3.48789C4.42122 3.47956 4.60039 3.54206 4.75039 3.67539L5.30039 4.20039L6.87539 2.62539C7.02539 2.47539 7.20039 2.40039 7.40039 2.40039C7.60039 2.40039 7.77539 2.47539 7.92539 2.62539L8.80039 3.50039L9.72539 2.60039C9.87539 2.46706 10.0504 2.40039 10.2504 2.40039C10.4504 2.40039 10.6254 2.47539 10.7754 2.62539C10.9254 2.77539 11.0004 2.95039 11.0004 3.15039C11.0004 3.35039 10.9254 3.52539 10.7754 3.67539L7.75039 6.70039L17.3004 16.2504L20.3254 13.2254C20.4754 13.0754 20.6504 13.0004 20.8504 13.0004C21.0504 13.0004 21.2254 13.0754 21.3754 13.2254C21.5087 13.3587 21.5796 13.5296 21.5879 13.7379C21.5962 13.9462 21.5337 14.1254 21.4004 14.2754L20.5004 15.2004L21.3754 16.0754C21.5254 16.2254 21.6004 16.4004 21.6004 16.6004C21.6004 16.8004 21.5254 16.9754 21.3754 17.1254L19.7504 18.7504L20.2754 19.2754C20.4254 19.4254 20.5004 19.6004 20.5004 19.8004C20.5004 20.0004 20.4254 20.1754 20.2754 20.3254C20.1254 20.4754 19.9504 20.5504 19.7504 20.5504C19.5504 20.5504 19.3754 20.4754 19.2254 20.3254L18.7004 19.8004L17.1254 21.3754C16.9754 21.5254 16.8004 21.6004 16.6004 21.6004C16.4004 21.6004 16.2254 21.5254 16.0754 21.3754L15.2004 20.5004L14.2754 21.4004C14.1254 21.5337 13.9504 21.6004 13.7504 21.6004C13.5504 21.6004 13.3754 21.5254 13.2254 21.3754C13.0754 21.2254 13.0004 21.0504 13.0004 20.8504C13.0004 20.6504 13.0754 20.4754 13.2254 20.3254L16.2504 17.3004L6.70039 7.75039Z" fill="#2C2E25"/>
</svg>
