<svg width="24" height="24" viewBox="0 0 24 24" fill="none" xmlns="http://www.w3.org/2000/svg">
<path d="M11.787 18.951C11.224 18.951 10.7129 18.788 10.2536 18.4621C9.79439 18.1361 9.49068 17.6991 9.34253 17.151C9.29809 16.9584 9.34624 16.788 9.48698 16.6398C9.62772 16.4917 9.80179 16.4176 10.0092 16.4176C10.1668 16.4176 10.3062 16.4732 10.4274 16.5843C10.5486 16.6954 10.6462 16.8324 10.7203 16.9954C10.8092 17.2028 10.9553 17.3584 11.1588 17.4621C11.3622 17.5658 11.5716 17.6176 11.787 17.6176C12.127 17.6176 12.412 17.5025 12.6421 17.2723C12.872 17.0422 12.987 16.757 12.987 16.4167C12.987 16.0766 12.872 15.7917 12.6421 15.5621C12.412 15.3324 12.127 15.2176 11.787 15.2176H3.98698C3.79809 15.2176 3.63979 15.1533 3.51209 15.0247C3.38424 14.8963 3.32031 14.737 3.32031 14.547C3.32031 14.357 3.38424 14.1991 3.51209 14.0732C3.63979 13.9473 3.79809 13.8843 3.98698 13.8843H11.787C12.4907 13.8843 13.0888 14.1306 13.5814 14.6232C14.074 15.1158 14.3203 15.7139 14.3203 16.4176C14.3203 17.1213 14.074 17.7195 13.5814 18.2121C13.0888 18.7047 12.4907 18.951 11.787 18.951ZM3.98698 9.88429C3.79809 9.88429 3.63979 9.81999 3.51209 9.6914C3.38424 9.56295 3.32031 9.4037 3.32031 9.21362C3.32031 9.0237 3.38424 8.86577 3.51209 8.73984C3.63979 8.61392 3.79809 8.55095 3.98698 8.55095H15.387C15.8562 8.55095 16.2549 8.38621 16.5832 8.05673C16.9116 7.7274 17.0759 7.3274 17.0759 6.85673C17.0759 6.38621 16.9116 5.98799 16.5832 5.66207C16.2549 5.33614 15.8562 5.17318 15.387 5.17318C15.0462 5.17318 14.7351 5.26207 14.4536 5.43984C14.1722 5.61762 13.9796 5.86207 13.8759 6.17318C13.8166 6.33614 13.724 6.47688 13.5981 6.5954C13.4722 6.71392 13.3277 6.77318 13.1648 6.77318C12.9606 6.77318 12.7948 6.70281 12.6672 6.56207C12.5396 6.42132 12.4981 6.25466 12.5425 6.06207C12.7055 5.3954 13.0499 4.85836 13.5759 4.45095C14.1018 4.04355 14.7055 3.83984 15.387 3.83984C16.2314 3.83984 16.9462 4.13244 17.5314 4.71762C18.1166 5.30281 18.4092 6.01762 18.4092 6.86207C18.4092 7.70651 18.1166 8.42132 17.5314 9.00651C16.9462 9.5917 16.2314 9.88429 15.387 9.88429H3.98698ZM18.8759 17.0176C18.6833 17.0472 18.5166 16.9991 18.3759 16.8732C18.2351 16.7473 18.1648 16.5806 18.1648 16.3732C18.1648 16.2102 18.224 16.0658 18.3425 15.9398C18.4611 15.8139 18.6018 15.7213 18.7648 15.6621C19.0907 15.5584 19.3388 15.3658 19.5092 15.0843C19.6796 14.8028 19.7648 14.4917 19.7648 14.151C19.7648 13.7065 19.6092 13.3287 19.2981 13.0176C18.987 12.7065 18.6092 12.551 18.1648 12.551H3.98698C3.79809 12.551 3.63979 12.4867 3.51209 12.3581C3.38424 12.2296 3.32031 12.0704 3.32031 11.8803C3.32031 11.6904 3.38424 11.5324 3.51209 11.4065C3.63979 11.2806 3.79809 11.2176 3.98698 11.2176H18.1648C18.975 11.2176 19.6664 11.504 20.239 12.0767C20.8117 12.6493 21.0981 13.3407 21.0981 14.151C21.0981 14.8473 20.8944 15.4621 20.487 15.9954C20.0796 16.5287 19.5425 16.8695 18.8759 17.0176Z" fill="#2C2E25"/>
</svg>
