<svg width="24" height="24" viewBox="0 0 24 24" fill="none" xmlns="http://www.w3.org/2000/svg">
<path d="M19.275 20.5871L13.85 15.1621C13.6833 14.9954 13.6 14.8038 13.6 14.5871C13.6 14.3704 13.6833 14.1788 13.85 14.0121C14.0167 13.8454 14.2083 13.7621 14.425 13.7621C14.6417 13.7621 14.8333 13.8454 15 14.0121L20.425 19.4371C20.5917 19.6038 20.675 19.7954 20.675 20.0121C20.675 20.2288 20.5917 20.4204 20.425 20.5871C20.2583 20.7538 20.0667 20.8371 19.85 20.8371C19.6333 20.8371 19.4417 20.7538 19.275 20.5871ZM4.975 19.2371C4.30833 18.3371 3.8125 17.3704 3.4875 16.3371C3.1625 15.3038 3 14.2621 3 13.2121C3 11.9121 3.24167 10.6454 3.725 9.41211C4.20833 8.17878 4.94167 7.07044 5.925 6.08711C6.90833 5.10378 8.02083 4.37044 9.2625 3.88711C10.5042 3.40378 11.775 3.16211 13.075 3.16211C14.125 3.16211 15.1625 3.32044 16.1875 3.63711C17.2125 3.95378 18.175 4.44544 19.075 5.11211C19.2917 5.27878 19.4083 5.49544 19.425 5.76211C19.4417 6.02878 19.35 6.26211 19.15 6.46211L6.3 19.3121C6.1 19.5121 5.87083 19.6038 5.6125 19.5871C5.35417 19.5704 5.14167 19.4538 4.975 19.2371ZM5.675 17.7871L7.4 16.0371C7.13333 15.6704 6.86667 15.2746 6.6 14.8496C6.33333 14.4246 6.0875 13.9746 5.8625 13.4996C5.6375 13.0246 5.45 12.5329 5.3 12.0246C5.15 11.5163 5.05 10.9954 5 10.4621C4.55 11.6954 4.39583 12.9538 4.5375 14.2371C4.67917 15.5204 5.05833 16.7038 5.675 17.7871ZM8.6 14.9121L14.75 8.71211C13.9833 8.11211 13.2042 7.64128 12.4125 7.29961C11.6208 6.95794 10.8667 6.73294 10.15 6.62461C9.43333 6.51628 8.79583 6.51628 8.2375 6.62461C7.67917 6.73294 7.25 6.93711 6.95 7.23711C6.65 7.53711 6.45833 7.96628 6.375 8.52461C6.29167 9.08294 6.3125 9.70794 6.4375 10.3996C6.5625 11.0913 6.80417 11.8246 7.1625 12.5996C7.52083 13.3746 8 14.1454 8.6 14.9121ZM17.675 5.83711C16.575 5.13711 15.3792 4.72878 14.0875 4.61211C12.7958 4.49544 11.5333 4.67878 10.3 5.16211C10.8 5.21211 11.2958 5.31211 11.7875 5.46211C12.2792 5.61211 12.7625 5.79128 13.2375 5.99961C13.7125 6.20794 14.1708 6.44544 14.6125 6.71211C15.0542 6.97878 15.475 7.26211 15.875 7.56211L17.675 5.83711Z" fill="#2C2E25"/>
</svg>
