<svg width="32" height="32" viewBox="0 0 32 32" fill="none" xmlns="http://www.w3.org/2000/svg">
<path d="M14.7511 15.108H12.4181V8.6304H14.7511C15.9058 8.6304 16.7862 8.77984 17.4457 9.37908C17.6895 9.60956 17.8778 9.88896 18.0112 10.2252C18.1733 10.6329 18.2548 11.124 18.2548 11.7153C18.2548 12.5763 18.1758 15.108 14.7511 15.108ZM23.3431 24.9979C23.0403 24.8767 22.7367 24.6453 21.9217 23.2734L20.2982 20.5812L18.3845 17.408L18.2221 17.1384C18.316 17.1117 18.4078 17.0819 18.4986 17.0508C20.6955 16.2976 21.9779 14.2868 21.9779 11.4176C21.9779 9.9992 21.4046 8.6896 20.3096 7.70952C20.1501 7.57388 19.985 7.4444 19.8085 7.3264C18.3469 6.36204 16.3782 6.0028 13.7559 6.00252L8.79683 6H8.79447V6.0012H8.72143C8.39915 5.99712 8.36859 6.18256 8.49519 6.35076C8.60911 6.5004 8.73843 6.69988 8.79447 7.20652V23.038C8.73859 23.6825 8.60731 23.8878 8.49519 24.0363C8.36715 24.2038 8.42355 24.3954 8.74603 24.3919H12.4181V17.6765H14.0871L15.2593 19.6686L16.7337 22.1745L17.4504 23.3921C18.3612 24.925 19.158 25.7741 20.7443 25.9555C20.9608 25.9843 21.1916 25.9978 21.4404 26C21.4599 26 21.6668 26 21.6858 26C22.2562 26 22.8134 25.7712 23.1601 25.6235C23.2073 25.6064 23.253 25.588 23.2984 25.5679C23.7151 25.3833 23.5999 25.1004 23.3431 24.9979Z" fill="#CA1E25"/>
</svg>
