<svg width="14" height="14" viewBox="0 0 14 14" fill="none" xmlns="http://www.w3.org/2000/svg">
<path d="M5.25664 12.8337C5.15456 12.8337 5.06472 12.8063 4.98714 12.7516C4.90956 12.6969 4.85599 12.6222 4.82643 12.5274L3.32435 7.43783H1.60352C1.47956 7.43783 1.37568 7.39563 1.29187 7.31124C1.20797 7.22695 1.16602 7.12244 1.16602 6.9977C1.16602 6.87306 1.20797 6.76942 1.29187 6.68678C1.37568 6.60415 1.47956 6.56283 1.60352 6.56283H3.64518C3.74163 6.56283 3.82879 6.59015 3.90666 6.64478C3.98463 6.69952 4.03845 6.77428 4.0681 6.86908L5.17643 10.6024L7.15977 1.51699C7.17921 1.41005 7.22904 1.32498 7.30925 1.26178C7.38945 1.19859 7.4806 1.16699 7.58268 1.16699C7.68477 1.16699 7.77591 1.19616 7.85612 1.25449C7.93633 1.31283 7.98616 1.39546 8.0056 1.50241L9.37643 7.67116L10.3681 4.38991C10.3979 4.29512 10.4518 4.22035 10.5298 4.16562C10.6079 4.11098 10.6953 4.08366 10.7919 4.08366C10.8885 4.08366 10.9733 4.10796 11.0462 4.15658C11.1191 4.20519 11.1702 4.27324 11.1994 4.36074L11.9869 6.56283H12.3952C12.5191 6.56283 12.6231 6.60502 12.707 6.68941C12.7908 6.7737 12.8327 6.87821 12.8327 7.00295C12.8327 7.12759 12.7908 7.23123 12.707 7.31387C12.6231 7.39651 12.5191 7.43783 12.3952 7.43783H11.666C11.5703 7.43783 11.4856 7.41109 11.412 7.35762C11.3383 7.30415 11.2868 7.23366 11.2577 7.14616L10.8202 5.93574L9.74102 9.61074C9.71292 9.70437 9.66027 9.78122 9.58308 9.8413C9.50579 9.90149 9.418 9.92671 9.3197 9.91699C9.22141 9.90727 9.13338 9.87324 9.0556 9.81491C8.97782 9.75658 8.92921 9.6788 8.90977 9.58158L7.58268 3.71908L5.67227 12.4982C5.65039 12.5993 5.6012 12.6786 5.52468 12.7362C5.44807 12.794 5.35872 12.8265 5.25664 12.8337Z" fill="#FFF7EE"/>
</svg>
