<svg width="24" height="24" viewBox="0 0 24 24" fill="none" xmlns="http://www.w3.org/2000/svg">
<path fill-rule="evenodd" clip-rule="evenodd" d="M11.3511 3.11477C11.612 2.95076 11.9502 2.96258 12.2002 3.14993L22.2002 10.6499L22.2588 10.6992C22.5384 10.9569 22.5831 11.3895 22.3501 11.7002C22.1172 12.0108 21.6893 12.0892 21.3638 11.8931L21.2998 11.8501L18.5 9.75002V20.25C18.5 20.6642 18.1642 21 17.75 21H5.75003C5.33585 21 5.00003 20.6642 5.00003 20.25V9.75002L2.20023 11.8501C1.86888 12.0986 1.39846 12.0315 1.14993 11.7002C0.901614 11.3689 0.968658 10.8984 1.29983 10.6499L11.2998 3.14993L11.3511 3.11477ZM6.50003 13.75V16.75H17V13.75H6.50003ZM6.50003 12.25H17V9.00002H6.50003V12.25ZM8.00003 7.50002H15.5L11.75 4.68752L8.00003 7.50002Z" fill="#2C2E25"/>
</svg>
