<svg width="25" height="24" viewBox="0 0 25 24" fill="none" xmlns="http://www.w3.org/2000/svg">
<mask id="mask0_8026_302388" style="mask-type:alpha" maskUnits="userSpaceOnUse" x="0" y="0" width="25" height="24">
<rect x="0.5" width="24" height="24" fill="#D9D9D9"/>
</mask>
<g mask="url(#mask0_8026_302388)">
<path d="M5.5 18.9V20C5.5 20.2778 5.40217 20.5139 5.2065 20.7083C5.011 20.9028 4.7735 21 4.494 21C4.21467 21 3.97917 20.9028 3.7875 20.7083C3.59583 20.5139 3.5 20.2778 3.5 20V12.4C3.5 12.3222 3.50417 12.2444 3.5125 12.1668C3.52083 12.0889 3.54167 12.0083 3.575 11.925L5.525 6.025C5.625 5.70833 5.80625 5.45833 6.06875 5.275C6.33125 5.09167 6.625 5 6.95 5H18.05C18.375 5 18.6688 5.09167 18.9313 5.275C19.1938 5.45833 19.375 5.70833 19.475 6.025L21.425 11.925C21.4583 12.0083 21.4792 12.0889 21.4875 12.1668C21.4958 12.2444 21.5 12.3222 21.5 12.4V20C21.5 20.2778 21.4022 20.5139 21.2065 20.7083C21.011 20.9028 20.7735 21 20.494 21C20.2147 21 19.9792 20.9028 19.7875 20.7083C19.5958 20.5139 19.5 20.2778 19.5 20V18.9H5.5ZM5.575 10.65H19.425L18.05 6.5H6.95L5.575 10.65ZM7.644 16.15C8.03133 16.15 8.35417 16.0188 8.6125 15.7563C8.87083 15.4938 9 15.175 9 14.8C9 14.4112 8.86875 14.0806 8.60625 13.8082C8.34375 13.5361 8.025 13.4 7.65 13.4C7.26117 13.4 6.93058 13.5355 6.65825 13.8065C6.38608 14.0777 6.25 14.4068 6.25 14.794C6.25 15.1813 6.3855 15.5042 6.6565 15.7625C6.92767 16.0208 7.25683 16.15 7.644 16.15ZM17.375 16.15C17.7638 16.15 18.0944 16.0188 18.3667 15.7563C18.6389 15.4938 18.775 15.175 18.775 14.8C18.775 14.4112 18.6395 14.0806 18.3685 13.8082C18.0973 13.5361 17.7682 13.4 17.381 13.4C16.9937 13.4 16.6708 13.5355 16.4125 13.8065C16.1542 14.0777 16.025 14.4068 16.025 14.794C16.025 15.1813 16.1562 15.5042 16.4187 15.7625C16.6812 16.0208 17 16.15 17.375 16.15ZM5 17.4H20V12.15H5V17.4Z" fill="#2C2E25"/>
</g>
</svg>
