<svg width="24" height="24" viewBox="0 0 24 24" fill="none" xmlns="http://www.w3.org/2000/svg">
<path d="M8.775 10.775C8.775 11.2583 8.875 11.7167 9.075 12.15C9.275 12.5833 9.56667 12.95 9.95 13.25C9.91667 13.2 9.90417 13.15 9.9125 13.1C9.92083 13.05 9.925 13 9.925 12.95C9.925 12.6667 9.97917 12.4042 10.0875 12.1625C10.1958 11.9208 10.35 11.7 10.55 11.5L12 10.075L13.45 11.5C13.65 11.7 13.8042 11.9208 13.9125 12.1625C14.0208 12.4042 14.075 12.6667 14.075 12.95C14.075 13 14.0792 13.05 14.0875 13.1C14.0958 13.15 14.0833 13.2 14.05 13.25C14.4333 12.95 14.725 12.5833 14.925 12.15C15.125 11.7167 15.225 11.2583 15.225 10.775C15.225 10.325 15.1375 9.9 14.9625 9.5C14.7875 9.1 14.55 8.75 14.25 8.45C14.0667 8.56667 13.8792 8.65417 13.6875 8.7125C13.4958 8.77083 13.3 8.8 13.1 8.8C12.55 8.8 12.0667 8.61667 11.65 8.25C11.2333 7.88333 10.9917 7.425 10.925 6.875C10.575 7.175 10.2667 7.48333 10 7.8C9.73333 8.11667 9.50833 8.44167 9.325 8.775C9.14167 9.10833 9.00417 9.44167 8.9125 9.775C8.82083 10.1083 8.775 10.4417 8.775 10.775ZM12 11.475L11.225 12.225C11.125 12.325 11.05 12.4375 11 12.5625C10.95 12.6875 10.925 12.8167 10.925 12.95C10.925 13.2333 11.0333 13.4792 11.25 13.6875C11.4667 13.8958 11.7167 14 12 14C12.2833 14 12.5333 13.8958 12.75 13.6875C12.9667 13.4792 13.075 13.2333 13.075 12.95C13.075 12.8167 13.05 12.6833 13 12.55C12.95 12.4167 12.875 12.3083 12.775 12.225L12 11.475ZM11.925 5V6.65C11.925 6.98333 12.0375 7.25833 12.2625 7.475C12.4875 7.69167 12.7667 7.8 13.1 7.8C13.2667 7.8 13.4167 7.76667 13.55 7.7C13.6833 7.63333 13.8083 7.53333 13.925 7.4L14.15 7.1C14.7833 7.46667 15.2875 7.98333 15.6625 8.65C16.0375 9.31667 16.225 10.025 16.225 10.775C16.225 11.9417 15.8125 12.9375 14.9875 13.7625C14.1625 14.5875 13.1667 15 12 15C10.8333 15 9.8375 14.5875 9.0125 13.7625C8.1875 12.9375 7.775 11.9417 7.775 10.775C7.775 9.65833 8.14583 8.59167 8.8875 7.575C9.62917 6.55833 10.6417 5.7 11.925 5ZM5.5 22C5.08333 22 4.72917 21.8542 4.4375 21.5625C4.14583 21.2708 4 20.9167 4 20.5V6C4 4.9 4.39167 3.95833 5.175 3.175C5.95833 2.39167 6.9 2 8 2H16C17.1 2 18.0417 2.39167 18.825 3.175C19.6083 3.95833 20 4.9 20 6V20.5C20 20.9167 19.8542 21.2708 19.5625 21.5625C19.2708 21.8542 18.9167 22 18.5 22H5.5ZM5.5 17.75V20.5H18.5V17.75C18 17.75 17.5583 17.9167 17.175 18.25C16.7917 18.5833 16.15 18.75 15.25 18.75C14.35 18.75 13.7208 18.5833 13.3625 18.25C13.0042 17.9167 12.55 17.75 12 17.75C11.45 17.75 10.9958 17.9167 10.6375 18.25C10.2792 18.5833 9.65 18.75 8.75 18.75C7.85 18.75 7.22083 18.5833 6.8625 18.25C6.50417 17.9167 6.05 17.75 5.5 17.75ZM8.75 17.25C9.3 17.25 9.75417 17.0833 10.1125 16.75C10.4708 16.4167 11.1 16.25 12 16.25C12.9 16.25 13.5417 16.4167 13.925 16.75C14.3083 17.0833 14.75 17.25 15.25 17.25C15.75 17.25 16.1917 17.0833 16.575 16.75C16.9583 16.4167 17.6 16.25 18.5 16.25V6C18.5 5.3 18.2583 4.70833 17.775 4.225C17.2917 3.74167 16.7 3.5 16 3.5H8C7.3 3.5 6.70833 3.74167 6.225 4.225C5.74167 4.70833 5.5 5.3 5.5 6V16.25C6.4 16.25 7.02917 16.4167 7.3875 16.75C7.74583 17.0833 8.2 17.25 8.75 17.25Z" fill="#2C2E25"/>
</svg>
