<svg width="14" height="14" viewBox="0 0 14 14" fill="none" xmlns="http://www.w3.org/2000/svg">
<path d="M7.00065 12.8333C5.69787 12.8333 4.5944 12.3812 3.69023 11.4771C2.78607 10.5729 2.33398 9.46942 2.33398 8.16664C2.33398 7.03887 2.68155 5.94512 3.37669 4.88539C4.07183 3.82567 5.02704 2.92151 6.24232 2.17289C6.4076 2.06595 6.5753 2.06352 6.74544 2.1656C6.91558 2.26769 7.00065 2.42081 7.00065 2.62498V3.67498C7.00065 4.00553 7.11489 4.28262 7.34336 4.50623C7.57183 4.72984 7.85135 4.84164 8.1819 4.84164C8.3569 4.84164 8.51975 4.80519 8.67044 4.73227C8.82114 4.65935 8.95482 4.54998 9.07148 4.40414C9.14926 4.31664 9.23676 4.25588 9.33398 4.22185C9.43121 4.18782 9.52357 4.19998 9.61107 4.25831C10.2527 4.69581 10.7559 5.2597 11.1204 5.94998C11.485 6.64025 11.6673 7.37914 11.6673 8.16664C11.6673 9.46942 11.2152 10.5729 10.3111 11.4771C9.4069 12.3812 8.30343 12.8333 7.00065 12.8333ZM3.20898 8.16664C3.20898 8.77914 3.34753 9.35519 3.62461 9.89477C3.90169 10.4344 4.28815 10.884 4.78398 11.2437C4.7451 11.1271 4.71593 11.008 4.69648 10.8864C4.67704 10.7649 4.66732 10.6458 4.66732 10.5291C4.66732 10.218 4.72565 9.92637 4.84232 9.65414C4.95898 9.38192 5.12912 9.134 5.35273 8.91039L7.00065 7.29164L8.64857 8.91039C8.87218 9.134 9.04232 9.38192 9.15898 9.65414C9.27565 9.92637 9.33398 10.218 9.33398 10.5291C9.33398 10.6458 9.32426 10.7649 9.30482 10.8864C9.28537 11.008 9.25621 11.1271 9.21732 11.2437C9.71315 10.884 10.0996 10.4344 10.3767 9.89477C10.6538 9.35519 10.7923 8.77914 10.7923 8.16664C10.7923 7.64164 10.6805 7.1288 10.4569 6.6281C10.2333 6.12741 9.91246 5.66803 9.4944 5.24998C9.29023 5.39581 9.07635 5.51005 8.85273 5.59269C8.62912 5.67532 8.40551 5.71664 8.1819 5.71664C7.58885 5.71664 7.09787 5.51491 6.70898 5.11144C6.3201 4.70796 6.12565 4.19998 6.12565 3.58748V3.29581C5.23121 3.93748 4.52148 4.69824 3.99648 5.5781C3.47148 6.45796 3.20898 7.32081 3.20898 8.16664ZM7.00065 8.51664L5.96523 9.53748C5.82912 9.67359 5.72461 9.82428 5.65169 9.98956C5.57878 10.1548 5.54232 10.3347 5.54232 10.5291C5.54232 10.9278 5.68329 11.2656 5.96523 11.5427C6.24718 11.8198 6.59232 11.9583 7.00065 11.9583C7.40898 11.9583 7.75412 11.8198 8.03607 11.5427C8.31801 11.2656 8.45898 10.9278 8.45898 10.5291C8.45898 10.3347 8.42253 10.1548 8.34961 9.98956C8.27669 9.82428 8.17218 9.67359 8.03607 9.53748L7.00065 8.51664Z" fill="#FFF7EE"/>
</svg>
