<svg width="24" height="24" viewBox="0 0 24 24" fill="none" xmlns="http://www.w3.org/2000/svg">
<path d="M7 16.5H17C18.25 16.5 19.3125 16.0625 20.1875 15.1875C21.0625 14.3125 21.5 13.25 21.5 12C21.5 10.75 21.0625 9.6875 20.1875 8.8125C19.3125 7.9375 18.25 7.5 17 7.5H7C5.75 7.5 4.6875 7.9375 3.8125 8.8125C2.9375 9.6875 2.5 10.75 2.5 12C2.5 13.25 2.9375 14.3125 3.8125 15.1875C4.6875 16.0625 5.75 16.5 7 16.5ZM9.75 6H14.25V4.75H9.75V6ZM8.5 18V20.25C8.5 20.4625 8.42767 20.6406 8.283 20.7843C8.1385 20.9281 7.95933 21 7.7455 21C7.53183 21 7.35417 20.9281 7.2125 20.7843C7.07083 20.6406 7 20.4625 7 20.25V18C5.33333 18 3.91667 17.4167 2.75 16.25C1.58333 15.0833 1 13.6667 1 12C1 10.3333 1.58333 8.91667 2.75 7.75C3.91667 6.58333 5.33333 6 7 6H8V4.5C8 4.1 8.15 3.75 8.45 3.45C8.75 3.15 9.1 3 9.5 3H14.5C14.9 3 15.25 3.15 15.55 3.45C15.85 3.75 16 4.1 16 4.5V6H17C18.6667 6 20.0833 6.58333 21.25 7.75C22.4167 8.91667 23 10.3333 23 12C23 13.6667 22.4167 15.0833 21.25 16.25C20.0833 17.4167 18.6667 18 17 18V20.25C17 20.4625 16.9277 20.6406 16.783 20.7843C16.6385 20.9281 16.4593 21 16.2455 21C16.0318 21 15.8542 20.9281 15.7125 20.7843C15.5708 20.6406 15.5 20.4625 15.5 20.25V18H8.5Z" fill="#2C2E25"/>
</svg>
