<svg width="18" height="18" viewBox="0 0 18 18" fill="none" xmlns="http://www.w3.org/2000/svg">
<path d="M9.36102 1.8977L15.0985 5.3402C15.2898 5.44145 15.4191 5.57926 15.4866 5.75363C15.5541 5.92801 15.5879 6.09957 15.5879 6.26832V14.0814C15.5879 14.3514 15.4866 14.5877 15.2841 14.7902C15.0816 14.9927 14.8454 15.0939 14.5754 15.0939H3.10039C2.83039 15.0939 2.59414 14.9927 2.39164 14.7902C2.18914 14.5877 2.08789 14.3514 2.08789 14.0814V6.26832C2.08789 6.09957 2.12445 5.92801 2.19758 5.75363C2.2707 5.57926 2.39727 5.44145 2.57727 5.3402L8.31477 1.8977C8.47767 1.8077 8.65339 1.7627 8.84194 1.7627C9.03049 1.7627 9.20352 1.8077 9.36102 1.8977ZM8.83789 9.4577L14.5079 6.13332L8.83789 2.72457L3.16789 6.13332L8.83789 9.4577ZM8.33164 10.2846L3.10039 7.21332V14.0814H14.5754V7.21332L9.34414 10.2846C9.1881 10.3746 9.01969 10.4196 8.8389 10.4196C8.65823 10.4196 8.48914 10.3746 8.33164 10.2846Z" fill="#2C2E25"/>
</svg>
