<svg width="24" height="24" viewBox="0 0 24 24" fill="none" xmlns="http://www.w3.org/2000/svg">
<path d="M12.002 5.65C11.5007 5.65 11.0708 5.4715 10.7125 5.1145C10.3542 4.7575 10.175 4.32833 10.175 3.827C10.175 3.32567 10.3535 2.89583 10.7105 2.5375C11.0675 2.17917 11.4967 2 11.998 2C12.4993 2 12.9292 2.1785 13.2875 2.5355C13.6458 2.8925 13.825 3.32167 13.825 3.823C13.825 4.32433 13.6465 4.75417 13.2895 5.1125C12.9325 5.47083 12.5033 5.65 12.002 5.65ZM9.3 21.25V8.675H3.75C3.5375 8.675 3.35942 8.60267 3.21575 8.458C3.07192 8.3135 3 8.13433 3 7.9205C3 7.70683 3.07192 7.52917 3.21575 7.3875C3.35942 7.24583 3.5375 7.175 3.75 7.175H20.25C20.4625 7.175 20.6407 7.24733 20.7845 7.392C20.9282 7.5365 21 7.71567 21 7.9295C21 8.14317 20.9282 8.32083 20.7845 8.4625C20.6407 8.60417 20.4625 8.675 20.25 8.675H14.7V21.25C14.7 21.4625 14.6277 21.6406 14.483 21.7842C14.3385 21.9281 14.1593 22 13.9455 22C13.7318 22 13.5542 21.9281 13.4125 21.7842C13.2708 21.6406 13.2 21.4625 13.2 21.25V15.5H10.8V21.25C10.8 21.4625 10.7277 21.6406 10.583 21.7842C10.4385 21.9281 10.2593 22 10.0455 22C9.83183 22 9.65417 21.9281 9.5125 21.7842C9.37083 21.6406 9.3 21.4625 9.3 21.25Z" fill="#2C2E25"/>
</svg>
