<svg width="24" height="24" viewBox="0 0 24 24" fill="none" xmlns="http://www.w3.org/2000/svg">
<path d="M9.5 20.5C9.91658 20.5 10.2709 20.5955 10.5625 20.7871C10.8542 20.9788 11 21.2167 11 21.5C11 21.75 10.8542 21.8958 10.5625 21.9375C10.2708 21.9792 9.91667 22 9.5 22C9.08333 22 8.72917 21.9792 8.4375 21.9375C8.14583 21.8958 8 21.75 8 21.5C8 21.2167 8.14583 20.9788 8.4375 20.7871C8.72913 20.5955 9.08342 20.5 9.5 20.5Z" fill="#2C2E25"/>
<path d="M5.5 19.5C5.91658 19.5 6.27087 19.5955 6.5625 19.7871C6.85417 19.9788 7 20.2167 7 20.5C7 20.75 6.85417 20.8958 6.5625 20.9375C6.27083 20.9792 5.91667 21 5.5 21C5.08333 21 4.72917 20.9792 4.4375 20.9375C4.14583 20.8958 4 20.75 4 20.5C4 20.2167 4.14583 19.9788 4.4375 19.7871C4.72913 19.5955 5.08342 19.5 5.5 19.5Z" fill="#2C2E25"/>
<path d="M13.5 19.5C13.9166 19.5 14.2709 19.5955 14.5625 19.7871C14.8542 19.9788 15 20.2167 15 20.5C15 20.75 14.8542 20.8958 14.5625 20.9375C14.2708 20.9792 13.9167 21 13.5 21C13.0833 21 12.7292 20.9792 12.4375 20.9375C12.1458 20.8958 12 20.75 12 20.5C12 20.2167 12.1458 19.9788 12.4375 19.7871C12.7291 19.5955 13.0834 19.5 13.5 19.5Z" fill="#2C2E25"/>
<path d="M18.5 19.5C18.9166 19.5 19.2709 19.5955 19.5625 19.7871C19.8542 19.9788 20 20.2167 20 20.5C20 20.75 19.8542 20.8958 19.5625 20.9375C19.2708 20.9792 18.9167 21 18.5 21C18.0833 21 17.7292 20.9792 17.4375 20.9375C17.1458 20.8958 17 20.75 17 20.5C17 20.2167 17.1458 19.9788 17.4375 19.7871C17.7291 19.5955 18.0834 19.5 18.5 19.5Z" fill="#2C2E25"/>
<path d="M10.5 17.5C10.9166 17.5 11.2709 17.5955 11.5625 17.7871C11.8542 17.9788 12 18.2167 12 18.5C12 18.75 11.8542 18.8958 11.5625 18.9375C11.2708 18.9792 10.9167 19 10.5 19C10.0833 19 9.72917 18.9792 9.4375 18.9375C9.14583 18.8958 9 18.75 9 18.5C9 18.2167 9.14583 17.9788 9.4375 17.7871C9.72913 17.5955 10.0834 17.5 10.5 17.5Z" fill="#2C2E25"/>
<path d="M7.15039 10.4004C7.52522 10.4005 7.84404 10.5365 8.10645 10.8086C8.36872 11.0808 8.49996 11.4112 8.5 11.7998C8.5 12.1748 8.37057 12.4934 8.1123 12.7559C7.85397 13.0184 7.53089 13.1504 7.14355 13.1504C6.75658 13.1503 6.42731 13.0209 6.15625 12.7627C5.88527 12.5044 5.75 12.1813 5.75 11.7939C5.75001 11.4068 5.88611 11.0778 6.1582 10.8066C6.43054 10.5356 6.76156 10.4004 7.15039 10.4004Z" fill="#2C2E25"/>
<path d="M16.8809 10.4004C17.268 10.4004 17.597 10.5364 17.8682 10.8086C18.1391 11.0809 18.2753 11.4111 18.2754 11.7998C18.2754 12.1746 18.1391 12.4934 17.8672 12.7559C17.5949 13.0184 17.2638 13.1504 16.875 13.1504C16.5001 13.1504 16.1814 13.0209 15.9189 12.7627C15.6564 12.5044 15.5254 12.1813 15.5254 11.7939C15.5254 11.4069 15.654 11.0777 15.9121 10.8066C16.1704 10.5357 16.4936 10.4004 16.8809 10.4004Z" fill="#2C2E25"/>
<path fill-rule="evenodd" clip-rule="evenodd" d="M17.7998 2C18.0531 2 18.2836 2.06686 18.4902 2.2002C18.6968 2.33351 18.825 2.51676 18.875 2.75L20.875 8.7998C20.9107 8.92047 20.94 9.03865 20.9639 9.15332C20.9877 9.26792 21 9.39215 21 9.52539V17C21 17.2778 20.9017 17.5137 20.7061 17.708C20.5106 17.9024 20.2735 18 19.9941 18C19.7149 18 19.4753 17.9003 19.2754 17.7012C19.0754 17.5018 18.9746 17.2593 18.9746 16.9746V15.9004H5V17C5 17.2778 4.90172 17.5137 4.70605 17.708C4.51061 17.9024 4.27353 18 3.99414 18C3.71481 18 3.47878 17.9025 3.28711 17.708C3.09565 17.5137 3 17.2777 3 17V9.52539C3 9.39893 3.01212 9.27524 3.03711 9.15527C3.06211 9.03511 3.09167 8.91647 3.125 8.7998L5.125 2.75C5.17498 2.51676 5.30325 2.33351 5.50977 2.2002C5.71643 2.06686 5.94686 2 6.2002 2H17.7998ZM4.5 14.4004H19.5V9.15039H4.5V14.4004ZM5.0752 7.65039H18.9248L17.5498 3.5H6.4502L5.0752 7.65039Z" fill="#2C2E25"/>
</svg>
