<svg width="25" height="24" viewBox="0 0 25 24" fill="none" xmlns="http://www.w3.org/2000/svg">
<mask id="mask0_8026_302383" style="mask-type:alpha" maskUnits="userSpaceOnUse" x="0" y="0" width="25" height="24">
<rect x="0.5" width="24" height="24" fill="#D9D9D9"/>
</mask>
<g mask="url(#mask0_8026_302383)">
<path d="M10.25 6.5H17.75C17.9625 6.5 18.1407 6.57233 18.2845 6.717C18.4282 6.8615 18.5 7.04067 18.5 7.2545C18.5 7.46817 18.4282 7.64583 18.2845 7.7875C18.1407 7.92917 17.9625 8 17.75 8H10.25C10.0375 8 9.85942 7.92767 9.71575 7.783C9.57192 7.6385 9.5 7.45933 9.5 7.2455C9.5 7.03183 9.57192 6.85417 9.71575 6.7125C9.85942 6.57083 10.0375 6.5 10.25 6.5ZM10.25 9.5H17.75C17.9625 9.5 18.1407 9.57233 18.2845 9.717C18.4282 9.8615 18.5 10.0407 18.5 10.2545C18.5 10.4682 18.4282 10.6458 18.2845 10.7875C18.1407 10.9292 17.9625 11 17.75 11H10.25C10.0375 11 9.85942 10.9277 9.71575 10.783C9.57192 10.6385 9.5 10.4593 9.5 10.2455C9.5 10.0318 9.57192 9.85417 9.71575 9.7125C9.85942 9.57083 10.0375 9.5 10.25 9.5ZM6.125 22C5.39583 22 4.77608 21.7448 4.26575 21.2343C3.75525 20.7239 3.5 20.1042 3.5 19.375V16.75C3.5 16.5375 3.57192 16.3593 3.71575 16.2155C3.85942 16.0718 4.0375 16 4.25 16H6.5V3.5C6.5 3.0875 6.64692 2.73433 6.94075 2.4405C7.23442 2.14683 7.5875 2 8 2H20C20.4125 2 20.7657 2.14683 21.0595 2.4405C21.3532 2.73433 21.5 3.0875 21.5 3.5V10.25C21.5 10.4625 21.4277 10.6406 21.283 10.7843C21.1385 10.9281 20.9593 11 20.7455 11C20.5318 11 20.3542 10.9281 20.2125 10.7843C20.0708 10.6406 20 10.4625 20 10.25V3.5H8V16H12.25C12.4625 16 12.6407 16.0723 12.7845 16.217C12.9282 16.3615 13 16.5407 13 16.7545C13 16.9682 12.9282 17.1458 12.7845 17.2875C12.6407 17.4292 12.4625 17.5 12.25 17.5H5V19.375C5 19.6937 5.10833 19.9608 5.325 20.1765C5.54167 20.3922 5.8 20.5 6.1 20.5H12.25C12.4625 20.5 12.6407 20.5723 12.7845 20.717C12.9282 20.8615 13 21.0407 13 21.2545C13 21.4682 12.9282 21.6458 12.7845 21.7875C12.6407 21.9292 12.4625 22 12.25 22H6.125ZM14.5 21.25V19.225C14.5 19.1322 14.5167 19.0423 14.55 18.9555C14.5833 18.8685 14.6417 18.7833 14.725 18.7L20.0152 13.4308C20.1671 13.2788 20.3358 13.1689 20.5215 13.1012C20.7072 13.0337 20.8917 13 21.075 13C21.275 13 21.4667 13.0375 21.65 13.1125C21.8333 13.1875 22 13.3 22.15 13.45L23.075 14.375C23.225 14.525 23.3333 14.6917 23.4 14.875C23.4667 15.0583 23.5 15.2417 23.5 15.425C23.5 15.6083 23.4625 15.7958 23.3875 15.9875C23.3125 16.1792 23.1993 16.351 23.048 16.503L17.8 21.775C17.7167 21.8583 17.6315 21.9167 17.5445 21.95C17.4577 21.9833 17.3678 22 17.275 22H15.25C15.0375 22 14.8594 21.9281 14.7158 21.7843C14.5719 21.6406 14.5 21.4625 14.5 21.25ZM16 20.5H16.95L19.975 17.45L19.525 16.975L19.05 16.525L16 19.55V20.5ZM19.525 16.975L19.05 16.525L19.975 17.45L19.525 16.975Z" fill="#2C2E25"/>
</g>
</svg>
