<svg width="24" height="24" viewBox="0 0 24 24" fill="none" xmlns="http://www.w3.org/2000/svg">
<path d="M2.75733 17.1905C2.54028 17.1905 2.35979 17.1174 2.21587 16.9713C2.07196 16.8254 2 16.6444 2 16.4286V7.79365C2 7.57778 2.07348 7.39678 2.22044 7.25067C2.36724 7.10472 2.54925 7.03175 2.76648 7.03175C2.98353 7.03175 3.16402 7.10472 3.30794 7.25067C3.45185 7.39678 3.52381 7.57778 3.52381 7.79365V16.4286C3.52381 16.6444 3.45033 16.8254 3.30337 16.9713C3.15657 17.1174 2.97456 17.1905 2.75733 17.1905ZM5.80952 19.2222C5.59365 19.2222 5.41274 19.1492 5.26679 19.003C5.12068 18.8571 5.04762 18.6762 5.04762 18.4603V8.80952C5.04762 7.74286 5.42061 6.84127 6.1666 6.10476C6.91276 5.36825 7.80961 5 8.85714 5H15.4603C16.527 5 17.4286 5.36825 18.1651 6.10476C18.9016 6.84127 19.2698 7.74286 19.2698 8.80952V18.4603C19.2698 18.6762 19.1969 18.8571 19.0509 19.003C18.9048 19.1492 18.7238 19.2222 18.5079 19.2222H5.80952ZM21.551 17.1905C21.3339 17.1905 21.1534 17.1174 21.0095 16.9713C20.8656 16.8254 20.7936 16.6444 20.7936 16.4286V7.79365C20.7936 7.57778 20.8671 7.39678 21.0141 7.25067C21.1609 7.10472 21.3429 7.03175 21.5601 7.03175C21.7772 7.03175 21.9577 7.10472 22.1016 7.25067C22.2455 7.39678 22.3175 7.57778 22.3175 7.79365V16.4286C22.3175 16.6444 22.244 16.8254 22.097 16.9713C21.9502 17.1174 21.7682 17.1905 21.551 17.1905ZM6.57143 17.6984H11.3968V12.873H10.127C9.91111 12.873 9.7302 12.7995 9.58425 12.6526C9.43814 12.5058 9.36508 12.3238 9.36508 12.1065C9.36508 11.8895 9.43814 11.709 9.58425 11.5651C9.7302 11.4212 9.91111 11.3492 10.127 11.3492H11.3968V6.52381H8.85714C8.22866 6.52381 7.69058 6.74392 7.24292 7.18413C6.79526 7.62434 6.57143 8.16614 6.57143 8.80952V17.6984ZM12.9206 17.6984H17.746V8.80952C17.746 8.16614 17.5259 7.62434 17.0857 7.18413C16.6455 6.74392 16.1037 6.52381 15.4603 6.52381H12.9206V11.3492H14.1905C14.4063 11.3492 14.5873 11.4227 14.7335 11.5697C14.8794 11.7164 14.9524 11.8985 14.9524 12.1157C14.9524 12.3327 14.8794 12.5132 14.7335 12.6571C14.5873 12.8011 14.4063 12.873 14.1905 12.873H12.9206V17.6984Z" fill="#2C2E25"/>
</svg>
