<svg width="24" height="24" viewBox="0 0 24 24" fill="none" xmlns="http://www.w3.org/2000/svg">
<path d="M12.5004 19.425L19.5004 9.5L12.5004 2.5L5.50039 9.5L12.5004 19.425ZM10.0004 22.825C9.20039 22.825 8.47539 22.5875 7.82539 22.1125C7.17539 21.6375 6.70039 21 6.40039 20.2C6.23372 19.75 5.99714 19.3958 5.69064 19.1375C5.38431 18.8792 5.03756 18.75 4.65039 18.75C4.36706 18.75 4.08789 18.8125 3.81289 18.9375C3.53789 19.0625 3.27539 19.2417 3.02539 19.475C2.95872 19.5417 2.88539 19.5917 2.80539 19.625C2.72539 19.6583 2.63206 19.675 2.52539 19.675C2.32539 19.675 2.15039 19.6 2.00039 19.45C1.85039 19.3 1.77539 19.123 1.77539 18.919C1.77539 18.823 1.79206 18.7309 1.82539 18.6428C1.85872 18.5544 1.91706 18.4735 2.00039 18.4C2.36706 18.0333 2.77756 17.75 3.23189 17.55C3.68606 17.35 4.15889 17.25 4.65039 17.25C5.35039 17.25 5.98789 17.475 6.56289 17.925C7.13789 18.375 7.57539 18.9917 7.87539 19.775C8.05872 20.2583 8.34247 20.6375 8.72664 20.9125C9.11081 21.1875 9.53539 21.325 10.0004 21.325C10.3171 21.325 10.6129 21.2667 10.8879 21.15C11.1629 21.0333 11.3921 20.875 11.5754 20.675L4.30039 10.375C4.19372 10.2382 4.11706 10.0952 4.07039 9.946C4.02372 9.79683 4.00039 9.64767 4.00039 9.4985C4.00039 9.2995 4.03789 9.10867 4.11289 8.926C4.18789 8.74317 4.30039 8.57617 4.45039 8.425L11.4504 1.425C11.5846 1.2895 11.7431 1.18475 11.9259 1.11075C12.1089 1.03692 12.3004 1 12.5004 1C12.7004 1 12.8919 1.03692 13.0749 1.11075C13.2577 1.18475 13.4162 1.2895 13.5504 1.425L20.5504 8.425C20.7004 8.57583 20.8129 8.74242 20.8879 8.92475C20.9629 9.10708 21.0004 9.29883 21.0004 9.5C21.0004 9.66667 20.9754 9.82083 20.9254 9.9625C20.8754 10.1042 20.8087 10.2417 20.7254 10.375L12.9004 21.425C12.5837 21.8583 12.1712 22.2 11.6629 22.45C11.1546 22.7 10.6004 22.825 10.0004 22.825Z" fill="#2C2E25"/>
</svg>
