<svg width="32" height="32" viewBox="0 0 32 32" fill="none" xmlns="http://www.w3.org/2000/svg">
<path d="M16.2869 23.2449C18.2573 21.4523 19.7128 19.8264 20.6536 18.3671C21.5943 16.9078 22.0647 15.6227 22.0647 14.5115C22.0647 12.7665 21.507 11.3376 20.3916 10.2249C19.2762 9.11229 17.9079 8.55599 16.2869 8.55599C14.6659 8.55599 13.2976 9.11229 12.1822 10.2249C11.0668 11.3376 10.5091 12.7665 10.5091 14.5115C10.5091 15.6227 10.9906 16.9078 11.9536 18.3671C12.9165 19.8264 14.361 21.4523 16.2869 23.2449ZM16.2813 24.556C16.1221 24.556 15.9647 24.5301 15.8091 24.4782C15.6536 24.4264 15.5165 24.3412 15.398 24.2227C14.7758 23.6597 14.1017 23.0115 13.3758 22.2782C12.6499 21.5449 11.9758 20.756 11.3536 19.9115C10.7313 19.0671 10.2128 18.1856 9.798 17.2671C9.38319 16.3486 9.17578 15.4301 9.17578 14.5115C9.17578 12.2893 9.8906 10.519 11.3202 9.20043C12.7499 7.88192 14.4054 7.22266 16.2869 7.22266C18.1684 7.22266 19.8239 7.88192 21.2536 9.20043C22.6832 10.519 23.398 12.2893 23.398 14.5115C23.398 15.4301 23.1906 16.3486 22.7758 17.2671C22.361 18.1856 21.8424 19.0671 21.2202 19.9115C20.598 20.756 19.9239 21.5449 19.198 22.2782C18.4721 23.0115 17.798 23.6597 17.1758 24.2227C17.0573 24.3412 16.9184 24.4264 16.7591 24.4782C16.5999 24.5301 16.4406 24.556 16.2813 24.556ZM16.2889 15.8893C16.7172 15.8893 17.0832 15.7368 17.3869 15.4318C17.6906 15.1267 17.8424 14.7601 17.8424 14.3318C17.8424 13.9035 17.6899 13.5375 17.3849 13.2338C17.0799 12.9301 16.7132 12.7782 16.2849 12.7782C15.8566 12.7782 15.4906 12.9307 15.1869 13.2358C14.8832 13.5408 14.7313 13.9075 14.7313 14.3358C14.7313 14.7641 14.8839 15.1301 15.1889 15.4338C15.4939 15.7375 15.8606 15.8893 16.2889 15.8893Z" fill="#2C2E25"/>
</svg>
