<svg width="32" height="32" viewBox="0 0 32 32" fill="none" xmlns="http://www.w3.org/2000/svg">
<path d="M9.5 23.0003V9.00033C9.5 8.71699 9.59644 8.47944 9.78933 8.28766C9.982 8.0961 10.2209 8.00033 10.506 8.00033C10.7909 8.00033 11.0278 8.0961 11.2167 8.28766C11.4056 8.47944 11.5 8.71699 11.5 9.00033V23.0003C11.5 23.2837 11.4036 23.5211 11.2107 23.7127C11.018 23.9044 10.7791 24.0003 10.494 24.0003C10.2091 24.0003 9.97222 23.9044 9.78333 23.7127C9.59444 23.5211 9.5 23.2837 9.5 23.0003ZM15 28.3337V3.66699C15 3.38366 15.0964 3.1461 15.2893 2.95433C15.482 2.76277 15.7209 2.66699 16.006 2.66699C16.2909 2.66699 16.5278 2.76277 16.7167 2.95433C16.9056 3.1461 17 3.38366 17 3.66699V28.3337C17 28.617 16.9036 28.8544 16.7107 29.046C16.518 29.2378 16.2791 29.3337 15.994 29.3337C15.7091 29.3337 15.4722 29.2378 15.2833 29.046C15.0944 28.8544 15 28.617 15 28.3337ZM4 17.667V14.3337C4 14.0503 4.09644 13.8128 4.28933 13.621C4.482 13.4294 4.72089 13.3337 5.006 13.3337C5.29089 13.3337 5.52778 13.4294 5.71667 13.621C5.90556 13.8128 6 14.0503 6 14.3337V17.667C6 17.9503 5.90356 18.1878 5.71067 18.3793C5.518 18.5711 5.27911 18.667 4.994 18.667C4.70911 18.667 4.47222 18.5711 4.28333 18.3793C4.09444 18.1878 4 17.9503 4 17.667ZM20.5 23.0003V9.00033C20.5 8.71699 20.5964 8.47944 20.7893 8.28766C20.982 8.0961 21.2209 8.00033 21.506 8.00033C21.7909 8.00033 22.0278 8.0961 22.2167 8.28766C22.4056 8.47944 22.5 8.71699 22.5 9.00033V23.0003C22.5 23.2837 22.4036 23.5211 22.2107 23.7127C22.018 23.9044 21.7791 24.0003 21.494 24.0003C21.2091 24.0003 20.9722 23.9044 20.7833 23.7127C20.5944 23.5211 20.5 23.2837 20.5 23.0003ZM26 17.667V14.3337C26 14.0503 26.0964 13.8128 26.2893 13.621C26.482 13.4294 26.7209 13.3337 27.006 13.3337C27.2909 13.3337 27.5278 13.4294 27.7167 13.621C27.9056 13.8128 28 14.0503 28 14.3337V17.667C28 17.9503 27.9036 18.1878 27.7107 18.3793C27.518 18.5711 27.2791 18.667 26.994 18.667C26.7091 18.667 26.4722 18.5711 26.2833 18.3793C26.0944 18.1878 26 17.9503 26 17.667Z" fill="#2C2E25"/>
</svg>
