<svg width="12" height="12" viewBox="0 0 12 12" fill="none" xmlns="http://www.w3.org/2000/svg">
<path d="M6 3.75C5.55499 3.75 5.11998 3.88196 4.74997 4.12919C4.37996 4.37643 4.09157 4.72783 3.92127 5.13896C3.75097 5.5501 3.70642 6.0025 3.79323 6.43895C3.88005 6.87541 4.09434 7.27632 4.40901 7.59099C4.72368 7.90566 5.12459 8.11995 5.56105 8.20677C5.9975 8.29358 6.4499 8.24903 6.86104 8.07873C7.27217 7.90843 7.62357 7.62004 7.87081 7.25003C8.11804 6.88002 8.25 6.44501 8.25 6C8.24938 5.40345 8.01213 4.83152 7.59031 4.4097C7.16848 3.98787 6.59655 3.75062 6 3.75ZM6 7.5C5.70333 7.5 5.41332 7.41203 5.16665 7.2472C4.91997 7.08238 4.72771 6.84811 4.61418 6.57403C4.50065 6.29994 4.47094 5.99834 4.52882 5.70736C4.5867 5.41639 4.72956 5.14912 4.93934 4.93934C5.14912 4.72956 5.41639 4.5867 5.70736 4.52882C5.99834 4.47094 6.29994 4.50065 6.57403 4.61418C6.84811 4.72771 7.08238 4.91997 7.2472 5.16665C7.41203 5.41332 7.5 5.70333 7.5 6C7.5 6.39782 7.34196 6.77936 7.06066 7.06066C6.77936 7.34196 6.39782 7.5 6 7.5ZM8.25 1.125H3.75C3.05404 1.12574 2.38679 1.40255 1.89467 1.89467C1.40255 2.38679 1.12574 3.05404 1.125 3.75V8.25C1.12574 8.94596 1.40255 9.61321 1.89467 10.1053C2.38679 10.5975 3.05404 10.8743 3.75 10.875H8.25C8.94596 10.8743 9.61321 10.5975 10.1053 10.1053C10.5975 9.61321 10.8743 8.94596 10.875 8.25V3.75C10.8743 3.05404 10.5975 2.38679 10.1053 1.89467C9.61321 1.40255 8.94596 1.12574 8.25 1.125ZM10.125 8.25C10.125 8.74728 9.92746 9.22419 9.57582 9.57582C9.22419 9.92746 8.74728 10.125 8.25 10.125H3.75C3.25272 10.125 2.77581 9.92746 2.42417 9.57582C2.07254 9.22419 1.875 8.74728 1.875 8.25V3.75C1.875 3.25272 2.07254 2.77581 2.42417 2.42417C2.77581 2.07254 3.25272 1.875 3.75 1.875H8.25C8.74728 1.875 9.22419 2.07254 9.57582 2.42417C9.92746 2.77581 10.125 3.25272 10.125 3.75V8.25ZM9 3.5625C9 3.67375 8.96701 3.78251 8.9052 3.87501C8.84339 3.96751 8.75554 4.03961 8.65276 4.08218C8.54998 4.12476 8.43688 4.1359 8.32776 4.11419C8.21865 4.09249 8.11842 4.03891 8.03975 3.96025C7.96109 3.88158 7.90751 3.78135 7.88581 3.67224C7.8641 3.56312 7.87524 3.45002 7.91782 3.34724C7.96039 3.24446 8.03249 3.15661 8.12499 3.0948C8.21749 3.03299 8.32625 3 8.4375 3C8.58668 3 8.72976 3.05926 8.83525 3.16475C8.94074 3.27024 9 3.41332 9 3.5625Z" fill="black"/>
</svg>
