<svg width="12" height="12" viewBox="0 0 12 12" fill="none" xmlns="http://www.w3.org/2000/svg">
<path d="M9.52047 9.52039H8.03879V7.2C8.03879 6.64669 8.02891 5.93439 7.26816 5.93439C6.49645 5.93439 6.37837 6.53726 6.37837 7.15972V9.52024H4.89668V4.74858H6.3191V5.40068H6.33901C6.48136 5.15729 6.68707 4.95706 6.93421 4.82133C7.18135 4.68559 7.46068 4.61943 7.74245 4.62989C9.24421 4.62989 9.52109 5.61768 9.52109 6.90274L9.52047 9.52039ZM3.22484 4.09633C3.05478 4.09636 2.88853 4.04596 2.74711 3.95151C2.60569 3.85705 2.49547 3.72278 2.43036 3.56568C2.36525 3.40857 2.34819 3.23569 2.38134 3.06889C2.41449 2.90209 2.49635 2.74887 2.61658 2.6286C2.73681 2.50832 2.89001 2.4264 3.0568 2.3932C3.22358 2.35999 3.39647 2.37699 3.55359 2.44204C3.71072 2.50709 3.84503 2.61727 3.93954 2.75866C4.03404 2.90004 4.0845 3.06627 4.08453 3.23633C4.08455 3.34925 4.06233 3.46106 4.01914 3.56539C3.97594 3.66972 3.91263 3.76452 3.8328 3.84438C3.75297 3.92424 3.65819 3.98759 3.55388 4.03082C3.44956 4.07405 3.33776 4.09631 3.22484 4.09633ZM3.96569 9.52039H2.48246V4.74858H3.96569V9.52039ZM10.2592 1.00068H1.73791C1.5445 0.998499 1.35813 1.07319 1.21977 1.20834C1.0814 1.3435 1.00236 1.52805 1 1.72146V10.2781C1.00228 10.4716 1.08127 10.6562 1.21963 10.7915C1.358 10.9268 1.54441 11.0017 1.73791 10.9996H10.2592C10.453 11.002 10.64 10.9274 10.7789 10.7921C10.9178 10.6568 10.9973 10.4719 11 10.2781V1.72084C10.9972 1.52705 10.9177 1.34229 10.7787 1.20714C10.6398 1.07199 10.4529 0.997508 10.2592 1.00006" fill="black"/>
</svg>
