<svg width="24" height="24" viewBox="0 0 24 24" fill="none" xmlns="http://www.w3.org/2000/svg">
<path d="M3.77628 14.3496C3.57628 14.2006 3.48045 14.005 3.48878 13.7629C3.49711 13.5207 3.60195 13.3246 3.80328 13.1746C3.94161 13.0746 4.09253 13.0246 4.25603 13.0246C4.41953 13.0246 4.56795 13.0746 4.70128 13.1746L12.0013 18.8496L19.3013 13.1746C19.4399 13.0746 19.5913 13.0246 19.7553 13.0246C19.9193 13.0246 20.07 13.0744 20.2075 13.1739C20.4075 13.323 20.5107 13.5188 20.517 13.7611C20.5232 14.0034 20.4263 14.1996 20.2263 14.3496L12.9263 20.0246C12.6513 20.2413 12.345 20.3496 12.0075 20.3496C11.67 20.3496 11.3596 20.2413 11.0763 20.0246L3.77628 14.3496ZM11.0763 16.2246L4.52628 11.1246C4.14295 10.8266 3.95128 10.4354 3.95128 9.95111C3.95128 9.46678 4.14295 9.07461 4.52628 8.77461L11.0763 3.67461C11.3513 3.45794 11.6575 3.34961 11.995 3.34961C12.3325 3.34961 12.6429 3.45794 12.9263 3.67461L19.4763 8.77461C19.8596 9.07261 20.0513 9.46378 20.0513 9.94811C20.0513 10.4324 19.8596 10.8246 19.4763 11.1246L12.9263 16.2246C12.6513 16.4413 12.345 16.5496 12.0075 16.5496C11.67 16.5496 11.3596 16.4413 11.0763 16.2246ZM12.0013 15.0496L18.5513 9.94961L12.0013 4.84961L5.45128 9.94961L12.0013 15.0496Z" fill="#2C2E25"/>
</svg>
