<svg width="24" height="24" viewBox="0 0 24 24" fill="none" xmlns="http://www.w3.org/2000/svg">
<path d="M7.54167 16.4481V7.1148C7.54167 6.92591 7.60596 6.76754 7.73456 6.63969C7.863 6.51199 8.02226 6.44813 8.21233 6.44813C8.40226 6.44813 8.56018 6.51199 8.68611 6.63969C8.81204 6.76754 8.875 6.92591 8.875 7.1148V16.4481C8.875 16.637 8.8107 16.7953 8.68211 16.923C8.55367 17.0509 8.39441 17.1148 8.20433 17.1148C8.01441 17.1148 7.85648 17.0509 7.73056 16.923C7.60463 16.7953 7.54167 16.637 7.54167 16.4481ZM11.2083 20.0037V3.55924C11.2083 3.37036 11.2726 3.21199 11.4012 3.08413C11.5297 2.95643 11.6889 2.89258 11.879 2.89258C12.0689 2.89258 12.2269 2.95643 12.3528 3.08413C12.4787 3.21199 12.5417 3.37036 12.5417 3.55924V20.0037C12.5417 20.1926 12.4774 20.3509 12.3488 20.4786C12.2203 20.6064 12.0611 20.6704 11.871 20.6704C11.6811 20.6704 11.5231 20.6064 11.3972 20.4786C11.2713 20.3509 11.2083 20.1926 11.2083 20.0037ZM3.875 12.8926V10.6704C3.875 10.4815 3.9393 10.3231 4.06789 10.1952C4.19633 10.0675 4.35559 10.0037 4.54567 10.0037C4.73559 10.0037 4.89352 10.0675 5.01944 10.1952C5.14537 10.3231 5.20833 10.4815 5.20833 10.6704V12.8926C5.20833 13.0815 5.14404 13.2398 5.01544 13.3675C4.887 13.4953 4.72774 13.5592 4.53767 13.5592C4.34774 13.5592 4.18981 13.4953 4.06389 13.3675C3.93796 13.2398 3.875 13.0815 3.875 12.8926ZM14.875 16.4481V7.1148C14.875 6.92591 14.9393 6.76754 15.0679 6.63969C15.1963 6.51199 15.3556 6.44813 15.5457 6.44813C15.7356 6.44813 15.8935 6.51199 16.0194 6.63969C16.1454 6.76754 16.2083 6.92591 16.2083 7.1148V16.4481C16.2083 16.637 16.144 16.7953 16.0154 16.923C15.887 17.0509 15.7277 17.1148 15.5377 17.1148C15.3477 17.1148 15.1898 17.0509 15.0639 16.923C14.938 16.7953 14.875 16.637 14.875 16.4481ZM18.5417 12.8926V10.6704C18.5417 10.4815 18.606 10.3231 18.7346 10.1952C18.863 10.0675 19.0223 10.0037 19.2123 10.0037C19.4023 10.0037 19.5602 10.0675 19.6861 10.1952C19.812 10.3231 19.875 10.4815 19.875 10.6704V12.8926C19.875 13.0815 19.8107 13.2398 19.6821 13.3675C19.5537 13.4953 19.3944 13.5592 19.2043 13.5592C19.0144 13.5592 18.8565 13.4953 18.7306 13.3675C18.6046 13.2398 18.5417 13.0815 18.5417 12.8926Z" fill="#2C2E25"/>
</svg>
