<svg width="24" height="24" viewBox="0 0 24 24" fill="none" xmlns="http://www.w3.org/2000/svg">
<path d="M12.0049 2.25C12.1557 2.25008 12.2678 2.29789 12.3594 2.39062C12.4524 2.48503 12.5 2.59932 12.5 2.75V21.25C12.5 21.399 12.4517 21.5119 12.3564 21.6064V21.6074C12.2613 21.702 12.1463 21.75 11.9951 21.75C11.8443 21.7499 11.7323 21.7014 11.6406 21.6084C11.5478 21.5142 11.5 21.4006 11.5 21.25V19.75H3.5C3.17064 19.75 2.88323 19.6293 2.62695 19.373C2.37068 19.1168 2.25 18.8294 2.25 18.5V5.5C2.25 5.17064 2.37068 4.88323 2.62695 4.62695C2.88323 4.37068 3.17064 4.25 3.5 4.25H11.5V2.75C11.5 2.60096 11.5482 2.48735 11.6436 2.39258C11.7387 2.29815 11.8536 2.25 12.0049 2.25ZM15 4.25H20.5C20.8294 4.25 21.1168 4.37068 21.373 4.62695C21.6293 4.88323 21.75 5.17064 21.75 5.5V18.5C21.75 18.8294 21.6293 19.1168 21.373 19.373C21.1168 19.6293 20.8294 19.75 20.5 19.75H15C14.851 19.75 14.7381 19.7017 14.6436 19.6064H14.6426C14.548 19.5113 14.5 19.3963 14.5 19.2451C14.5001 19.0943 14.5486 18.9823 14.6416 18.8906C14.7358 18.7978 14.8494 18.75 15 18.75H20.75V5.25H15C14.851 5.25 14.7381 5.20166 14.6436 5.10645H14.6426C14.548 5.01133 14.5 4.89629 14.5 4.74512C14.5001 4.59426 14.5486 4.48226 14.6416 4.39062C14.7358 4.29781 14.8494 4.25 15 4.25Z" fill="#2C2E25" stroke="#2C2E25" stroke-width="0.5"/>
</svg>
