<svg width="24" height="24" viewBox="0 0 24 24" fill="none" xmlns="http://www.w3.org/2000/svg">
<path d="M12.0209 19C11.8073 19 11.6296 18.9281 11.4879 18.7842C11.3463 18.6406 11.2754 18.4625 11.2754 18.25V11H5.70044C5.44294 11 5.23686 10.8958 5.08219 10.6875C4.92769 10.4792 4.89211 10.2583 4.97544 10.025L7.12544 3.05C7.22727 2.7375 7.41169 2.48433 7.67869 2.2905C7.94586 2.09683 8.24477 2 8.57544 2H15.4754C15.8061 2 16.105 2.09683 16.3722 2.2905C16.6392 2.48433 16.8236 2.7375 16.9254 3.05L19.0754 10.025C19.1588 10.2583 19.1232 10.4792 18.9687 10.6875C18.814 10.8958 18.6079 11 18.3504 11H12.7754V18.25C12.7754 18.4625 12.7031 18.6406 12.5584 18.7842C12.4139 18.9281 12.2348 19 12.0209 19ZM6.70044 9.5H17.3504L15.5004 3.5H8.55044L6.70044 9.5ZM9.02544 22C8.81294 22 8.63486 21.9277 8.49119 21.783C8.34736 21.6385 8.27544 21.4593 8.27544 21.2455C8.27544 21.0318 8.34736 20.8542 8.49119 20.7125C8.63486 20.5708 8.81294 20.5 9.02544 20.5H15.0254C15.2379 20.5 15.4161 20.5723 15.5599 20.717C15.7036 20.8615 15.7754 21.0407 15.7754 21.2545C15.7754 21.4682 15.7036 21.6458 15.5599 21.7875C15.4161 21.9292 15.2379 22 15.0254 22H9.02544Z" fill="#2C2E25"/>
</svg>
