<svg width="24" height="24" viewBox="0 0 24 24" fill="none" xmlns="http://www.w3.org/2000/svg">
<path d="M11.252 20.501V16.001H9.00195C7.61862 16.001 6.43945 15.5135 5.46445 14.5385C4.48945 13.5635 4.00195 12.3843 4.00195 11.001C4.00195 10.001 4.27695 9.08014 4.82695 8.23848C5.37695 7.39681 6.11862 6.78431 7.05195 6.40098C7.20195 5.15098 7.74779 4.10514 8.68945 3.26348C9.63112 2.42181 10.7353 2.00098 12.002 2.00098C13.2686 2.00098 14.3728 2.42181 15.3145 3.26348C16.2561 4.10514 16.802 5.15098 16.952 6.40098C17.8853 6.78431 18.627 7.39681 19.177 8.23848C19.727 9.08014 20.002 10.001 20.002 11.001C20.002 12.3843 19.5145 13.5635 18.5395 14.5385C17.5645 15.5135 16.3853 16.001 15.002 16.001H12.752V20.501H17.752C17.9645 20.501 18.1426 20.5733 18.2865 20.718C18.4301 20.8625 18.502 21.0416 18.502 21.2555C18.502 21.4691 18.4301 21.6468 18.2865 21.7885C18.1426 21.9301 17.9645 22.001 17.752 22.001H6.50195C6.28945 22.001 6.11137 21.9286 5.9677 21.784C5.82387 21.6395 5.75195 21.4603 5.75195 21.2465C5.75195 21.0328 5.82387 20.8551 5.9677 20.7135C6.11137 20.5718 6.28945 20.501 6.50195 20.501H11.252ZM9.00195 14.501H15.002C15.9741 14.501 16.8005 14.1607 17.4812 13.4802C18.1617 12.7996 18.502 11.9731 18.502 11.001C18.502 10.301 18.302 9.66348 17.902 9.08848C17.502 8.51348 16.9853 8.08431 16.352 7.80098L15.552 7.45098L15.452 6.57598C15.3353 5.69264 14.9505 4.95931 14.2975 4.37598C13.6443 3.79264 12.8791 3.50098 12.002 3.50098C11.1248 3.50098 10.3596 3.79264 9.70645 4.37598C9.05345 4.95931 8.66862 5.69264 8.55195 6.57598L8.45195 7.45098L7.65195 7.80098C7.01862 8.08431 6.50195 8.51539 6.10195 9.09423C5.70195 9.67289 5.50195 10.3095 5.50195 11.004C5.50195 11.9686 5.8422 12.7926 6.5227 13.476C7.20337 14.1593 8.02979 14.501 9.00195 14.501Z" fill="#2C2E25"/>
</svg>
