<svg width="48" height="48" viewBox="0 0 48 48" fill="none" xmlns="http://www.w3.org/2000/svg">
<path d="M22.5 42.5V39.6C22.5 39.175 22.6447 38.8187 22.934 38.531C23.223 38.2437 23.5813 38.1 24.009 38.1C24.4363 38.1 24.7917 38.2437 25.075 38.531C25.3583 38.8187 25.5 39.175 25.5 39.6V42.5C25.5 42.925 25.3553 43.2812 25.066 43.5685C24.777 43.8562 24.4187 44 23.991 44C23.5637 44 23.2083 43.8562 22.925 43.5685C22.6417 43.2812 22.5 42.925 22.5 42.5ZM5.5 22.5H8.4C8.825 22.5 9.18133 22.6447 9.469 22.934C9.75633 23.223 9.9 23.5813 9.9 24.009C9.9 24.4363 9.75633 24.7917 9.469 25.075C9.18133 25.3583 8.825 25.5 8.4 25.5H5.5C5.075 25.5 4.71883 25.3553 4.4315 25.066C4.14383 24.777 4 24.4187 4 23.991C4 23.5637 4.14383 23.2083 4.4315 22.925C4.71883 22.6417 5.075 22.5 5.5 22.5ZM39.6 22.5H42.5C42.925 22.5 43.2813 22.6447 43.569 22.934C43.8563 23.223 44 23.5813 44 24.009C44 24.4363 43.8563 24.7917 43.569 25.075C43.2813 25.3583 42.925 25.5 42.5 25.5H39.6C39.175 25.5 38.8188 25.3553 38.5315 25.066C38.2438 24.777 38.1 24.4187 38.1 23.991C38.1 23.5637 38.2438 23.2083 38.5315 22.925C38.8188 22.6417 39.175 22.5 39.6 22.5ZM35.9 38L33.9 36.05C33.6 35.75 33.4583 35.4 33.475 35C33.4917 34.6 33.65 34.25 33.95 33.95C34.25 33.65 34.6083 33.5 35.025 33.5C35.4417 33.5 35.8 33.65 36.1 33.95L38.05 35.9C38.35 36.2 38.5 36.55 38.5 36.95C38.5 37.35 38.35 37.7 38.05 38C37.75 38.3 37.3917 38.45 36.975 38.45C36.5583 38.45 36.2 38.3 35.9 38ZM10 35.85L11.95 33.9C12.25 33.6 12.6 33.4583 13 33.475C13.4 33.4917 13.75 33.65 14.05 33.95C14.35 34.25 14.5 34.6083 14.5 35.025C14.5 35.4417 14.35 35.8 14.05 36.1L12.1 38.05C11.8 38.35 11.45 38.4917 11.05 38.475C10.65 38.4583 10.3 38.3 10 38C9.7 37.7 9.55 37.3417 9.55 36.925C9.55 36.5083 9.7 36.15 10 35.85ZM24 33.1C21.5 33.1 19.3583 32.2083 17.575 30.425C15.7917 28.6417 14.9 26.5 14.9 24C14.9 22.3667 15.25 20.9 15.95 19.6C16.65 18.3 17.6333 17.2333 18.9 16.4V9C18.9 8.175 19.1938 7.46867 19.7815 6.881C20.3688 6.29367 21.075 6 21.9 6H26.1C26.925 6 27.6313 6.29367 28.219 6.881C28.8063 7.46867 29.1 8.175 29.1 9V16.4C30.3667 17.2333 31.35 18.3 32.05 19.6C32.75 20.9 33.1 22.3667 33.1 24C33.1 26.5 32.2083 28.6417 30.425 30.425C28.6417 32.2083 26.5 33.1 24 33.1ZM21.9 15.35C22.25 15.25 22.6 15.175 22.95 15.125C23.3 15.075 23.65 15.05 24 15.05C24.35 15.05 24.7 15.075 25.05 15.125C25.4 15.175 25.75 15.25 26.1 15.35V9H21.9V15.35ZM24.006 30.1C25.702 30.1 27.1417 29.5063 28.325 28.319C29.5083 27.1317 30.1 25.69 30.1 23.994C30.1 22.298 29.5063 20.8583 28.319 19.675C27.1317 18.4917 25.69 17.9 23.994 17.9C22.298 17.9 20.8583 18.4937 19.675 19.681C18.4917 20.8683 17.9 22.31 17.9 24.006C17.9 25.702 18.4937 27.1417 19.681 28.325C20.8683 29.5083 22.31 30.1 24.006 30.1Z" fill="#FFF7EE"/>
</svg>
