<svg width="48" height="48" viewBox="0 0 48 48" fill="none" xmlns="http://www.w3.org/2000/svg">
<path d="M24 44C21.2333 44 18.875 43.025 16.925 41.075C14.975 39.125 14 36.7667 14 34C14 32.3 14.3833 30.7 15.15 29.2C15.9167 27.7 17.05 26.5833 18.55 25.85V9.45C18.55 7.936 19.0798 6.64917 20.1395 5.5895C21.1992 4.52983 22.486 4 24 4C25.514 4 26.8008 4.52983 27.8605 5.5895C28.9202 6.64917 29.45 7.936 29.45 9.45V25.85C30.95 26.5833 32.0833 27.7 32.85 29.2C33.6167 30.7 34 32.3 34 34C34 36.7667 33.025 39.125 31.075 41.075C29.125 43.025 26.7667 44 24 44ZM21.55 22.25H26.45V19.6H24V17.65H26.45V13.3H24V11.375H26.45V9.45C26.45 8.75567 26.2147 8.17383 25.744 7.7045C25.273 7.23483 24.6897 7 23.994 7C23.298 7 22.7167 7.23483 22.25 7.7045C21.7833 8.17383 21.55 8.75567 21.55 9.45V22.25Z" fill="#2C2E25"/>
</svg>
