<svg width="48" height="48" viewBox="0 0 48 48" fill="none" xmlns="http://www.w3.org/2000/svg">
<path d="M22.5641 25.9111L19.053 22.4C18.7863 22.1333 18.4604 22 18.0752 22C17.69 22 17.3641 22.1333 17.0974 22.4C16.8307 22.6666 16.6974 22.99 16.6974 23.3702C16.6974 23.7506 16.8307 24.0791 17.0974 24.3555L21.4974 28.8C21.7641 29.0666 22.0752 29.2 22.4307 29.2C22.7863 29.2 23.0974 29.0666 23.3641 28.8L31.6307 20.5333C31.8974 20.2645 32.0307 19.9456 32.0307 19.5764C32.0307 19.2069 31.9048 18.9037 31.653 18.6666C31.4011 18.4296 31.0826 18.3185 30.6974 18.3333C30.3122 18.3481 30.0011 18.474 29.7641 18.7111L22.5641 25.9111ZM24.3863 41.4222C24.2287 41.4222 24.0823 41.4074 23.9472 41.3777C23.8121 41.3481 23.677 41.3037 23.5418 41.2444C19.4233 39.8518 16.1641 37.3555 13.7641 33.7555C11.3641 30.1555 10.1641 26.2057 10.1641 21.9062V13.2C10.1641 12.6293 10.3252 12.1158 10.6476 11.6595C10.9697 11.2029 11.3863 10.872 11.8974 10.6666L23.453 6.35551C23.7789 6.23699 24.09 6.17773 24.3863 6.17773C24.6826 6.17773 24.9937 6.23699 25.3196 6.35551L36.8752 10.6666C37.3863 10.872 37.803 11.2029 38.1254 11.6595C38.4475 12.1158 38.6085 12.6293 38.6085 13.2V21.9062C38.6085 26.2057 37.4085 30.1555 35.0085 33.7555C32.6085 37.3555 29.3492 39.8518 25.2307 41.2444C25.0956 41.3037 24.9605 41.3481 24.8254 41.3777C24.6903 41.4074 24.5439 41.4222 24.3863 41.4222ZM24.3863 38.8C27.7937 37.674 30.5715 35.5481 32.7196 32.4222C34.8678 29.2963 35.9418 25.7926 35.9418 21.9111V13.2L24.3863 8.8444L12.8307 13.2V21.9111C12.8307 25.7926 13.9048 29.2963 16.053 32.4222C18.2011 35.5481 20.9789 37.674 24.3863 38.8Z" fill="#2C2E25"/>
</svg>
