<svg width="24" height="24" viewBox="0 0 24 24" fill="none" xmlns="http://www.w3.org/2000/svg">
<path d="M11.2221 20.767C11.0887 20.6337 11.0096 20.467 10.9846 20.267C10.9596 20.067 11.0387 19.8753 11.2221 19.692L19.6721 11.242C19.8554 11.0587 20.0471 10.9795 20.2471 11.0045C20.4471 11.0295 20.6137 11.1087 20.7471 11.242C20.8971 11.392 20.9721 11.5712 20.9721 11.7795C20.9721 11.9878 20.8971 12.167 20.7471 12.317L12.2971 20.767C12.1304 20.9337 11.9512 21.017 11.7596 21.017C11.5679 21.017 11.3887 20.9337 11.2221 20.767ZM18.8221 21.017C18.6554 21.017 18.5429 20.9378 18.4846 20.7795C18.4262 20.6212 18.4554 20.4837 18.5721 20.367L20.3221 18.617C20.4387 18.5003 20.5762 18.4712 20.7346 18.5295C20.8929 18.5878 20.9721 18.7003 20.9721 18.867V20.267C20.9721 20.4837 20.9012 20.6628 20.7596 20.8045C20.6179 20.9462 20.4387 21.017 20.2221 21.017H18.8221ZM3.19708 20.742C3.06374 20.6087 2.98458 20.442 2.95958 20.242C2.93458 20.042 3.01374 19.8503 3.19708 19.667L19.6721 3.267C19.8554 3.08367 20.0471 3.0045 20.2471 3.0295C20.4471 3.0545 20.6137 3.13367 20.7471 3.267C20.8804 3.40033 20.9596 3.567 20.9846 3.767C21.0096 3.967 20.9304 4.15867 20.7471 4.342L4.27208 20.742C4.08874 20.9253 3.89708 21.0045 3.69708 20.9795C3.49708 20.9545 3.33041 20.8753 3.19708 20.742ZM3.19708 12.767C3.06374 12.6337 2.98458 12.467 2.95958 12.267C2.93458 12.067 3.01374 11.8753 3.19708 11.692L11.6471 3.242C11.8304 3.05867 12.0221 2.9795 12.2221 3.0045C12.4221 3.0295 12.5887 3.10867 12.7221 3.242C12.8554 3.37533 12.9346 3.542 12.9596 3.742C12.9846 3.942 12.9054 4.13367 12.7221 4.317L4.27208 12.767C4.08874 12.9503 3.89708 13.0295 3.69708 13.0045C3.49708 12.9795 3.33041 12.9003 3.19708 12.767ZM2.97208 5.167V3.767C2.97208 3.55033 3.04291 3.37117 3.18458 3.2295C3.32624 3.08783 3.50541 3.017 3.72208 3.017H5.12208C5.28874 3.017 5.40124 3.09617 5.45958 3.2545C5.51791 3.41283 5.48874 3.55033 5.37208 3.667L3.62208 5.417C3.50541 5.53367 3.36791 5.56283 3.20958 5.5045C3.05124 5.44617 2.97208 5.33367 2.97208 5.167Z" fill="#2C2E25"/>
</svg>
