<svg width="18" height="18" viewBox="0 0 18 18" fill="none" xmlns="http://www.w3.org/2000/svg">
<path d="M9.36102 1.89806L15.0985 5.34056C15.2898 5.44181 15.4191 5.57962 15.4866 5.754C15.5541 5.92837 15.5879 6.09994 15.5879 6.26869V14.0818C15.5879 14.3518 15.4866 14.5881 15.2841 14.7906C15.0816 14.9931 14.8454 15.0943 14.5754 15.0943H3.10039C2.83039 15.0943 2.59414 14.9931 2.39164 14.7906C2.18914 14.5881 2.08789 14.3518 2.08789 14.0818V6.26869C2.08789 6.09994 2.12445 5.92837 2.19758 5.754C2.2707 5.57962 2.39727 5.44181 2.57727 5.34056L8.31477 1.89806C8.47767 1.80806 8.65339 1.76306 8.84194 1.76306C9.03049 1.76306 9.20352 1.80806 9.36102 1.89806ZM8.83789 9.45806L14.5079 6.13369L8.83789 2.72494L3.16789 6.13369L8.83789 9.45806ZM8.33164 10.2849L3.10039 7.21369V14.0818H14.5754V7.21369L9.34414 10.2849C9.1881 10.3749 9.01969 10.4199 8.8389 10.4199C8.65823 10.4199 8.48914 10.3749 8.33164 10.2849Z" fill="#2BE786"/>
</svg>
