<svg width="24" height="24" viewBox="0 0 24 24" fill="none" xmlns="http://www.w3.org/2000/svg">
<path d="M8.61667 14.1167H13.5C13.6667 14.1167 13.7917 14.0649 13.875 13.9613C13.9583 13.8578 14 13.7439 14 13.6197C14 13.4954 13.9583 13.3806 13.875 13.275C13.7917 13.1694 13.6667 13.1167 13.5 13.1167H8.61667C8.475 13.1167 8.35628 13.1649 8.2605 13.2613C8.16461 13.3577 8.11667 13.4771 8.11667 13.6197C8.11667 13.7621 8.16461 13.8806 8.2605 13.975C8.35628 14.0694 8.475 14.1167 8.61667 14.1167ZM8.61667 11.15H11.4667C11.6083 11.15 11.7271 11.1018 11.823 11.0053C11.9188 10.909 11.9667 10.7896 11.9667 10.647C11.9667 10.5046 11.9188 10.3861 11.823 10.2917C11.7271 10.1972 11.6083 10.15 11.4667 10.15H8.61667C8.475 10.15 8.35628 10.1982 8.2605 10.2947C8.16461 10.391 8.11667 10.5104 8.11667 10.653C8.11667 10.7954 8.16461 10.9139 8.2605 11.0083C8.35628 11.1028 8.475 11.15 8.61667 11.15ZM6.5 16.8333C6.225 16.8333 5.98961 16.7354 5.79383 16.5395C5.59794 16.3437 5.5 16.1083 5.5 15.8333V8.5C5.5 8.225 5.59794 7.98956 5.79383 7.79367C5.98961 7.59789 6.225 7.5 6.5 7.5H17.8333C18.1083 7.5 18.3438 7.59789 18.5397 7.79367C18.7354 7.98956 18.8333 8.225 18.8333 8.5V10.15C18.8333 10.2917 18.7851 10.4104 18.6887 10.5062C18.5923 10.6021 18.4729 10.65 18.3303 10.65C18.1879 10.65 18.0694 10.6021 17.975 10.5062C17.8806 10.4104 17.8333 10.2917 17.8333 10.15V8.5H6.5V15.8167H11.5C11.6417 15.8167 11.7604 15.8649 11.8563 15.9613C11.9521 16.0577 12 16.1771 12 16.3197C12 16.4621 11.9521 16.5833 11.8563 16.6833C11.7604 16.7833 11.6417 16.8333 11.5 16.8333H6.5ZM19.4167 12.1667C19.4722 12.2222 19.5 12.2917 19.5 12.375C19.5 12.4583 19.4716 12.5284 19.4147 12.5853L18.8 13.2L17.9667 12.3667L18.6167 11.7167C18.6697 11.6611 18.728 11.6333 18.7917 11.6333C18.8553 11.6333 18.9137 11.6611 18.9667 11.7167L19.4167 12.1667ZM18.3667 13.6333L13.9833 18.0167C13.9278 18.0722 13.871 18.1111 13.813 18.1333C13.7549 18.1556 13.6949 18.1667 13.633 18.1667H13.25C13.1833 18.1667 13.125 18.1417 13.075 18.0917C13.025 18.0417 13 17.9833 13 17.9167V17.5337C13 17.4718 13.0111 17.4118 13.0333 17.3537C13.0556 17.2957 13.0944 17.2389 13.15 17.1833L17.5333 12.8L18.3667 13.6333Z" fill="#FFF7EE"/>
</svg>
