<svg width="48" height="48" viewBox="0 0 48 48" fill="none" xmlns="http://www.w3.org/2000/svg">
<path d="M37.1505 16.45C36.2839 17.3167 35.3172 17.9583 34.2505 18.375C33.1839 18.7917 32.0839 19 30.9505 19C29.8172 19 28.7172 18.7917 27.6505 18.375C26.5839 17.9583 25.6172 17.3167 24.7505 16.45L21.0005 12.7C20.4339 12.1333 19.8089 11.7167 19.1255 11.45C18.4422 11.1833 17.7339 11.05 17.0005 11.05C16.2672 11.05 15.5589 11.1833 14.8755 11.45C14.1922 11.7167 13.5672 12.1333 13.0005 12.7L10.6505 15.05C10.3505 15.35 10.0005 15.4917 9.60053 15.475C9.20053 15.4583 8.85053 15.3 8.55053 15C8.25053 14.7 8.10053 14.3417 8.10053 13.925C8.10053 13.5083 8.25053 13.15 8.55053 12.85L10.8505 10.55C11.7172 9.68333 12.6839 9.04167 13.7505 8.625C14.8172 8.20833 15.9005 8 17.0005 8C18.1005 8 19.1755 8.20833 20.2255 8.625C21.2755 9.04167 22.2339 9.68333 23.1005 10.55L26.8505 14.3C27.4172 14.8667 28.0422 15.2917 28.7255 15.575C29.4089 15.8583 30.1339 16 30.9005 16C31.6672 16 32.4005 15.8583 33.1005 15.575C33.8005 15.2917 34.4339 14.8667 35.0005 14.3L37.3505 11.95C37.6505 11.65 38.0089 11.5 38.4255 11.5C38.8422 11.5 39.2005 11.65 39.5005 11.95C39.8005 12.25 39.9505 12.6083 39.9505 13.025C39.9505 13.4417 39.8005 13.8 39.5005 14.1L37.1505 16.45ZM37.1505 26.95C36.2839 27.8167 35.3172 28.4583 34.2505 28.875C33.1839 29.2917 32.0839 29.5 30.9505 29.5C29.8172 29.5 28.7172 29.2917 27.6505 28.875C26.5839 28.4583 25.6172 27.8167 24.7505 26.95L21.0005 23.2C20.4339 22.6333 19.8089 22.2167 19.1255 21.95C18.4422 21.6833 17.7339 21.55 17.0005 21.55C16.2672 21.55 15.5589 21.6833 14.8755 21.95C14.1922 22.2167 13.5672 22.6333 13.0005 23.2L10.6505 25.55C10.3505 25.85 10.0005 26 9.60053 26C9.20053 26 8.85053 25.85 8.55053 25.55C8.25053 25.25 8.0922 24.8917 8.07553 24.475C8.05887 24.0583 8.20053 23.7 8.50053 23.4L10.8505 21.05C11.7172 20.1833 12.6839 19.5417 13.7505 19.125C14.8172 18.7083 15.9005 18.5 17.0005 18.5C18.1005 18.5 19.1755 18.7083 20.2255 19.125C21.2755 19.5417 22.2339 20.1833 23.1005 21.05L26.8505 24.8C27.4172 25.3667 28.0505 25.7917 28.7505 26.075C29.4505 26.3583 30.1839 26.5 30.9505 26.5C31.7172 26.5 32.4422 26.3583 33.1255 26.075C33.8089 25.7917 34.4339 25.3667 35.0005 24.8L37.3505 22.45C37.6505 22.15 38.0089 22 38.4255 22C38.8422 22 39.2005 22.15 39.5005 22.45C39.8005 22.75 39.9505 23.1083 39.9505 23.525C39.9505 23.9417 39.8005 24.3 39.5005 24.6L37.1505 26.95ZM37.1005 37.45C36.2339 38.3167 35.2755 38.9583 34.2255 39.375C33.1755 39.7917 32.0839 40 30.9505 40C29.8172 40 28.7172 39.7917 27.6505 39.375C26.5839 38.9583 25.6172 38.3167 24.7505 37.45L20.9505 33.7C20.3839 33.1333 19.7589 32.7167 19.0755 32.45C18.3922 32.1833 17.6839 32.05 16.9505 32.05C16.2172 32.05 15.5089 32.1833 14.8255 32.45C14.1422 32.7167 13.5172 33.1333 12.9505 33.7L10.6005 36.05C10.3005 36.35 9.95053 36.5 9.55053 36.5C9.15053 36.5 8.80053 36.35 8.50053 36.05C8.20053 35.75 8.05887 35.4 8.07553 35C8.0922 34.6 8.23387 34.25 8.50053 33.95L10.8505 31.55C11.7172 30.6833 12.6755 30.0417 13.7255 29.625C14.7755 29.2083 15.8505 29 16.9505 29C18.0505 29 19.1339 29.2083 20.2005 29.625C21.2672 30.0417 22.2339 30.6833 23.1005 31.55L26.8505 35.3C27.4172 35.8667 28.0505 36.2917 28.7505 36.575C29.4505 36.8583 30.1839 37 30.9505 37C31.7172 37 32.4422 36.8583 33.1255 36.575C33.8089 36.2917 34.4339 35.8667 35.0005 35.3L37.3505 32.95C37.6505 32.65 38.0005 32.5083 38.4005 32.525C38.8005 32.5417 39.1505 32.7 39.4505 33C39.7505 33.3 39.9005 33.65 39.9005 34.05C39.9005 34.45 39.7505 34.8 39.4505 35.1L37.1005 37.45Z" fill="#2C2E25"/>
</svg>
