<svg width="24" height="24" viewBox="0 0 24 24" fill="none" xmlns="http://www.w3.org/2000/svg">
<path fill-rule="evenodd" clip-rule="evenodd" d="M4.03093 12.5847L4.71056 11.9051V19.1665C4.71056 20.0792 5.45046 20.8191 6.36318 20.8191H17.6954C18.6081 20.8191 19.348 20.0792 19.348 19.1665V11.9051L20.0277 12.5847L21.0293 11.583L13.1979 3.75162C12.5525 3.10623 11.5061 3.10623 10.8607 3.75162L3.0293 11.583L4.03093 12.5847ZM12.1962 4.75326C12.104 4.66106 11.9546 4.66106 11.8624 4.75326L6.12709 10.4885V19.1665C6.12709 19.2969 6.23279 19.4026 6.36318 19.4026H8.96015V13.9726C8.96015 13.0598 9.70005 12.3199 10.6128 12.3199H13.4458C14.3585 12.3199 15.0984 13.0598 15.0984 13.9726V19.4026H17.6954C17.8258 19.4026 17.9315 19.2969 17.9315 19.1665V10.4885L12.1962 4.75326ZM13.6819 19.4026V13.9726C13.6819 13.8422 13.5762 13.7365 13.4458 13.7365H10.6128C10.4824 13.7365 10.3767 13.8422 10.3767 13.9726V19.4026H13.6819Z" fill="#2C2E25"/>
</svg>
