<svg width="24" height="24" viewBox="0 0 24 24" fill="none" xmlns="http://www.w3.org/2000/svg">
<path d="M9.375 14.9575L13.1025 13.8025C13.2658 13.7442 13.4058 13.6567 13.5225 13.54C13.6392 13.4233 13.7267 13.2833 13.785 13.12L14.94 9.3925C14.975 9.2917 14.9546 9.20233 14.8787 9.1244C14.8029 9.04647 14.7125 9.025 14.6075 9.06L10.88 10.215C10.7167 10.2733 10.5767 10.3608 10.46 10.4775C10.3433 10.5942 10.2558 10.7342 10.1975 10.8975L9.0425 14.625C9.0075 14.7258 9.02792 14.8152 9.10375 14.8931C9.17958 14.971 9.27 14.9925 9.375 14.9575ZM11.9958 12.7C11.8003 12.7 11.6354 12.6315 11.5013 12.4945C11.3671 12.3577 11.3 12.1915 11.3 11.9958C11.3 11.8003 11.3685 11.6354 11.5054 11.5013C11.6423 11.3671 11.8085 11.3 12.0042 11.3C12.1997 11.3 12.3646 11.3685 12.4988 11.5054C12.6329 11.6423 12.7 11.8085 12.7 12.0042C12.7 12.1997 12.6315 12.3646 12.4945 12.4988C12.3577 12.6329 12.1915 12.7 11.9958 12.7ZM12.0047 19C11.0394 19 10.1323 18.8162 9.28347 18.4487C8.43449 18.0812 7.69208 17.5796 7.05625 16.9437C6.42042 16.3079 5.91875 15.5651 5.55125 14.7153C5.18375 13.8655 5 12.9575 5 11.9913C5 11.025 5.18375 10.117 5.55125 9.2672C5.91875 8.4174 6.42042 7.6775 7.05625 7.0475C7.69208 6.4175 8.4349 5.91875 9.2847 5.55125C10.1345 5.18375 11.0425 5 12.0087 5C12.975 5 13.883 5.18375 14.7328 5.55125C15.5826 5.91875 16.3225 6.4175 16.9525 7.0475C17.5825 7.6775 18.0812 8.41833 18.4487 9.27C18.8162 10.1217 19 11.0301 19 11.9953C19 12.9606 18.8162 13.8677 18.4487 14.7165C18.0812 15.5655 17.5825 16.3069 16.9525 16.9406C16.3225 17.5742 15.5817 18.0759 14.73 18.4456C13.8783 18.8152 12.9699 19 12.0047 19ZM12.0086 17.95C13.6595 17.95 15.0625 17.3696 16.2175 16.2089C17.3725 15.0483 17.95 13.6425 17.95 11.9914C17.95 10.3405 17.3725 8.9375 16.2175 7.7825C15.0625 6.6275 13.6595 6.05 12.0086 6.05C10.3575 6.05 8.95167 6.6275 7.79107 7.7825C6.63036 8.9375 6.05 10.3405 6.05 11.9914C6.05 13.6425 6.63036 15.0483 7.79107 16.2089C8.95167 17.3696 10.3575 17.95 12.0086 17.95Z" fill="#FFF7EE"/>
</svg>
