<svg width="48" height="48" viewBox="0 0 48 48" fill="none" xmlns="http://www.w3.org/2000/svg">
<path d="M23.572 37.9019C22.4461 37.9019 21.4239 37.576 20.5053 36.9241C19.5868 36.2723 18.9794 35.3982 18.6831 34.3019C18.5942 33.9167 18.6905 33.576 18.972 33.2797C19.2535 32.9834 19.6016 32.8352 20.0164 32.8352C20.3317 32.8352 20.6105 32.9464 20.8529 33.1686C21.0953 33.3908 21.2905 33.6649 21.4387 33.9908C21.6164 34.4056 21.9087 34.7167 22.3156 34.9241C22.7224 35.1315 23.1412 35.2352 23.572 35.2352C24.252 35.2352 24.8221 35.005 25.2822 34.5446C25.7421 34.0844 25.972 33.5141 25.972 32.8335C25.972 32.1532 25.7421 31.5834 25.2822 31.1241C24.8221 30.6649 24.252 30.4352 23.572 30.4352H7.97201C7.59423 30.4352 7.27763 30.3067 7.02223 30.0495C6.76652 29.7926 6.63867 29.4741 6.63867 29.0939C6.63867 28.7141 6.76652 28.3982 7.02223 28.1464C7.27763 27.8945 7.59423 27.7686 7.97201 27.7686H23.572C24.9794 27.7686 26.1757 28.2612 27.1609 29.2464C28.1461 30.2315 28.6387 31.4278 28.6387 32.8352C28.6387 34.2426 28.1461 35.4389 27.1609 36.4241C26.1757 37.4093 24.9794 37.9019 23.572 37.9019ZM7.97201 19.7686C7.59423 19.7686 7.27763 19.64 7.02223 19.3828C6.76652 19.1259 6.63867 18.8074 6.63867 18.4272C6.63867 18.0474 6.76652 17.7315 7.02223 17.4797C7.27763 17.2278 7.59423 17.1019 7.97201 17.1019H30.772C31.7104 17.1019 32.5079 16.7724 33.1644 16.1135C33.8213 15.4548 34.1498 14.6548 34.1498 13.7135C34.1498 12.7724 33.8213 11.976 33.1644 11.3241C32.5079 10.6723 31.7104 10.3464 30.772 10.3464C30.0905 10.3464 29.4683 10.5241 28.9053 10.8797C28.3424 11.2352 27.9572 11.7241 27.7498 12.3464C27.6313 12.6723 27.4461 12.9538 27.1942 13.1908C26.9424 13.4278 26.6535 13.5464 26.3276 13.5464C25.9193 13.5464 25.5876 13.4056 25.3324 13.1241C25.0773 12.8426 24.9942 12.5093 25.0831 12.1241C25.409 10.7908 26.0979 9.71672 27.1498 8.90191C28.2016 8.08709 29.409 7.67969 30.772 7.67969C32.4609 7.67969 33.8905 8.26487 35.0609 9.43524C36.2313 10.6056 36.8164 12.0352 36.8164 13.7241C36.8164 15.413 36.2313 16.8426 35.0609 18.013C33.8905 19.1834 32.4609 19.7686 30.772 19.7686H7.97201ZM37.7498 34.0352C37.3646 34.0945 37.0313 33.9982 36.7498 33.7464C36.4683 33.4945 36.3276 33.1612 36.3276 32.7464C36.3276 32.4204 36.4461 32.1315 36.6831 31.8797C36.9202 31.6278 37.2016 31.4426 37.5276 31.3241C38.1794 31.1167 38.6757 30.7315 39.0164 30.1686C39.3572 29.6056 39.5276 28.9834 39.5276 28.3019C39.5276 27.413 39.2164 26.6575 38.5942 26.0352C37.972 25.413 37.2164 25.1019 36.3276 25.1019H7.97201C7.59423 25.1019 7.27763 24.9733 7.02223 24.7161C6.76652 24.4592 6.63867 24.1407 6.63867 23.7606C6.63867 23.3807 6.76652 23.0649 7.02223 22.813C7.27763 22.5612 7.59423 22.4352 7.97201 22.4352H36.3276C37.948 22.4352 39.3308 23.008 40.476 24.1535C41.6215 25.2987 42.1942 26.6815 42.1942 28.3019C42.1942 29.6945 41.7868 30.9241 40.972 31.9908C40.1572 33.0575 39.0831 33.7389 37.7498 34.0352Z" fill="#2C2E25"/>
</svg>
