<svg width="48" height="48" viewBox="0 0 48 48" fill="none" xmlns="http://www.w3.org/2000/svg">
<path d="M12 40C11.575 40 11.2188 39.8553 10.9315 39.566C10.6438 39.277 10.5 38.9187 10.5 38.491C10.5 38.0637 10.6438 37.7083 10.9315 37.425C11.2188 37.1417 11.575 37 12 37H13.55L17.75 23.15C17.95 22.5167 18.3083 22 18.825 21.6C19.3417 21.2 19.9333 21 20.6 21H27.4C28.0667 21 28.6583 21.2 29.175 21.6C29.6917 22 30.05 22.5167 30.25 23.15L34.45 37H36C36.425 37 36.7813 37.1447 37.069 37.434C37.3563 37.723 37.5 38.0813 37.5 38.509C37.5 38.9363 37.3563 39.2917 37.069 39.575C36.7813 39.8583 36.425 40 36 40H12ZM16.75 37H31.25L27.35 24H20.65L16.75 37ZM22.5 13.5V7.5C22.5 7.075 22.6447 6.71867 22.934 6.431C23.223 6.14367 23.5813 6 24.009 6C24.4363 6 24.7917 6.14367 25.075 6.431C25.3583 6.71867 25.5 7.075 25.5 7.5V13.5C25.5 13.925 25.3553 14.2812 25.066 14.5685C24.777 14.8562 24.4187 15 23.991 15C23.5637 15 23.2083 14.8562 22.925 14.5685C22.6417 14.2812 22.5 13.925 22.5 13.5ZM33.2 16.7L37.45 12.45C37.75 12.1833 38.1017 12.0417 38.505 12.025C38.9083 12.0083 39.2567 12.15 39.55 12.45C39.85 12.75 40 13.1 40 13.5C40 13.9 39.85 14.25 39.55 14.55L35.3 18.85C35 19.15 34.65 19.3 34.25 19.3C33.85 19.3 33.5 19.1492 33.2 18.8475C32.9 18.5455 32.75 18.1872 32.75 17.7725C32.75 17.3575 32.9 17 33.2 16.7ZM38.5 26.5H44.5C44.925 26.5 45.2813 26.6447 45.569 26.934C45.8563 27.223 46 27.5813 46 28.009C46 28.4363 45.8563 28.7917 45.569 29.075C45.2813 29.3583 44.925 29.5 44.5 29.5H38.5C38.075 29.5 37.7188 29.3553 37.4315 29.066C37.1438 28.777 37 28.4187 37 27.991C37 27.5637 37.1438 27.2083 37.4315 26.925C37.7188 26.6417 38.075 26.5 38.5 26.5ZM12.7 18.8L8.45 14.55C8.18333 14.25 8.04167 13.8983 8.025 13.495C8.00833 13.0917 8.15 12.7433 8.45 12.45C8.75 12.15 9.1 12 9.5 12C9.9 12 10.25 12.15 10.55 12.45L14.85 16.7C15.15 17 15.3 17.35 15.3 17.75C15.3 18.15 15.1492 18.5 14.8475 18.8C14.5455 19.1 14.1872 19.25 13.7725 19.25C13.3575 19.25 13 19.1 12.7 18.8ZM3.5 29.5C3.075 29.5 2.71883 29.3553 2.4315 29.066C2.14383 28.777 2 28.4187 2 27.991C2 27.5637 2.14383 27.2083 2.4315 26.925C2.71883 26.6417 3.075 26.5 3.5 26.5H9.5C9.925 26.5 10.2813 26.6447 10.569 26.934C10.8563 27.223 11 27.5813 11 28.009C11 28.4363 10.8563 28.7917 10.569 29.075C10.2813 29.3583 9.925 29.5 9.5 29.5H3.5Z" fill="#2C2E25"/>
</svg>
