<svg width="48" height="48" viewBox="0 0 48 48" fill="none" xmlns="http://www.w3.org/2000/svg">
<path d="M8.59904 42C7.20638 42 6.21654 41.35 5.62954 40.05C5.04254 38.75 5.23238 37.5667 6.19904 36.5L18.599 22.5V9H15.999C15.574 9 15.2179 8.85533 14.9305 8.566C14.6429 8.277 14.499 7.91867 14.499 7.491C14.499 7.06367 14.6429 6.70833 14.9305 6.425C15.2179 6.14167 15.574 6 15.999 6H31.999C32.424 6 32.7804 6.14467 33.068 6.434C33.3554 6.723 33.499 7.08133 33.499 7.509C33.499 7.93633 33.3554 8.29167 33.068 8.575C32.7804 8.85833 32.424 9 31.999 9H29.399V22.5L41.799 36.5C42.7657 37.5667 42.9555 38.75 42.3685 40.05C41.7815 41.35 40.7917 42 39.399 42H8.59904ZM12.099 37.5H35.899L27.899 28.25H20.099L12.099 37.5ZM7.99904 39H39.999L26.399 23.6V9H21.599V23.6L7.99904 39Z" fill="#FFF7EE"/>
</svg>
