<svg width="24" height="24" viewBox="0 0 24 24" fill="none" xmlns="http://www.w3.org/2000/svg">
<path d="M13.948 21.925C13.7647 22.0083 13.5689 22.0167 13.3605 21.95C13.1522 21.8833 13.0064 21.7583 12.923 21.575L11.198 18.125C11.1147 17.9417 11.1022 17.7458 11.1605 17.5375C11.2189 17.3292 11.3397 17.1833 11.523 17.1C11.7064 17.0167 11.9022 17.0083 12.1105 17.075C12.3189 17.1417 12.4647 17.2667 12.548 17.45L14.273 20.9C14.3564 21.0833 14.3689 21.2792 14.3105 21.4875C14.2522 21.6958 14.1314 21.8417 13.948 21.925ZM19.948 21.9C19.7647 21.9833 19.5689 21.9917 19.3605 21.925C19.1522 21.8583 19.0064 21.7333 18.923 21.55L17.198 18.1C17.1147 17.9167 17.1022 17.7208 17.1605 17.5125C17.2189 17.3042 17.3397 17.1583 17.523 17.075C17.7064 16.9917 17.9022 16.9833 18.1105 17.05C18.3189 17.1167 18.4647 17.2417 18.548 17.425L20.273 20.875C20.3564 21.0583 20.3689 21.2542 20.3105 21.4625C20.2522 21.6708 20.1314 21.8167 19.948 21.9ZM7.94805 21.9C7.76471 21.9833 7.56888 21.9958 7.36055 21.9375C7.15221 21.8792 7.00638 21.7583 6.92305 21.575L5.19805 18.125C5.11471 17.9417 5.10638 17.7458 5.17305 17.5375C5.23971 17.3292 5.36471 17.1833 5.54805 17.1C5.73138 17.0167 5.92721 17.0042 6.13555 17.0625C6.34388 17.1208 6.48971 17.2417 6.57305 17.425L8.29805 20.9C8.38138 21.0833 8.38971 21.275 8.32305 21.475C8.25638 21.675 8.13138 21.8167 7.94805 21.9ZM7.24805 15.5C5.79805 15.5 4.56055 14.9875 3.53555 13.9625C2.51055 12.9375 1.99805 11.7 1.99805 10.25C1.99805 8.93333 2.46888 7.75833 3.41055 6.725C4.35221 5.69167 5.52305 5.125 6.92305 5.025C7.45638 4.09167 8.16055 3.35417 9.03555 2.8125C9.91055 2.27083 10.898 2 11.998 2C13.5147 2 14.7855 2.47917 15.8105 3.4375C16.8355 4.39583 17.4647 5.58333 17.698 7C19.0147 7.06667 20.0605 7.5125 20.8355 8.3375C21.6105 9.1625 21.998 10.1333 21.998 11.25C21.998 12.4167 21.5855 13.4167 20.7605 14.25C19.9355 15.0833 18.9314 15.5 17.748 15.5H7.24805ZM7.24805 14H17.748C18.5147 14 19.1647 13.7292 19.698 13.1875C20.2314 12.6458 20.498 12 20.498 11.25C20.498 10.4833 20.2314 9.83333 19.698 9.3C19.1647 8.76667 18.5147 8.5 17.748 8.5H16.248V7.75C16.248 6.56667 15.8355 5.5625 15.0105 4.7375C14.1855 3.9125 13.1814 3.5 11.998 3.5C11.148 3.5 10.3689 3.72917 9.66055 4.1875C8.95221 4.64583 8.43138 5.26667 8.09805 6.05L7.89805 6.5H7.19805C6.16471 6.53333 5.28971 6.9125 4.57305 7.6375C3.85638 8.3625 3.49805 9.23333 3.49805 10.25C3.49805 11.2833 3.86471 12.1667 4.59805 12.9C5.33138 13.6333 6.21471 14 7.24805 14Z" fill="#2C2E25"/>
</svg>
