<svg width="14" height="14" viewBox="0 0 14 14" fill="none" xmlns="http://www.w3.org/2000/svg">
<path d="M6.87639 11.055C6.54799 11.055 6.24985 10.96 5.98194 10.7699C5.71404 10.5797 5.53688 10.3248 5.45046 10.005C5.42454 9.8927 5.45262 9.79332 5.53472 9.7069C5.61682 9.62048 5.71836 9.57727 5.83935 9.57727C5.9313 9.57727 6.01262 9.60968 6.08331 9.67449C6.15401 9.73931 6.21096 9.81925 6.25417 9.91431C6.30602 10.0353 6.39127 10.126 6.50993 10.1865C6.62858 10.247 6.75073 10.2773 6.87639 10.2773C7.07472 10.2773 7.24099 10.2101 7.3752 10.0758C7.50933 9.94162 7.57639 9.77526 7.57639 9.57675C7.57639 9.37833 7.50933 9.21215 7.3752 9.0782C7.24099 8.94425 7.07472 8.87727 6.87639 8.87727H2.32639C2.2162 8.87727 2.12386 8.83977 2.04937 8.76475C1.97479 8.68983 1.9375 8.59693 1.9375 8.48605C1.9375 8.37526 1.97479 8.28314 2.04937 8.20968C2.12386 8.13622 2.2162 8.09949 2.32639 8.09949H6.87639C7.28688 8.09949 7.6358 8.24317 7.92315 8.53051C8.21049 8.81786 8.35417 9.16678 8.35417 9.57727C8.35417 9.98777 8.21049 10.3367 7.92315 10.624C7.6358 10.9114 7.28688 11.055 6.87639 11.055ZM2.32639 5.76616C2.2162 5.76616 2.12386 5.72865 2.04937 5.65364C1.97479 5.57872 1.9375 5.48581 1.9375 5.37494C1.9375 5.26415 1.97479 5.17202 2.04937 5.09857C2.12386 5.02511 2.2162 4.98838 2.32639 4.98838H8.97639C9.25008 4.98838 9.48268 4.89228 9.67419 4.70009C9.86578 4.50798 9.96157 4.27464 9.96157 4.00009C9.96157 3.72562 9.86578 3.49332 9.67419 3.3032C9.48268 3.11307 9.25008 3.01801 8.97639 3.01801C8.77762 3.01801 8.59614 3.06986 8.43194 3.17357C8.26775 3.27727 8.1554 3.41986 8.09491 3.60135C8.06034 3.69641 8.00633 3.77851 7.93287 3.84764C7.85941 3.91678 7.77515 3.95135 7.68009 3.95135C7.56101 3.95135 7.46426 3.9103 7.38985 3.8282C7.31544 3.7461 7.2912 3.64888 7.31713 3.53653C7.41219 3.14764 7.61312 2.83437 7.91991 2.59672C8.2267 2.35906 8.57886 2.24023 8.97639 2.24023C9.46898 2.24023 9.88596 2.41091 10.2273 2.75227C10.5687 3.09363 10.7394 3.5106 10.7394 4.0032C10.7394 4.49579 10.5687 4.91277 10.2273 5.25412C9.88596 5.59548 9.46898 5.76616 8.97639 5.76616H2.32639ZM11.0116 9.92727C10.8992 9.94456 10.802 9.91647 10.7199 9.84301C10.6378 9.76956 10.5968 9.67233 10.5968 9.55135C10.5968 9.45628 10.6313 9.37202 10.7005 9.29857C10.7696 9.22511 10.8517 9.1711 10.9468 9.13653C11.1369 9.07604 11.2816 8.96369 11.381 8.79949C11.4804 8.6353 11.5301 8.45381 11.5301 8.25505C11.5301 7.99579 11.4394 7.77542 11.2579 7.59394C11.0764 7.41246 10.856 7.32172 10.5968 7.32172H2.32639C2.2162 7.32172 2.12386 7.28421 2.04937 7.2092C1.97479 7.13427 1.9375 7.04137 1.9375 6.93049C1.9375 6.8197 1.97479 6.72758 2.04937 6.65412C2.12386 6.58067 2.2162 6.54394 2.32639 6.54394H10.5968C11.0694 6.54394 11.4727 6.71099 11.8067 7.04509C12.1408 7.3791 12.3079 7.78242 12.3079 8.25505C12.3079 8.66122 12.189 9.01986 11.9514 9.33098C11.7137 9.64209 11.4005 9.84085 11.0116 9.92727Z" fill="#FFF7EE"/>
</svg>
