<svg width="24" height="24" viewBox="0 0 24 24" fill="none" xmlns="http://www.w3.org/2000/svg">
<path d="M12 21.9997C9.76667 21.9997 7.875 21.2247 6.325 19.6747C4.775 18.1247 4 16.233 4 13.9997C4 12.0663 4.59583 10.1913 5.7875 8.37468C6.97917 6.55802 8.61667 5.00802 10.7 3.72468C10.9833 3.54135 11.2708 3.53718 11.5625 3.71218C11.8542 3.88718 12 4.14968 12 4.49968V6.29968C12 6.86635 12.1958 7.34135 12.5875 7.72468C12.9792 8.10802 13.4583 8.29968 14.025 8.29968C14.325 8.29968 14.6042 8.23718 14.8625 8.11218C15.1208 7.98718 15.35 7.79968 15.55 7.54968C15.6833 7.39968 15.8333 7.29552 16 7.23718C16.1667 7.17885 16.325 7.19968 16.475 7.29968C17.575 8.04968 18.4375 9.01635 19.0625 10.1997C19.6875 11.383 20 12.6497 20 13.9997C20 16.233 19.225 18.1247 17.675 19.6747C16.125 21.2247 14.2333 21.9997 12 21.9997ZM5.5 13.9997C5.5 15.0497 5.7375 16.0372 6.2125 16.9622C6.6875 17.8872 7.35 18.658 8.2 19.2747C8.13333 19.0747 8.08333 18.8705 8.05 18.6622C8.01667 18.4538 8 18.2497 8 18.0497C8 17.5163 8.1 17.0163 8.3 16.5497C8.5 16.083 8.79167 15.658 9.175 15.2747L12 12.4997L14.825 15.2747C15.2083 15.658 15.5 16.083 15.7 16.5497C15.9 17.0163 16 17.5163 16 18.0497C16 18.2497 15.9833 18.4538 15.95 18.6622C15.9167 18.8705 15.8667 19.0747 15.8 19.2747C16.65 18.658 17.3125 17.8872 17.7875 16.9622C18.2625 16.0372 18.5 15.0497 18.5 13.9997C18.5 13.0997 18.3083 12.2205 17.925 11.3622C17.5417 10.5038 16.9917 9.71635 16.275 8.99968C15.925 9.24968 15.5583 9.44552 15.175 9.58718C14.7917 9.72885 14.4083 9.79968 14.025 9.79968C13.0083 9.79968 12.1667 9.45385 11.5 8.76218C10.8333 8.07052 10.5 7.19968 10.5 6.14968V5.64968C8.96667 6.74968 7.75 8.05385 6.85 9.56218C5.95 11.0705 5.5 12.5497 5.5 13.9997ZM12 14.5997L10.225 16.3497C9.99167 16.583 9.8125 16.8413 9.6875 17.1247C9.5625 17.408 9.5 17.7163 9.5 18.0497C9.5 18.733 9.74167 19.3122 10.225 19.7872C10.7083 20.2622 11.3 20.4997 12 20.4997C12.7 20.4997 13.2917 20.2622 13.775 19.7872C14.2583 19.3122 14.5 18.733 14.5 18.0497C14.5 17.7163 14.4375 17.408 14.3125 17.1247C14.1875 16.8413 14.0083 16.583 13.775 16.3497L12 14.5997Z" fill="#2C2E25"/>
</svg>
