<svg width="24" height="24" viewBox="0 0 24 24" fill="none" xmlns="http://www.w3.org/2000/svg">
<path d="M12.0254 21C11.8087 21 11.6296 20.9292 11.4879 20.7875C11.3462 20.6458 11.2754 20.4667 11.2754 20.25V18.9C10.4754 18.7667 9.79206 18.4833 9.22539 18.05C8.65872 17.6167 8.21706 17.0667 7.90039 16.4C7.81706 16.2167 7.81706 16.025 7.90039 15.825C7.98372 15.625 8.12539 15.4833 8.32539 15.4C8.50872 15.3167 8.69622 15.3167 8.88789 15.4C9.07956 15.4833 9.22539 15.6167 9.32539 15.8C9.62539 16.3667 10.0171 16.7917 10.5004 17.075C10.9837 17.3583 11.5421 17.5 12.1754 17.5C12.9754 17.5 13.6337 17.3 14.1504 16.9C14.6671 16.5 14.9254 15.95 14.9254 15.25C14.9254 14.5167 14.6962 13.95 14.2379 13.55C13.7796 13.15 12.9171 12.7417 11.6504 12.325C10.4504 11.9417 9.55456 11.4333 8.96289 10.8C8.37122 10.1667 8.07539 9.375 8.07539 8.425C8.07539 7.50833 8.37122 6.74167 8.96289 6.125C9.55456 5.50833 10.3254 5.15833 11.2754 5.075V3.75C11.2754 3.53333 11.3462 3.35417 11.4879 3.2125C11.6296 3.07083 11.8087 3 12.0254 3C12.2421 3 12.4212 3.07083 12.5629 3.2125C12.7046 3.35417 12.7754 3.53333 12.7754 3.75V5.075C13.3754 5.15833 13.9129 5.34167 14.3879 5.625C14.8629 5.90833 15.2587 6.275 15.5754 6.725C15.6921 6.89167 15.7171 7.07083 15.6504 7.2625C15.5837 7.45417 15.4504 7.59167 15.2504 7.675C15.0671 7.75833 14.8754 7.76667 14.6754 7.7C14.4754 7.63333 14.3087 7.50833 14.1754 7.325C13.9421 7.025 13.6546 6.80417 13.3129 6.6625C12.9712 6.52083 12.5587 6.45 12.0754 6.45C11.3087 6.45 10.7004 6.625 10.2504 6.975C9.80039 7.325 9.57539 7.8 9.57539 8.4C9.57539 9.03333 9.82539 9.54583 10.3254 9.9375C10.8254 10.3292 11.7504 10.7333 13.1004 11.15C14.2337 11.5 15.0712 12.0042 15.6129 12.6625C16.1546 13.3208 16.4254 14.15 16.4254 15.15C16.4254 16.2 16.1171 17.0458 15.5004 17.6875C14.8837 18.3292 13.9754 18.7417 12.7754 18.925V20.25C12.7754 20.4667 12.7046 20.6458 12.5629 20.7875C12.4212 20.9292 12.2421 21 12.0254 21Z" fill="#FFF7EE"/>
</svg>
