<svg width="24" height="24" viewBox="0 0 24 24" fill="none" xmlns="http://www.w3.org/2000/svg">
<path d="M3.5 20C3.0875 20 2.73442 19.8531 2.44075 19.5592C2.14692 19.2656 2 18.9125 2 18.5V5.5C2 5.0875 2.14692 4.73433 2.44075 4.4405C2.73442 4.14683 3.0875 4 3.5 4H20.5C20.9125 4 21.2657 4.14683 21.5595 4.4405C21.8532 4.73433 22 5.0875 22 5.5V18.5C22 18.9125 21.8532 19.2656 21.5595 19.5592C21.2657 19.8531 20.9125 20 20.5 20H3.5ZM10 18.5H20.5V5.5H10V18.5ZM8.5 18.5V5.5H3.5V18.5H8.5Z" fill="#2C2E25"/>
</svg>
