<svg width="25" height="25" viewBox="0 0 25 25" fill="none" xmlns="http://www.w3.org/2000/svg">
<mask id="mask0_63_17" style="mask-type:alpha" maskUnits="userSpaceOnUse" x="0" y="0" width="25" height="25">
<rect x="0.42157" y="0.488586" width="24" height="24" fill="#D9D9D9"/>
</mask>
<g mask="url(#mask0_63_17)">
<path d="M10.6716 11.2386C10.3716 11.2386 10.0841 11.1803 9.80907 11.0636C9.53407 10.9469 9.27157 10.8053 9.02157 10.6386C8.88824 10.5553 8.75449 10.4678 8.62032 10.3761C8.48615 10.2844 8.33657 10.2386 8.17157 10.2386C7.98824 10.2386 7.81832 10.2868 7.66182 10.3833C7.50532 10.4798 7.35857 10.5983 7.22157 10.7386C7.13824 10.8219 7.05557 10.8803 6.97357 10.9136C6.8914 10.9469 6.79907 10.9636 6.69657 10.9636C6.4769 10.9636 6.29282 10.8917 6.14432 10.7478C5.99582 10.6042 5.92157 10.4261 5.92157 10.2136C5.92157 10.1136 5.9424 10.0178 5.98407 9.92609C6.02574 9.83442 6.08824 9.74692 6.17157 9.66359C6.4549 9.38025 6.76232 9.15525 7.09382 8.98859C7.42549 8.82192 7.78474 8.73859 8.17157 8.73859C8.47157 8.73859 8.75899 8.80034 9.03382 8.92384C9.30865 9.04717 9.57957 9.19375 9.84657 9.36359L10.2466 9.61359C10.3799 9.69692 10.5216 9.73859 10.6716 9.73859C10.9049 9.73859 11.2216 9.57192 11.6216 9.23859C11.7049 9.15525 11.7914 9.09692 11.8811 9.06359C11.9709 9.03025 12.0671 9.01359 12.1696 9.01359C12.3876 9.01359 12.5674 9.08542 12.7091 9.22909C12.8507 9.37292 12.9216 9.55109 12.9216 9.76359C12.9216 9.86359 12.9007 9.95525 12.8591 10.0386C12.8174 10.1219 12.7632 10.2053 12.6966 10.2886C12.4132 10.5719 12.1007 10.8011 11.7591 10.9761C11.4174 11.1511 11.0549 11.2386 10.6716 11.2386ZM10.6716 16.2386C10.3716 16.2386 10.0841 16.1803 9.80907 16.0636C9.53407 15.9469 9.27157 15.8053 9.02157 15.6386C8.88824 15.5553 8.75449 15.4678 8.62032 15.3761C8.48615 15.2844 8.33657 15.2386 8.17157 15.2386C7.98824 15.2386 7.81832 15.2868 7.66182 15.3833C7.50532 15.4798 7.35857 15.5983 7.22157 15.7386C7.13824 15.8219 7.05557 15.8803 6.97357 15.9136C6.8914 15.9469 6.79907 15.9636 6.69657 15.9636C6.4769 15.9636 6.29282 15.8917 6.14432 15.7478C5.99582 15.6042 5.92157 15.4261 5.92157 15.2136C5.92157 15.1136 5.9424 15.0178 5.98407 14.9261C6.02574 14.8344 6.08824 14.7469 6.17157 14.6636C6.4549 14.3803 6.76232 14.1553 7.09382 13.9886C7.42549 13.8219 7.78474 13.7386 8.17157 13.7386C8.47157 13.7386 8.75899 13.8003 9.03382 13.9238C9.30865 14.0472 9.57957 14.1938 9.84657 14.3636L10.2466 14.6136C10.3799 14.6969 10.5216 14.7386 10.6716 14.7386C10.9582 14.7386 11.2091 14.6178 11.4241 14.3761C11.6391 14.1344 11.8894 14.0136 12.1751 14.0136C12.3894 14.0136 12.5674 14.0844 12.7091 14.2261C12.8507 14.3678 12.9216 14.5469 12.9216 14.7636C12.9216 14.8636 12.9007 14.9553 12.8591 15.0386C12.8174 15.1219 12.7632 15.2053 12.6966 15.2886C12.6966 15.2934 12.6943 15.298 12.6898 15.3023C12.6852 15.3068 12.6791 15.3106 12.6716 15.3136C12.3882 15.5969 12.0808 15.8219 11.7493 15.9886C11.4177 16.1553 11.0584 16.2386 10.6716 16.2386ZM3.92157 20.4886C3.52157 20.4886 3.17157 20.3386 2.87157 20.0386C2.57157 19.7386 2.42157 19.3886 2.42157 18.9886V5.98859C2.42157 5.58859 2.57157 5.23859 2.87157 4.93859C3.17157 4.63859 3.52157 4.48859 3.92157 4.48859H20.9216C21.3216 4.48859 21.6716 4.63859 21.9716 4.93859C22.2716 5.23859 22.4216 5.58859 22.4216 5.98859V18.9886C22.4216 19.3886 22.2716 19.7386 21.9716 20.0386C21.6716 20.3386 21.3216 20.4886 20.9216 20.4886H3.92157ZM3.92157 18.9886H14.9216V5.98859H3.92157V18.9886ZM16.4216 18.9886H20.9216V5.98859H16.4216V18.9886ZM18.2966 8.98859H19.0466C19.1466 8.98859 19.2341 8.95109 19.3091 8.87609C19.3841 8.80109 19.4216 8.71359 19.4216 8.61359V7.86359C19.4216 7.76359 19.3841 7.67609 19.3091 7.60109C19.2341 7.52609 19.1466 7.48859 19.0466 7.48859H18.2966C18.1966 7.48859 18.1091 7.52609 18.0341 7.60109C17.9591 7.67609 17.9216 7.76359 17.9216 7.86359V8.61359C17.9216 8.71359 17.9591 8.80109 18.0341 8.87609C18.1091 8.95109 18.1966 8.98859 18.2966 8.98859ZM18.6841 13.2386C18.8924 13.2386 19.0674 13.1636 19.2091 13.0136C19.3507 12.8636 19.4216 12.6844 19.4216 12.4761C19.4216 12.2678 19.3497 12.0928 19.2061 11.9511C19.0622 11.8094 18.8841 11.7386 18.6716 11.7386C18.4716 11.7386 18.2966 11.8104 18.1466 11.9541C17.9966 12.0979 17.9216 12.2761 17.9216 12.4886C17.9216 12.6886 17.9966 12.8636 18.1466 13.0136C18.2966 13.1636 18.4757 13.2386 18.6841 13.2386ZM18.6841 17.4886C18.8924 17.4886 19.0674 17.4136 19.2091 17.2636C19.3507 17.1136 19.4216 16.9344 19.4216 16.7261C19.4216 16.5178 19.3497 16.3428 19.2061 16.2011C19.0622 16.0594 18.8841 15.9886 18.6716 15.9886C18.4716 15.9886 18.2966 16.0604 18.1466 16.2041C17.9966 16.3479 17.9216 16.5261 17.9216 16.7386C17.9216 16.9386 17.9966 17.1136 18.1466 17.2636C18.2966 17.4136 18.4757 17.4886 18.6841 17.4886Z" fill="#423E3E"/>
</g>
</svg>
