<svg width="48" height="48" viewBox="0 0 48 48" fill="none" xmlns="http://www.w3.org/2000/svg">
<path d="M15.0833 32.8963V14.2296C15.0833 13.8518 15.2119 13.5351 15.4691 13.2794C15.726 13.024 16.0445 12.8963 16.4247 12.8963C16.8045 12.8963 17.1204 13.024 17.3722 13.2794C17.6241 13.5351 17.75 13.8518 17.75 14.2296V32.8963C17.75 33.274 17.6214 33.5906 17.3642 33.846C17.1073 34.1017 16.7888 34.2296 16.4087 34.2296C16.0288 34.2296 15.713 34.1017 15.4611 33.846C15.2093 33.5906 15.0833 33.274 15.0833 32.8963ZM22.4167 40.0074V7.11849C22.4167 6.74071 22.5453 6.42397 22.8024 6.16827C23.0593 5.91286 23.3779 5.78516 23.758 5.78516C24.1379 5.78516 24.4537 5.91286 24.7056 6.16827C24.9574 6.42397 25.0833 6.74071 25.0833 7.11849V40.0074C25.0833 40.3852 24.9547 40.7017 24.6976 40.9572C24.4407 41.2129 24.1221 41.3407 23.742 41.3407C23.3621 41.3407 23.0463 41.2129 22.7944 40.9572C22.5426 40.7017 22.4167 40.3852 22.4167 40.0074ZM7.75 25.7852V21.3407C7.75 20.9629 7.87859 20.6462 8.13578 20.3905C8.39267 20.1351 8.71118 20.0074 9.09133 20.0074C9.47118 20.0074 9.78704 20.1351 10.0389 20.3905C10.2907 20.6462 10.4167 20.9629 10.4167 21.3407V25.7852C10.4167 26.1629 10.2881 26.4795 10.0309 26.7349C9.774 26.9906 9.45548 27.1185 9.07533 27.1185C8.69548 27.1185 8.37963 26.9906 8.12778 26.7349C7.87593 26.4795 7.75 26.1629 7.75 25.7852ZM29.75 32.8963V14.2296C29.75 13.8518 29.8786 13.5351 30.1358 13.2794C30.3927 13.024 30.7112 12.8963 31.0913 12.8963C31.4712 12.8963 31.787 13.024 32.0389 13.2794C32.2907 13.5351 32.4167 13.8518 32.4167 14.2296V32.8963C32.4167 33.274 32.2881 33.5906 32.0309 33.846C31.774 34.1017 31.4555 34.2296 31.0753 34.2296C30.6955 34.2296 30.3796 34.1017 30.1278 33.846C29.8759 33.5906 29.75 33.274 29.75 32.8963ZM37.0833 25.7852V21.3407C37.0833 20.9629 37.2119 20.6462 37.4691 20.3905C37.726 20.1351 38.0445 20.0074 38.4247 20.0074C38.8045 20.0074 39.1204 20.1351 39.3722 20.3905C39.6241 20.6462 39.75 20.9629 39.75 21.3407V25.7852C39.75 26.1629 39.6214 26.4795 39.3642 26.7349C39.1073 26.9906 38.7888 27.1185 38.4087 27.1185C38.0288 27.1185 37.713 26.9906 37.4611 26.7349C37.2093 26.4795 37.0833 26.1629 37.0833 25.7852Z" fill="#2C2E25"/>
</svg>
