<svg width="14" height="14" viewBox="0 0 14 14" fill="none" xmlns="http://www.w3.org/2000/svg">
<path d="M8.13685 12.7899C8.0299 12.8385 7.91567 12.8434 7.79414 12.8045C7.67261 12.7656 7.58754 12.6927 7.53893 12.5857L6.53268 10.5732C6.48407 10.4663 6.47678 10.3521 6.51081 10.2305C6.54484 10.109 6.61532 10.0239 6.72227 9.97533C6.82921 9.92671 6.94345 9.92185 7.06497 9.96074C7.1865 9.99963 7.27157 10.0725 7.32018 10.1795L8.32643 12.192C8.37504 12.2989 8.38234 12.4132 8.34831 12.5347C8.31428 12.6562 8.24379 12.7413 8.13685 12.7899ZM11.6369 12.7753C11.5299 12.8239 11.4157 12.8288 11.2941 12.7899C11.1726 12.751 11.0875 12.6781 11.0389 12.5712L10.0327 10.5587C9.98407 10.4517 9.97678 10.3375 10.0108 10.216C10.0448 10.0944 10.1153 10.0094 10.2223 9.96074C10.3292 9.91213 10.4434 9.90727 10.565 9.94616C10.6865 9.98505 10.7716 10.058 10.8202 10.1649L11.8264 12.1774C11.875 12.2844 11.8823 12.3986 11.8483 12.5201C11.8143 12.6416 11.7438 12.7267 11.6369 12.7753ZM4.63685 12.7753C4.5299 12.8239 4.41567 12.8312 4.29414 12.7972C4.17261 12.7632 4.08754 12.6927 4.03893 12.5857L3.03268 10.5732C2.98407 10.4663 2.97921 10.3521 3.0181 10.2305C3.05699 10.109 3.1299 10.0239 3.23685 9.97533C3.34379 9.92671 3.45803 9.91942 3.57956 9.95345C3.70109 9.98748 3.78615 10.058 3.83477 10.1649L4.84102 12.192C4.88963 12.2989 4.89449 12.4107 4.8556 12.5274C4.81671 12.6441 4.74379 12.7267 4.63685 12.7753ZM4.22852 9.04199C3.38268 9.04199 2.66081 8.74303 2.06289 8.14512C1.46497 7.5472 1.16602 6.82533 1.16602 5.97949C1.16602 5.21144 1.44067 4.52602 1.98997 3.92324C2.53928 3.32046 3.22227 2.98991 4.03893 2.93158C4.35004 2.38713 4.76081 1.95692 5.27122 1.64095C5.78164 1.32498 6.35768 1.16699 6.99935 1.16699C7.88407 1.16699 8.62539 1.44651 9.22331 2.00553C9.82122 2.56456 10.1882 3.25727 10.3243 4.08366C11.0924 4.12255 11.7025 4.38262 12.1546 4.86387C12.6066 5.34512 12.8327 5.91144 12.8327 6.56283C12.8327 7.24338 12.5921 7.82671 12.1108 8.31283C11.6296 8.79894 11.0438 9.04199 10.3535 9.04199H4.22852ZM4.22852 8.16699H10.3535C10.8007 8.16699 11.1799 8.00901 11.491 7.69303C11.8021 7.37706 11.9577 7.00033 11.9577 6.56283C11.9577 6.1156 11.8021 5.73644 11.491 5.42533C11.1799 5.11421 10.8007 4.95866 10.3535 4.95866H9.47852V4.52116C9.47852 3.83088 9.23789 3.24512 8.75664 2.76387C8.27539 2.28262 7.68963 2.04199 6.99935 2.04199C6.50352 2.04199 6.049 2.17567 5.63581 2.44303C5.22261 2.71039 4.91879 3.07255 4.72435 3.52949L4.60768 3.79199H4.19935C3.59657 3.81144 3.08615 4.03262 2.6681 4.45553C2.25004 4.87845 2.04102 5.38644 2.04102 5.97949C2.04102 6.58227 2.2549 7.09755 2.68268 7.52533C3.11046 7.9531 3.62574 8.16699 4.22852 8.16699Z" fill="#FFF7EE"/>
</svg>
