<svg width="24" height="24" viewBox="0 0 24 24" fill="none" xmlns="http://www.w3.org/2000/svg">
<path d="M5.30078 21.25V14.5H4.80078C4.58828 14.5 4.4102 14.4281 4.26653 14.2843C4.1227 14.1406 4.05078 13.9625 4.05078 13.75V8.8C4.05078 8.31667 4.22995 7.89583 4.58828 7.5375C4.94661 7.17917 5.36528 7 5.84428 7H8.45728C8.93628 7 9.35495 7.17917 9.71328 7.5375C10.0716 7.89583 10.2508 8.31667 10.2508 8.8V13.75C10.2508 13.9625 10.1789 14.1406 10.0353 14.2843C9.89145 14.4281 9.71328 14.5 9.50078 14.5H9.00078V21.25C9.00078 21.4625 8.92895 21.6406 8.78528 21.7843C8.64145 21.9281 8.46328 22 8.25078 22H6.05078C5.83828 22 5.6602 21.9281 5.51653 21.7843C5.3727 21.6406 5.30078 21.4625 5.30078 21.25ZM7.15278 5.65C6.65145 5.65 6.22161 5.4715 5.86328 5.1145C5.50495 4.7575 5.32578 4.32833 5.32578 3.827C5.32578 3.32567 5.50428 2.89583 5.86128 2.5375C6.21828 2.17917 6.64745 2 7.14878 2C7.65011 2 8.07995 2.1785 8.43828 2.5355C8.79661 2.8925 8.97578 3.32167 8.97578 3.823C8.97578 4.32433 8.79728 4.75417 8.44028 5.1125C8.08328 5.47083 7.65411 5.65 7.15278 5.65ZM15.7508 21.25V16H14.1258C13.8833 16 13.6894 15.9 13.544 15.7C13.3985 15.5 13.3591 15.2833 13.4258 15.05L15.3008 8.225C15.4211 7.83183 15.6429 7.52933 15.966 7.3175C16.2892 7.10583 16.6674 7 17.1008 7C17.5341 7 17.9124 7.10583 18.2355 7.3175C18.5587 7.52933 18.7804 7.83183 18.9008 8.225L20.7758 15.05C20.8424 15.2833 20.803 15.5 20.6575 15.7C20.5122 15.9 20.3183 16 20.0758 16H18.4508V21.25C18.4508 21.4625 18.3789 21.6406 18.2353 21.7843C18.0914 21.9281 17.9133 22 17.7008 22H16.5008C16.2883 22 16.1102 21.9281 15.9665 21.7843C15.8227 21.6406 15.7508 21.4625 15.7508 21.25ZM17.1028 5.65C16.6014 5.65 16.1716 5.4715 15.8133 5.1145C15.4549 4.7575 15.2758 4.32833 15.2758 3.827C15.2758 3.32567 15.4543 2.89583 15.8113 2.5375C16.1683 2.17917 16.5974 2 17.0988 2C17.6001 2 18.0299 2.1785 18.3883 2.5355C18.7466 2.8925 18.9258 3.32167 18.9258 3.823C18.9258 4.32433 18.7473 4.75417 18.3903 5.1125C18.0333 5.47083 17.6041 5.65 17.1028 5.65Z" fill="#2C2E25"/>
</svg>
