<svg width="32" height="32" viewBox="0 0 32 32" fill="none" xmlns="http://www.w3.org/2000/svg">
<path d="M16.402 6.38481L23.9576 10.9181C24.2094 11.0515 24.3798 11.233 24.4687 11.4626C24.5576 11.6922 24.602 11.9181 24.602 12.1404V22.4293C24.602 22.7848 24.4687 23.0959 24.202 23.3626C23.9353 23.6293 23.6242 23.7626 23.2687 23.7626H8.15755C7.802 23.7626 7.49089 23.6293 7.22422 23.3626C6.95755 23.0959 6.82422 22.7848 6.82422 22.4293V12.1404C6.82422 11.9181 6.87237 11.6922 6.96866 11.4626C7.06496 11.233 7.23163 11.0515 7.46866 10.9181L15.0242 6.38481C15.2387 6.26629 15.4701 6.20703 15.7184 6.20703C15.9667 6.20703 16.1946 6.26629 16.402 6.38481ZM15.7131 16.3404L23.1798 11.9626L15.7131 7.4737L8.24644 11.9626L15.7131 16.3404ZM15.0464 17.4293L8.15755 13.3848V22.4293H23.2687V13.3848L16.3798 17.4293C16.1743 17.5478 15.9525 17.607 15.7144 17.607C15.4765 17.607 15.2538 17.5478 15.0464 17.4293Z" fill="#2C2E25"/>
</svg>
