<svg width="24" height="24" viewBox="0 0 24 24" fill="none" xmlns="http://www.w3.org/2000/svg">
<path d="M14.9205 18.5C14.2402 18.5 13.6667 18.2652 13.2 17.7955C12.7333 17.3257 12.5 16.7507 12.5 16.0705C12.5 15.3902 12.7348 14.8167 13.2045 14.35C13.6743 13.8833 14.2493 13.65 14.9295 13.65C15.6098 13.65 16.1833 13.8848 16.65 14.3545C17.1167 14.8243 17.35 15.3993 17.35 16.0795C17.35 16.7598 17.1152 17.3333 16.6455 17.8C16.1757 18.2667 15.6007 18.5 14.9205 18.5ZM4.5 22C4.1 22 3.75 21.85 3.45 21.55C3.15 21.25 3 20.9 3 20.5V5C3 4.6 3.15 4.25 3.45 3.95C3.75 3.65 4.1 3.5 4.5 3.5H6.125V2.8C6.125 2.57333 6.20167 2.38333 6.355 2.23C6.50833 2.07667 6.69833 2 6.925 2C7.15867 2 7.35458 2.07667 7.51275 2.23C7.67092 2.38333 7.75 2.57333 7.75 2.8V3.5H16.25V2.8C16.25 2.57333 16.3267 2.38333 16.48 2.23C16.6333 2.07667 16.8233 2 17.05 2C17.2838 2 17.4798 2.07667 17.6378 2.23C17.7959 2.38333 17.875 2.57333 17.875 2.8V3.5H19.5C19.9 3.5 20.25 3.65 20.55 3.95C20.85 4.25 21 4.6 21 5V20.5C21 20.9 20.85 21.25 20.55 21.55C20.25 21.85 19.9 22 19.5 22H4.5ZM4.5 20.5H19.5V9.75H4.5V20.5ZM4.5 8.25H19.5V5H4.5V8.25Z" fill="#2C2E25"/>
</svg>
