<svg width="24" height="24" viewBox="0 0 24 24" fill="none" xmlns="http://www.w3.org/2000/svg">
<mask id="mask0_8026_302390" style="mask-type:alpha" maskUnits="userSpaceOnUse" x="0" y="0" width="24" height="24">
<rect width="24" height="24" fill="#D9D9D9"/>
</mask>
<g mask="url(#mask0_8026_302390)">
<path d="M9.75 6.5H17.25C17.4625 6.5 17.6407 6.57233 17.7845 6.717C17.9282 6.8615 18 7.04067 18 7.2545C18 7.46817 17.9282 7.64583 17.7845 7.7875C17.6407 7.92917 17.4625 8 17.25 8H9.75C9.5375 8 9.35942 7.92767 9.21575 7.783C9.07192 7.6385 9 7.45933 9 7.2455C9 7.03183 9.07192 6.85417 9.21575 6.7125C9.35942 6.57083 9.5375 6.5 9.75 6.5ZM9.75 9.5H17.25C17.4625 9.5 17.6407 9.57233 17.7845 9.717C17.9282 9.8615 18 10.0407 18 10.2545C18 10.4682 17.9282 10.6458 17.7845 10.7875C17.6407 10.9292 17.4625 11 17.25 11H9.75C9.5375 11 9.35942 10.9277 9.21575 10.783C9.07192 10.6385 9 10.4593 9 10.2455C9 10.0318 9.07192 9.85417 9.21575 9.7125C9.35942 9.57083 9.5375 9.5 9.75 9.5ZM5.625 22C4.89583 22 4.27608 21.7448 3.76575 21.2343C3.25525 20.7239 3 20.1042 3 19.375V16.75C3 16.5375 3.07192 16.3593 3.21575 16.2155C3.35942 16.0718 3.5375 16 3.75 16H6V3.5C6 3.0875 6.14692 2.73433 6.44075 2.4405C6.73442 2.14683 7.0875 2 7.5 2H19.5C19.9125 2 20.2657 2.14683 20.5595 2.4405C20.8532 2.73433 21 3.0875 21 3.5V10.25C21 10.4625 20.9277 10.6406 20.783 10.7843C20.6385 10.9281 20.4593 11 20.2455 11C20.0318 11 19.8542 10.9281 19.7125 10.7843C19.5708 10.6406 19.5 10.4625 19.5 10.25V3.5H7.5V16H11.75C11.9625 16 12.1407 16.0723 12.2845 16.217C12.4282 16.3615 12.5 16.5407 12.5 16.7545C12.5 16.9682 12.4282 17.1458 12.2845 17.2875C12.1407 17.4292 11.9625 17.5 11.75 17.5H4.5V19.375C4.5 19.6937 4.60833 19.9608 4.825 20.1765C5.04167 20.3922 5.3 20.5 5.6 20.5H11.75C11.9625 20.5 12.1407 20.5723 12.2845 20.717C12.4282 20.8615 12.5 21.0407 12.5 21.2545C12.5 21.4682 12.4282 21.6458 12.2845 21.7875C12.1407 21.9292 11.9625 22 11.75 22H5.625ZM14 21.25V19.225C14 19.1322 14.0167 19.0423 14.05 18.9555C14.0833 18.8685 14.1417 18.7833 14.225 18.7L19.5152 13.4308C19.6671 13.2788 19.8358 13.1689 20.0215 13.1012C20.2072 13.0337 20.3917 13 20.575 13C20.775 13 20.9667 13.0375 21.15 13.1125C21.3333 13.1875 21.5 13.3 21.65 13.45L22.575 14.375C22.725 14.525 22.8333 14.6917 22.9 14.875C22.9667 15.0583 23 15.2417 23 15.425C23 15.6083 22.9625 15.7958 22.8875 15.9875C22.8125 16.1792 22.6993 16.351 22.548 16.503L17.3 21.775C17.2167 21.8583 17.1315 21.9167 17.0445 21.95C16.9577 21.9833 16.8678 22 16.775 22H14.75C14.5375 22 14.3594 21.9281 14.2158 21.7843C14.0719 21.6406 14 21.4625 14 21.25ZM15.5 20.5H16.45L19.475 17.45L19.025 16.975L18.55 16.525L15.5 19.55V20.5ZM19.025 16.975L18.55 16.525L19.475 17.45L19.025 16.975Z" fill="#2C2E25"/>
</g>
</svg>
