<svg width="32" height="32" viewBox="0 0 32 32" fill="none" xmlns="http://www.w3.org/2000/svg">
<path d="M8.00065 26.6667C7.71732 26.6667 7.47987 26.5702 7.28832 26.3773C7.09654 26.1847 7.00065 25.9458 7.00065 25.6607C7.00065 25.3758 7.09654 25.1389 7.28832 24.95C7.47987 24.7611 7.71732 24.6667 8.00065 24.6667H9.03398L11.834 15.4333C11.9673 15.0111 12.2062 14.6667 12.5507 14.4C12.8951 14.1333 13.2895 14 13.734 14H18.2673C18.7118 14 19.1062 14.1333 19.4507 14.4C19.7951 14.6667 20.034 15.0111 20.1673 15.4333L22.9673 24.6667H24.0007C24.284 24.6667 24.5215 24.7631 24.7133 24.956C24.9049 25.1487 25.0007 25.3876 25.0007 25.6727C25.0007 25.9576 24.9049 26.1944 24.7133 26.3833C24.5215 26.5722 24.284 26.6667 24.0007 26.6667H8.00065ZM11.1673 24.6667H20.834L18.234 16H13.7673L11.1673 24.6667ZM15.0007 9V5C15.0007 4.71667 15.0971 4.47911 15.29 4.28733C15.4827 4.09578 15.7215 4 16.0067 4C16.2915 4 16.5284 4.09578 16.7173 4.28733C16.9062 4.47911 17.0007 4.71667 17.0007 5V9C17.0007 9.28333 16.9042 9.52078 16.7113 9.71233C16.5187 9.90411 16.2798 10 15.9947 10C15.7098 10 15.4729 9.90411 15.284 9.71233C15.0951 9.52078 15.0007 9.28333 15.0007 9ZM22.134 11.1333L24.9673 8.3C25.1673 8.12222 25.4018 8.02778 25.6707 8.01667C25.9395 8.00556 26.1718 8.1 26.3673 8.3C26.5673 8.5 26.6673 8.73333 26.6673 9C26.6673 9.26667 26.5673 9.5 26.3673 9.7L23.534 12.5667C23.334 12.7667 23.1007 12.8667 22.834 12.8667C22.5673 12.8667 22.334 12.7661 22.134 12.565C21.934 12.3637 21.834 12.1248 21.834 11.8483C21.834 11.5717 21.934 11.3333 22.134 11.1333ZM25.6673 17.6667H29.6673C29.9507 17.6667 30.1882 17.7631 30.38 17.956C30.5715 18.1487 30.6673 18.3876 30.6673 18.6727C30.6673 18.9576 30.5715 19.1944 30.38 19.3833C30.1882 19.5722 29.9507 19.6667 29.6673 19.6667H25.6673C25.384 19.6667 25.1465 19.5702 24.955 19.3773C24.7632 19.1847 24.6673 18.9458 24.6673 18.6607C24.6673 18.3758 24.7632 18.1389 24.955 17.95C25.1465 17.7611 25.384 17.6667 25.6673 17.6667ZM8.46732 12.5333L5.63398 9.7C5.45621 9.5 5.36176 9.26556 5.35065 8.99667C5.33954 8.72778 5.43398 8.49556 5.63398 8.3C5.83398 8.1 6.06732 8 6.33398 8C6.60065 8 6.83398 8.1 7.03398 8.3L9.90065 11.1333C10.1007 11.3333 10.2007 11.5667 10.2007 11.8333C10.2007 12.1 10.1001 12.3333 9.89898 12.5333C9.69765 12.7333 9.45876 12.8333 9.18232 12.8333C8.90565 12.8333 8.66732 12.7333 8.46732 12.5333ZM2.33398 19.6667C2.05065 19.6667 1.81321 19.5702 1.62165 19.3773C1.42987 19.1847 1.33398 18.9458 1.33398 18.6607C1.33398 18.3758 1.42987 18.1389 1.62165 17.95C1.81321 17.7611 2.05065 17.6667 2.33398 17.6667H6.33398C6.61732 17.6667 6.85487 17.7631 7.04665 17.956C7.23821 18.1487 7.33398 18.3876 7.33398 18.6727C7.33398 18.9576 7.23821 19.1944 7.04665 19.3833C6.85487 19.5722 6.61732 19.6667 6.33398 19.6667H2.33398Z" fill="#2C2E25"/>
</svg>
