<svg width="24" height="24" viewBox="0 0 24 24" fill="none" xmlns="http://www.w3.org/2000/svg">
<path d="M6.827 9.025C6.32567 9.025 5.89583 8.8465 5.5375 8.4895C5.17917 8.1325 5 7.70333 5 7.202C5 6.70067 5.1785 6.27083 5.5355 5.9125C5.8925 5.55417 6.32167 5.375 6.823 5.375C7.32433 5.375 7.75417 5.5535 8.1125 5.9105C8.47083 6.2675 8.65 6.69667 8.65 7.198C8.65 7.69933 8.4715 8.12917 8.1145 8.4875C7.7575 8.84583 7.32833 9.025 6.827 9.025ZM4.6455 22C4.3485 22 4.08333 21.9042 3.85 21.7125C3.61667 21.5208 3.5 21.2833 3.5 21C3.0875 21 2.73442 20.8531 2.44075 20.5592C2.14692 20.2656 2 19.9125 2 19.5V13.75C2 13.5375 2.07192 13.3593 2.21575 13.2155C2.35942 13.0718 2.5375 13 2.75 13H5V12.3053C5 11.7184 5.20833 11.2167 5.625 10.8C6.04167 10.3833 6.54483 10.175 7.1345 10.175C7.44483 10.175 7.74167 10.2333 8.025 10.35C8.30833 10.4667 8.55833 10.6417 8.775 10.875L10.075 12.35C10.1917 12.4833 10.3125 12.6042 10.4375 12.7125C10.5625 12.8208 10.6917 12.9167 10.825 13H18.5V4.65C18.5 4.33433 18.3958 4.06375 18.1875 3.83825C17.9792 3.61275 17.7167 3.5 17.4 3.5C17.2353 3.5 17.0775 3.51667 16.9265 3.55C16.7755 3.58333 16.6417 3.65833 16.525 3.775L15.225 5.075C15.3083 5.35833 15.3208 5.64583 15.2625 5.9375C15.2042 6.22917 15.1 6.50833 14.95 6.775L12.4 4.35C12.6738 4.16783 12.9673 4.0515 13.2805 4.001C13.5935 3.95033 13.9 3.98333 14.2 4.1L15.5 2.825C15.75 2.575 16.0378 2.375 16.3635 2.225C16.6892 2.075 17.0347 2 17.4 2C18.1298 2 18.7456 2.25833 19.2473 2.775C19.7491 3.29167 20 3.91667 20 4.65V13H21.25C21.4625 13 21.6407 13.0718 21.7845 13.2155C21.9282 13.3593 22 13.5375 22 13.75V19.5C22 19.9125 21.8532 20.2656 21.5595 20.5592C21.2657 20.8531 20.9125 21 20.5 21C20.5 21.2833 20.3833 21.5208 20.15 21.7125C19.9167 21.9042 19.6417 22 19.325 22H4.6455ZM3.5 19.5H20.5V14.5H3.5V19.5Z" fill="#2C2E25"/>
</svg>
