<svg width="24" height="24" viewBox="0 0 24 24" fill="none" xmlns="http://www.w3.org/2000/svg">
<path d="M12 18C10.3333 18 8.91667 17.4167 7.75 16.25C6.58333 15.0833 6 13.6667 6 12C6 10.3333 6.58333 8.91667 7.75 7.75C8.91667 6.58333 10.3333 6 12 6C13.6667 6 15.0833 6.58333 16.25 7.75C17.4167 8.91667 18 10.3333 18 12C18 13.6667 17.4167 15.0833 16.25 16.25C15.0833 17.4167 13.6667 18 12 18ZM11.5 16.475V13.2L9.2 15.5C9.53333 15.7833 9.89167 16.0083 10.275 16.175C10.6583 16.3417 11.0667 16.4417 11.5 16.475ZM12.5 16.475C12.9333 16.425 13.3417 16.3125 13.725 16.1375C14.1083 15.9625 14.4667 15.75 14.8 15.5L12.5 13.2V16.475ZM15.5 14.8C15.7667 14.4667 15.9917 14.1083 16.175 13.725C16.3583 13.3417 16.4667 12.9333 16.5 12.5H13.2L15.5 14.8ZM13.2 11.5H16.475C16.4417 11.0667 16.3417 10.6583 16.175 10.275C16.0083 9.89167 15.7833 9.53333 15.5 9.2L13.2 11.5ZM12.5 10.8L14.8 8.5C14.4667 8.23333 14.1083 8.0125 13.725 7.8375C13.3417 7.6625 12.9333 7.55833 12.5 7.525V10.8ZM12.0045 12.75C12.2182 12.75 12.3958 12.6777 12.5375 12.533C12.6792 12.3885 12.75 12.2093 12.75 11.9955C12.75 11.7818 12.6777 11.6042 12.533 11.4625C12.3885 11.3208 12.2093 11.25 11.9955 11.25C11.7818 11.25 11.6042 11.3223 11.4625 11.467C11.3208 11.6115 11.25 11.7907 11.25 12.0045C11.25 12.2182 11.3223 12.3958 11.467 12.5375C11.6115 12.6792 11.7907 12.75 12.0045 12.75ZM11.5 10.8V7.525C11.0667 7.54167 10.6583 7.6375 10.275 7.8125C9.89167 7.9875 9.53333 8.21667 9.2 8.5L11.5 10.8ZM7.525 11.5H10.8L8.5 9.2C8.23333 9.53333 8.0125 9.89167 7.8375 10.275C7.6625 10.6583 7.55833 11.0667 7.525 11.5ZM8.5 14.8L10.8 12.5H7.525C7.575 12.9333 7.68333 13.3417 7.85 13.725C8.01667 14.1083 8.23333 14.4667 8.5 14.8ZM4.5 21C4.1 21 3.75 20.85 3.45 20.55C3.15 20.25 3 19.9 3 19.5V4.5C3 4.1 3.15 3.75 3.45 3.45C3.75 3.15 4.1 3 4.5 3H19.5C19.9 3 20.25 3.15 20.55 3.45C20.85 3.75 21 4.1 21 4.5V19.5C21 19.9 20.85 20.25 20.55 20.55C20.25 20.85 19.9 21 19.5 21H4.5ZM4.5 19.5H19.5V4.5H4.5V19.5Z" fill="#2C2E25"/>
</svg>
