<svg width="14" height="14" viewBox="0 0 14 14" fill="none" xmlns="http://www.w3.org/2000/svg">
<mask id="mask0_8019_261013" style="mask-type:alpha" maskUnits="userSpaceOnUse" x="0" y="0" width="14" height="14">
<rect width="14" height="14" fill="#D9D9D9"/>
</mask>
<g mask="url(#mask0_8019_261013)">
<path d="M3.15061 5.68724C3.50061 5.68724 3.84089 5.75287 4.17145 5.88412C4.502 6.01537 4.79853 6.20252 5.06103 6.44558L10.8214 11.9581H11.0839C11.3319 11.9581 11.5397 11.8742 11.7074 11.7065C11.8751 11.5388 11.9589 11.331 11.9589 11.0831C11.9589 10.9742 11.9486 10.8585 11.928 10.736C11.9073 10.6135 11.835 10.491 11.711 10.3685L9.08603 7.74349L7.9777 4.43308L6.63603 4.76849C6.35409 4.83655 6.10131 4.78551 5.8777 4.61537C5.65409 4.44523 5.54228 4.21433 5.54228 3.92266V2.50808L4.75478 2.11433L2.2027 5.54141C2.18325 5.56085 2.16624 5.58273 2.15166 5.60703C2.13707 5.63134 2.12006 5.65808 2.10061 5.68724H3.15061ZM3.15061 6.56224H2.01311C2.04228 6.66919 2.08603 6.76728 2.14436 6.85653C2.2027 6.94569 2.27075 7.02745 2.34853 7.10183L7.2777 11.5789C7.41381 11.7053 7.5645 11.8001 7.72978 11.8633C7.89506 11.9265 8.07006 11.9581 8.25478 11.9581H9.5527L4.46311 7.08724C4.28811 6.92196 4.08662 6.79315 3.85863 6.70078C3.63055 6.60842 3.39454 6.56224 3.15061 6.56224ZM8.25478 12.8331C7.96311 12.8331 7.68603 12.7796 7.42353 12.6727C7.16103 12.5657 6.91797 12.415 6.69436 12.2206L1.95478 7.91849C1.50756 7.51016 1.25721 7.00946 1.20374 6.41641C1.15027 5.82335 1.30339 5.28377 1.66311 4.79766L3.90895 1.79349C4.07423 1.56988 4.29541 1.42162 4.57249 1.3487C4.84957 1.27578 5.1145 1.30738 5.36728 1.44349L5.77561 1.64766C5.97978 1.7546 6.13777 1.90044 6.24957 2.08516C6.36138 2.26988 6.41728 2.47405 6.41728 2.69766V3.92266L7.49645 3.64558C7.78811 3.5678 8.07006 3.60426 8.34228 3.75495C8.6145 3.90565 8.79923 4.12196 8.89645 4.40391L9.84436 7.26224L12.3235 9.74141C12.518 9.93585 12.6517 10.1449 12.7246 10.3685C12.7975 10.5921 12.8339 10.8303 12.8339 11.0831C12.8339 11.5692 12.6638 11.9824 12.3235 12.3227C11.9833 12.6629 11.5701 12.8331 11.0839 12.8331H8.25478Z" fill="#FFF7EE"/>
</g>
</svg>
