<svg width="14" height="14" viewBox="0 0 14 14" fill="none" xmlns="http://www.w3.org/2000/svg">
<path d="M10.8361 4.79759C10.5833 5.05037 10.3013 5.23752 9.99023 5.35905C9.67912 5.48058 9.35828 5.54134 9.02773 5.54134C8.69717 5.54134 8.37634 5.48058 8.06523 5.35905C7.75412 5.23752 7.47217 5.05037 7.21939 4.79759L6.12564 3.70384C5.96037 3.53856 5.77807 3.41704 5.57877 3.33926C5.37946 3.26148 5.17287 3.22259 4.95898 3.22259C4.74509 3.22259 4.53849 3.26148 4.33919 3.33926C4.13988 3.41704 3.95759 3.53856 3.79231 3.70384L3.10689 4.38926C3.01939 4.47676 2.91731 4.51808 2.80064 4.51322C2.68398 4.50835 2.58189 4.46217 2.49439 4.37467C2.40689 4.28717 2.36314 4.18266 2.36314 4.06113C2.36314 3.9396 2.40689 3.83509 2.49439 3.74759L3.16523 3.07676C3.41801 2.82398 3.69995 2.63683 4.01106 2.5153C4.32217 2.39377 4.63814 2.33301 4.95898 2.33301C5.27981 2.33301 5.59335 2.39377 5.8996 2.5153C6.20585 2.63683 6.48537 2.82398 6.73814 3.07676L7.83189 4.17051C7.99717 4.33579 8.17946 4.45974 8.37877 4.54238C8.57807 4.62502 8.78953 4.66634 9.01314 4.66634C9.23675 4.66634 9.45064 4.62502 9.65481 4.54238C9.85898 4.45974 10.0437 4.33579 10.209 4.17051L10.8944 3.48509C10.9819 3.39759 11.0864 3.35384 11.2079 3.35384C11.3295 3.35384 11.434 3.39759 11.5215 3.48509C11.609 3.57259 11.6527 3.67711 11.6527 3.79863C11.6527 3.92016 11.609 4.02467 11.5215 4.11217L10.8361 4.79759ZM10.8361 7.86009C10.5833 8.11287 10.3013 8.30002 9.99023 8.42155C9.67912 8.54308 9.35828 8.60384 9.02773 8.60384C8.69717 8.60384 8.37634 8.54308 8.06523 8.42155C7.75412 8.30002 7.47217 8.11287 7.21939 7.86009L6.12564 6.76634C5.96037 6.60106 5.77807 6.47954 5.57877 6.40176C5.37946 6.32398 5.17287 6.28509 4.95898 6.28509C4.74509 6.28509 4.53849 6.32398 4.33919 6.40176C4.13988 6.47954 3.95759 6.60106 3.79231 6.76634L3.10689 7.45176C3.01939 7.53926 2.91731 7.58301 2.80064 7.58301C2.68398 7.58301 2.58189 7.53926 2.49439 7.45176C2.40689 7.36426 2.36071 7.25974 2.35585 7.13822C2.35099 7.01669 2.39231 6.91217 2.47981 6.82467L3.16523 6.13926C3.41801 5.88648 3.69995 5.69933 4.01106 5.5778C4.32217 5.45627 4.63814 5.39551 4.95898 5.39551C5.27981 5.39551 5.59335 5.45627 5.8996 5.5778C6.20585 5.69933 6.48537 5.88648 6.73814 6.13926L7.83189 7.23301C7.99717 7.39829 8.18189 7.52224 8.38606 7.60488C8.59023 7.68752 8.80412 7.72884 9.02773 7.72884C9.25134 7.72884 9.4628 7.68752 9.6621 7.60488C9.86141 7.52224 10.0437 7.39829 10.209 7.23301L10.8944 6.54759C10.9819 6.46009 11.0864 6.41634 11.2079 6.41634C11.3295 6.41634 11.434 6.46009 11.5215 6.54759C11.609 6.63509 11.6527 6.7396 11.6527 6.86113C11.6527 6.98266 11.609 7.08717 11.5215 7.17467L10.8361 7.86009ZM10.8215 10.9226C10.5687 11.1754 10.2892 11.3625 9.98294 11.484C9.67669 11.6056 9.35828 11.6663 9.02773 11.6663C8.69717 11.6663 8.37634 11.6056 8.06523 11.484C7.75412 11.3625 7.47217 11.1754 7.21939 10.9226L6.11106 9.82884C5.94578 9.66356 5.76349 9.54204 5.56419 9.46426C5.36488 9.38648 5.15828 9.34759 4.94439 9.34759C4.73051 9.34759 4.52391 9.38648 4.3246 9.46426C4.1253 9.54204 3.94301 9.66356 3.77773 9.82884L3.09231 10.5143C3.00481 10.6018 2.90273 10.6455 2.78606 10.6455C2.66939 10.6455 2.56731 10.6018 2.47981 10.5143C2.39231 10.4268 2.35099 10.3247 2.35585 10.208C2.36071 10.0913 2.40203 9.98926 2.47981 9.90176L3.16523 9.20176C3.41801 8.94898 3.69752 8.76183 4.00377 8.6403C4.31002 8.51877 4.62356 8.45801 4.94439 8.45801C5.26523 8.45801 5.5812 8.51877 5.89231 8.6403C6.20342 8.76183 6.48537 8.94898 6.73814 9.20176L7.83189 10.2955C7.99717 10.4608 8.18189 10.5847 8.38606 10.6674C8.59023 10.75 8.80412 10.7913 9.02773 10.7913C9.25134 10.7913 9.4628 10.75 9.6621 10.6674C9.86141 10.5847 10.0437 10.4608 10.209 10.2955L10.8944 9.61009C10.9819 9.52259 11.084 9.48127 11.2006 9.48613C11.3173 9.49099 11.4194 9.53717 11.5069 9.62467C11.5944 9.71217 11.6381 9.81426 11.6381 9.93092C11.6381 10.0476 11.5944 10.1497 11.5069 10.2372L10.8215 10.9226Z" fill="#FFF7EE"/>
</svg>
