<svg width="24" height="24" viewBox="0 0 24 24" fill="none" xmlns="http://www.w3.org/2000/svg">
<mask id="mask0_8026_302393" style="mask-type:alpha" maskUnits="userSpaceOnUse" x="0" y="0" width="24" height="24">
<rect width="24" height="24" fill="#D9D9D9"/>
</mask>
<g mask="url(#mask0_8026_302393)">
<path d="M12 20.025C14.2167 18.0083 15.8542 16.1792 16.9125 14.5375C17.9708 12.8958 18.5 11.45 18.5 10.2C18.5 8.23683 17.8726 6.62933 16.6178 5.3775C15.3629 4.12583 13.8237 3.5 12 3.5C10.1763 3.5 8.63708 4.12583 7.38225 5.3775C6.12742 6.62933 5.5 8.23683 5.5 10.2C5.5 11.45 6.04167 12.8958 7.125 14.5375C8.20833 16.1792 9.83333 18.0083 12 20.025ZM11.9938 21.5C11.8146 21.5 11.6375 21.4708 11.4625 21.4125C11.2875 21.3542 11.1333 21.2583 11 21.125C10.3 20.4917 9.54167 19.7625 8.725 18.9375C7.90833 18.1125 7.15 17.225 6.45 16.275C5.75 15.325 5.16667 14.3333 4.7 13.3C4.23333 12.2667 4 11.2333 4 10.2C4 7.7 4.80417 5.70833 6.4125 4.225C8.02083 2.74167 9.88333 2 12 2C14.1167 2 15.9792 2.74167 17.5875 4.225C19.1958 5.70833 20 7.7 20 10.2C20 11.2333 19.7667 12.2667 19.3 13.3C18.8333 14.3333 18.25 15.325 17.55 16.275C16.85 17.225 16.0917 18.1125 15.275 18.9375C14.4583 19.7625 13.7 20.4917 13 21.125C12.8667 21.2583 12.7104 21.3542 12.5312 21.4125C12.3521 21.4708 12.1729 21.5 11.9938 21.5ZM12 14.75C12.65 14.75 13.2792 14.6208 13.8875 14.3625C14.4958 14.1042 15.0133 13.731 15.4398 13.243C15.5133 13.1643 15.5667 13.0848 15.6 13.0045C15.6333 12.924 15.65 12.8405 15.65 12.754C15.65 12.618 15.6167 12.4917 15.55 12.375C15.4833 12.2583 15.3833 12.1583 15.25 12.075C14.75 11.7917 14.225 11.5833 13.675 11.45C13.125 11.3167 12.5667 11.25 12 11.25C11.4333 11.25 10.875 11.3167 10.325 11.45C9.775 11.5833 9.25 11.7917 8.75 12.075C8.63333 12.1583 8.54167 12.2563 8.475 12.3688C8.40833 12.4813 8.375 12.6063 8.375 12.7438C8.375 12.8313 8.388 12.9178 8.414 13.0033C8.43983 13.0887 8.48517 13.171 8.55 13.25C8.98333 13.7333 9.50417 14.1042 10.1125 14.3625C10.7208 14.6208 11.35 14.75 12 14.75ZM12.0022 9.75C12.4841 9.75 12.8958 9.57842 13.2375 9.23525C13.5792 8.89208 13.75 8.47958 13.75 7.99775C13.75 7.51592 13.5784 7.10417 13.2352 6.7625C12.8921 6.42083 12.4796 6.25 11.9978 6.25C11.5159 6.25 11.1042 6.42158 10.7625 6.76475C10.4208 7.10792 10.25 7.52042 10.25 8.00225C10.25 8.48408 10.4216 8.89583 10.7648 9.2375C11.1079 9.57917 11.5204 9.75 12.0022 9.75Z" fill="#2C2E25"/>
</g>
</svg>
