<svg width="24" height="24" viewBox="0 0 24 24" fill="none" xmlns="http://www.w3.org/2000/svg">
<path d="M5 18.5H19L12 12.925L5 18.5ZM10.15 6.7C10.1 6.83333 10.0167 6.94583 9.9 7.0375C9.78333 7.12917 9.64167 7.175 9.475 7.175C9.25833 7.175 9.07917 7.10417 8.9375 6.9625C8.79583 6.82083 8.725 6.64167 8.725 6.425V6.275C8.725 6.225 8.74167 6.175 8.775 6.125C9.05833 5.49167 9.49167 4.97917 10.075 4.5875C10.6583 4.19583 11.3 4 12 4C12.9667 4 13.7917 4.3375 14.475 5.0125C15.1583 5.6875 15.5 6.50833 15.5 7.475C15.5 8.29167 15.2417 9.0125 14.725 9.6375C14.2083 10.2625 13.55 10.6917 12.75 10.925V11.625L21.7 18.65C21.8 18.7333 21.875 18.825 21.925 18.925C21.975 19.025 22 19.1333 22 19.25C22 19.4667 21.9292 19.6458 21.7875 19.7875C21.6458 19.9292 21.4667 20 21.25 20H2.75C2.53333 20 2.35417 19.9292 2.2125 19.7875C2.07083 19.6458 2 19.4667 2 19.25C2 19.1333 2.025 19.025 2.075 18.925C2.125 18.825 2.2 18.7333 2.3 18.65L11.25 11.625V10.25C11.25 10.05 11.3208 9.875 11.4625 9.725C11.6042 9.575 11.775 9.5 11.975 9.5C12.5417 9.5 13.0208 9.30417 13.4125 8.9125C13.8042 8.52083 14 8.04167 14 7.475C14 6.925 13.8042 6.45833 13.4125 6.075C13.0208 5.69167 12.55 5.5 12 5.5C11.6 5.5 11.2333 5.60833 10.9 5.825C10.5667 6.04167 10.3167 6.33333 10.15 6.7Z" fill="#2C2E25"/>
</svg>
