<svg width="48" height="48" viewBox="0 0 48 48" fill="none" xmlns="http://www.w3.org/2000/svg">
<path d="M11.3079 34.6599C10.8515 34.3991 10.4847 34.0424 10.2076 33.5899C9.93046 33.1377 9.7919 32.6304 9.7919 32.068V22.0918L4.90159 19.4021C4.64077 19.2391 4.44516 19.0511 4.31475 18.8382C4.18434 18.6257 4.11914 18.3893 4.11914 18.1291C4.11914 17.8693 4.18434 17.6334 4.31475 17.4215C4.44516 17.2096 4.64077 17.0221 4.90159 16.8591L22.5556 7.17631C22.7838 7.0459 23.0155 6.95624 23.2505 6.90734C23.4853 6.85844 23.7264 6.83398 23.9738 6.83398C24.2213 6.83398 24.4624 6.85844 24.6971 6.90734C24.9322 6.95624 25.1638 7.0459 25.392 7.17631L44.7576 17.6905C45.0185 17.8535 45.2141 18.0486 45.3445 18.2759C45.4749 18.5028 45.5401 18.7478 45.5401 19.0109V32.1658C45.5401 32.5815 45.3986 32.9298 45.1156 33.2109C44.833 33.4922 44.4825 33.6329 44.0642 33.6329C43.6462 33.6329 43.2987 33.4922 43.0216 33.2109C42.7445 32.9298 42.6059 32.5815 42.6059 32.1658V19.8422L38.1557 22.0918V32.068C38.1557 32.6304 38.0172 33.1377 37.74 33.5899C37.4629 34.0424 37.0962 34.3991 36.6397 34.6599L25.392 40.8217C25.1638 40.9521 24.9322 41.0417 24.6971 41.0906C24.4624 41.1395 24.2213 41.164 23.9738 41.164C23.7264 41.164 23.4853 41.1395 23.2505 41.0906C23.0155 41.0417 22.7838 40.9521 22.5556 40.8217L11.3079 34.6599ZM23.9738 26.5419L39.3783 18.1306L23.9738 9.86598L8.66713 18.1306L23.9738 26.5419ZM23.9738 38.2787L35.2215 32.068V23.8523L25.392 29.1338C25.1638 29.2642 24.9356 29.3539 24.7074 29.4028C24.4791 29.4517 24.2346 29.4761 23.9738 29.4761C23.713 29.4761 23.4766 29.4517 23.2647 29.4028C23.0528 29.3539 22.8327 29.2642 22.6045 29.1338L12.7261 23.7545V32.068L23.9738 38.2787Z" fill="#2C2E25"/>
</svg>
