<svg width="24" height="24" viewBox="0 0 24 24" fill="none" xmlns="http://www.w3.org/2000/svg">
<path d="M3.5 19C3.1 19 2.75 18.85 2.45 18.55C2.15 18.25 2 17.9 2 17.5V4.5C2 4.1 2.15 3.75 2.45 3.45C2.75 3.15 3.1 3 3.5 3H20.5C20.9 3 21.25 3.15 21.55 3.45C21.85 3.75 22 4.1 22 4.5V17.5C22 17.9 21.85 18.25 21.55 18.55C21.25 18.85 20.9 19 20.5 19H15.75V20.25C15.75 20.4625 15.6782 20.6406 15.5345 20.7843C15.3907 20.9281 15.2125 21 15 21H9C8.7875 21 8.60942 20.9281 8.46575 20.7843C8.32192 20.6406 8.25 20.4625 8.25 20.25V19H3.5ZM3.5 17.5H20.5V4.5H3.5V17.5ZM5.875 16C6.10833 16 6.3125 15.9125 6.4875 15.7375C6.6625 15.5625 6.75 15.3583 6.75 15.125C6.75 14.8917 6.6625 14.6875 6.4875 14.5125C6.3125 14.3375 6.10833 14.25 5.875 14.25C5.64167 14.25 5.4375 14.3375 5.2625 14.5125C5.0875 14.6875 5 14.8917 5 15.125C5 15.3583 5.0875 15.5625 5.2625 15.7375C5.4375 15.9125 5.64167 16 5.875 16ZM11.1512 16C11.3171 16 11.4583 15.9414 11.575 15.8242C11.6917 15.7069 11.75 15.5655 11.75 15.4C11.75 13.6833 11.1542 12.2292 9.9625 11.0375C8.77083 9.84583 7.31833 9.25 5.605 9.25C5.435 9.25 5.29167 9.30875 5.175 9.42625C5.05833 9.54375 5 9.68542 5 9.85125C5 10.0171 5.05958 10.1583 5.17875 10.275C5.29792 10.3917 5.44167 10.45 5.61 10.45C6.97 10.45 8.13333 10.9316 9.1 11.8948C10.0667 12.8577 10.55 14.0262 10.55 15.4C10.55 15.5655 10.6087 15.7069 10.7262 15.8242C10.8438 15.9414 10.9854 16 11.1512 16ZM8.65125 16C8.81708 16 8.95833 15.9414 9.075 15.8242C9.19167 15.7069 9.25 15.5655 9.25 15.4C9.25 14.3897 8.89483 13.5288 8.1845 12.8173C7.474 12.1058 6.61442 11.75 5.60575 11.75C5.43525 11.75 5.29167 11.8088 5.175 11.9262C5.05833 12.0437 5 12.1854 5 12.3512C5 12.5171 5.05858 12.6583 5.17575 12.775C5.29308 12.8917 5.4345 12.95 5.6 12.95C6.27933 12.95 6.8575 13.1876 7.3345 13.6628C7.8115 14.1379 8.05 14.7139 8.05 15.3907C8.05 15.5636 8.10875 15.7083 8.22625 15.825C8.34375 15.9417 8.48542 16 8.65125 16Z" fill="#2C2E25"/>
</svg>
