<svg width="24" height="24" viewBox="0 0 24 24" fill="none" xmlns="http://www.w3.org/2000/svg">
<path d="M3.7455 23C3.53183 23 3.35417 22.9281 3.2125 22.7843C3.07083 22.6406 3 22.4625 3 22.25V1.75C3 1.5375 3.07233 1.35933 3.217 1.2155C3.3615 1.07183 3.54067 1 3.7545 1C3.96817 1 4.14583 1.07183 4.2875 1.2155C4.42917 1.35933 4.5 1.5375 4.5 1.75V3H19.5V1.75C19.5 1.5375 19.5723 1.35933 19.717 1.2155C19.8615 1.07183 20.0407 1 20.2545 1C20.4682 1 20.6458 1.07183 20.7875 1.2155C20.9292 1.35933 21 1.5375 21 1.75V22.25C21 22.4625 20.9277 22.6406 20.783 22.7843C20.6385 22.9281 20.4593 23 20.2455 23C20.0318 23 19.8542 22.9281 19.7125 22.7843C19.5708 22.6406 19.5 22.4625 19.5 22.25V21H4.5V22.25C4.5 22.4625 4.42767 22.6406 4.283 22.7843C4.1385 22.9281 3.95933 23 3.7455 23ZM4.5 11.275H7.25V8.025C7.25 7.8125 7.32192 7.63433 7.46575 7.4905C7.60942 7.34683 7.7875 7.275 8 7.275H12C12.2125 7.275 12.3907 7.34683 12.5345 7.4905C12.6782 7.63433 12.75 7.8125 12.75 8.025V11.275H19.5V4.5H4.5V11.275ZM4.5 19.5H11.25V16.25C11.25 16.0375 11.3219 15.8593 11.4658 15.7155C11.6094 15.5718 11.7875 15.5 12 15.5H16C16.2125 15.5 16.3907 15.5718 16.5345 15.7155C16.6782 15.8593 16.75 16.0375 16.75 16.25V19.5H19.5V12.775H4.5V19.5ZM8.75 11.275H11.25V8.775H8.75V11.275ZM12.75 19.5H15.25V17H12.75V19.5Z" fill="#2C2E25"/>
</svg>
