<svg width="32" height="32" viewBox="0 0 32 32" fill="none" xmlns="http://www.w3.org/2000/svg">
<path d="M16.0007 29.3337C14.1562 29.3337 12.584 28.6837 11.284 27.3837C9.98398 26.0837 9.33398 24.5114 9.33398 22.667C9.33398 21.5337 9.58954 20.467 10.1007 19.467C10.6118 18.467 11.3673 17.7225 12.3673 17.2337V6.30033C12.3673 5.29099 12.7205 4.4331 13.427 3.72666C14.1334 3.02021 14.9913 2.66699 16.0007 2.66699C17.01 2.66699 17.8679 3.02021 18.5743 3.72666C19.2808 4.4331 19.634 5.29099 19.634 6.30033V17.2337C20.634 17.7225 21.3895 18.467 21.9007 19.467C22.4118 20.467 22.6673 21.5337 22.6673 22.667C22.6673 24.5114 22.0173 26.0837 20.7173 27.3837C19.4173 28.6837 17.8451 29.3337 16.0007 29.3337ZM14.3673 14.8337H17.634V13.067H16.0007V11.767H17.634V8.86699H16.0007V7.58366H17.634V6.30033C17.634 5.83744 17.4771 5.44955 17.1633 5.13666C16.8493 4.82355 16.4604 4.66699 15.9967 4.66699C15.5327 4.66699 15.1451 4.82355 14.834 5.13666C14.5229 5.44955 14.3673 5.83744 14.3673 6.30033V14.8337Z" fill="#2C2E25"/>
</svg>
