<svg width="48" height="48" viewBox="0 0 48 48" fill="none" xmlns="http://www.w3.org/2000/svg">
<path d="M18.025 44C17.675 44 17.367 43.9062 17.101 43.7185C16.835 43.5312 16.6513 43.275 16.55 42.95L11.4 25.5H5.5C5.075 25.5 4.71883 25.3553 4.4315 25.066C4.14383 24.777 4 24.4187 4 23.991C4 23.5637 4.14383 23.2083 4.4315 22.925C4.71883 22.6417 5.075 22.5 5.5 22.5H12.5C12.8307 22.5 13.1295 22.5937 13.3965 22.781C13.6638 22.9687 13.8483 23.225 13.95 23.55L17.75 36.35L24.55 5.2C24.6167 4.83333 24.7875 4.54167 25.0625 4.325C25.3375 4.10833 25.65 4 26 4C26.35 4 26.6625 4.1 26.9375 4.3C27.2125 4.5 27.3833 4.78333 27.45 5.15L32.15 26.3L35.55 15.05C35.652 14.725 35.8368 14.4687 36.1045 14.281C36.3722 14.0937 36.6717 14 37.003 14C37.3343 14 37.625 14.0833 37.875 14.25C38.125 14.4167 38.3 14.65 38.4 14.95L41.1 22.5H42.5C42.925 22.5 43.2813 22.6447 43.569 22.934C43.8563 23.223 44 23.5813 44 24.009C44 24.4363 43.8563 24.7917 43.569 25.075C43.2813 25.3583 42.925 25.5 42.5 25.5H40C39.6717 25.5 39.3813 25.4083 39.129 25.225C38.8763 25.0417 38.7 24.8 38.6 24.5L37.1 20.35L33.4 32.95C33.3037 33.271 33.1232 33.5345 32.8585 33.7405C32.5935 33.9468 32.2925 34.0333 31.9555 34C31.6185 33.9667 31.3167 33.85 31.05 33.65C30.7833 33.45 30.6167 33.1833 30.55 32.85L26 12.75L19.45 42.85C19.375 43.1963 19.2063 43.4683 18.944 43.666C18.6813 43.864 18.375 43.9753 18.025 44Z" fill="#FFF7EE"/>
</svg>
