<svg width="24" height="24" viewBox="0 0 24 24" fill="none" xmlns="http://www.w3.org/2000/svg">
<path d="M5.8 16.05H14.2V15.525C14.2 14.7583 13.825 14.1542 13.075 13.7125C12.325 13.2708 11.3 13.05 10 13.05C8.7 13.05 7.675 13.2708 6.925 13.7125C6.175 14.1542 5.8 14.7583 5.8 15.525V16.05ZM10 11.675C10.5833 11.675 11.0625 11.4875 11.4375 11.1125C11.8125 10.7375 12 10.2583 12 9.675C12 9.09167 11.8125 8.6125 11.4375 8.2375C11.0625 7.8625 10.5833 7.675 10 7.675C9.41667 7.675 8.9375 7.8625 8.5625 8.2375C8.1875 8.6125 8 9.09167 8 9.675C8 10.2583 8.1875 10.7375 8.5625 11.1125C8.9375 11.4875 9.41667 11.675 10 11.675ZM3.5 20C3.1 20 2.75 19.85 2.45 19.55C2.15 19.25 2 18.9 2 18.5V5.5C2 5.1 2.15 4.75 2.45 4.45C2.75 4.15 3.1 4 3.5 4H16.5C16.9 4 17.25 4.15 17.55 4.45C17.85 4.75 18 5.1 18 5.5V10.875L21.35 7.525C21.4667 7.40833 21.6042 7.3795 21.7625 7.4385C21.9208 7.4975 22 7.60967 22 7.775V16.225C22 16.3903 21.9208 16.5025 21.7625 16.5615C21.6042 16.6205 21.4667 16.5917 21.35 16.475L18 13.125V18.5C18 18.9 17.85 19.25 17.55 19.55C17.25 19.85 16.9 20 16.5 20H3.5ZM3.5 18.5H16.5V5.5H3.5V18.5Z" fill="#2C2E25"/>
</svg>
