<svg width="24" height="24" viewBox="0 0 24 24" fill="none" xmlns="http://www.w3.org/2000/svg">
<path d="M6.52406 16.85V20.25C6.52406 20.4625 6.45173 20.6406 6.30706 20.7843C6.16256 20.9281 5.9834 21 5.76956 21C5.5559 21 5.37823 20.9281 5.23656 20.7843C5.0949 20.6406 5.02406 20.4625 5.02406 20.25V16.85H3.69906C3.48656 16.85 3.30848 16.7777 3.16481 16.633C3.02098 16.4885 2.94906 16.3093 2.94906 16.0955C2.94906 15.8818 3.02098 15.7042 3.16481 15.5625C3.30848 15.4208 3.48656 15.35 3.69906 15.35H5.02406V10.2L2.47406 12.125C2.30673 12.2583 2.1274 12.3125 1.93606 12.2875C1.74473 12.2625 1.5824 12.1667 1.44906 12C1.31573 11.8333 1.26573 11.65 1.29906 11.45C1.3324 11.25 1.4324 11.0833 1.59906 10.95L11.0991 3.7C11.2324 3.6 11.3758 3.52083 11.5293 3.4625C11.6828 3.40417 11.8394 3.375 11.9991 3.375C12.1587 3.375 12.3153 3.40417 12.4688 3.4625C12.6223 3.52083 12.7657 3.6 12.8991 3.7L22.3991 10.95C22.5657 11.0833 22.6616 11.25 22.6866 11.45C22.7116 11.65 22.6574 11.8333 22.5241 12C22.3907 12.1667 22.2284 12.2625 22.0371 12.2875C21.8457 12.3125 21.6664 12.2583 21.4991 12.125L18.9491 10.175V15.35H20.2741C20.4866 15.35 20.6647 15.4223 20.8086 15.567C20.9522 15.7115 21.0241 15.8907 21.0241 16.1045C21.0241 16.3182 20.9522 16.4958 20.8086 16.6375C20.6647 16.7792 20.4866 16.85 20.2741 16.85H18.9491V20.25C18.9491 20.4625 18.8767 20.6406 18.7321 20.7843C18.5876 20.9281 18.4084 21 18.1946 21C17.9809 21 17.8032 20.9281 17.6616 20.7843C17.5199 20.6406 17.4491 20.4625 17.4491 20.25V16.85H12.7491V20.25C12.7491 20.4625 12.6767 20.6406 12.5321 20.7843C12.3876 20.9281 12.2084 21 11.9946 21C11.7809 21 11.6032 20.9281 11.4616 20.7843C11.3199 20.6406 11.2491 20.4625 11.2491 20.25V16.85H6.52406ZM6.52406 15.35H11.2491V5.45L6.52406 9.05V15.35ZM12.7491 15.35H17.4491V9.05L12.7491 5.45V15.35Z" fill="#2C2E25"/>
</svg>
