<svg width="24" height="24" viewBox="0 0 24 24" fill="none" xmlns="http://www.w3.org/2000/svg">
<path d="M4.5 21C4.1 21 3.75 20.85 3.45 20.55C3.15 20.25 3 19.9 3 19.5V13.5C3 13.2875 3.07233 13.1093 3.217 12.9655C3.3615 12.8218 3.54067 12.75 3.7545 12.75C3.96817 12.75 4.14583 12.8218 4.2875 12.9655C4.42917 13.1093 4.5 13.2875 4.5 13.5V19.5H10.5C10.7125 19.5 10.8907 19.5723 11.0345 19.717C11.1782 19.8615 11.25 20.0407 11.25 20.2545C11.25 20.4682 11.1782 20.6458 11.0345 20.7875C10.8907 20.9292 10.7125 21 10.5 21H4.5ZM19.5 21H13.5C13.2875 21 13.1094 20.9277 12.9658 20.783C12.8219 20.6385 12.75 20.4593 12.75 20.2455C12.75 20.0318 12.8219 19.8542 12.9658 19.7125C13.1094 19.5708 13.2875 19.5 13.5 19.5H19.5V13.5C19.5 13.2875 19.5723 13.1093 19.717 12.9655C19.8615 12.8218 20.0407 12.75 20.2545 12.75C20.4682 12.75 20.6458 12.8218 20.7875 12.9655C20.9292 13.1093 21 13.2875 21 13.5V19.5C21 19.9 20.85 20.25 20.55 20.55C20.25 20.85 19.9 21 19.5 21ZM11.2 16.675L14.2 12.8C14.2833 12.7 14.3833 12.65 14.5 12.65C14.6167 12.65 14.7167 12.7 14.8 12.8L17.725 16.7C17.8083 16.8333 17.8146 16.9667 17.7438 17.1C17.6729 17.2333 17.5667 17.3 17.425 17.3H6.7C6.55 17.3 6.4375 17.2333 6.3625 17.1C6.2875 16.9667 6.3 16.8333 6.4 16.7L8.575 13.9C8.65833 13.8 8.75833 13.75 8.875 13.75C8.99167 13.75 9.09167 13.8 9.175 13.9L11.2 16.675ZM3 4.5C3 4.1 3.15 3.75 3.45 3.45C3.75 3.15 4.1 3 4.5 3H10.5C10.7125 3 10.8907 3.07233 11.0345 3.217C11.1782 3.3615 11.25 3.54067 11.25 3.7545C11.25 3.96817 11.1782 4.14583 11.0345 4.2875C10.8907 4.42917 10.7125 4.5 10.5 4.5H4.5V10.5C4.5 10.7125 4.42767 10.8906 4.283 11.0343C4.1385 11.1781 3.95933 11.25 3.7455 11.25C3.53183 11.25 3.35417 11.1781 3.2125 11.0343C3.07083 10.8906 3 10.7125 3 10.5V4.5ZM21 4.5V10.5C21 10.7125 20.9277 10.8906 20.783 11.0343C20.6385 11.1781 20.4593 11.25 20.2455 11.25C20.0318 11.25 19.8542 11.1781 19.7125 11.0343C19.5708 10.8906 19.5 10.7125 19.5 10.5V4.5H13.5C13.2875 4.5 13.1094 4.42767 12.9658 4.283C12.8219 4.1385 12.75 3.95933 12.75 3.7455C12.75 3.53183 12.8219 3.35417 12.9658 3.2125C13.1094 3.07083 13.2875 3 13.5 3H19.5C19.9 3 20.25 3.15 20.55 3.45C20.85 3.75 21 4.1 21 4.5ZM15.6 9.75C15.21 9.75 14.8875 9.6225 14.6325 9.3675C14.3775 9.1125 14.25 8.79 14.25 8.4C14.25 8.01 14.3775 7.6875 14.6325 7.4325C14.8875 7.1775 15.21 7.05 15.6 7.05C15.99 7.05 16.3125 7.1775 16.5675 7.4325C16.8225 7.6875 16.95 8.01 16.95 8.4C16.95 8.79 16.8225 9.1125 16.5675 9.3675C16.3125 9.6225 15.99 9.75 15.6 9.75Z" fill="#2C2E25"/>
</svg>
