<svg width="24" height="24" viewBox="0 0 24 24" fill="none" xmlns="http://www.w3.org/2000/svg">
<path d="M11.4251 14.3496L4.62508 13.5496C4.30841 13.5163 4.10008 13.3454 4.00008 13.0371C3.90008 12.7288 3.96674 12.4663 4.20008 12.2496L15.2001 2.14961C15.2667 2.09961 15.3376 2.05794 15.4126 2.02461C15.4876 1.99128 15.6001 1.97461 15.7501 1.97461C16.0001 1.97461 16.1917 2.07878 16.3251 2.28711C16.4584 2.49544 16.4584 2.70794 16.3251 2.92461L12.5751 9.64961L19.3751 10.4496C19.6917 10.4829 19.9001 10.6538 20.0001 10.9621C20.1001 11.2704 20.0334 11.5329 19.8001 11.7496L8.80008 21.8496C8.73341 21.8996 8.66258 21.9413 8.58758 21.9746C8.51258 22.0079 8.40008 22.0246 8.25008 22.0246C8.00008 22.0246 7.80841 21.9204 7.67508 21.7121C7.54174 21.5038 7.54174 21.2913 7.67508 21.0746L11.4251 14.3496ZM11.3251 17.3496L17.6251 11.7746L10.2001 10.8746L12.6751 6.64961L6.35008 12.2496L13.7751 13.1246L11.3251 17.3496Z" fill="#2C2E25"/>
</svg>
