<svg width="24" height="24" viewBox="0 0 24 24" fill="none" xmlns="http://www.w3.org/2000/svg">
<path d="M7.00195 13.7C6.53529 13.7 6.13529 13.5333 5.80195 13.2C5.46862 12.8667 5.30195 12.4667 5.30195 12C5.30195 11.5333 5.46862 11.1333 5.80195 10.8C6.13529 10.4667 6.53529 10.3 7.00195 10.3C7.46862 10.3 7.86862 10.4667 8.20195 10.8C8.53529 11.1333 8.70195 11.5333 8.70195 12C8.70195 12.4667 8.53529 12.8667 8.20195 13.2C7.86862 13.5333 7.46862 13.7 7.00195 13.7ZM7.00195 18C5.33529 18 3.91862 17.4167 2.75195 16.25C1.58529 15.0833 1.00195 13.6667 1.00195 12C1.00195 10.3333 1.58529 8.91667 2.75195 7.75C3.91862 6.58333 5.33529 6 7.00195 6C8.20195 6 9.25195 6.28333 10.152 6.85C11.052 7.41667 11.7603 8.275 12.277 9.425H20.877C20.977 9.425 21.0686 9.44167 21.152 9.475C21.2353 9.50833 21.3186 9.56667 21.402 9.65L23.452 11.7C23.5353 11.7833 23.5936 11.8708 23.627 11.9625C23.6603 12.0542 23.677 12.15 23.677 12.25C23.677 12.35 23.6561 12.4417 23.6145 12.525C23.5728 12.6083 23.5103 12.6917 23.427 12.775L20.302 15.65C20.2353 15.7167 20.1603 15.7667 20.077 15.8C19.9936 15.8333 19.9103 15.85 19.827 15.85C19.7436 15.85 19.6645 15.8417 19.5895 15.825C19.5145 15.8083 19.4353 15.775 19.352 15.725L17.627 14.475L15.877 15.75C15.8103 15.8 15.7395 15.8333 15.6645 15.85C15.5895 15.8667 15.5103 15.875 15.427 15.875C15.3436 15.875 15.2645 15.8625 15.1895 15.8375C15.1145 15.8125 15.0436 15.775 14.977 15.725L13.552 14.575H12.277C11.8603 15.575 11.2061 16.3958 10.3145 17.0375C9.42279 17.6792 8.31862 18 7.00195 18ZM7.00195 16.5C7.96862 16.5 8.86029 16.1792 9.67695 15.5375C10.4936 14.8958 11.0186 14.075 11.252 13.075H14.102L15.452 14.2C15.4353 14.2 15.4353 14.2 15.452 14.2L17.652 12.625L19.702 14.175L21.827 12.2L20.552 10.925H11.252C11.052 9.99167 10.552 9.1875 9.75195 8.5125C8.95195 7.8375 8.03529 7.5 7.00195 7.5C5.75195 7.5 4.68945 7.9375 3.81445 8.8125C2.93945 9.6875 2.50195 10.75 2.50195 12C2.50195 13.25 2.93945 14.3125 3.81445 15.1875C4.68945 16.0625 5.75195 16.5 7.00195 16.5Z" fill="#2C2E25"/>
</svg>
