<svg width="24" height="24" viewBox="0 0 24 24" fill="none" xmlns="http://www.w3.org/2000/svg">
<path d="M9.225 12.775C8.99167 12.775 8.7875 12.6875 8.6125 12.5125C8.4375 12.3375 8.35 12.1333 8.35 11.9C8.35 11.6667 8.4375 11.4625 8.6125 11.2875C8.7875 11.1125 8.99167 11.025 9.225 11.025C9.45833 11.025 9.6625 11.1125 9.8375 11.2875C10.0125 11.4625 10.1 11.6667 10.1 11.9C10.1 12.1333 10.0125 12.3375 9.8375 12.5125C9.6625 12.6875 9.45833 12.775 9.225 12.775ZM14.8 12.775C14.5667 12.775 14.3625 12.6875 14.1875 12.5125C14.0125 12.3375 13.925 12.1333 13.925 11.9C13.925 11.6667 14.0125 11.4625 14.1875 11.2875C14.3625 11.1125 14.5667 11.025 14.8 11.025C15.0333 11.025 15.2375 11.1125 15.4125 11.2875C15.5875 11.4625 15.675 11.6667 15.675 11.9C15.675 12.1333 15.5875 12.3375 15.4125 12.5125C15.2375 12.6875 15.0333 12.775 14.8 12.775ZM3.75 21C3.5375 21 3.35942 20.9281 3.21575 20.7843C3.07192 20.6406 3 20.4625 3 20.25C3 20.0333 3.07083 19.8542 3.2125 19.7125C3.35417 19.5708 3.53333 19.5 3.75 19.5H4.15V4.5C4.15 4.1 4.3 3.75 4.6 3.45C4.9 3.15 5.25 3 5.65 3H18.35C18.75 3 19.1 3.15 19.4 3.45C19.7 3.75 19.85 4.1 19.85 4.5V19.5H20.25C20.4625 19.5 20.6407 19.5723 20.7845 19.717C20.9282 19.8615 21 20.0407 21 20.2545C21 20.4682 20.9282 20.6458 20.7845 20.7875C20.6407 20.9292 20.4625 21 20.25 21H3.75ZM5.65 19.5H11.25V4.5H5.65V19.5ZM12.75 19.5H18.35V4.5H12.75V19.5Z" fill="#2C2E25"/>
</svg>
