<svg width="24" height="24" viewBox="0 0 24 24" fill="none" xmlns="http://www.w3.org/2000/svg">
<path d="M6 14.7501C5.15 14.7501 4.4375 14.4626 3.8625 13.8876C3.2875 13.3126 3 12.6001 3 11.7501V8.77511C3 8.55561 3.07425 8.37153 3.22275 8.22286C3.37125 8.07436 3.55533 8.00011 3.775 8.00011H16.5C16.5 7.45011 16.6167 6.96261 16.85 6.53761C17.0833 6.11261 17.475 5.80844 18.025 5.62511L22.05 4.27511C22.25 4.20844 22.4428 4.21986 22.6285 4.30936C22.8143 4.39869 22.9382 4.54561 23 4.75011C23.0667 4.95011 23.0537 5.14295 22.961 5.32861C22.8682 5.51445 22.7228 5.63828 22.525 5.70011L18.5 7.02511C18.3518 7.07594 18.2315 7.1682 18.139 7.30186C18.0463 7.43536 18 7.58478 18 7.75011V11.7501C18 12.5834 17.7083 13.2918 17.125 13.8751C16.5417 14.4584 15.8333 14.7501 15 14.7501H6ZM6 13.2501H15C15.425 13.2501 15.7812 13.1064 16.0688 12.8189C16.3563 12.5314 16.5 12.1751 16.5 11.7501V9.50011H4.5V11.7501C4.5 12.1751 4.64375 12.5314 4.93125 12.8189C5.21875 13.1064 5.575 13.2501 6 13.2501ZM9.75 20.2501V17.7501H2.75C2.5375 17.7501 2.35942 17.6778 2.21575 17.5331C2.07192 17.3886 2 17.2094 2 16.9956C2 16.7819 2.07192 16.6043 2.21575 16.4626C2.35942 16.3209 2.5375 16.2501 2.75 16.2501H9.75C10.1625 16.2501 10.5157 16.3969 10.8095 16.6906C11.1032 16.9844 11.25 17.3376 11.25 17.7501V20.2501C11.25 20.4626 11.1777 20.6407 11.033 20.7844C10.8885 20.9282 10.7093 21.0001 10.4955 21.0001C10.2818 21.0001 10.1042 20.9282 9.9625 20.7844C9.82083 20.6407 9.75 20.4626 9.75 20.2501ZM12.75 20.2501V17.7501C12.75 17.3376 12.8969 16.9844 13.1908 16.6906C13.4844 16.3969 13.8375 16.2501 14.25 16.2501H21.25C21.4625 16.2501 21.6407 16.3224 21.7845 16.4671C21.9282 16.6116 22 16.7908 22 17.0046C22 17.2183 21.9282 17.3959 21.7845 17.5376C21.6407 17.6793 21.4625 17.7501 21.25 17.7501H14.25V20.2501C14.25 20.4626 14.1777 20.6407 14.033 20.7844C13.8885 20.9282 13.7093 21.0001 13.4955 21.0001C13.2818 21.0001 13.1042 20.9282 12.9625 20.7844C12.8208 20.6407 12.75 20.4626 12.75 20.2501Z" fill="#2C2E25"/>
</svg>
