<svg width="24" height="24" viewBox="0 0 24 24" fill="none" xmlns="http://www.w3.org/2000/svg">
<path d="M11.282 12.9555L9.52648 11.2C9.39314 11.0666 9.23018 11 9.03759 11C8.84499 11 8.68203 11.0666 8.5487 11.2C8.41536 11.3333 8.3487 11.495 8.3487 11.6851C8.3487 11.8753 8.41536 12.0395 8.5487 12.1778L10.7487 14.4C10.882 14.5333 11.0376 14.6 11.2154 14.6C11.3931 14.6 11.5487 14.5333 11.682 14.4L15.8154 10.2666C15.9487 10.1323 16.0154 9.97279 16.0154 9.7882C16.0154 9.60346 15.9524 9.45183 15.8265 9.33331C15.7006 9.21479 15.5413 9.15924 15.3487 9.16665C15.1561 9.17405 15.0006 9.23702 14.882 9.35553L11.282 12.9555ZM12.1931 20.7111C12.1143 20.7111 12.0411 20.7037 11.9736 20.6889C11.906 20.6741 11.8385 20.6518 11.7709 20.6222C9.71166 19.9259 8.08203 18.6778 6.88203 16.8778C5.68203 15.0778 5.08203 13.1029 5.08203 10.9531V6.59998C5.08203 6.31465 5.16262 6.0579 5.32381 5.82976C5.48485 5.60146 5.69314 5.43598 5.9487 5.33331L11.7265 3.17776C11.8894 3.1185 12.045 3.08887 12.1931 3.08887C12.3413 3.08887 12.4968 3.1185 12.6598 3.17776L18.4376 5.33331C18.6931 5.43598 18.9015 5.60146 19.0627 5.82976C19.2237 6.0579 19.3043 6.31465 19.3043 6.59998V10.9531C19.3043 13.1029 18.7043 15.0778 17.5043 16.8778C16.3043 18.6778 14.6746 19.9259 12.6154 20.6222C12.5478 20.6518 12.4803 20.6741 12.4127 20.6889C12.3451 20.7037 12.272 20.7111 12.1931 20.7111ZM12.1931 19.4C13.8968 18.837 15.2857 17.7741 16.3598 16.2111C17.4339 14.6481 17.9709 12.8963 17.9709 10.9555V6.59998L12.1931 4.4222L6.41536 6.59998V10.9555C6.41536 12.8963 6.9524 14.6481 8.02648 16.2111C9.10055 17.7741 10.4894 18.837 12.1931 19.4Z" fill="#2C2E25"/>
</svg>
