<svg width="48" height="48" viewBox="0 0 48 48" fill="none" xmlns="http://www.w3.org/2000/svg">
<path d="M17.85 42C17.425 42 17.0688 41.8562 16.7815 41.5685C16.4938 41.2812 16.35 40.925 16.35 40.5V31.65H7.5C7.075 31.65 6.71883 31.5062 6.4315 31.2185C6.14383 30.9312 6 30.575 6 30.15V17.8C6 17.375 6.14383 17.0187 6.4315 16.731C6.71883 16.4437 7.075 16.3 7.5 16.3H16.35V7.5C16.35 7.075 16.4938 6.71867 16.7815 6.431C17.0688 6.14367 17.425 6 17.85 6H30.2C30.625 6 30.9813 6.14367 31.269 6.431C31.5563 6.71867 31.7 7.075 31.7 7.5V16.3H40.5C40.925 16.3 41.2813 16.4437 41.569 16.731C41.8563 17.0187 42 17.375 42 17.8V30.15C42 30.575 41.8563 30.9312 41.569 31.2185C41.2813 31.5062 40.925 31.65 40.5 31.65H31.7V40.5C31.7 40.925 31.5563 41.2812 31.269 41.5685C30.9813 41.8562 30.625 42 30.2 42H17.85ZM19.35 39H28.7V28.65H39V19.3H28.7V9H19.35V19.3H9V28.65H19.35V39Z" fill="#FFF7EE"/>
</svg>
