<svg width="16" height="16" viewBox="0 0 16 16" fill="none" xmlns="http://www.w3.org/2000/svg">
<path d="M8.99867 9.85457C9.78248 9.36639 10.386 8.6362 10.7178 7.77449C11.0497 6.91278 11.0919 5.96643 10.838 5.0786C10.5841 4.19078 10.048 3.4098 9.31075 2.85381C8.57348 2.29782 7.6752 1.99707 6.75179 1.99707C5.82838 1.99707 4.9301 2.29782 4.19283 2.85381C3.45557 3.4098 2.91945 4.19078 2.66557 5.0786C2.4117 5.96643 2.45388 6.91278 2.78575 7.77449C3.11762 8.6362 3.72111 9.36639 4.50492 9.85457C3.21429 10.2771 2.05304 11.0664 1.11929 12.1777C1.03392 12.2792 0.992386 12.4105 1.00381 12.5427C1.01524 12.6748 1.0787 12.797 1.18023 12.8824C1.28176 12.9678 1.41304 13.0093 1.54519 12.9979C1.67735 12.9864 1.79955 12.923 1.88492 12.8214C3.13929 11.3239 4.86804 10.4996 6.74867 10.4996C8.62929 10.4996 10.358 11.3239 11.6155 12.8214C11.7009 12.923 11.8231 12.9864 11.9553 12.9979C12.0874 13.0093 12.2187 12.9678 12.3202 12.8824C12.4218 12.797 12.4852 12.6748 12.4966 12.5427C12.5081 12.4105 12.4665 12.2792 12.3812 12.1777C11.4474 11.0664 10.2862 10.2771 8.99867 9.85457ZM3.49867 6.24957C3.49867 5.60678 3.68928 4.97843 4.04639 4.44397C4.4035 3.90951 4.91108 3.49295 5.50494 3.24696C6.0988 3.00098 6.75227 2.93662 7.38271 3.06202C8.01315 3.18742 8.59224 3.49695 9.04676 3.95147C9.50128 4.40599 9.81082 4.98509 9.93622 5.61553C10.0616 6.24597 9.99726 6.89943 9.75127 7.49329C9.50529 8.08715 9.08873 8.59473 8.55427 8.95185C8.01981 9.30896 7.39146 9.49957 6.74867 9.49957C5.88702 9.49858 5.06094 9.15585 4.45166 8.54657C3.84239 7.93729 3.49966 7.11122 3.49867 6.24957ZM15.8524 8.35332L13.8524 10.3533C13.806 10.3998 13.7508 10.4367 13.6901 10.4619C13.6294 10.487 13.5644 10.5 13.4987 10.5C13.433 10.5 13.3679 10.487 13.3072 10.4619C13.2465 10.4367 13.1914 10.3998 13.1449 10.3533L12.1449 9.35332C12.0511 9.2595 11.9984 9.13225 11.9984 8.99957C11.9984 8.86689 12.0511 8.73964 12.1449 8.64582C12.2387 8.552 12.366 8.49929 12.4987 8.49929C12.6313 8.49929 12.7586 8.552 12.8524 8.64582L13.4987 9.2927L15.1449 7.64582C15.2387 7.552 15.366 7.49929 15.4987 7.49929C15.6313 7.49929 15.7586 7.552 15.8524 7.64582C15.9462 7.73964 15.9989 7.86689 15.9989 7.99957C15.9989 8.13225 15.9462 8.2595 15.8524 8.35332Z" fill="#FFF7EE"/>
</svg>
