<svg width="24" height="24" viewBox="0 0 24 24" fill="none" xmlns="http://www.w3.org/2000/svg">
<path d="M7.7 20.5H16.3V17.325C16.3 16.125 15.8833 15.1125 15.05 14.2875C14.2167 13.4625 13.2 13.05 12 13.05C10.8 13.05 9.78333 13.4625 8.95 14.2875C8.11667 15.1125 7.7 16.125 7.7 17.325V20.5ZM12 10.95C13.2 10.95 14.2167 10.5333 15.05 9.7C15.8833 8.86667 16.3 7.85 16.3 6.65V3.5H7.7V6.65C7.7 7.85 8.11667 8.86667 8.95 9.7C9.78333 10.5333 10.8 10.95 12 10.95ZM4.75 22C4.5375 22 4.35942 21.9277 4.21575 21.783C4.07192 21.6385 4 21.4593 4 21.2455C4 21.0318 4.07192 20.8542 4.21575 20.7125C4.35942 20.5708 4.5375 20.5 4.75 20.5H6.2V17.325C6.2 16.1417 6.53333 15.0667 7.2 14.1C7.86667 13.1333 8.75 12.4333 9.85 12C8.75 11.55 7.86667 10.8417 7.2 9.875C6.53333 8.90833 6.2 7.83333 6.2 6.65V3.5H4.75C4.5375 3.5 4.35942 3.42767 4.21575 3.283C4.07192 3.1385 4 2.95933 4 2.7455C4 2.53183 4.07192 2.35417 4.21575 2.2125C4.35942 2.07083 4.5375 2 4.75 2H19.25C19.4625 2 19.6407 2.07233 19.7845 2.217C19.9282 2.3615 20 2.54067 20 2.7545C20 2.96817 19.9282 3.14583 19.7845 3.2875C19.6407 3.42917 19.4625 3.5 19.25 3.5H17.8V6.65C17.8 7.83333 17.4667 8.90833 16.8 9.875C16.1333 10.8417 15.25 11.55 14.15 12C15.25 12.4333 16.1333 13.1333 16.8 14.1C17.4667 15.0667 17.8 16.1417 17.8 17.325V20.5H19.25C19.4625 20.5 19.6407 20.5723 19.7845 20.717C19.9282 20.8615 20 21.0407 20 21.2545C20 21.4682 19.9282 21.6458 19.7845 21.7875C19.6407 21.9292 19.4625 22 19.25 22H4.75Z" fill="#2C2E25"/>
</svg>
