<svg width="24" height="24" viewBox="0 0 24 24" fill="none" xmlns="http://www.w3.org/2000/svg">
<path d="M5.65297 17.3299C5.42476 17.1995 5.24137 17.0212 5.10281 16.7949C4.96426 16.5688 4.89498 16.3152 4.89498 16.034V11.0459L2.44982 9.70105C2.31941 9.61954 2.2216 9.52556 2.1564 9.41912C2.0912 9.31284 2.05859 9.19465 2.05859 9.06457C2.05859 8.93465 2.0912 8.81671 2.1564 8.71076C2.2216 8.6048 2.31941 8.51107 2.44982 8.42956L11.2768 3.58815C11.3909 3.52295 11.5068 3.47812 11.6243 3.45367C11.7417 3.42922 11.8622 3.41699 11.9859 3.41699C12.1097 3.41699 12.2302 3.42922 12.3476 3.45367C12.4651 3.47812 12.5809 3.52295 12.695 3.58815L22.3778 8.84524C22.5083 8.92675 22.6061 9.02431 22.6713 9.13793C22.7365 9.25138 22.7691 9.37388 22.7691 9.50543V16.0829C22.7691 16.2907 22.6983 16.4649 22.5568 16.6054C22.4155 16.7461 22.2403 16.8165 22.0311 16.8165C21.8221 16.8165 21.6484 16.7461 21.5098 16.6054C21.3713 16.4649 21.302 16.2907 21.302 16.0829V9.92111L19.0769 11.0459V16.034C19.0769 16.3152 19.0076 16.5688 18.869 16.7949C18.7305 17.0212 18.5471 17.1995 18.3189 17.3299L12.695 20.4108C12.5809 20.476 12.4651 20.5209 12.3476 20.5453C12.2302 20.5698 12.1097 20.582 11.9859 20.582C11.8622 20.582 11.7417 20.5698 11.6243 20.5453C11.5068 20.5209 11.3909 20.476 11.2768 20.4108L5.65297 17.3299ZM11.9859 13.271L19.6882 9.0653L11.9859 4.93299L4.33259 9.0653L11.9859 13.271ZM11.9859 19.1394L17.6098 16.034V11.9261L12.695 14.5669C12.5809 14.6321 12.4668 14.6769 12.3527 14.7014C12.2386 14.7258 12.1163 14.7381 11.9859 14.7381C11.8555 14.7381 11.7373 14.7258 11.6314 14.7014C11.5254 14.6769 11.4154 14.6321 11.3013 14.5669L6.36207 11.8772V16.034L11.9859 19.1394Z" fill="#2C2E25"/>
</svg>
