<svg width="24" height="24" viewBox="0 0 24 24" fill="none" xmlns="http://www.w3.org/2000/svg">
<path d="M22.5008 11.8715C22.3296 9.90824 21.6115 8.03233 20.428 6.45663C19.2444 4.88093 17.6429 3.66855 15.8052 2.95707C13.9674 2.2456 11.967 2.06352 10.031 2.43151C8.09502 2.7995 6.30093 3.70282 4.85238 5.03895C2.91856 6.81552 1.72382 9.25455 1.50551 11.8715C1.48771 12.0786 1.51315 12.2871 1.58023 12.4839C1.6473 12.6806 1.75454 12.8613 1.89514 13.0144C2.03574 13.1675 2.20663 13.2898 2.39697 13.3733C2.58731 13.4569 2.79294 13.5 3.00082 13.4999H11.2508V18.7499C11.2508 19.5455 11.5669 20.3086 12.1295 20.8712C12.6921 21.4338 13.4552 21.7499 14.2508 21.7499C15.0465 21.7499 15.8095 21.4338 16.3721 20.8712C16.9348 20.3086 17.2508 19.5455 17.2508 18.7499C17.2508 18.551 17.1718 18.3602 17.0312 18.2196C16.8905 18.0789 16.6997 17.9999 16.5008 17.9999C16.3019 17.9999 16.1111 18.0789 15.9705 18.2196C15.8298 18.3602 15.7508 18.551 15.7508 18.7499C15.7508 19.1477 15.5928 19.5292 15.3115 19.8106C15.0302 20.0919 14.6486 20.2499 14.2508 20.2499C13.853 20.2499 13.4715 20.0919 13.1902 19.8106C12.9089 19.5292 12.7508 19.1477 12.7508 18.7499V13.4999H21.0008C21.2091 13.5007 21.4152 13.458 21.6061 13.3748C21.797 13.2915 21.9685 13.1693 22.1096 13.0162C22.2507 12.863 22.3584 12.6821 22.4257 12.485C22.4931 12.2879 22.5187 12.079 22.5008 11.8715ZM3.00082 11.9999C3.16704 10.0679 3.95188 8.24096 5.2388 6.79039C6.52572 5.33981 8.24612 4.34292 10.1446 3.9477C9.04582 5.43739 7.67426 8.0727 7.51676 11.9999H3.00082ZM9.01488 11.9999C9.1452 9.1152 10.0021 7.04895 10.7305 5.78989C11.0897 5.16444 11.5156 4.57978 12.0008 4.04614C12.4851 4.57985 12.9101 5.16452 13.2683 5.78989C14.5133 7.94052 14.9071 10.2449 14.9839 11.9999H9.01488ZM16.4821 11.9999C16.3246 8.0727 14.953 5.43739 13.8571 3.94302C15.7568 4.33735 17.4784 5.33461 18.7656 6.78633C20.0527 8.23806 20.8367 10.0666 21.0008 11.9999H16.4821Z" fill="#2C2E25"/>
</svg>
