<svg width="24" height="24" viewBox="0 0 24 24" fill="none" xmlns="http://www.w3.org/2000/svg">
<path d="M11.998 19.501C11.998 18.7176 11.8439 17.9676 11.5355 17.251C11.2272 16.5343 10.798 15.901 10.248 15.351C9.74805 14.851 9.18138 14.4551 8.54805 14.1635C7.91471 13.8718 7.24805 13.6926 6.54805 13.626C6.42655 13.6093 6.32121 13.6456 6.23205 13.735C6.14271 13.8241 6.10638 13.9295 6.12305 14.051C6.18971 14.751 6.36888 15.4176 6.66055 16.051C6.95221 16.6843 7.34805 17.251 7.84805 17.751C8.39805 18.301 9.03021 18.7301 9.74455 19.0385C10.4587 19.3468 11.2099 19.501 11.998 19.501ZM11.998 14.001C12.448 14.001 12.8105 13.8635 13.0855 13.5885C13.3605 13.3135 13.498 12.951 13.498 12.501V12.301C13.6314 12.4176 13.7814 12.4926 13.948 12.526C14.1147 12.5593 14.273 12.576 14.423 12.576C14.873 12.576 15.2355 12.4385 15.5105 12.1635C15.7855 11.8885 15.923 11.5296 15.923 11.0867C15.923 10.7462 15.848 10.4676 15.698 10.251C15.548 10.0343 15.348 9.83431 15.098 9.65098C15.348 9.55098 15.548 9.37273 15.698 9.11623C15.848 8.85956 15.923 8.56014 15.923 8.21798C15.923 7.77331 15.7855 7.41348 15.5105 7.13848C15.2355 6.86348 14.873 6.72598 14.423 6.72598C14.273 6.72598 14.1147 6.74264 13.948 6.77598C13.7814 6.80931 13.6314 6.88431 13.498 7.00098V6.80098C13.498 6.35098 13.3605 5.98848 13.0855 5.71348C12.8105 5.43848 12.448 5.30098 11.998 5.30098C11.548 5.30098 11.1855 5.43848 10.9105 5.71348C10.6355 5.98848 10.498 6.35098 10.498 6.80098V7.00098C10.3647 6.88431 10.2147 6.80931 10.048 6.77598C9.88138 6.74264 9.72305 6.72598 9.57305 6.72598C9.12305 6.72598 8.76055 6.86348 8.48555 7.13848C8.21055 7.41348 8.07305 7.77239 8.07305 8.21523C8.07305 8.55573 8.14388 8.83848 8.28555 9.06348C8.42721 9.28848 8.63138 9.48431 8.89805 9.65098C8.63138 9.76764 8.42721 9.95098 8.28555 10.201C8.14388 10.451 8.07305 10.7426 8.07305 11.076C8.07305 11.526 8.21055 11.8885 8.48555 12.1635C8.76055 12.4385 9.12305 12.576 9.57305 12.576C9.72305 12.576 9.88555 12.5593 10.0605 12.526C10.2355 12.4926 10.3814 12.4176 10.498 12.301V12.501C10.498 12.951 10.6355 13.3135 10.9105 13.5885C11.1855 13.8635 11.548 14.001 11.998 14.001ZM11.993 11.601C11.4464 11.601 10.9855 11.4135 10.6105 11.0385C10.2355 10.6635 10.048 10.201 10.048 9.65098C10.048 9.10581 10.2372 8.64456 10.6155 8.26723C10.994 7.88973 11.4565 7.70098 12.003 7.70098C12.5497 7.70098 13.0105 7.88973 13.3855 8.26723C13.7605 8.64456 13.948 9.10581 13.948 9.65098C13.948 10.201 13.7589 10.6635 13.3805 11.0385C13.002 11.4135 12.5395 11.601 11.993 11.601ZM11.998 19.501C12.7814 19.501 13.5314 19.3468 14.248 19.0385C14.9647 18.7301 15.598 18.301 16.148 17.751C16.648 17.251 17.0439 16.6843 17.3355 16.051C17.6272 15.4176 17.8064 14.751 17.873 14.051C17.8897 13.9295 17.8534 13.8241 17.764 13.735C17.6749 13.6456 17.5695 13.6093 17.448 13.626C16.748 13.6926 16.0814 13.8718 15.448 14.1635C14.8147 14.4551 14.248 14.851 13.748 15.351C13.198 15.901 12.7689 16.5346 12.4605 17.2517C12.1522 17.9689 11.998 18.7186 11.998 19.501ZM3.49805 22.001C3.09805 22.001 2.74805 21.851 2.44805 21.551C2.14805 21.251 1.99805 20.901 1.99805 20.501V3.50098C1.99805 3.10098 2.14805 2.75098 2.44805 2.45098C2.74805 2.15098 3.09805 2.00098 3.49805 2.00098H20.498C20.898 2.00098 21.248 2.15098 21.548 2.45098C21.848 2.75098 21.998 3.10098 21.998 3.50098V20.501C21.998 20.901 21.848 21.251 21.548 21.551C21.248 21.851 20.898 22.001 20.498 22.001H3.49805ZM3.49805 20.501H20.498V3.50098H3.49805V20.501Z" fill="#2C2E25"/>
</svg>
