<svg width="24" height="24" viewBox="0 0 24 24" fill="none" xmlns="http://www.w3.org/2000/svg">
<path d="M8.5 20.9487C7.75 20.9487 7.1625 20.7237 6.7375 20.2737C6.3125 19.8237 5.78333 19.5987 5.15 19.5987C4.9 19.5987 4.65833 19.6487 4.425 19.7487C4.19167 19.8487 3.73333 20.107 3.05 20.5237C2.81667 20.657 2.58333 20.6612 2.35 20.5362C2.11667 20.4112 2 20.207 2 19.9237C2 19.7904 2.03333 19.6779 2.1 19.5862C2.16667 19.4945 2.25 19.4154 2.35 19.3487C3.25 18.7987 3.85417 18.4529 4.1625 18.3112C4.47083 18.1695 4.8 18.0987 5.15 18.0987C5.9 18.0987 6.48333 18.3237 6.9 18.7737C7.31667 19.2237 7.85 19.4487 8.5 19.4487C9.15 19.4487 9.69167 19.2237 10.125 18.7737C10.5583 18.3237 11.15 18.0987 11.9 18.0987C12.65 18.0987 13.2375 18.3237 13.6625 18.7737C14.0875 19.2237 14.625 19.4487 15.275 19.4487C15.925 19.4487 16.4625 19.2237 16.8875 18.7737C17.3125 18.3237 17.9 18.0987 18.65 18.0987C19 18.0987 19.3333 18.1695 19.65 18.3112C19.9667 18.4529 20.575 18.7987 21.475 19.3487C21.575 19.4154 21.6542 19.4945 21.7125 19.5862C21.7708 19.6779 21.8 19.7904 21.8 19.9237C21.8 20.207 21.6833 20.4112 21.45 20.5362C21.2167 20.6612 20.9833 20.657 20.75 20.5237C20.0667 20.107 19.6083 19.8487 19.375 19.7487C19.1417 19.6487 18.9 19.5987 18.65 19.5987C18.0167 19.5987 17.4833 19.8237 17.05 20.2737C16.6167 20.7237 16.025 20.9487 15.275 20.9487C14.525 20.9487 13.9333 20.7237 13.5 20.2737C13.0667 19.8237 12.5333 19.5987 11.9 19.5987C11.2667 19.5987 10.7292 19.8237 10.2875 20.2737C9.84583 20.7237 9.25 20.9487 8.5 20.9487ZM5.9 3.77368C5.9 3.99035 5.82917 4.16952 5.6875 4.31118C5.54583 4.45285 5.36667 4.52368 5.15 4.52368H3.65C3.43333 4.52368 3.25417 4.45285 3.1125 4.31118C2.97083 4.16952 2.9 3.99035 2.9 3.77368C2.9 3.55702 2.97083 3.37785 3.1125 3.23618C3.25417 3.09452 3.43333 3.02368 3.65 3.02368H5.15C5.36667 3.02368 5.54583 3.09452 5.6875 3.23618C5.82917 3.37785 5.9 3.55702 5.9 3.77368ZM7.325 7.52368C7.475 7.67368 7.55 7.85285 7.55 8.06118C7.55 8.26952 7.475 8.44868 7.325 8.59868L6.275 9.64868C6.125 9.79868 5.95 9.87368 5.75 9.87368C5.55 9.87368 5.375 9.79868 5.225 9.64868C5.075 9.49868 5 9.31952 5 9.11118C5 8.90285 5.075 8.72368 5.225 8.57368L6.275 7.52368C6.425 7.37368 6.6 7.29868 6.8 7.29868C7 7.29868 7.175 7.37368 7.325 7.52368ZM11.9 7.52368C10.85 7.52368 9.92083 7.19035 9.1125 6.52368C8.30417 5.85702 7.775 5.00702 7.525 3.97368C7.475 3.75702 7.5 3.55702 7.6 3.37368C7.7 3.19035 7.85 3.07368 8.05 3.02368C8.25 2.97368 8.44167 3.00285 8.625 3.11118C8.80833 3.21952 8.925 3.37368 8.975 3.57368C9.14167 4.27368 9.49167 4.85702 10.025 5.32368C10.5583 5.79035 11.1833 6.02368 11.9 6.02368C12.6167 6.02368 13.2417 5.79035 13.775 5.32368C14.3083 4.85702 14.6583 4.27368 14.825 3.57368C14.875 3.37368 14.9917 3.21952 15.175 3.11118C15.3583 3.00285 15.55 2.97368 15.75 3.02368C15.95 3.07368 16.1 3.19035 16.2 3.37368C16.3 3.55702 16.325 3.75702 16.275 3.97368C16.025 5.00702 15.4958 5.85702 14.6875 6.52368C13.8792 7.19035 12.95 7.52368 11.9 7.52368ZM11.9 9.02368C12.1167 9.02368 12.2958 9.09452 12.4375 9.23618C12.5792 9.37785 12.65 9.55702 12.65 9.77368V11.2737C12.65 11.4904 12.5792 11.6695 12.4375 11.8112C12.2958 11.9529 12.1167 12.0237 11.9 12.0237C11.6833 12.0237 11.5042 11.9529 11.3625 11.8112C11.2208 11.6695 11.15 11.4904 11.15 11.2737V9.77368C11.15 9.55702 11.2208 9.37785 11.3625 9.23618C11.5042 9.09452 11.6833 9.02368 11.9 9.02368ZM16.45 7.49868C16.6 7.34868 16.775 7.27785 16.975 7.28618C17.175 7.29452 17.35 7.36535 17.5 7.49868L18.575 8.54868C18.725 8.69868 18.8042 8.87368 18.8125 9.07368C18.8208 9.27368 18.75 9.44868 18.6 9.59868C18.45 9.74868 18.2708 9.82368 18.0625 9.82368C17.8542 9.82368 17.675 9.74868 17.525 9.59868L16.45 8.54868C16.3 8.39868 16.225 8.22368 16.225 8.02368C16.225 7.82368 16.3 7.64868 16.45 7.49868ZM20.9 3.77368C20.9 3.99035 20.8292 4.16952 20.6875 4.31118C20.5458 4.45285 20.3667 4.52368 20.15 4.52368H18.65C18.4333 4.52368 18.2542 4.45285 18.1125 4.31118C17.9708 4.16952 17.9 3.99035 17.9 3.77368C17.9 3.55702 17.9708 3.37785 18.1125 3.23618C18.2542 3.09452 18.4333 3.02368 18.65 3.02368H20.15C20.3667 3.02368 20.5458 3.09452 20.6875 3.23618C20.8292 3.37785 20.9 3.55702 20.9 3.77368ZM8.5 16.9487C7.75 16.9487 7.1625 16.7237 6.7375 16.2737C6.3125 15.8237 5.78333 15.5987 5.15 15.5987C4.9 15.5987 4.65833 15.6487 4.425 15.7487C4.19167 15.8487 3.73333 16.107 3.05 16.5237C2.81667 16.657 2.58333 16.6612 2.35 16.5362C2.11667 16.4112 2 16.207 2 15.9237C2 15.7904 2.03333 15.6779 2.1 15.5862C2.16667 15.4945 2.25 15.4154 2.35 15.3487C3.25 14.7987 3.85417 14.4529 4.1625 14.3112C4.47083 14.1695 4.8 14.0987 5.15 14.0987C5.9 14.0987 6.48333 14.3237 6.9 14.7737C7.31667 15.2237 7.85 15.4487 8.5 15.4487C9.15 15.4487 9.69167 15.2237 10.125 14.7737C10.5583 14.3237 11.15 14.0987 11.9 14.0987C12.65 14.0987 13.2375 14.3237 13.6625 14.7737C14.0875 15.2237 14.625 15.4487 15.275 15.4487C15.925 15.4487 16.4625 15.2237 16.8875 14.7737C17.3125 14.3237 17.9 14.0987 18.65 14.0987C19 14.0987 19.3333 14.1695 19.65 14.3112C19.9667 14.4529 20.575 14.7987 21.475 15.3487C21.575 15.4154 21.6542 15.4945 21.7125 15.5862C21.7708 15.6779 21.8 15.7904 21.8 15.9237C21.8 16.207 21.6833 16.4112 21.45 16.5362C21.2167 16.6612 20.9833 16.657 20.75 16.5237C20.0667 16.107 19.6083 15.8487 19.375 15.7487C19.1417 15.6487 18.9 15.5987 18.65 15.5987C18.0167 15.5987 17.4833 15.8237 17.05 16.2737C16.6167 16.7237 16.025 16.9487 15.275 16.9487C14.525 16.9487 13.9333 16.7237 13.5 16.2737C13.0667 15.8237 12.5333 15.5987 11.9 15.5987C11.2667 15.5987 10.7292 15.8237 10.2875 16.2737C9.84583 16.7237 9.25 16.9487 8.5 16.9487Z" fill="#2C2E25"/>
</svg>
