<svg width="32" height="32" viewBox="0 0 32 32" fill="none" xmlns="http://www.w3.org/2000/svg">
<path d="M12.4993 19.9437L17.4693 18.4037C17.6871 18.3259 17.8738 18.2092 18.0293 18.0537C18.1849 17.8981 18.3016 17.7114 18.3793 17.4937L19.9193 12.5237C19.966 12.3893 19.9388 12.2701 19.8377 12.1662C19.7366 12.0623 19.616 12.0337 19.476 12.0803L14.506 13.6203C14.2882 13.6981 14.1016 13.8148 13.946 13.9703C13.7905 14.1259 13.6738 14.3125 13.596 14.5303L12.056 19.5003C12.0093 19.6347 12.0366 19.7539 12.1377 19.8578C12.2388 19.9617 12.3593 19.9903 12.4993 19.9437ZM15.9937 16.9337C15.733 16.9337 15.5132 16.8423 15.3343 16.6597C15.1555 16.4773 15.066 16.2556 15.066 15.9947C15.066 15.734 15.1573 15.5142 15.3399 15.3353C15.5224 15.1564 15.7441 15.067 16.0049 15.067C16.2657 15.067 16.4855 15.1583 16.6643 15.3409C16.8432 15.5234 16.9327 15.7451 16.9327 16.0059C16.9327 16.2666 16.8414 16.4864 16.6587 16.6653C16.4763 16.8442 16.2546 16.9337 15.9937 16.9337ZM16.0056 25.3337C14.7186 25.3337 13.5091 25.0887 12.3773 24.5987C11.2453 24.1087 10.2555 23.4398 9.40768 22.592C8.5599 21.7442 7.89102 20.7538 7.40102 19.6207C6.91102 18.4877 6.66602 17.277 6.66602 15.9887C6.66602 14.7003 6.91102 13.4897 7.40102 12.3566C7.89102 11.2235 8.5599 10.237 9.40768 9.39699C10.2555 8.55699 11.2459 7.89199 12.3789 7.40199C13.512 6.91199 14.7227 6.66699 16.011 6.66699C17.2993 6.66699 18.51 6.91199 19.6431 7.40199C20.7761 7.89199 21.7627 8.55699 22.6027 9.39699C23.4427 10.237 24.1077 11.2248 24.5977 12.3603C25.0877 13.4959 25.3327 14.7071 25.3327 15.994C25.3327 17.2811 25.0877 18.4905 24.5977 19.6224C24.1077 20.7543 23.4427 21.7428 22.6027 22.5878C21.7627 23.4326 20.7749 24.1015 19.6393 24.5945C18.5038 25.0873 17.2926 25.3337 16.0056 25.3337ZM16.0108 23.9337C18.212 23.9337 20.0827 23.1598 21.6227 21.6122C23.1627 20.0648 23.9327 18.1903 23.9327 15.9889C23.9327 13.7876 23.1627 11.917 21.6227 10.377C20.0827 8.83699 18.212 8.06699 16.0108 8.06699C13.8094 8.06699 11.9349 8.83699 10.3874 10.377C8.83983 11.917 8.06602 13.7876 8.06602 15.9889C8.06602 18.1903 8.83983 20.0648 10.3874 21.6122C11.9349 23.1598 13.8094 23.9337 16.0108 23.9337Z" fill="#2C2E25"/>
</svg>
