<svg width="32" height="32" viewBox="0 0 32 32" fill="none" xmlns="http://www.w3.org/2000/svg">
<path d="M15.6233 15.322C15.6735 15.3051 15.6734 15.3221 15.6399 15.356C13.9488 16.6272 11.3032 19.6272 10.014 21.5424C9.94698 21.6271 9.94704 21.6611 9.99727 21.7119L11.6717 23.7289C11.7052 23.7797 11.7889 23.7966 11.8558 23.7627C15.1879 22.0169 22.5386 19.8136 25 19.3898V26H7V19.1356C8.85861 18.0678 13.8484 15.8983 15.6233 15.322Z" fill="#006AFF"/>
<path d="M24.9832 13.1865V16.1187C22.6892 16.5424 17.599 18.0509 15.4223 19C15.4055 19.017 15.3887 19.0169 15.4055 18.983C17.0464 16.983 18.8884 15.1525 20.8977 13.5424L20.9144 13.5255C20.9646 13.4916 20.9645 13.4237 20.931 13.3729C20.6631 13.0339 19.6586 11.8136 19.3572 11.4577C19.3069 11.4068 19.2566 11.3728 19.1729 11.3898C16.2426 12.1356 9.7962 14.7289 7.01668 16.4068V13.1865L16.0083 6L24.9832 13.1865Z" fill="#006AFF"/>
</svg>
