<svg width="24" height="24" viewBox="0 0 24 24" fill="none" xmlns="http://www.w3.org/2000/svg">
<path d="M5 21.0004C4.45 21.0004 3.97917 20.8045 3.5875 20.4129C3.19583 20.0212 3 19.5504 3 19.0004V5.52537C3 4.9087 3.2875 4.4837 3.8625 4.25037C4.4375 4.01704 4.95 4.12537 5.4 4.57537L6.525 5.70037L5.475 6.75037L6.15 7.42537L7.2 6.37537L10.125 9.30037L9.075 10.3504L9.75 11.0254L10.8 9.97537L13.75 12.9254L12.7 13.9754L13.375 14.6504L14.425 13.6004L17.35 16.5254L16.3 17.5754L16.975 18.2504L18.025 17.2004L19.15 18.3254C19.65 18.8254 19.775 19.3962 19.525 20.0379C19.275 20.6795 18.8167 21.0004 18.15 21.0004H5ZM5 19.0004H16.575L5 7.42537V19.0004Z" fill="#2C2E25"/>
</svg>
