<svg width="24" height="24" viewBox="0 0 24 24" fill="none" xmlns="http://www.w3.org/2000/svg">
<path d="M16.6992 14.4998L20.9992 10.7998L21.3242 10.8248C21.5409 10.8415 21.7117 10.9256 21.8367 11.0773C21.9617 11.2288 22.0242 11.3931 22.0242 11.5701C22.0242 11.6711 21.9992 11.7721 21.9492 11.8733C21.8992 11.9743 21.8326 12.0665 21.7492 12.1498L18.3992 15.0248L19.4242 19.4498C19.4409 19.4755 19.4492 19.5043 19.4492 19.5363V19.6228C19.4492 19.8408 19.3736 20.0165 19.2225 20.1498C19.0715 20.2831 18.8952 20.3498 18.6937 20.3498C18.6307 20.3498 18.5649 20.3415 18.4962 20.3248C18.4274 20.3081 18.3617 20.2831 18.2992 20.2498L17.9742 20.0498L16.6992 14.4998ZM14.3742 7.27481L12.9492 3.9248L13.0742 3.6498C13.1351 3.5058 13.2295 3.3948 13.3575 3.3168C13.4853 3.2388 13.618 3.1998 13.7555 3.1998C13.893 3.1998 14.0274 3.2373 14.1587 3.3123C14.2899 3.3873 14.3867 3.4998 14.4492 3.6498L16.0492 7.42481L14.3742 7.27481ZM6.57422 17.8748L10.4992 15.5248L14.4242 17.8998L13.3742 13.4498L16.8242 10.4498L12.2742 10.0498L10.4992 5.8498L8.72422 10.0248L4.17422 10.4248L7.62422 13.4248L6.57422 17.8748ZM4.72422 19.2748L5.94922 13.9748L1.84922 10.3998C1.76589 10.3165 1.69922 10.2276 1.64922 10.1331C1.59922 10.0387 1.57422 9.94431 1.57422 9.84981C1.57422 9.67181 1.63672 9.50647 1.76172 9.3538C1.88672 9.20114 2.05755 9.11647 2.27422 9.09981L7.70122 8.62255L9.79922 3.6248C9.86172 3.4748 9.95864 3.3623 10.09 3.2873C10.2211 3.2123 10.3555 3.1748 10.493 3.1748C10.6305 3.1748 10.7666 3.2123 10.9012 3.2873C11.0357 3.3623 11.1351 3.4748 11.1992 3.6248L13.2972 8.62255L18.7242 9.09981C18.9409 9.11647 19.1117 9.20089 19.2367 9.35306C19.3617 9.50522 19.4242 9.67005 19.4242 9.84755C19.4242 9.94905 19.3992 10.0456 19.3492 10.1373C19.2992 10.229 19.2326 10.3165 19.1492 10.3998L15.0492 13.9748L16.2742 19.2748C16.2909 19.3126 16.2992 19.3693 16.2992 19.4448C16.2992 19.6586 16.2243 19.838 16.0745 19.9828C15.9246 20.1275 15.7513 20.1998 15.5545 20.1998C15.5176 20.1998 15.3826 20.1581 15.1492 20.0748L10.4992 17.2748L5.84922 20.0748C5.78255 20.1081 5.71489 20.1373 5.64622 20.1623C5.57739 20.1873 5.51172 20.1998 5.44922 20.1998C5.22422 20.1998 5.03047 20.1081 4.86797 19.9248C4.70547 19.7415 4.65755 19.5248 4.72422 19.2748Z" fill="#2C2E25"/>
</svg>
