<svg width="14" height="14" viewBox="0 0 14 14" fill="none" xmlns="http://www.w3.org/2000/svg">
<path d="M4.15625 10.0628V3.93783C4.15625 3.81387 4.19844 3.70994 4.28283 3.62603C4.36713 3.54223 4.47164 3.50033 4.59637 3.50033C4.72101 3.50033 4.82465 3.54223 4.90729 3.62603C4.98993 3.70994 5.03125 3.81387 5.03125 3.93783V10.0628C5.03125 10.1868 4.98906 10.2907 4.90467 10.3745C4.82038 10.4584 4.71586 10.5003 4.59113 10.5003C4.46649 10.5003 4.36285 10.4584 4.28021 10.3745C4.19757 10.2907 4.15625 10.1868 4.15625 10.0628ZM6.5625 12.3962V1.60449C6.5625 1.48053 6.60469 1.3766 6.68908 1.2927C6.77338 1.20889 6.87789 1.16699 7.00262 1.16699C7.12726 1.16699 7.2309 1.20889 7.31354 1.2927C7.39618 1.3766 7.4375 1.48053 7.4375 1.60449V12.3962C7.4375 12.5201 7.39531 12.624 7.31092 12.7078C7.22662 12.7917 7.12211 12.8337 6.99738 12.8337C6.87274 12.8337 6.7691 12.7917 6.68646 12.7078C6.60382 12.624 6.5625 12.5201 6.5625 12.3962ZM1.75 7.72949V6.27116C1.75 6.1472 1.79219 6.04327 1.87658 5.95937C1.96087 5.87556 2.06539 5.83366 2.19012 5.83366C2.31476 5.83366 2.4184 5.87556 2.50104 5.95937C2.58368 6.04327 2.625 6.1472 2.625 6.27116V7.72949C2.625 7.85345 2.58281 7.95733 2.49842 8.04114C2.41413 8.12504 2.30961 8.16699 2.18488 8.16699C2.06024 8.16699 1.9566 8.12504 1.87396 8.04114C1.79132 7.95733 1.75 7.85345 1.75 7.72949ZM8.96875 10.0628V3.93783C8.96875 3.81387 9.01094 3.70994 9.09533 3.62603C9.17962 3.54223 9.28414 3.50033 9.40887 3.50033C9.53351 3.50033 9.63715 3.54223 9.71979 3.62603C9.80243 3.70994 9.84375 3.81387 9.84375 3.93783V10.0628C9.84375 10.1868 9.80156 10.2907 9.71717 10.3745C9.63287 10.4584 9.52836 10.5003 9.40363 10.5003C9.27899 10.5003 9.17535 10.4584 9.09271 10.3745C9.01007 10.2907 8.96875 10.1868 8.96875 10.0628ZM11.375 7.72949V6.27116C11.375 6.1472 11.4172 6.04327 11.5016 5.95937C11.5859 5.87556 11.6904 5.83366 11.8151 5.83366C11.9398 5.83366 12.0434 5.87556 12.126 5.95937C12.2087 6.04327 12.25 6.1472 12.25 6.27116V7.72949C12.25 7.85345 12.2078 7.95733 12.1234 8.04114C12.0391 8.12504 11.9346 8.16699 11.8099 8.16699C11.6852 8.16699 11.5816 8.12504 11.499 8.04114C11.4163 7.95733 11.375 7.85345 11.375 7.72949Z" fill="#FFF7EE"/>
</svg>
