<svg width="14" height="14" viewBox="0 0 14 14" fill="none" xmlns="http://www.w3.org/2000/svg">
<path d="M3.50065 11.6667C3.37669 11.6667 3.27281 11.6245 3.18901 11.5401C3.1051 11.4558 3.06315 11.3513 3.06315 11.2265C3.06315 11.1019 3.1051 10.9983 3.18901 10.9156C3.27281 10.833 3.37669 10.7917 3.50065 10.7917H3.95273L5.17773 6.75208C5.23607 6.56736 5.34058 6.41667 5.49128 6.3C5.64197 6.18333 5.81454 6.125 6.00898 6.125H7.99232C8.18676 6.125 8.35933 6.18333 8.51003 6.3C8.66072 6.41667 8.76523 6.56736 8.82357 6.75208L10.0486 10.7917H10.5007C10.6246 10.7917 10.7285 10.8339 10.8124 10.9183C10.8962 11.0025 10.9382 11.1071 10.9382 11.2318C10.9382 11.3564 10.8962 11.4601 10.8124 11.5427C10.7285 11.6253 10.6246 11.6667 10.5007 11.6667H3.50065ZM4.88607 10.7917H9.11523L7.97773 7H6.02357L4.88607 10.7917ZM6.56315 3.9375V2.1875C6.56315 2.06354 6.60535 1.95961 6.68973 1.87571C6.77403 1.7919 6.87854 1.75 7.00328 1.75C7.12791 1.75 7.23155 1.7919 7.31419 1.87571C7.39683 1.95961 7.43815 2.06354 7.43815 2.1875V3.9375C7.43815 4.06146 7.39596 4.16534 7.31157 4.24915C7.22728 4.33305 7.12276 4.375 6.99803 4.375C6.87339 4.375 6.76975 4.33305 6.68711 4.24915C6.60447 4.16534 6.56315 4.06146 6.56315 3.9375ZM9.68398 4.87083L10.9236 3.63125C11.0111 3.55347 11.1136 3.51215 11.2313 3.50729C11.3489 3.50243 11.4505 3.54375 11.5361 3.63125C11.6236 3.71875 11.6673 3.82083 11.6673 3.9375C11.6673 4.05417 11.6236 4.15625 11.5361 4.24375L10.2965 5.49792C10.209 5.58542 10.1069 5.62917 9.99023 5.62917C9.87357 5.62917 9.77148 5.58517 9.68398 5.49719C9.59648 5.4091 9.55273 5.30459 9.55273 5.18365C9.55273 5.0626 9.59648 4.95833 9.68398 4.87083ZM11.2298 7.72917H12.9798C13.1038 7.72917 13.2077 7.77136 13.2916 7.85575C13.3754 7.94004 13.4173 8.04456 13.4173 8.16929C13.4173 8.29393 13.3754 8.39757 13.2916 8.48021C13.2077 8.56285 13.1038 8.60417 12.9798 8.60417H11.2298C11.1059 8.60417 11.002 8.56197 10.9182 8.47758C10.8343 8.39329 10.7923 8.28878 10.7923 8.16404C10.7923 8.0394 10.8343 7.93576 10.9182 7.85313C11.002 7.77049 11.1059 7.72917 11.2298 7.72917ZM3.70482 5.48333L2.46523 4.24375C2.38746 4.15625 2.34614 4.05368 2.34128 3.93604C2.33641 3.8184 2.37773 3.71681 2.46523 3.63125C2.55273 3.54375 2.65482 3.5 2.77148 3.5C2.88815 3.5 2.99023 3.54375 3.07773 3.63125L4.3319 4.87083C4.4194 4.95833 4.46315 5.06042 4.46315 5.17708C4.46315 5.29375 4.41916 5.39583 4.33117 5.48333C4.24309 5.57083 4.13857 5.61458 4.01763 5.61458C3.89659 5.61458 3.79232 5.57083 3.70482 5.48333ZM1.02148 8.60417C0.897526 8.60417 0.793644 8.56197 0.709839 8.47758C0.625936 8.39329 0.583984 8.28878 0.583984 8.16404C0.583984 8.0394 0.625936 7.93576 0.709839 7.85313C0.793644 7.77049 0.897526 7.72917 1.02148 7.72917H2.77148C2.89544 7.72917 2.99937 7.77136 3.08328 7.85575C3.16708 7.94004 3.20898 8.04456 3.20898 8.16929C3.20898 8.29393 3.16708 8.39757 3.08328 8.48021C2.99937 8.56285 2.89544 8.60417 2.77148 8.60417H1.02148Z" fill="#FFF7EE"/>
</svg>
