<svg width="14" height="14" viewBox="0 0 14 14" fill="none" xmlns="http://www.w3.org/2000/svg">
<mask id="mask0_8019_261011" style="mask-type:alpha" maskUnits="userSpaceOnUse" x="0" y="0" width="14" height="14">
<rect width="14" height="14" fill="#D9D9D9"/>
</mask>
<g mask="url(#mask0_8019_261011)">
<path d="M6.56328 12.3962V10.0628H3.71953C3.59859 10.0628 3.48328 10.0385 3.37361 9.98991C3.26395 9.9413 3.17023 9.8781 3.09245 9.80033L2.05703 8.76491C1.96953 8.67741 1.92578 8.57533 1.92578 8.45866C1.92578 8.34199 1.96953 8.23991 2.05703 8.15241L3.09245 7.11699C3.17023 7.03921 3.26395 6.97602 3.37361 6.92741C3.48328 6.8788 3.59859 6.85449 3.71953 6.85449H6.56328V5.54199H2.77161C2.64766 5.54199 2.54377 5.50004 2.45997 5.41614C2.37607 5.33233 2.33411 5.22845 2.33411 5.10449V2.77116C2.33411 2.6472 2.37607 2.54327 2.45997 2.45937C2.54377 2.37556 2.64766 2.33366 2.77161 2.33366H6.56328V1.60449C6.56328 1.48053 6.60548 1.3766 6.68986 1.2927C6.77416 1.20889 6.87867 1.16699 7.00341 1.16699C7.12805 1.16699 7.23168 1.20889 7.31432 1.2927C7.39696 1.3766 7.43828 1.48053 7.43828 1.60449V2.33366H10.282C10.403 2.33366 10.5183 2.35796 10.6279 2.40658C10.7376 2.45519 10.8313 2.51838 10.9091 2.59616L11.9445 3.63158C12.032 3.71908 12.0758 3.82116 12.0758 3.93783C12.0758 4.05449 12.032 4.15658 11.9445 4.24408L10.9091 5.27949C10.8313 5.35727 10.7376 5.42046 10.6279 5.46908C10.5183 5.51769 10.403 5.54199 10.282 5.54199H7.43828V6.85449H11.2299C11.3539 6.85449 11.4578 6.8964 11.5417 6.9802C11.6255 7.0641 11.6674 7.16803 11.6674 7.29199V9.62533C11.6674 9.74928 11.6255 9.85317 11.5417 9.93697C11.4578 10.0209 11.3539 10.0628 11.2299 10.0628H7.43828V12.3962C7.43828 12.5201 7.39609 12.624 7.3117 12.7078C7.22741 12.7917 7.12289 12.8337 6.99816 12.8337C6.87352 12.8337 6.76988 12.7917 6.68724 12.7078C6.6046 12.624 6.56328 12.5201 6.56328 12.3962ZM3.20911 4.66699H10.282L11.0112 3.93783L10.282 3.20866H3.20911V4.66699ZM3.71953 9.18783H10.7924V7.72949H3.71953L2.99036 8.45866L3.71953 9.18783Z" fill="#FFF7EE"/>
</g>
</svg>
