<svg width="32" height="32" viewBox="0 0 32 32" fill="none" xmlns="http://www.w3.org/2000/svg">
<path d="M14.9993 28.3333V26.4C14.9993 26.1167 15.0958 25.8791 15.2887 25.6873C15.4813 25.4958 15.7202 25.4 16.0053 25.4C16.2902 25.4 16.5271 25.4958 16.716 25.6873C16.9049 25.8791 16.9993 26.1167 16.9993 26.4V28.3333C16.9993 28.6167 16.9029 28.8541 16.71 29.0457C16.5173 29.2374 16.2785 29.3333 15.9933 29.3333C15.7085 29.3333 15.4716 29.2374 15.2827 29.0457C15.0938 28.8541 14.9993 28.6167 14.9993 28.3333ZM3.66602 15H5.59935C5.88268 15 6.12024 15.0964 6.31202 15.2893C6.50357 15.482 6.59935 15.7209 6.59935 16.006C6.59935 16.2909 6.50357 16.5278 6.31202 16.7167C6.12024 16.9056 5.88268 17 5.59935 17H3.66602C3.38268 17 3.14524 16.9036 2.95368 16.7107C2.7619 16.518 2.66602 16.2791 2.66602 15.994C2.66602 15.7091 2.7619 15.4722 2.95368 15.2833C3.14524 15.0944 3.38268 15 3.66602 15ZM26.3993 15H28.3327C28.616 15 28.8536 15.0964 29.0453 15.2893C29.2369 15.482 29.3327 15.7209 29.3327 16.006C29.3327 16.2909 29.2369 16.5278 29.0453 16.7167C28.8536 16.9056 28.616 17 28.3327 17H26.3993C26.116 17 25.8786 16.9036 25.687 16.7107C25.4952 16.518 25.3993 16.2791 25.3993 15.994C25.3993 15.7091 25.4952 15.4722 25.687 15.2833C25.8786 15.0944 26.116 15 26.3993 15ZM23.9327 25.3333L22.5993 24.0333C22.3993 23.8333 22.3049 23.6 22.316 23.3333C22.3271 23.0667 22.4327 22.8333 22.6327 22.6333C22.8327 22.4333 23.0716 22.3333 23.3493 22.3333C23.6271 22.3333 23.866 22.4333 24.066 22.6333L25.366 23.9333C25.566 24.1333 25.666 24.3667 25.666 24.6333C25.666 24.9 25.566 25.1333 25.366 25.3333C25.166 25.5333 24.9271 25.6333 24.6493 25.6333C24.3716 25.6333 24.1327 25.5333 23.9327 25.3333ZM6.66602 23.9L7.96602 22.6C8.16602 22.4 8.39935 22.3056 8.66602 22.3167C8.93268 22.3278 9.16602 22.4333 9.36602 22.6333C9.56602 22.8333 9.66602 23.0722 9.66602 23.35C9.66602 23.6278 9.56602 23.8667 9.36602 24.0667L8.06602 25.3667C7.86602 25.5667 7.63268 25.6611 7.36602 25.65C7.09935 25.6389 6.86602 25.5333 6.66602 25.3333C6.46602 25.1333 6.36602 24.8944 6.36602 24.6167C6.36602 24.3389 6.46602 24.1 6.66602 23.9ZM15.9993 22.0667C14.3327 22.0667 12.9049 21.4722 11.716 20.2833C10.5271 19.0944 9.93268 17.6667 9.93268 16C9.93268 14.9111 10.166 13.9333 10.6327 13.0667C11.0993 12.2 11.7549 11.4889 12.5993 10.9333V6C12.5993 5.45 12.7952 4.97911 13.187 4.58733C13.5786 4.19578 14.0493 4 14.5993 4H17.3993C17.9493 4 18.4202 4.19578 18.812 4.58733C19.2036 4.97911 19.3993 5.45 19.3993 6V10.9333C20.2438 11.4889 20.8993 12.2 21.366 13.0667C21.8327 13.9333 22.066 14.9111 22.066 16C22.066 17.6667 21.4716 19.0944 20.2827 20.2833C19.0938 21.4722 17.666 22.0667 15.9993 22.0667ZM14.5993 10.2333C14.8327 10.1667 15.066 10.1167 15.2993 10.0833C15.5327 10.05 15.766 10.0333 15.9993 10.0333C16.2327 10.0333 16.466 10.05 16.6993 10.0833C16.9327 10.1167 17.166 10.1667 17.3993 10.2333V6H14.5993V10.2333ZM16.0033 20.0667C17.134 20.0667 18.0938 19.6709 18.8827 18.8793C19.6716 18.0878 20.066 17.1267 20.066 15.996C20.066 14.8653 19.6702 13.9056 18.8787 13.1167C18.0871 12.3278 17.126 11.9333 15.9953 11.9333C14.8647 11.9333 13.9049 12.3291 13.116 13.1207C12.3271 13.9122 11.9327 14.8733 11.9327 16.004C11.9327 17.1347 12.3285 18.0944 13.12 18.8833C13.9116 19.6722 14.8727 20.0667 16.0033 20.0667Z" fill="#2C2E25"/>
</svg>
