<svg width="28" height="28" viewBox="0 0 28 28" fill="none" xmlns="http://www.w3.org/2000/svg">
<path d="M9.10026 19.5209L16.0583 17.3649C16.3631 17.256 16.6245 17.0927 16.8423 16.8749C17.06 16.6571 17.2234 16.3958 17.3323 16.0909L19.4883 9.13293C19.5536 8.94477 19.5155 8.77795 19.3739 8.63247C19.2324 8.487 19.0636 8.44693 18.8676 8.51226L11.9096 10.6683C11.6047 10.7771 11.3434 10.9405 11.1256 11.1583C10.9078 11.376 10.7445 11.6374 10.6356 11.9423L8.47959 18.9003C8.41426 19.0884 8.45237 19.2552 8.59393 19.4007C8.73548 19.5462 8.90426 19.5863 9.10026 19.5209ZM13.9924 15.3069C13.6274 15.3069 13.3197 15.1791 13.0693 14.9234C12.8188 14.668 12.6936 14.3576 12.6936 13.9924C12.6936 13.6274 12.8214 13.3197 13.0771 13.0693C13.3326 12.8188 13.6429 12.6936 14.0081 12.6936C14.3731 12.6936 14.6808 12.8214 14.9313 13.0771C15.1817 13.3326 15.3069 13.6429 15.3069 14.0081C15.3069 14.3731 15.1791 14.6808 14.9234 14.9313C14.668 15.1817 14.3576 15.3069 13.9924 15.3069ZM14.0091 27.0669C12.2072 27.0669 10.514 26.7239 8.92941 26.0379C7.34464 25.3519 5.95882 24.4155 4.77193 23.2286C3.58504 22.0417 2.64859 20.6551 1.96259 19.0688C1.27659 17.4825 0.933594 15.7876 0.933594 13.9839C0.933594 12.1803 1.27659 10.4853 1.96259 8.89903C2.64859 7.31274 3.58504 5.93159 4.77193 4.75559C5.95882 3.57959 7.34541 2.64859 8.9317 1.96259C10.518 1.27659 12.213 0.933594 14.0166 0.933594C15.8202 0.933594 17.5152 1.27659 19.1015 1.96259C20.6878 2.64859 22.0689 3.57959 23.2449 4.75559C24.4209 5.93159 25.3519 7.31448 26.0379 8.90426C26.7239 10.494 27.0669 12.1898 27.0669 13.9914C27.0669 15.7933 26.7239 17.4866 26.0379 19.0711C25.3519 20.6559 24.4209 22.0397 23.2449 23.2227C22.0689 24.4055 20.686 25.3419 19.0963 26.032C17.5065 26.722 15.8108 27.0669 14.0091 27.0669ZM14.0163 25.1069C17.098 25.1069 19.7169 24.0236 21.8729 21.8569C24.0289 19.6905 25.1069 17.0662 25.1069 13.9843C25.1069 10.9025 24.0289 8.28359 21.8729 6.12759C19.7169 3.97159 17.098 2.89359 14.0163 2.89359C10.9343 2.89359 8.31005 3.97159 6.1436 6.12759C3.97693 8.28359 2.89359 10.9025 2.89359 13.9843C2.89359 17.0662 3.97693 19.6905 6.1436 21.8569C8.31005 24.0236 10.9343 25.1069 14.0163 25.1069Z" fill="#2C2E25"/>
</svg>
