<svg width="24" height="24" viewBox="0 0 24 24" fill="none" xmlns="http://www.w3.org/2000/svg">
<path d="M5.225 14.276H7V13.751C7 13.5343 7.07083 13.3551 7.2125 13.2135C7.35417 13.0718 7.53333 13.001 7.75 13.001H16.25C16.4667 13.001 16.6458 13.0718 16.7875 13.2135C16.9292 13.3551 17 13.5343 17 13.751V14.276H18.775C18.9583 14.276 19.125 14.2135 19.275 14.0885C19.425 13.9635 19.5 13.8093 19.5 13.626C19.5 13.476 19.4583 13.3426 19.375 13.226C19.2917 13.1093 19.1833 13.0176 19.05 12.951L12.075 9.80098L4.95 12.951C4.81667 13.0176 4.70833 13.1093 4.625 13.226C4.54167 13.3426 4.5 13.4676 4.5 13.601C4.5 13.7843 4.57083 13.9426 4.7125 14.076C4.85417 14.2093 5.025 14.276 5.225 14.276ZM8.5 20.501H15.5V14.501H8.5V20.501ZM14.225 4.67598C14.0417 4.75931 13.85 4.75931 13.65 4.67598C13.45 4.59264 13.3083 4.45931 13.225 4.27598C13.125 4.04264 12.9667 3.85514 12.75 3.71348C12.5333 3.57181 12.2917 3.50098 12.025 3.50098C11.675 3.50098 11.3708 3.62181 11.1125 3.86348C10.8542 4.10514 10.725 4.40098 10.725 4.75098C10.725 5.13431 10.8542 5.45514 11.1125 5.71348C11.3708 5.97181 11.6917 6.10098 12.075 6.10098C12.275 6.10098 12.45 6.17181 12.6 6.31348C12.75 6.45514 12.825 6.62598 12.825 6.82598V8.52598L19.7 11.526C20.1167 11.7093 20.4375 11.9968 20.6625 12.3885C20.8875 12.7801 21 13.201 21 13.651C21 14.251 20.7792 14.7551 20.3375 15.1635C19.8958 15.5718 19.375 15.776 18.775 15.776H17V21.251C17 21.4676 16.9292 21.6468 16.7875 21.7885C16.6458 21.9301 16.4667 22.001 16.25 22.001H7.75C7.53333 22.001 7.35417 21.9301 7.2125 21.7885C7.07083 21.6468 7 21.4676 7 21.251V15.776H5.225C4.625 15.776 4.10417 15.5718 3.6625 15.1635C3.22083 14.7551 3 14.251 3 13.651C3 13.201 3.1125 12.7801 3.3375 12.3885C3.5625 11.9968 3.88333 11.7093 4.3 11.526L11.325 8.52598V7.47598C10.7083 7.30931 10.2042 6.97181 9.8125 6.46348C9.42083 5.95514 9.225 5.38431 9.225 4.75098C9.225 3.98431 9.5 3.33431 10.05 2.80098C10.6 2.26764 11.2583 2.00098 12.025 2.00098C12.6083 2.00098 13.1292 2.15931 13.5875 2.47598C14.0458 2.79264 14.3833 3.20098 14.6 3.70098C14.6833 3.88431 14.6875 4.07181 14.6125 4.26348C14.5375 4.45514 14.4083 4.59264 14.225 4.67598Z" fill="#2C2E25"/>
</svg>
