<svg width="24" height="24" viewBox="0 0 24 24" fill="none" xmlns="http://www.w3.org/2000/svg">
<path d="M6.90037 16.3476C6.71424 16.2412 6.56467 16.0958 6.45166 15.9112C6.33865 15.7268 6.28214 15.5199 6.28214 15.2906V11.2222L4.28784 10.1254C4.18148 10.0589 4.1017 9.98223 4.04852 9.89541C3.99534 9.80873 3.96875 9.71234 3.96875 9.60624C3.96875 9.50027 3.99534 9.40408 4.04852 9.31766C4.1017 9.23124 4.18148 9.1548 4.28784 9.08832L11.4873 5.1396C11.5803 5.08642 11.6748 5.04986 11.7707 5.02991C11.8664 5.00997 11.9647 5 12.0656 5C12.1665 5 12.2648 5.00997 12.3606 5.02991C12.4564 5.04986 12.5509 5.08642 12.644 5.1396L20.5414 9.42735C20.6478 9.49383 20.7275 9.5734 20.7807 9.66607C20.8339 9.7586 20.8605 9.85852 20.8605 9.96581V15.3305C20.8605 15.5 20.8028 15.6421 20.6874 15.7567C20.5721 15.8714 20.4292 15.9288 20.2586 15.9288C20.0882 15.9288 19.9464 15.8714 19.8334 15.7567C19.7204 15.6421 19.6639 15.5 19.6639 15.3305V10.3048L17.8491 11.2222V15.2906C17.8491 15.5199 17.7926 15.7268 17.6796 15.9112C17.5666 16.0958 17.417 16.2412 17.2309 16.3476L12.644 18.8604C12.5509 18.9136 12.4564 18.9501 12.3606 18.9701C12.2648 18.99 12.1665 19 12.0656 19C11.9647 19 11.8664 18.99 11.7707 18.9701C11.6748 18.9501 11.5803 18.9136 11.4873 18.8604L6.90037 16.3476ZM12.0656 13.037L18.3477 9.60684L12.0656 6.23647L5.82345 9.60684L12.0656 13.037ZM12.0656 17.8234L16.6525 15.2906V11.9402L12.644 14.094C12.5509 14.1472 12.4578 14.1838 12.3648 14.2037C12.2717 14.2236 12.172 14.2336 12.0656 14.2336C11.9593 14.2336 11.8629 14.2236 11.7764 14.2037C11.69 14.1838 11.6003 14.1472 11.5072 14.094L7.47872 11.9003V15.2906L12.0656 17.8234Z" fill="#FFF7EE"/>
</svg>
