<svg width="48" height="48" viewBox="0 0 48 48" fill="none" xmlns="http://www.w3.org/2000/svg">
<path d="M24 26.4504L28.15 29.6004C28.3167 29.7004 28.475 29.7004 28.625 29.6004C28.775 29.5004 28.8167 29.3671 28.75 29.2004L27 24.0504L31.35 20.9504C31.5167 20.8504 31.5667 20.7087 31.5 20.5254C31.4333 20.3421 31.3167 20.2504 31.15 20.2504H25.9L24.35 15.2004C24.2833 15.0337 24.1667 14.9504 24 14.9504C23.8333 14.9504 23.7167 15.0337 23.65 15.2004L22.1 20.2504H16.85C16.6833 20.2504 16.5667 20.3421 16.5 20.5254C16.4333 20.7087 16.4833 20.8504 16.65 20.9504L20.9 24.0504L19.1 29.2004C19.0333 29.3671 19.075 29.5087 19.225 29.6254C19.375 29.7421 19.5333 29.7504 19.7 29.6504L24 26.4504ZM24 43.8004C23.8333 43.8004 23.675 43.7837 23.525 43.7504C23.375 43.7171 23.2167 43.6671 23.05 43.6004C18.4167 42.0337 14.75 39.2254 12.05 35.1754C9.35 31.1254 8 26.6837 8 21.8504V12.0504C8 11.4171 8.18333 10.8421 8.55 10.3254C8.91667 9.80872 9.38333 9.43372 9.95 9.20039L22.95 4.35039C23.3167 4.21706 23.6667 4.15039 24 4.15039C24.3333 4.15039 24.6833 4.21706 25.05 4.35039L38.05 9.20039C38.6167 9.43372 39.0833 9.80872 39.45 10.3254C39.8167 10.8421 40 11.4171 40 12.0504V21.8504C40 26.6837 38.65 31.1254 35.95 35.1754C33.25 39.2254 29.5833 42.0337 24.95 43.6004C24.7833 43.6671 24.625 43.7171 24.475 43.7504C24.325 43.7837 24.1667 43.8004 24 43.8004ZM24 40.8504C27.8333 39.5837 30.9583 37.1921 33.375 33.6754C35.7917 30.1587 37 26.2171 37 21.8504V12.0504L24 7.15039L11 12.0504V21.8504C11 26.2171 12.2083 30.1587 14.625 33.6754C17.0417 37.1921 20.1667 39.5837 24 40.8504Z" fill="#FFF7EE"/>
</svg>
