<svg width="41" height="40" viewBox="0 0 41 40" fill="none" xmlns="http://www.w3.org/2000/svg">
<path d="M9.6665 32.5H15.9165V23.3333C15.9165 22.9792 16.0364 22.6822 16.2761 22.4425C16.5155 22.2031 16.8123 22.0833 17.1665 22.0833H23.8332C24.1873 22.0833 24.4843 22.2031 24.724 22.4425C24.9634 22.6822 25.0832 22.9792 25.0832 23.3333V32.5H31.3332V16.25L20.4998 8.125L9.6665 16.25V32.5ZM7.1665 32.5V16.25C7.1665 15.8542 7.25512 15.4792 7.43234 15.125C7.60928 14.7708 7.854 14.4792 8.1665 14.25L18.9998 6.125C19.4354 5.79167 19.9332 5.625 20.4932 5.625C21.0532 5.625 21.5554 5.79167 21.9998 6.125L32.8332 14.25C33.1457 14.4792 33.3905 14.7708 33.5678 15.125C33.7447 15.4792 33.8332 15.8542 33.8332 16.25V32.5C33.8332 33.1875 33.5884 33.776 33.099 34.2654C32.6093 34.7551 32.0207 35 31.3332 35H23.8332C23.479 35 23.1822 34.8801 22.9428 34.6404C22.703 34.401 22.5832 34.1042 22.5832 33.75V24.5833H18.4165V33.75C18.4165 34.1042 18.2968 34.401 18.0573 34.6404C17.8176 34.8801 17.5207 35 17.1665 35H9.6665C8.979 35 8.39053 34.7551 7.90109 34.2654C7.41137 33.776 7.1665 33.1875 7.1665 32.5Z" fill="#423E3E"/>
</svg>
