<svg width="24" height="24" viewBox="0 0 24 24" fill="none" xmlns="http://www.w3.org/2000/svg">
<path d="M7.8 3.84949C8.05 3.66616 8.3125 3.64949 8.5875 3.79949C8.8625 3.94949 9 4.17449 9 4.47449V5.47449C9 5.89116 9.15 6.24533 9.45 6.53699C9.75 6.82866 10.1083 6.97449 10.525 6.97449C10.7583 6.97449 10.975 6.92449 11.175 6.82449C11.375 6.72449 11.5417 6.58283 11.675 6.39949C11.7583 6.28283 11.875 6.21199 12.025 6.18699C12.175 6.16199 12.3167 6.19116 12.45 6.27449C12.9833 6.64116 13.4375 7.07866 13.8125 7.58699C14.1875 8.09533 14.475 8.64949 14.675 9.24949C14.7417 9.43283 14.7208 9.60366 14.6125 9.76199C14.5042 9.92033 14.3542 10.0328 14.1625 10.0995C13.9708 10.1662 13.7792 10.1495 13.5875 10.0495C13.3958 9.94949 13.2583 9.79949 13.175 9.59949C13.0417 9.28283 12.8958 8.99533 12.7375 8.73699C12.5792 8.47866 12.3833 8.22449 12.15 7.97449C11.9 8.10783 11.6376 8.22449 11.3628 8.32449C11.0879 8.42449 10.8087 8.47449 10.525 8.47449C9.775 8.47449 9.14167 8.21199 8.625 7.68699C8.10833 7.16199 7.75833 6.52449 7.575 5.77449C6.75833 6.52449 6.04167 7.34949 5.425 8.24949C4.80833 9.14949 4.5 10.1495 4.5 11.2495C4.5 11.9328 4.6375 12.562 4.9125 13.137C5.1875 13.712 5.55833 14.2078 6.025 14.6245C6.00833 14.5578 6 14.4995 6 14.4495V14.2745C6 13.8912 6.07917 13.5203 6.2375 13.162C6.39583 12.8037 6.61667 12.4828 6.9 12.1995L8.475 10.6245C8.625 10.4745 8.8 10.4037 9 10.412C9.2 10.4203 9.375 10.4912 9.525 10.6245L11.175 12.2495C11.325 12.3995 11.4042 12.5745 11.4125 12.7745C11.4208 12.9745 11.35 13.1495 11.2 13.2995C11.05 13.4495 10.8708 13.5245 10.6625 13.5245C10.4542 13.5245 10.275 13.4495 10.125 13.2995L9 12.1995L7.95 13.2745C7.81667 13.4078 7.70833 13.562 7.625 13.737C7.54167 13.912 7.5 14.0912 7.5 14.2745C7.5 14.5078 7.55833 14.712 7.675 14.887C7.79167 15.062 7.91667 15.2412 8.05 15.4245C8.18333 15.6078 8.22917 15.8037 8.1875 16.012C8.14583 16.2203 8.05 16.3995 7.9 16.5495C7.71667 16.7328 7.50417 16.8328 7.2625 16.8495C7.02083 16.8662 6.78333 16.8245 6.55 16.7245C6.1 16.5245 5.68333 16.2703 5.3 15.962C4.91667 15.6537 4.575 15.3078 4.275 14.9245C3.875 14.4078 3.5625 13.8412 3.3375 13.2245C3.1125 12.6078 3 11.9495 3 11.2495C3 9.49949 3.475 8.06199 4.425 6.93699C5.375 5.81199 6.5 4.78283 7.8 3.84949ZM13.35 15.3495L12.6 16.0995V21.4995C12.6 21.712 12.5277 21.8901 12.383 22.0337C12.2385 22.1776 12.0593 22.2495 11.8455 22.2495C11.6318 22.2495 11.4542 22.1776 11.3125 22.0337C11.1708 21.8901 11.1 21.712 11.1 21.4995V17.5995L6.975 21.7245C6.825 21.8745 6.65 21.9495 6.45 21.9495C6.25 21.9495 6.075 21.8745 5.925 21.7245C5.775 21.5745 5.7 21.3995 5.7 21.1995C5.7 20.9995 5.775 20.8245 5.925 20.6745L19.675 6.92449C19.825 6.77449 20 6.69949 20.2 6.69949C20.4 6.69949 20.575 6.77449 20.725 6.92449C20.875 7.07449 20.95 7.24949 20.95 7.44949C20.95 7.64949 20.875 7.82449 20.725 7.97449L16.65 12.0495H20.5C20.7125 12.0495 20.8907 12.1218 21.0345 12.2665C21.1782 12.411 21.25 12.5902 21.25 12.804C21.25 13.0177 21.1782 13.1953 21.0345 13.337C20.8907 13.4787 20.7125 13.5495 20.5 13.5495H15.15L14.4 14.2995L16.15 16.0495H20.5C20.7125 16.0495 20.8907 16.1218 21.0345 16.2665C21.1782 16.411 21.25 16.5902 21.25 16.804C21.25 17.0177 21.1782 17.1953 21.0345 17.337C20.8907 17.4787 20.7125 17.5495 20.5 17.5495H17.65L20 19.8995C20.15 20.0495 20.225 20.2245 20.225 20.4245C20.225 20.6245 20.15 20.7995 20 20.9495C19.85 21.0995 19.675 21.1745 19.475 21.1745C19.275 21.1745 19.1 21.0995 18.95 20.9495L16.6 18.5995V21.4995C16.6 21.712 16.5277 21.8901 16.383 22.0337C16.2385 22.1776 16.0593 22.2495 15.8455 22.2495C15.6318 22.2495 15.4542 22.1776 15.3125 22.0337C15.1708 21.8901 15.1 21.712 15.1 21.4995V17.0995L13.35 15.3495Z" fill="#2C2E25"/>
</svg>
