<svg width="24" height="24" viewBox="0 0 24 24" fill="none" xmlns="http://www.w3.org/2000/svg">
<path fill-rule="evenodd" clip-rule="evenodd" d="M11 4.33333C10.3863 4.33333 9.88889 4.83079 9.88889 5.44444H8.55556C8.55556 4.09441 9.64997 3 11 3C11.7005 3 12.3321 3.29462 12.7778 3.7667C13.2235 3.29462 13.8551 3 14.5556 3C15.9056 3 17 4.09442 17 5.44444V7H20.7778V8.33333H17V10.9139C17.294 10.8226 17.5992 10.7778 17.9015 10.7778C18.6038 10.7778 19.3222 11.02 19.8795 11.5248C20.1178 11.7407 20.4348 11.8662 20.7707 11.8858V13.3679C20.0982 13.3476 19.4182 13.105 18.8853 12.6223C18.6252 12.3867 18.2713 12.2587 17.9015 12.2587C17.5693 12.2587 17.2501 12.362 17 12.5537V12.5556H16.9976C16.9701 12.5768 16.9434 12.599 16.9177 12.6223C16.3604 13.1272 15.6421 13.3693 14.9397 13.3693C14.2373 13.3693 13.519 13.1272 12.9617 12.6223C12.7016 12.3867 12.3477 12.2587 11.9779 12.2587C11.6081 12.2587 11.2542 12.3867 10.9941 12.6223C10.4368 13.1272 9.71848 13.3693 9.01612 13.3693C8.31377 13.3693 7.59546 13.1272 7.03814 12.6223C6.77801 12.3867 6.42415 12.2587 6.05433 12.2587C5.68452 12.2587 5.33066 12.3867 5.07053 12.6223C4.51321 13.1272 3.7949 13.3693 3.09254 13.3693H3.05544C3.0428 13.3693 3.03639 13.3695 3.03111 13.3696C3.0235 13.3698 3.01821 13.3699 3 13.3693V11.8853C3.03339 11.8874 3.06697 11.8884 3.10069 11.8884C3.46755 11.8866 3.81813 11.7587 4.07635 11.5248C4.63367 11.02 5.35198 10.7778 6.05433 10.7778C6.75669 10.7778 7.475 11.02 8.03232 11.5248C8.29245 11.7604 8.64631 11.8884 9.01612 11.8884C9.38594 11.8884 9.73979 11.7604 9.99993 11.5248C10.5572 11.02 11.2756 10.7778 11.9779 10.7778C12.0223 10.7778 12.0667 10.7787 12.1111 10.7807V8.33333H3V7H12.1111V5.44444C12.1111 4.83079 11.6136 4.33333 11 4.33333ZM15.6667 8.33333V11.707C15.45 11.8256 15.1988 11.8884 14.9397 11.8884C14.5699 11.8884 14.216 11.7604 13.9559 11.5248C13.7971 11.381 13.6253 11.2584 13.4444 11.1568V8.33333H15.6667ZM13.4444 5.44444V7H15.6667V5.44444C15.6667 4.83079 15.1692 4.33333 14.5556 4.33333C13.9419 4.33333 13.4444 4.83079 13.4444 5.44444Z" fill="#2C2E25"/>
<path d="M3 16.9249V15.4408C3.03339 15.4429 3.06697 15.444 3.10069 15.444C3.46755 15.4421 3.81813 15.3142 4.07635 15.0803C4.63367 14.5755 5.35198 14.3333 6.05433 14.3333C6.75669 14.3333 7.475 14.5755 8.03232 15.0803C8.29245 15.316 8.64631 15.444 9.01612 15.444C9.38594 15.444 9.73979 15.316 9.99993 15.0803C10.5572 14.5755 11.2756 14.3333 11.9779 14.3333C12.6803 14.3333 13.3986 14.5755 13.9559 15.0803C14.216 15.316 14.5699 15.444 14.9397 15.444C15.3095 15.444 15.6634 15.316 15.9235 15.0803C16.4808 14.5755 17.1991 14.3333 17.9015 14.3333C18.6038 14.3333 19.3222 14.5755 19.8795 15.0803C20.1178 15.2962 20.4348 15.4218 20.7707 15.4413V16.9235C20.0982 16.9031 19.4182 16.6606 18.8853 16.1779C18.6252 15.9423 18.2713 15.8142 17.9015 15.8142C17.5317 15.8142 17.1778 15.9423 16.9177 16.1779C16.3604 16.6827 15.6421 16.9249 14.9397 16.9249C14.2373 16.9249 13.519 16.6827 12.9617 16.1779C12.7016 15.9423 12.3477 15.8142 11.9779 15.8142C11.6081 15.8142 11.2542 15.9423 10.9941 16.1779C10.4368 16.6827 9.71848 16.9249 9.01612 16.9249C8.31377 16.9249 7.59546 16.6827 7.03814 16.1779C6.77801 15.9423 6.42415 15.8142 6.05433 15.8142C5.68452 15.8142 5.33066 15.9423 5.07053 16.1779C4.51321 16.6827 3.7949 16.9249 3.09254 16.9249H3.05544C3.0428 16.9249 3.03639 16.925 3.03111 16.9252C3.0235 16.9254 3.01821 16.9255 3 16.9249Z" fill="#2C2E25"/>
<path d="M3 20.7027V19.2186C3.03339 19.2207 3.06697 19.2218 3.10069 19.2218C3.46755 19.2199 3.81813 19.092 4.07635 18.8581C4.63367 18.3533 5.35198 18.1111 6.05433 18.1111C6.75669 18.1111 7.475 18.3533 8.03232 18.8581C8.29245 19.0937 8.64631 19.2218 9.01612 19.2218C9.38594 19.2218 9.73979 19.0937 9.99993 18.8581C10.5572 18.3533 11.2756 18.1111 11.9779 18.1111C12.6803 18.1111 13.3986 18.3533 13.9559 18.8581C14.216 19.0937 14.5699 19.2218 14.9397 19.2218C15.3095 19.2218 15.6634 19.0937 15.9235 18.8581C16.4808 18.3533 17.1991 18.1111 17.9015 18.1111C18.6038 18.1111 19.3222 18.3533 19.8795 18.8581C20.1178 19.074 20.4348 19.1996 20.7707 19.2191V20.7013C20.0982 20.6809 19.4182 20.4383 18.8853 19.9557C18.6252 19.72 18.2713 19.592 17.9015 19.592C17.5317 19.592 17.1778 19.72 16.9177 19.9557C16.3604 20.4605 15.6421 20.7027 14.9397 20.7027C14.2373 20.7027 13.519 20.4605 12.9617 19.9557C12.7016 19.72 12.3477 19.592 11.9779 19.592C11.6081 19.592 11.2542 19.72 10.9941 19.9557C10.4368 20.4605 9.71848 20.7027 9.01612 20.7027C8.31377 20.7027 7.59546 20.4605 7.03814 19.9557C6.77801 19.72 6.42415 19.592 6.05433 19.592C5.68452 19.592 5.33066 19.72 5.07053 19.9557C4.51321 20.4605 3.7949 20.7027 3.09254 20.7027H3.05544C3.0428 20.7026 3.03639 20.7028 3.03111 20.7029C3.0235 20.7031 3.01821 20.7033 3 20.7027Z" fill="#2C2E25"/>
</svg>
