<svg width="24" height="24" viewBox="0 0 24 24" fill="none" xmlns="http://www.w3.org/2000/svg">
<path d="M12.0009 6.32259C12.6231 5.52259 13.2823 4.9337 13.9786 4.55592C14.6749 4.17815 15.4231 3.98926 16.2231 3.98926C17.5416 3.98926 18.649 4.43741 19.5453 5.3337C20.4416 6.23 20.8898 7.34481 20.8898 8.67815C20.8898 8.79667 20.8935 8.90778 20.9009 9.01148C20.9083 9.11518 20.9046 9.2263 20.8898 9.34481C20.8898 9.53741 20.8194 9.69667 20.6786 9.82259C20.5379 9.94852 20.3712 10.0115 20.1786 10.0115C19.9861 10.0115 19.8231 9.94111 19.6898 9.80037C19.5564 9.65963 19.4898 9.49296 19.4898 9.30037C19.5046 9.19667 19.5194 9.09667 19.5342 9.00037C19.549 8.90407 19.5564 8.79667 19.5564 8.67815C19.5564 7.70037 19.2453 6.89667 18.6231 6.26704C18.0009 5.63741 17.2009 5.32259 16.2231 5.32259C15.512 5.32259 14.8564 5.5263 14.2564 5.9337C13.6564 6.34111 13.149 6.90037 12.7342 7.61148C12.6601 7.75963 12.5527 7.86704 12.412 7.9337C12.2712 8.00037 12.1268 8.0337 11.9786 8.0337C11.8305 8.0337 11.6898 7.99667 11.5564 7.92259C11.4231 7.84852 11.3194 7.73741 11.2453 7.58926C10.8453 6.87815 10.3416 6.32259 9.7342 5.92259C9.12679 5.52259 8.47494 5.32259 7.77865 5.32259C6.80087 5.32259 6.00087 5.63741 5.37865 6.26704C4.75642 6.89667 4.44531 7.70037 4.44531 8.67815C4.44531 8.79667 4.45272 8.90407 4.46753 9.00037C4.48235 9.09667 4.49716 9.19667 4.51198 9.30037C4.51198 9.49296 4.44531 9.65963 4.31198 9.80037C4.17865 9.94111 4.01568 10.0115 3.82309 10.0115C3.6305 10.0115 3.46383 9.94852 3.32309 9.82259C3.18235 9.69667 3.11198 9.53741 3.11198 9.34481C3.09716 9.2263 3.09346 9.11518 3.10087 9.01148C3.10828 8.90778 3.11198 8.79667 3.11198 8.67815C3.11198 7.34481 3.56013 6.23 4.45642 5.3337C5.35272 4.43741 6.46013 3.98926 7.77865 3.98926C8.62309 3.98926 9.40457 4.18926 10.1231 4.58926C10.8416 4.98926 11.4675 5.56704 12.0009 6.32259ZM12.0009 19.8115C11.8379 19.8115 11.6786 19.7856 11.5231 19.7337C11.3675 19.6819 11.2305 19.5967 11.112 19.4781C10.1638 18.6041 9.31568 17.8078 8.56753 17.0893C7.81939 16.3707 7.15642 15.7004 6.57865 15.0781C6.4305 14.9152 6.37124 14.7522 6.40087 14.5893C6.4305 14.4263 6.50457 14.2856 6.62309 14.167C6.74161 14.0485 6.88605 13.9819 7.05642 13.967C7.22679 13.9522 7.37865 14.0189 7.51198 14.167C8.07494 14.7596 8.72309 15.4115 9.45642 16.1226C10.1898 16.8337 11.0379 17.6337 12.0009 18.5226C12.9638 17.6337 13.8083 16.8337 14.5342 16.1226C15.2601 15.4115 15.9046 14.7596 16.4675 14.167C16.6009 14.0189 16.7527 13.9559 16.9231 13.9781C17.0935 14.0004 17.2379 14.0707 17.3564 14.1893C17.4749 14.3078 17.549 14.4522 17.5786 14.6226C17.6083 14.793 17.549 14.9596 17.4009 15.1226C16.8379 15.7448 16.1786 16.4078 15.4231 17.1115C14.6675 17.8152 13.8231 18.6041 12.8898 19.4781C12.7712 19.5967 12.6342 19.6819 12.4786 19.7337C12.3231 19.7856 12.1638 19.8115 12.0009 19.8115ZM11.1564 15.3226C11.2898 15.3226 11.4083 15.2819 11.512 15.2004C11.6157 15.1189 11.6898 15.0115 11.7342 14.8781L13.0898 10.8559L14.112 12.367C14.1861 12.4559 14.2675 12.5263 14.3564 12.5781C14.4453 12.63 14.549 12.6559 14.6675 12.6559H20.8898C21.0823 12.6559 21.2416 12.593 21.3675 12.467C21.4935 12.3411 21.5564 12.1819 21.5564 11.9893C21.5564 11.7967 21.4935 11.6374 21.3675 11.5115C21.2416 11.3856 21.0823 11.3226 20.8898 11.3226H15.0453L13.4453 8.96704C13.3712 8.86333 13.2823 8.78926 13.1786 8.74481C13.0749 8.70037 12.9638 8.67815 12.8453 8.67815C12.712 8.67815 12.5898 8.71889 12.4786 8.80037C12.3675 8.88185 12.2898 8.98926 12.2453 9.12259L10.912 13.1448L9.86754 11.6115C9.79346 11.5226 9.71568 11.4522 9.6342 11.4004C9.55272 11.3485 9.45272 11.3226 9.3342 11.3226H3.11198C2.91939 11.3226 2.76013 11.3856 2.6342 11.5115C2.50828 11.6374 2.44531 11.7967 2.44531 11.9893C2.44531 12.1819 2.50828 12.3411 2.6342 12.467C2.76013 12.593 2.91939 12.6559 3.11198 12.6559H8.9342L10.5342 15.0337C10.6083 15.1374 10.7009 15.2115 10.812 15.2559C10.9231 15.3004 11.0379 15.3226 11.1564 15.3226Z" fill="#2C2E25"/>
</svg>
