<svg width="24" height="24" viewBox="0 0 24 24" fill="none" xmlns="http://www.w3.org/2000/svg">
<path d="M13.95 18.8502L19.425 13.3752C19.575 13.2252 19.75 13.1502 19.95 13.1502C20.15 13.1502 20.325 13.2252 20.475 13.3752C20.625 13.5252 20.7 13.7002 20.7 13.9002C20.7 14.1002 20.625 14.2752 20.475 14.4252L14.475 20.4252C14.325 20.5752 14.15 20.6502 13.95 20.6502C13.75 20.6502 13.575 20.5752 13.425 20.4252L10.225 17.2252C10.075 17.0752 10 16.9002 10 16.7002C10 16.5002 10.075 16.3252 10.225 16.1752C10.375 16.0252 10.55 15.9502 10.75 15.9502C10.95 15.9502 11.125 16.0252 11.275 16.1752L13.95 18.8502ZM6.75 14.2002V13.8252H4.75C4.5375 13.8252 4.35942 13.7529 4.21575 13.6082C4.07192 13.4637 4 13.2845 4 13.0707C4 12.857 4.07192 12.6794 4.21575 12.5377C4.35942 12.396 4.5375 12.3252 4.75 12.3252H9.5V9.7002H4.775C4.55533 9.7002 4.37125 9.62595 4.22275 9.47745C4.07425 9.32878 4 9.1447 4 8.9252V4.8252C4 4.6127 4.07192 4.43453 4.21575 4.2907C4.35942 4.14703 4.5375 4.0752 4.75 4.0752H6.75V3.7002C6.75 3.4877 6.82233 3.30953 6.967 3.1657C7.1115 3.02203 7.29067 2.9502 7.5045 2.9502C7.71817 2.9502 7.89583 3.02203 8.0375 3.1657C8.17917 3.30953 8.25 3.4877 8.25 3.7002V4.0752H10.25C10.4625 4.0752 10.6407 4.14753 10.7845 4.2922C10.9282 4.4367 11 4.61586 11 4.8297C11 5.04336 10.9282 5.22103 10.7845 5.3627C10.6407 5.50436 10.4625 5.5752 10.25 5.5752H5.5V8.2002H10.225C10.4445 8.2002 10.6286 8.27444 10.7772 8.42294C10.9257 8.57161 11 8.7557 11 8.9752V13.0752C11 13.2877 10.9282 13.4658 10.7845 13.6094C10.6407 13.7533 10.4625 13.8252 10.25 13.8252H8.25V14.2002C8.25 14.4127 8.17767 14.5908 8.033 14.7344C7.8885 14.8783 7.70933 14.9502 7.4955 14.9502C7.28183 14.9502 7.10417 14.8783 6.9625 14.7344C6.82083 14.5908 6.75 14.4127 6.75 14.2002Z" fill="#1C1B1F"/>
</svg>
