<svg width="24" height="24" viewBox="0 0 24 24" fill="none" xmlns="http://www.w3.org/2000/svg">
<path d="M8.68051 17.0253C7.95595 17.0253 7.34498 16.7767 6.84762 16.2793C6.35025 15.7819 6.10156 15.171 6.10156 14.4464V7.44639C6.10156 6.42709 6.57437 5.68104 7.51998 5.20823C8.4656 4.73543 9.9577 4.49902 11.9963 4.49902C14.1086 4.49902 15.6191 4.72622 16.5279 5.1806C17.4366 5.63499 17.891 6.39025 17.891 7.44639V14.4464C17.891 15.171 17.6424 15.7819 17.145 16.2793C16.6476 16.7767 16.0366 17.0253 15.3121 17.0253L16.7674 18.0017C16.8779 18.0753 16.9116 18.1767 16.8687 18.3056C16.8257 18.4346 16.7366 18.499 16.6016 18.499H7.39104C7.25595 18.499 7.16691 18.4346 7.12393 18.3056C7.08095 18.1767 7.11472 18.0753 7.22525 18.0017L8.68051 17.0253ZM7.20683 10.6701H11.5174V7.81481H7.20683V10.6701ZM12.6226 10.6701H16.7858V7.81481H12.6226V10.6701ZM9.32635 14.9069C9.60807 14.9069 9.84718 14.8083 10.0437 14.6111C10.2402 14.4138 10.3384 14.1744 10.3384 13.8927C10.3384 13.6109 10.2398 13.3718 10.0426 13.1753C9.84533 12.9788 9.60586 12.8806 9.32414 12.8806C9.04242 12.8806 8.80332 12.9792 8.60683 13.1764C8.41033 13.3737 8.31209 13.6131 8.31209 13.8949C8.31209 14.1766 8.4107 14.4157 8.60793 14.6122C8.80516 14.8087 9.04463 14.9069 9.32635 14.9069ZM14.6685 14.9069C14.9502 14.9069 15.1893 14.8083 15.3858 14.6111C15.5823 14.4138 15.6805 14.1744 15.6805 13.8927C15.6805 13.6109 15.5819 13.3718 15.3847 13.1753C15.1874 12.9788 14.948 12.8806 14.6662 12.8806C14.3845 12.8806 14.1454 12.9792 13.9489 13.1764C13.7524 13.3737 13.6542 13.6131 13.6542 13.8949C13.6542 14.1766 13.7528 14.4157 13.95 14.6122C14.1473 14.8087 14.3867 14.9069 14.6685 14.9069ZM8.68051 16.0122H15.3121C15.7296 16.0122 16.0796 15.8587 16.3621 15.5517C16.6445 15.2446 16.7858 14.8762 16.7858 14.4464V11.7753H7.20683V14.4464C7.20683 14.8762 7.34805 15.2446 7.63051 15.5517C7.91297 15.8587 8.26297 16.0122 8.68051 16.0122ZM11.9963 5.60429C10.5226 5.60429 9.46033 5.69946 8.80946 5.88981C8.15858 6.08016 7.69191 6.35341 7.40946 6.70955H16.6384C16.4174 6.37797 15.9476 6.11087 15.2292 5.90823C14.5108 5.7056 13.4331 5.60429 11.9963 5.60429Z" fill="#FFF7EE"/>
</svg>
