<svg width="14" height="14" viewBox="0 0 14 14" fill="none" xmlns="http://www.w3.org/2000/svg">
<mask id="mask0_8019_261012" style="mask-type:alpha" maskUnits="userSpaceOnUse" x="0" y="0" width="14" height="14">
<rect width="14" height="14" fill="#D9D9D9"/>
</mask>
<g mask="url(#mask0_8019_261012)">
<path d="M2.76886 11.6663C2.64422 11.6663 2.54058 11.6244 2.45794 11.5405C2.3753 11.4567 2.33398 11.3528 2.33398 11.2288V2.77051C2.33398 2.64655 2.37618 2.54262 2.46057 2.45872C2.54486 2.37491 2.64937 2.33301 2.77411 2.33301C2.89875 2.33301 3.00239 2.37491 3.08503 2.45872C3.16766 2.54262 3.20898 2.64655 3.20898 2.77051V11.2288C3.20898 11.3528 3.16679 11.4567 3.0824 11.5405C2.99811 11.6244 2.8936 11.6663 2.76886 11.6663ZM6.99803 11.6663C6.87339 11.6663 6.76975 11.6244 6.68711 11.5405C6.60447 11.4567 6.56315 11.3528 6.56315 11.2288V9.75592C6.56315 9.62954 6.6051 9.52745 6.68901 9.44967C6.77281 9.3719 6.87669 9.33301 7.00065 9.33301C7.12461 9.33301 7.22854 9.37433 7.31244 9.45697C7.39625 9.53961 7.43815 9.64412 7.43815 9.77051V11.2288C7.43815 11.3528 7.39596 11.4567 7.31157 11.5405C7.22728 11.6244 7.12276 11.6663 6.99803 11.6663ZM11.2272 11.6663C11.1026 11.6663 10.9989 11.6244 10.9163 11.5405C10.8336 11.4567 10.7923 11.3528 10.7923 11.2288V2.77051C10.7923 2.64655 10.8345 2.54262 10.9189 2.45872C11.0032 2.37491 11.1077 2.33301 11.2324 2.33301C11.3571 2.33301 11.4607 2.37491 11.5434 2.45872C11.626 2.54262 11.6673 2.64655 11.6673 2.77051V11.2288C11.6673 11.3528 11.6251 11.4567 11.5407 11.5405C11.4564 11.6244 11.3519 11.6663 11.2272 11.6663ZM6.99803 8.15176C6.87339 8.15176 6.76975 8.10981 6.68711 8.0259C6.60447 7.9421 6.56315 7.83822 6.56315 7.71426V6.27051C6.56315 6.14655 6.60535 6.04262 6.68973 5.95872C6.77403 5.87491 6.87854 5.83301 7.00328 5.83301C7.12791 5.83301 7.23155 5.87491 7.31419 5.95872C7.39683 6.04262 7.43815 6.14655 7.43815 6.27051V7.72884C7.43815 7.85523 7.39596 7.95731 7.31157 8.03509C7.22728 8.11287 7.12276 8.15176 6.99803 8.15176ZM6.99803 4.66634C6.87339 4.66634 6.76975 4.62439 6.68711 4.54049C6.60447 4.45668 6.56315 4.3528 6.56315 4.22884V2.77051C6.56315 2.64655 6.60535 2.54262 6.68973 2.45872C6.77403 2.37491 6.87854 2.33301 7.00328 2.33301C7.12791 2.33301 7.23155 2.37491 7.31419 2.45872C7.39683 2.54262 7.43815 2.64655 7.43815 2.77051V4.22884C7.43815 4.3528 7.39596 4.45668 7.31157 4.54049C7.22728 4.62439 7.12276 4.66634 6.99803 4.66634Z" fill="#FFF7EE"/>
</g>
</svg>
