<svg width="24" height="24" viewBox="0 0 24 24" fill="none" xmlns="http://www.w3.org/2000/svg">
<path d="M3.85 22C3.05833 22 2.38542 21.7229 1.83125 21.1688C1.27708 20.6146 1 19.9417 1 19.15C1 18.3583 1.27708 17.6854 1.83125 17.1313C2.38542 16.5771 3.05833 16.3 3.85 16.3C4.64167 16.3 5.31458 16.5771 5.86875 17.1313C6.42292 17.6854 6.7 18.3583 6.7 19.15C6.7 19.9417 6.42292 20.6146 5.86875 21.1688C5.31458 21.7229 4.64167 22 3.85 22ZM3.85 20.5C4.25 20.5 4.575 20.375 4.825 20.125C5.075 19.875 5.2 19.55 5.2 19.15C5.2 18.75 5.075 18.425 4.825 18.175C4.575 17.925 4.25 17.8 3.85 17.8C3.45 17.8 3.125 17.925 2.875 18.175C2.625 18.425 2.5 18.75 2.5 19.15C2.5 19.55 2.625 19.875 2.875 20.125C3.125 20.375 3.45 20.5 3.85 20.5ZM12.35 13V20.5C12.35 20.9125 12.2032 21.2656 11.9095 21.5592C11.6157 21.8531 11.2625 22 10.85 22H8.4C8.1875 22 8.00942 21.9277 7.86575 21.783C7.72192 21.6385 7.65 21.4593 7.65 21.2455C7.65 21.0318 7.72192 20.8542 7.86575 20.7125C8.00942 20.5708 8.1875 20.5 8.4 20.5H10.85V13C10.85 12.3743 10.6273 11.8388 10.1818 11.3933C9.73625 10.9478 9.20067 10.725 8.575 10.725H3.55V14.05C3.55 14.2667 3.47767 14.4417 3.333 14.575C3.1885 14.7083 3.00933 14.775 2.7955 14.775C2.58183 14.775 2.40417 14.7031 2.2625 14.5592C2.12083 14.4156 2.05 14.2375 2.05 14.025V10.725C2.05 10.3125 2.19692 9.95933 2.49075 9.6655C2.78442 9.37183 3.1375 9.225 3.55 9.225H5.175V5.4C5.175 4.2 5.60833 3.16667 6.475 2.3C7.34167 1.43333 8.375 1 9.575 1C10.5083 1 11.3417 1.24167 12.075 1.725C12.8083 2.20833 13.35 2.875 13.7 3.725L20.65 20.5H22.25C22.4625 20.5 22.6407 20.5723 22.7845 20.717C22.9282 20.8615 23 21.0407 23 21.2545C23 21.4682 22.9282 21.6458 22.7845 21.7875C22.6407 21.9292 22.4625 22 22.25 22H17.1C16.8875 22 16.7094 21.9277 16.5658 21.783C16.4219 21.6385 16.35 21.4593 16.35 21.2455C16.35 21.0318 16.4219 20.8542 16.5658 20.7125C16.7094 20.5708 16.8875 20.5 17.1 20.5H19.1L12.225 4.35C11.975 3.76667 11.6292 3.3125 11.1875 2.9875C10.7458 2.6625 10.2083 2.5 9.575 2.5C8.775 2.5 8.09167 2.78333 7.525 3.35C6.95833 3.91667 6.675 4.6 6.675 5.4V9.225H8.579C9.62633 9.225 10.5167 9.59167 11.25 10.325C11.9833 11.0583 12.35 11.95 12.35 13Z" fill="#2C2E25"/>
</svg>
