<svg width="24" height="24" viewBox="0 0 24 24" fill="none" xmlns="http://www.w3.org/2000/svg">
<path d="M3.5 20C3.1 20 2.75 19.85 2.45 19.55C2.15 19.25 2 18.9 2 18.5V5.5C2 5.1 2.15 4.75 2.45 4.45C2.75 4.15 3.1 4 3.5 4H20.5C20.9 4 21.25 4.15 21.55 4.45C21.85 4.75 22 5.1 22 5.5V18.5C22 18.9 21.85 19.25 21.55 19.55C21.25 19.85 20.9 20 20.5 20H3.5ZM3.5 18.5H20.5V7.6H3.5V18.5ZM10.95 14L14.6 10.35C14.7522 10.2 14.9361 10.125 15.1518 10.125C15.3673 10.125 15.55 10.2008 15.7 10.3525C15.85 10.5043 15.925 10.6877 15.925 10.9025C15.925 11.1175 15.85 11.3 15.7 11.45L11.475 15.675C11.325 15.825 11.15 15.9 10.95 15.9C10.75 15.9 10.575 15.825 10.425 15.675L8.3 13.55C8.15 13.3978 8.075 13.2139 8.075 12.9983C8.075 12.7828 8.15083 12.6 8.3025 12.45C8.45433 12.3 8.63767 12.225 8.8525 12.225C9.0675 12.225 9.25 12.3 9.4 12.45L10.95 14Z" fill="#2C2E25"/>
</svg>
