<svg width="24" height="24" viewBox="0 0 24 24" fill="none" xmlns="http://www.w3.org/2000/svg">
<path d="M12 20.4502C13.7667 19.8669 15.2292 18.796 16.3875 17.2377C17.5458 15.6794 18.225 13.9335 18.425 12.0002H12V3.6252L5.5 6.0502V10.9502C5.5 11.1502 5.50417 11.321 5.5125 11.4627C5.52083 11.6044 5.54167 11.7835 5.575 12.0002H12V20.4502ZM12 21.9002C11.9167 21.9002 11.8375 21.8919 11.7625 21.8752C11.6875 21.8585 11.6083 21.8335 11.525 21.8002C9.20833 21.0169 7.375 19.6127 6.025 17.5877C4.675 15.5627 4 13.3419 4 10.9252V6.0252C4 5.70853 4.09167 5.42103 4.275 5.1627C4.45833 4.90436 4.69167 4.71686 4.975 4.6002L11.475 2.1752C11.6583 2.10853 11.8333 2.0752 12 2.0752C12.1667 2.0752 12.3417 2.10853 12.525 2.1752L19.025 4.6002C19.3083 4.71686 19.5417 4.90436 19.725 5.1627C19.9083 5.42103 20 5.70853 20 6.0252V10.9252C20 13.3419 19.325 15.5627 17.975 17.5877C16.625 19.6127 14.7917 21.0169 12.475 21.8002C12.3917 21.8335 12.3125 21.8585 12.2375 21.8752C12.1625 21.8919 12.0833 21.9002 12 21.9002Z" fill="#2C2E25"/>
</svg>
