<svg width="32" height="32" viewBox="0 0 32 32" fill="none" xmlns="http://www.w3.org/2000/svg">
<path d="M11.9 28C11.6167 28 11.3792 27.9041 11.1877 27.7123C10.9959 27.5208 10.9 27.2833 10.9 27V21.1H5C4.71667 21.1 4.47922 21.0041 4.28767 20.8123C4.09589 20.6208 4 20.3833 4 20.1V11.8667C4 11.5833 4.09589 11.3458 4.28767 11.154C4.47922 10.9624 4.71667 10.8667 5 10.8667H10.9V5C10.9 4.71667 10.9959 4.47911 11.1877 4.28733C11.3792 4.09578 11.6167 4 11.9 4H20.1333C20.4167 4 20.6542 4.09578 20.846 4.28733C21.0376 4.47911 21.1333 4.71667 21.1333 5V10.8667H27C27.2833 10.8667 27.5209 10.9624 27.7127 11.154C27.9042 11.3458 28 11.5833 28 11.8667V20.1C28 20.3833 27.9042 20.6208 27.7127 20.8123C27.5209 21.0041 27.2833 21.1 27 21.1H21.1333V27C21.1333 27.2833 21.0376 27.5208 20.846 27.7123C20.6542 27.9041 20.4167 28 20.1333 28H11.9ZM12.9 26H19.1333V19.1H26V12.8667H19.1333V6H12.9V12.8667H6V19.1H12.9V26Z" fill="#2C2E25"/>
</svg>
