<svg width="24" height="24" viewBox="0 0 24 24" fill="none" xmlns="http://www.w3.org/2000/svg">
<path d="M4 11.65C4 11.2183 4.14167 10.8521 4.425 10.5512C4.70833 10.2504 5.06667 10.1 5.5 10.1H6.15V6.5C6.15 6.0875 6.29692 5.73433 6.59075 5.4405C6.88442 5.14683 7.2375 5 7.65 5H16.325C16.7375 5 17.0907 5.14683 17.3845 5.4405C17.6782 5.73433 17.825 6.0875 17.825 6.5V10.1H18.5C18.9125 10.1 19.2657 10.2468 19.5595 10.5405C19.8532 10.8343 20 11.1875 20 11.6V15.85C20 16.1667 19.8875 16.4375 19.6625 16.6625C19.4375 16.8875 19.1667 17 18.85 17L18.425 18.725C18.399 18.8097 18.3537 18.8767 18.289 18.926C18.2242 18.9753 18.1528 19 18.075 19H17.875C17.7972 19 17.7258 18.9753 17.661 18.926C17.5963 18.8767 17.551 18.8097 17.525 18.725L17.1 17H6.925L6.475 18.725C6.449 18.8097 6.40367 18.8767 6.339 18.926C6.27417 18.9753 6.20283 19 6.125 19H5.925C5.84717 19 5.77583 18.9753 5.711 18.926C5.64633 18.8767 5.601 18.8097 5.575 18.725L5.15 17C4.83333 17 4.5625 16.8875 4.3375 16.6625C4.1125 16.4375 4 16.1667 4 15.85V11.65ZM12.75 10.1H16.325V6.5H12.75V10.1ZM7.65 10.1H11.25V6.5H7.65V10.1ZM5.5 15.5H18.5V11.6H5.5V15.5Z" fill="#2C2E25"/>
</svg>
