<svg width="24" height="24" viewBox="0 0 24 24" fill="none" xmlns="http://www.w3.org/2000/svg">
<path d="M11.45 21.25V17.25H6.575C6.36767 17.25 6.17 17.2083 5.982 17.125C5.794 17.0417 5.63333 16.9333 5.5 16.8L3.725 15.025C3.575 14.875 3.5 14.7 3.5 14.5C3.5 14.3 3.575 14.125 3.725 13.975L5.5 12.2C5.63333 12.0667 5.794 11.9583 5.982 11.875C6.17 11.7917 6.36767 11.75 6.575 11.75H11.45V9.5H4.95C4.7375 9.5 4.55942 9.42808 4.41575 9.28425C4.27192 9.14058 4.2 8.9625 4.2 8.75V4.75C4.2 4.5375 4.27192 4.35933 4.41575 4.2155C4.55942 4.07183 4.7375 4 4.95 4H11.45V2.75C11.45 2.5375 11.5223 2.35933 11.667 2.2155C11.8115 2.07183 11.9907 2 12.2045 2C12.4182 2 12.5958 2.07183 12.7375 2.2155C12.8792 2.35933 12.95 2.5375 12.95 2.75V4H17.825C18.0323 4 18.23 4.04167 18.418 4.125C18.606 4.20833 18.7667 4.31667 18.9 4.45L20.675 6.225C20.825 6.375 20.9 6.55 20.9 6.75C20.9 6.95 20.825 7.125 20.675 7.275L18.9 9.05C18.7667 9.18333 18.606 9.29167 18.418 9.375C18.23 9.45833 18.0323 9.5 17.825 9.5H12.95V11.75H19.45C19.6625 11.75 19.8407 11.8218 19.9845 11.9655C20.1282 12.1093 20.2 12.2875 20.2 12.5V16.5C20.2 16.7125 20.1282 16.8906 19.9845 17.0343C19.8407 17.1781 19.6625 17.25 19.45 17.25H12.95V21.25C12.95 21.4625 12.8777 21.6406 12.733 21.7843C12.5885 21.9281 12.4093 22 12.1955 22C11.9818 22 11.8042 21.9281 11.6625 21.7843C11.5208 21.6406 11.45 21.4625 11.45 21.25ZM5.7 8H17.825L19.075 6.75L17.825 5.5H5.7V8ZM6.575 15.75H18.7V13.25H6.575L5.325 14.5L6.575 15.75Z" fill="#2C2E25"/>
</svg>
