<svg width="24" height="24" viewBox="0 0 24 24" fill="none" xmlns="http://www.w3.org/2000/svg">
<path d="M11.9986 10.9994C11.1653 10.9994 10.4569 10.7078 9.87359 10.1244C9.29026 9.54109 8.99859 8.83276 8.99859 7.99942C8.99859 7.16609 9.29026 6.45776 9.87359 5.87442C10.4569 5.29109 11.1653 4.99942 11.9986 4.99942C12.8319 4.99942 13.5403 5.29109 14.1236 5.87442C14.7069 6.45776 14.9986 7.16609 14.9986 7.99942C14.9986 8.83276 14.7069 9.54109 14.1236 10.1244C13.5403 10.7078 12.8319 10.9994 11.9986 10.9994ZM11.9986 9.49942C12.4153 9.49942 12.7694 9.35359 13.0611 9.06192C13.3528 8.77026 13.4986 8.41609 13.4986 7.99942C13.4986 7.58276 13.3528 7.22859 13.0611 6.93692C12.7694 6.64526 12.4153 6.49942 11.9986 6.49942C11.5819 6.49942 11.2278 6.64526 10.9361 6.93692C10.6444 7.22859 10.4986 7.58276 10.4986 7.99942C10.4986 8.41609 10.6444 8.77026 10.9361 9.06192C11.2278 9.35359 11.5819 9.49942 11.9986 9.49942ZM5.99859 15.4994V15.0994C5.99859 14.6661 6.11526 14.2911 6.34859 13.9744C6.58193 13.6578 6.96526 13.3578 7.49859 13.0744C8.19859 12.7078 8.92359 12.4369 9.67359 12.2619C10.4236 12.0869 11.1986 11.9994 11.9986 11.9994C12.7986 11.9994 13.5736 12.0869 14.3236 12.2619C15.0736 12.4369 15.7986 12.7078 16.4986 13.0744C17.0319 13.3578 17.4153 13.6578 17.6486 13.9744C17.8819 14.2911 17.9986 14.6661 17.9986 15.0994V15.4994C17.9986 15.9161 17.8528 16.2703 17.5611 16.5619C17.2694 16.8536 16.9153 16.9994 16.4986 16.9994H7.49859C7.08193 16.9994 6.72776 16.8536 6.43609 16.5619C6.14443 16.2703 5.99859 15.9161 5.99859 15.4994ZM11.9986 13.4994C11.1986 13.4994 10.4236 13.6078 9.67359 13.8244C8.92359 14.0411 8.19859 14.3661 7.49859 14.7994V15.4994H16.4986V14.7994C15.7986 14.3661 15.0736 14.0411 14.3236 13.8244C13.5736 13.6078 12.7986 13.4994 11.9986 13.4994ZM16.7736 2.64942C16.5736 2.54942 16.4319 2.39942 16.3486 2.19942C16.2653 1.99942 16.2653 1.79942 16.3486 1.59942C16.4319 1.39942 16.5778 1.27026 16.7861 1.21192C16.9944 1.15359 17.1986 1.17442 17.3986 1.27442C18.5486 1.85776 19.5778 2.60359 20.4861 3.51192C21.3944 4.42026 22.1403 5.44942 22.7236 6.59942C22.8236 6.79942 22.8403 7.00359 22.7736 7.21192C22.7069 7.42026 22.5736 7.56609 22.3736 7.64942C22.1736 7.73276 21.9736 7.73276 21.7736 7.64942C21.5736 7.56609 21.4236 7.42442 21.3236 7.22442C20.8236 6.24109 20.1819 5.35776 19.3986 4.57442C18.6153 3.79109 17.7403 3.14942 16.7736 2.64942ZM7.17359 2.67442C6.17359 3.17442 5.29859 3.80359 4.54859 4.56192C3.79859 5.32026 3.17359 6.19942 2.67359 7.19942C2.57359 7.39942 2.42359 7.54526 2.22359 7.63692C2.02359 7.72859 1.82359 7.73276 1.62359 7.64942C1.42359 7.56609 1.29026 7.42026 1.22359 7.21192C1.15693 7.00359 1.17359 6.79942 1.27359 6.59942C1.85693 5.44942 2.60276 4.42026 3.51109 3.51192C4.41943 2.60359 5.44859 1.85776 6.59859 1.27442C6.79859 1.17442 7.00693 1.15776 7.22359 1.22442C7.44026 1.29109 7.59026 1.42442 7.67359 1.62442C7.75693 1.82442 7.74443 2.02442 7.63609 2.22442C7.52776 2.42442 7.37359 2.57442 7.17359 2.67442ZM2.67359 16.7744C3.17359 17.7744 3.80693 18.6536 4.57359 19.4119C5.34026 20.1703 6.22359 20.8078 7.22359 21.3244C7.42359 21.4244 7.56943 21.5744 7.66109 21.7744C7.75276 21.9744 7.75693 22.1744 7.67359 22.3744C7.59026 22.5744 7.44026 22.7078 7.22359 22.7744C7.00693 22.8411 6.79859 22.8244 6.59859 22.7244C5.44859 22.1411 4.41943 21.3953 3.51109 20.4869C2.60276 19.5786 1.85693 18.5494 1.27359 17.3994C1.17359 17.1994 1.15693 16.9911 1.22359 16.7744C1.29026 16.5578 1.42359 16.4078 1.62359 16.3244C1.82359 16.2411 2.02359 16.2453 2.22359 16.3369C2.42359 16.4286 2.57359 16.5744 2.67359 16.7744ZM21.3236 16.7994C21.4236 16.5994 21.5736 16.4494 21.7736 16.3494C21.9736 16.2494 22.1736 16.2411 22.3736 16.3244C22.5736 16.4078 22.7069 16.5578 22.7736 16.7744C22.8403 16.9911 22.8236 17.1994 22.7236 17.3994C22.1403 18.5494 21.3944 19.5786 20.4861 20.4869C19.5778 21.3953 18.5486 22.1411 17.3986 22.7244C17.1986 22.8244 16.9944 22.8411 16.7861 22.7744C16.5778 22.7078 16.4319 22.5744 16.3486 22.3744C16.2653 22.1744 16.2653 21.9744 16.3486 21.7744C16.4319 21.5744 16.5736 21.4244 16.7736 21.3244C17.7569 20.8244 18.6361 20.1911 19.4111 19.4244C20.1861 18.6578 20.8236 17.7828 21.3236 16.7994ZM11.9986 15.4994H16.4986H7.49859H11.9986Z" fill="#2C2E25"/>
</svg>
