<svg width="24" height="24" viewBox="0 0 24 24" fill="none" xmlns="http://www.w3.org/2000/svg">
<path fill-rule="evenodd" clip-rule="evenodd" d="M11.6011 3.11479C11.8621 2.95077 12.2003 2.96255 12.4503 3.14995L22.4503 10.6499L22.5089 10.6993C22.7884 10.9569 22.8332 11.3896 22.6002 11.7002C22.3672 12.0108 21.9394 12.0892 21.6138 11.8931L21.5499 11.8501L18.7501 9.75005V20.25C18.7501 20.6643 18.4143 21 18.0001 21C17.5859 21 17.2501 20.6642 17.2501 20.25V14.75H6.75007V20.25C6.75007 20.6643 6.41428 21 6.00007 21C5.58592 21 5.25007 20.6642 5.25007 20.25V9.75005L2.45026 11.8501C2.11892 12.0986 1.6485 12.0315 1.39997 11.7002C1.15159 11.3689 1.21866 10.8985 1.54987 10.6499L11.5499 3.14995L11.6011 3.11479ZM8.25007 7.50005H15.7501L12.0001 4.68755L8.25007 7.50005Z" fill="#2C2E25"/>
</svg>
