<svg width="14" height="14" viewBox="0 0 14 14" fill="none" xmlns="http://www.w3.org/2000/svg">
<path d="M6.56185 12.3958V11.55C6.56185 11.426 6.60404 11.3221 6.68843 11.2382C6.77272 11.1544 6.87724 11.1125 7.00197 11.1125C7.12661 11.1125 7.23025 11.1544 7.31289 11.2382C7.39553 11.3221 7.43685 11.426 7.43685 11.55V12.3958C7.43685 12.5198 7.39465 12.6237 7.31027 12.7075C7.22597 12.7914 7.12146 12.8333 6.99672 12.8333C6.87209 12.8333 6.76845 12.7914 6.68581 12.7075C6.60317 12.6237 6.56185 12.5198 6.56185 12.3958ZM1.60352 6.5625H2.44935C2.57331 6.5625 2.67724 6.60469 2.76114 6.68908C2.84495 6.77338 2.88685 6.87789 2.88685 7.00262C2.88685 7.12726 2.84495 7.2309 2.76114 7.31354C2.67724 7.39618 2.57331 7.4375 2.44935 7.4375H1.60352C1.47956 7.4375 1.37568 7.39531 1.29187 7.31092C1.20797 7.22662 1.16602 7.12211 1.16602 6.99738C1.16602 6.87274 1.20797 6.7691 1.29187 6.68646C1.37568 6.60382 1.47956 6.5625 1.60352 6.5625ZM11.5494 6.5625H12.3952C12.5191 6.5625 12.6231 6.60469 12.707 6.68908C12.7908 6.77338 12.8327 6.87789 12.8327 7.00262C12.8327 7.12726 12.7908 7.2309 12.707 7.31354C12.6231 7.39618 12.5191 7.4375 12.3952 7.4375H11.5494C11.4254 7.4375 11.3215 7.39531 11.2377 7.31092C11.1538 7.22662 11.1119 7.12211 11.1119 6.99738C11.1119 6.87274 11.1538 6.7691 11.2377 6.68646C11.3215 6.60382 11.4254 6.5625 11.5494 6.5625ZM10.4702 11.0833L9.88685 10.5146C9.79935 10.4271 9.75803 10.325 9.76289 10.2083C9.76775 10.0917 9.81393 9.98958 9.90143 9.90208C9.98893 9.81458 10.0934 9.77083 10.215 9.77083C10.3365 9.77083 10.441 9.81458 10.5285 9.90208L11.0973 10.4708C11.1848 10.5583 11.2285 10.6604 11.2285 10.7771C11.2285 10.8938 11.1848 10.9958 11.0973 11.0833C11.0098 11.1708 10.9053 11.2146 10.7837 11.2146C10.6622 11.2146 10.5577 11.1708 10.4702 11.0833ZM2.91602 10.4563L3.48477 9.8875C3.57227 9.8 3.67435 9.75868 3.79102 9.76354C3.90768 9.7684 4.00977 9.81458 4.09727 9.90208C4.18477 9.98958 4.22852 10.0941 4.22852 10.2156C4.22852 10.3372 4.18477 10.4417 4.09727 10.5292L3.52852 11.0979C3.44102 11.1854 3.33893 11.2267 3.22227 11.2219C3.1056 11.217 3.00352 11.1708 2.91602 11.0833C2.82852 10.9958 2.78477 10.8913 2.78477 10.7698C2.78477 10.6483 2.82852 10.5437 2.91602 10.4563ZM6.99935 9.65417C6.27018 9.65417 5.64553 9.3941 5.12539 8.87396C4.60525 8.35382 4.34518 7.72917 4.34518 7C4.34518 6.52361 4.44727 6.09583 4.65143 5.71667C4.8556 5.3375 5.14241 5.02639 5.51185 4.78333V2.625C5.51185 2.38437 5.59755 2.17836 5.76895 2.00696C5.94026 1.83565 6.14622 1.75 6.38685 1.75H7.61185C7.85247 1.75 8.05849 1.83565 8.22989 2.00696C8.4012 2.17836 8.48685 2.38437 8.48685 2.625V4.78333C8.85629 5.02639 9.1431 5.3375 9.34727 5.71667C9.55143 6.09583 9.65352 6.52361 9.65352 7C9.65352 7.72917 9.39345 8.35382 8.87331 8.87396C8.35317 9.3941 7.72852 9.65417 6.99935 9.65417ZM6.38685 4.47708C6.48893 4.44792 6.59102 4.42604 6.6931 4.41146C6.79518 4.39687 6.89727 4.38958 6.99935 4.38958C7.10143 4.38958 7.20352 4.39687 7.3056 4.41146C7.40768 4.42604 7.50977 4.44792 7.61185 4.47708V2.625H6.38685V4.47708ZM7.0011 8.77917C7.49577 8.77917 7.91567 8.60601 8.26081 8.25971C8.60595 7.9134 8.77852 7.49292 8.77852 6.99825C8.77852 6.50358 8.60536 6.08368 8.25906 5.73854C7.91275 5.3934 7.49227 5.22083 6.9976 5.22083C6.50293 5.22083 6.08303 5.39399 5.73789 5.74029C5.39275 6.0866 5.22018 6.50708 5.22018 7.00175C5.22018 7.49642 5.39334 7.91632 5.73964 8.26146C6.08595 8.6066 6.50643 8.77917 7.0011 8.77917Z" fill="#FFF7EE"/>
</svg>
