<svg width="24" height="24" viewBox="0 0 24 24" fill="none" xmlns="http://www.w3.org/2000/svg">
<mask id="mask0_8026_302402" style="mask-type:alpha" maskUnits="userSpaceOnUse" x="0" y="0" width="24" height="24">
<rect width="24" height="24" fill="#D9D9D9"/>
</mask>
<g mask="url(#mask0_8026_302402)">
<path d="M12 21.8996C11.9167 21.8996 11.8333 21.8934 11.75 21.8809C11.6667 21.8684 11.5833 21.8496 11.5 21.8246C9.2 21.0413 7.375 19.6371 6.025 17.6121C4.675 15.5871 4 13.3654 4 10.9469V6.04961C4 5.72861 4.09067 5.43978 4.272 5.18311C4.45317 4.92628 4.6875 4.74011 4.975 4.62461L11.475 2.19961C11.6583 2.13294 11.8333 2.09961 12 2.09961C12.1667 2.09961 12.3417 2.13294 12.525 2.19961L19.025 4.62461C19.3125 4.74011 19.5469 4.92628 19.7283 5.18311C19.9094 5.43978 20 5.72861 20 6.04961V10.9496C20 12.1163 19.8583 13.2746 19.575 14.4246C19.2917 15.5746 18.8 16.6579 18.1 17.6746C17.9667 17.8579 17.7875 17.9621 17.5625 17.9871C17.3375 18.0121 17.1417 17.9496 16.975 17.7996L14.075 15.0246C13.7583 15.2079 13.4237 15.3579 13.071 15.4746C12.7183 15.5913 12.3613 15.6496 12 15.6496C10.9667 15.6496 10.0875 15.2913 9.3625 14.5746C8.6375 13.8579 8.275 12.9788 8.275 11.9371C8.275 10.8954 8.6375 10.0121 9.3625 9.28711C10.0875 8.56211 10.9667 8.19961 12 8.19961C13.0333 8.19961 13.9125 8.56211 14.6375 9.28711C15.3625 10.0121 15.725 10.8996 15.725 11.9496C15.725 12.2996 15.675 12.6496 15.575 12.9996C15.475 13.3496 15.3167 13.6663 15.1 13.9496L17.3 16.0496C17.7 15.3329 18 14.5288 18.2 13.6371C18.4 12.7454 18.5 11.8496 18.5 10.9496V5.98761L12 3.62461L5.5 5.98761V10.9496C5.5 13.1329 6.10417 15.1038 7.3125 16.8621C8.52083 18.6204 10.0833 19.8163 12 20.4496C12.3833 20.3496 12.8375 20.1538 13.3625 19.8621C13.8875 19.5704 14.3667 19.2579 14.8 18.9246C14.9667 18.7913 15.15 18.7329 15.35 18.7496C15.55 18.7663 15.7167 18.8621 15.85 19.0371C15.9833 19.2121 16.0333 19.4079 16 19.6246C15.9667 19.8413 15.8583 20.0163 15.675 20.1496C15.1917 20.5163 14.6875 20.8329 14.1625 21.0996C13.6375 21.3663 13.0833 21.6079 12.5 21.8246C12.4167 21.8496 12.3333 21.8684 12.25 21.8809C12.1667 21.8934 12.0833 21.8996 12 21.8996ZM12.005 14.1496C12.6183 14.1496 13.1417 13.9371 13.575 13.5121C14.0083 13.0871 14.225 12.5621 14.225 11.9371C14.225 11.3121 14.0067 10.7829 13.57 10.3496C13.1332 9.91628 12.6082 9.69961 11.995 9.69961C11.3817 9.69961 10.8583 9.91628 10.425 10.3496C9.99167 10.7829 9.775 11.3121 9.775 11.9371C9.775 12.5621 9.99333 13.0871 10.43 13.5121C10.8668 13.9371 11.3918 14.1496 12.005 14.1496Z" fill="#2C2E25"/>
</g>
</svg>
