<svg width="24" height="24" viewBox="0 0 24 24" fill="none" xmlns="http://www.w3.org/2000/svg">
<path d="M20.498 21.999V6.74902C20.498 6.11569 20.2814 5.58236 19.848 5.14902C19.4147 4.71569 18.8814 4.49902 18.248 4.49902H16.998V6.04902C16.998 6.17752 16.9552 6.28469 16.8695 6.37052C16.7837 6.45619 16.6765 6.49902 16.548 6.49902H10.948C10.7814 6.49902 10.6605 6.40736 10.5855 6.22402C10.5105 6.04069 10.5064 5.88236 10.573 5.74902L12.473 1.64902C12.5564 1.44902 12.693 1.29069 12.883 1.17402C13.073 1.05736 13.2947 0.999023 13.548 0.999023H15.848C16.1765 0.999023 16.4504 1.12402 16.6695 1.37402C16.8885 1.62402 16.998 1.91569 16.998 2.24902V2.99902H18.248C19.298 2.99902 20.1855 3.36152 20.9105 4.08652C21.6355 4.81152 21.998 5.69902 21.998 6.74902V21.999H20.498ZM12.573 4.99902H15.498V2.49902H13.698L12.573 4.99902ZM4.74805 21.999C3.96888 21.999 3.3158 21.7354 2.7888 21.2083C2.26163 20.6813 1.99805 20.0282 1.99805 19.249V16.749C1.99805 16.2657 2.18138 15.8016 2.54805 15.3568C2.91471 14.9119 3.39805 14.6427 3.99805 14.549V11.999C3.99805 11.5865 4.14496 11.2334 4.4388 10.9395C4.73246 10.6459 5.08555 10.499 5.49805 10.499H13.998C14.4105 10.499 14.7637 10.6459 15.0575 10.9395C15.3512 11.2334 15.498 11.5865 15.498 11.999V14.549C16.098 14.6424 16.5814 14.899 16.948 15.319C17.3147 15.739 17.498 16.2157 17.498 16.749V19.249C17.498 20.0282 17.2345 20.6813 16.7075 21.2083C16.1804 21.7354 15.5272 21.999 14.748 21.999H4.74805ZM5.49805 11.999V14.874C5.79805 15.124 6.03971 15.4067 6.22305 15.722C6.40638 16.0375 6.49805 16.3799 6.49805 16.749V17.499H12.998V16.749C12.998 16.3799 13.0897 16.0375 13.273 15.722C13.4564 15.4067 13.698 15.124 13.998 14.874V11.999H5.49805ZM4.74805 20.499H14.748C15.123 20.499 15.4251 20.3688 15.6543 20.1083C15.8835 19.8479 15.998 19.5615 15.998 19.249V16.749C15.998 16.524 15.9293 16.3428 15.7918 16.2053C15.6543 16.0678 15.473 15.999 15.248 15.999C15.023 15.999 14.8418 16.0678 14.7043 16.2053C14.5668 16.3428 14.498 16.524 14.498 16.749V18.999H4.99805V16.749C4.99805 16.524 4.9293 16.3428 4.7918 16.2053C4.6543 16.0678 4.47305 15.999 4.24805 15.999C4.02305 15.999 3.8418 16.0678 3.7043 16.2053C3.5668 16.3428 3.49805 16.524 3.49805 16.749V19.249C3.49805 19.5615 3.61263 19.8479 3.8418 20.1083C4.07096 20.3688 4.37305 20.499 4.74805 20.499Z" fill="#2C2E25"/>
</svg>
