<svg width="24" height="24" viewBox="0 0 24 24" fill="none" xmlns="http://www.w3.org/2000/svg">
<path d="M11.8333 18.7C11.7778 18.7 11.7222 18.6958 11.6667 18.6875C11.6111 18.6792 11.5556 18.6667 11.5 18.65C9.96667 18.1278 8.75 17.1917 7.85 15.8417C6.95 14.4917 6.5 13.0105 6.5 11.3982V8.13333C6.5 7.91933 6.56044 7.72678 6.68133 7.55567C6.80211 7.38445 6.95833 7.26033 7.15 7.18333L11.4833 5.56667C11.6056 5.52222 11.7222 5.5 11.8333 5.5C11.9444 5.5 12.0611 5.52222 12.1833 5.56667L16.5167 7.18333C16.7083 7.26033 16.8646 7.38445 16.9855 7.55567C17.1063 7.72678 17.1667 7.91933 17.1667 8.13333V11.4C17.1667 12.1778 17.0722 12.95 16.8833 13.7167C16.6944 14.4833 16.3667 15.2056 15.9 15.8833C15.8111 16.0056 15.6917 16.075 15.5417 16.0917C15.3917 16.1083 15.2611 16.0667 15.15 15.9667L13.2167 14.1167C13.0056 14.2389 12.7824 14.3389 12.5473 14.4167C12.3122 14.4944 12.0742 14.5333 11.8333 14.5333C11.1444 14.5333 10.5583 14.2944 10.075 13.8167C9.59167 13.3389 9.35 12.7528 9.35 12.0583C9.35 11.3639 9.59167 10.775 10.075 10.2917C10.5583 9.80833 11.1444 9.56667 11.8333 9.56667C12.5222 9.56667 13.1083 9.80833 13.5917 10.2917C14.075 10.775 14.3167 11.3667 14.3167 12.0667C14.3167 12.3 14.2833 12.5333 14.2167 12.7667C14.15 13 14.0444 13.2111 13.9 13.4L15.3667 14.8C15.6333 14.3222 15.8333 13.7861 15.9667 13.1917C16.1 12.5972 16.1667 12 16.1667 11.4V8.092L11.8333 6.51667L7.5 8.092V11.4C7.5 12.8556 7.90278 14.1694 8.70833 15.3417C9.51389 16.5139 10.5556 17.3111 11.8333 17.7333C12.0889 17.6667 12.3917 17.5361 12.7417 17.3417C13.0917 17.1472 13.4111 16.9389 13.7 16.7167C13.8111 16.6278 13.9333 16.5889 14.0667 16.6C14.2 16.6111 14.3111 16.675 14.4 16.7917C14.4889 16.9083 14.5222 17.0389 14.5 17.1833C14.4778 17.3278 14.4056 17.4444 14.2833 17.5333C13.9611 17.7778 13.625 17.9889 13.275 18.1667C12.925 18.3444 12.5556 18.5056 12.1667 18.65C12.1111 18.6667 12.0556 18.6792 12 18.6875C11.9444 18.6958 11.8889 18.7 11.8333 18.7ZM11.8367 13.5333C12.2456 13.5333 12.5944 13.3917 12.8833 13.1083C13.1722 12.825 13.3167 12.475 13.3167 12.0583C13.3167 11.6417 13.1711 11.2889 12.88 11C12.5888 10.7111 12.2388 10.5667 11.83 10.5667C11.4211 10.5667 11.0722 10.7111 10.7833 11C10.4944 11.2889 10.35 11.6417 10.35 12.0583C10.35 12.475 10.4956 12.825 10.7867 13.1083C11.0779 13.3917 11.4279 13.5333 11.8367 13.5333Z" fill="#FFF7EE"/>
</svg>
