<svg width="24" height="24" viewBox="0 0 24 24" fill="none" xmlns="http://www.w3.org/2000/svg">
<path d="M18.5003 20.2746L12.9253 14.7246L14.3503 13.2996L19.9253 18.8746C20.1253 19.0746 20.2253 19.3079 20.2253 19.5746C20.2253 19.8413 20.1253 20.0746 19.9253 20.2746C19.7253 20.4746 19.4878 20.5746 19.2128 20.5746C18.9378 20.5746 18.7003 20.4746 18.5003 20.2746ZM3.97526 20.2746C3.77526 20.0746 3.67526 19.8371 3.67526 19.5621C3.67526 19.2871 3.77526 19.0496 3.97526 18.8496L10.5003 12.3246L7.82526 9.64961L7.77526 9.69961C7.62526 9.84961 7.45026 9.92461 7.25026 9.92461C7.05026 9.92461 6.87526 9.84961 6.72526 9.69961L6.15026 9.12461V11.5496C6.15026 11.7163 6.07109 11.8288 5.91276 11.8871C5.75443 11.9454 5.61693 11.9163 5.50026 11.7996L2.55026 8.84961C2.43359 8.73294 2.40443 8.59544 2.46276 8.43711C2.52109 8.27878 2.63359 8.19961 2.80026 8.19961H5.25026L4.57526 7.52461C4.42526 7.37461 4.35026 7.19961 4.35026 6.99961C4.35026 6.79961 4.42526 6.62461 4.57526 6.47461L7.32526 3.72461C7.60859 3.44128 7.91693 3.24961 8.25026 3.14961C8.58359 3.04961 8.95026 2.99961 9.35026 2.99961C9.70026 2.99961 10.0003 3.04544 10.2503 3.13711C10.5003 3.22878 10.7669 3.38294 11.0503 3.59961C11.1336 3.68294 11.1794 3.77461 11.1878 3.87461C11.1961 3.97461 11.1586 4.06628 11.0753 4.14961L8.70026 6.52461L9.37526 7.19961C9.52526 7.34961 9.60026 7.52461 9.60026 7.72461C9.60026 7.92461 9.52526 8.09961 9.37526 8.24961L9.30026 8.32461L11.9003 10.9246L14.9503 7.87461C14.8169 7.65794 14.7128 7.40794 14.6378 7.12461C14.5628 6.84128 14.5253 6.54128 14.5253 6.22461C14.5253 5.34128 14.8461 4.57878 15.4878 3.93711C16.1294 3.29544 16.8919 2.97461 17.7753 2.97461C17.9086 2.97461 18.0294 2.97878 18.1378 2.98711C18.2461 2.99544 18.3419 3.01628 18.4253 3.04961C18.5253 3.09961 18.5878 3.17878 18.6128 3.28711C18.6378 3.39544 18.6086 3.49128 18.5253 3.57461L17.0003 5.09961C16.9169 5.18294 16.8753 5.27461 16.8753 5.37461C16.8753 5.47461 16.9169 5.56628 17.0003 5.64961L18.3253 6.97461C18.4086 7.05794 18.5003 7.09961 18.6003 7.09961C18.7003 7.09961 18.7919 7.05794 18.8753 6.97461L20.3503 5.49961C20.4336 5.41628 20.5419 5.38294 20.6753 5.39961C20.8086 5.41628 20.9003 5.48294 20.9503 5.59961C20.9836 5.69961 21.0044 5.80378 21.0128 5.91211C21.0211 6.02044 21.0253 6.14128 21.0253 6.27461C21.0253 7.15794 20.7044 7.92044 20.0628 8.56211C19.4211 9.20378 18.6586 9.52461 17.7753 9.52461C17.4753 9.52461 17.2169 9.50378 17.0003 9.46211C16.7836 9.42044 16.5836 9.35794 16.4003 9.27461L5.37526 20.2996C5.17526 20.4996 4.94193 20.5954 4.67526 20.5871C4.40859 20.5788 4.17526 20.4746 3.97526 20.2746Z" fill="#2C2E25"/>
</svg>
