<svg width="24" height="24" viewBox="0 0 24 24" fill="none" xmlns="http://www.w3.org/2000/svg">
<path d="M12 20.5004C11.8217 20.5004 11.6402 20.4681 11.4555 20.4036C11.2708 20.3391 11.1084 20.236 10.9683 20.0941L9.65 18.8754C7.58333 16.9587 5.79167 15.1296 4.275 13.3879C2.75833 11.6462 2 9.82539 2 7.92539C2 6.42289 2.50417 5.16806 3.5125 4.16089C4.52083 3.15389 5.76667 2.65039 7.25 2.65039C8.1 2.65039 8.94167 2.85456 9.775 3.26289C10.6083 3.67122 11.35 4.34206 12 5.27539C12.7333 4.34206 13.4917 3.67122 14.275 3.26289C15.0583 2.85456 15.8833 2.65039 16.75 2.65039C18.2333 2.65039 19.4792 3.15389 20.4875 4.16089C21.4958 5.16806 22 6.42289 22 7.92539C22 9.82539 21.2417 11.6462 19.725 13.3879C18.2083 15.1296 16.4167 16.9587 14.35 18.8754L13.025 20.1004C12.8875 20.2401 12.7282 20.3416 12.547 20.4051C12.3657 20.4686 12.1833 20.5004 12 20.5004ZM11.35 6.92539C10.9 6.10872 10.3083 5.44206 9.575 4.92539C8.84167 4.40872 8.06667 4.15039 7.25 4.15039C6.15 4.15039 5.25 4.50456 4.55 5.21289C3.85 5.92122 3.5 6.82897 3.5 7.93614C3.5 8.89564 3.824 9.90581 4.472 10.9666C5.12 12.0276 5.895 13.0568 6.797 14.0541C7.699 15.0516 8.63333 15.9796 9.6 16.8379C10.5667 17.6962 11.3667 18.4171 12 19.0004C12.6333 18.4337 13.4333 17.7171 14.4 16.8504C15.3667 15.9837 16.3 15.0462 17.2 14.0379C18.1 13.0296 18.875 11.9946 19.525 10.9331C20.175 9.87164 20.5 8.86906 20.5 7.92539C20.5 6.82539 20.1458 5.92122 19.4375 5.21289C18.7292 4.50456 17.8333 4.15039 16.75 4.15039C15.9167 4.15039 15.1375 4.40456 14.4125 4.91289C13.6875 5.42122 13.0833 6.09206 12.6 6.92539C12.5167 7.05872 12.425 7.15456 12.325 7.21289C12.225 7.27122 12.1083 7.30039 11.975 7.30039C11.8417 7.30039 11.7208 7.27122 11.6125 7.21289C11.5042 7.15456 11.4167 7.05872 11.35 6.92539Z" fill="#1C1B1F"/>
</svg>
