<svg width="48" height="48" viewBox="0 0 48 48" fill="none" xmlns="http://www.w3.org/2000/svg">
<path d="M15.8611 36.5493C14.0843 36.5493 12.5862 35.9395 11.3665 34.7199C10.1469 33.5003 9.53711 32.0021 9.53711 30.2254V13.0604C9.53711 10.5609 10.6965 8.73148 13.0153 7.57209C15.3341 6.4127 18.9929 5.83301 23.9918 5.83301C29.1715 5.83301 32.8755 6.39012 35.1039 7.50434C37.3324 8.61856 38.4466 10.4706 38.4466 13.0604V30.2254C38.4466 32.0021 37.8368 33.5003 36.6172 34.7199C35.3975 35.9395 33.8994 36.5493 32.1226 36.5493L35.6911 38.9434C35.9622 39.1241 36.045 39.3725 35.9396 39.6887C35.8342 40.0049 35.6159 40.163 35.2846 40.163H12.6991C12.3678 40.163 12.1495 40.0049 12.0441 39.6887C11.9387 39.3725 12.0215 39.1241 12.2925 38.9434L15.8611 36.5493ZM12.2474 20.9653H22.8174V13.9638H12.2474V20.9653ZM25.5277 20.9653H35.7363V13.9638H25.5277V20.9653ZM17.4448 31.3547C18.1356 31.3547 18.7219 31.1128 19.2037 30.6292C19.6855 30.1456 19.9265 29.5584 19.9265 28.8675C19.9265 28.1767 19.6846 27.5904 19.201 27.1086C18.7174 26.6268 18.1301 26.3858 17.4393 26.3858C16.7485 26.3858 16.1622 26.6277 15.6804 27.1113C15.1985 27.5949 14.9576 28.1821 14.9576 28.873C14.9576 29.5638 15.1995 30.1501 15.6831 30.6319C16.1667 31.1137 16.7539 31.3547 17.4448 31.3547ZM30.5444 31.3547C31.2352 31.3547 31.8215 31.1128 32.3033 30.6292C32.7851 30.1456 33.0261 29.5584 33.0261 28.8675C33.0261 28.1767 32.7842 27.5904 32.3006 27.1086C31.817 26.6268 31.2298 26.3858 30.5389 26.3858C29.8481 26.3858 29.2618 26.6277 28.78 27.1113C28.2982 27.5949 28.0572 28.1821 28.0572 28.873C28.0572 29.5638 28.2991 30.1501 28.7827 30.6319C29.2663 31.1137 29.8535 31.3547 30.5444 31.3547ZM15.8611 34.0649H32.1226C33.1465 34.0649 34.0048 33.6885 34.6974 32.9356C35.39 32.1828 35.7363 31.2794 35.7363 30.2254V23.6756H12.2474V30.2254C12.2474 31.2794 12.5937 32.1828 13.2863 32.9356C13.9789 33.6885 14.8372 34.0649 15.8611 34.0649ZM23.9918 8.54327C20.3782 8.54327 17.7733 8.77665 16.1773 9.24342C14.5812 9.71019 13.4369 10.3802 12.7443 11.2535H35.375C34.8329 10.4405 33.681 9.78548 31.9194 9.28859C30.1577 8.79171 27.5152 8.54327 23.9918 8.54327Z" fill="#2C2E25"/>
</svg>
