<svg width="24" height="24" viewBox="0 0 24 24" fill="none" xmlns="http://www.w3.org/2000/svg">
<path d="M7.57469 21.2498V18.2748H1.42469C1.12469 18.2748 0.899687 18.1415 0.749688 17.8748C0.599688 17.6081 0.616354 17.3498 0.799688 17.0998L4.72469 11.4248H3.79969C3.49969 11.4248 3.27469 11.2915 3.12469 11.0248C2.97469 10.7581 2.99135 10.4998 3.17469 10.2498L8.37469 2.8748C8.52469 2.65814 8.73302 2.5498 8.99969 2.5498C9.26635 2.5498 9.47469 2.65814 9.62469 2.8748L11.9997 6.2498L14.3747 2.8748C14.5247 2.65814 14.733 2.5498 14.9997 2.5498C15.2664 2.5498 15.4747 2.65814 15.6247 2.8748L20.8247 10.2498C21.008 10.4998 21.0247 10.7581 20.8747 11.0248C20.7247 11.2915 20.4997 11.4248 20.1997 11.4248H19.2997L23.1997 17.0998C23.383 17.3498 23.3997 17.6081 23.2497 17.8748C23.0997 18.1415 22.8747 18.2748 22.5747 18.2748H16.4497V21.2498C16.4497 21.4665 16.3789 21.6456 16.2372 21.7873C16.0955 21.929 15.9164 21.9998 15.6997 21.9998H14.3247C14.108 21.9998 13.9289 21.929 13.7872 21.7873C13.6455 21.6456 13.5747 21.4665 13.5747 21.2498V18.2748H10.4497V21.2498C10.4497 21.4665 10.3789 21.6456 10.2372 21.7873C10.0955 21.929 9.91635 21.9998 9.69969 21.9998H8.32469C8.10802 21.9998 7.92885 21.929 7.78719 21.7873C7.64552 21.6456 7.57469 21.4665 7.57469 21.2498ZM16.9997 16.7748H21.1247L16.3997 9.9248H18.6247L14.9997 4.7748L12.9997 7.6498L14.8247 10.2498C15.008 10.4998 15.0247 10.7581 14.8747 11.0248C14.7247 11.2915 14.4997 11.4248 14.1997 11.4248H13.2997L16.9997 16.7748ZM2.89969 16.7748H15.1247L10.3997 9.9248H12.6247L8.99969 4.7748L5.37469 9.9248H7.62469L2.89969 16.7748ZM2.89969 16.7748H7.62469H5.37469H12.6247H10.3997H15.1247H2.89969ZM16.9997 16.7748H13.2997H15.6497H12.9997H18.6247H16.3997H21.1247H16.9997Z" fill="#2C2E25"/>
</svg>
