<svg width="24" height="24" viewBox="0 0 24 24" fill="none" xmlns="http://www.w3.org/2000/svg">
<path d="M17.7517 7.4998C17.1673 7.4998 16.6458 7.27105 16.1875 6.81355C15.7292 6.35605 15.5 5.8348 15.5 5.2498C15.5 4.5498 15.725 3.85397 16.175 3.1623C16.625 2.47064 17.05 1.85814 17.45 1.3248C17.5292 1.2248 17.6282 1.1748 17.747 1.1748C17.8657 1.1748 17.9667 1.2248 18.05 1.3248C18.45 1.85814 18.875 2.47064 19.325 3.1623C19.775 3.85397 20 4.5498 20 5.2498C20 5.8348 19.7714 6.35605 19.3143 6.81355C18.8571 7.27105 18.3363 7.4998 17.7517 7.4998ZM5.75 21.9998C4.7 21.9998 3.8125 21.6373 3.0875 20.9123C2.3625 20.1873 2 19.2998 2 18.2498V12.8498C2 12.3831 2.1125 11.9415 2.3375 11.5248C2.5625 11.1081 2.86667 10.7748 3.25 10.5248L10.85 5.6248C11.0333 5.49147 11.2125 5.45397 11.3875 5.5123C11.5625 5.57064 11.7167 5.66647 11.85 5.7998C12.0968 6.04864 12.2419 6.34422 12.2853 6.68655C12.3284 7.02872 12.2583 7.3498 12.075 7.6498L10.6 9.9998H19.25C19.4625 9.9998 19.6407 10.0716 19.7845 10.2153C19.9282 10.3591 20 10.5373 20 10.7498C20 10.9498 19.9282 11.1248 19.7845 11.2748C19.6407 11.4248 19.4625 11.4998 19.25 11.4998H9.25C8.95 11.4998 8.72917 11.3706 8.5875 11.1123C8.44583 10.854 8.45 10.5998 8.6 10.3498L10.175 7.8248L4.075 11.7998C3.89167 11.9165 3.75 12.0653 3.65 12.2463C3.55 12.4273 3.5 12.6285 3.5 12.8498V18.2498C3.5 18.8685 3.72033 19.3981 4.161 19.8388C4.60167 20.2795 5.13133 20.4998 5.75 20.4998H18.25C18.4625 20.4998 18.6407 20.5716 18.7845 20.7153C18.9282 20.8591 19 21.0373 19 21.2498C19 21.4498 18.9282 21.6248 18.7845 21.7748C18.6407 21.9248 18.4625 21.9998 18.25 21.9998H5.75ZM21.25 14.9998H12.75C12.5375 14.9998 12.3594 14.9275 12.2158 14.7828C12.0719 14.6383 12 14.4591 12 14.2453C12 14.0316 12.0719 13.854 12.2158 13.7123C12.3594 13.5706 12.5375 13.4998 12.75 13.4998H21.25C21.4625 13.4998 21.6407 13.5716 21.7845 13.7153C21.9282 13.8591 22 14.0373 22 14.2498C22 14.4498 21.9282 14.6248 21.7845 14.7748C21.6407 14.9248 21.4625 14.9998 21.25 14.9998ZM20.25 18.4998H12.75C12.5375 18.4998 12.3594 18.4275 12.2158 18.2828C12.0719 18.1383 12 17.9591 12 17.7453C12 17.5316 12.0719 17.354 12.2158 17.2123C12.3594 17.0706 12.5375 16.9998 12.75 16.9998H20.25C20.4625 16.9998 20.6407 17.0716 20.7845 17.2153C20.9282 17.3591 21 17.5373 21 17.7498C21 17.9498 20.9282 18.1248 20.7845 18.2748C20.6407 18.4248 20.4625 18.4998 20.25 18.4998Z" fill="#2C2E25"/>
</svg>
