<svg width="24" height="24" viewBox="0 0 24 24" fill="none" xmlns="http://www.w3.org/2000/svg">
<path fill-rule="evenodd" clip-rule="evenodd" d="M19.75 3C20.1642 3 20.5 3.33579 20.5 3.75V19.75C20.5 20.1642 20.1642 20.5 19.75 20.5H3.75C3.33579 20.5 3 20.1642 3 19.75V3.75C3 3.33579 3.33579 3 3.75 3H19.75ZM11.75 15.1279C11.3437 15.9582 10.7312 16.8713 9.80957 17.793C9.3277 18.2748 8.84819 18.6722 8.38184 19H15.1182C14.6518 18.6722 14.1723 18.2748 13.6904 17.793C12.7688 16.8713 12.1563 15.9582 11.75 15.1279ZM10.9902 12.5088C10.7828 12.531 10.5326 12.57 10.249 12.6426C9.35151 12.8722 8.09438 13.4253 6.76855 14.751C5.4426 16.0769 4.88977 17.3348 4.66016 18.2324C4.5876 18.5161 4.54757 18.7661 4.52539 18.9736C4.73306 18.9515 4.98353 18.9125 5.26758 18.8398C6.16518 18.6102 7.42307 18.0574 8.74902 16.7314C10.0747 15.4056 10.6278 14.1485 10.8574 13.251C10.9301 12.967 10.9681 12.7164 10.9902 12.5088ZM12.5088 12.5088C12.5309 12.7164 12.5699 12.967 12.6426 13.251C12.8721 14.1485 13.4253 15.4056 14.751 16.7314C16.0769 18.0574 17.3348 18.6102 18.2324 18.8398C18.516 18.9124 18.7662 18.9515 18.9736 18.9736C18.9514 18.7662 18.9124 18.516 18.8398 18.2324C18.6102 17.3348 18.0574 16.0769 16.7314 14.751C15.4056 13.4253 14.1485 12.8722 13.251 12.6426C12.967 12.5699 12.7164 12.531 12.5088 12.5088ZM4.5 15.1182C4.82801 14.6517 5.22601 14.1724 5.70801 13.6904C6.62953 12.769 7.54189 12.1562 8.37207 11.75C7.54178 11.3437 6.62867 10.7312 5.70703 9.80957C5.22495 9.32748 4.82792 8.84742 4.5 8.38086V15.1182ZM19 8.38086C18.6721 8.84742 18.275 9.32748 17.793 9.80957C16.871 10.7315 15.9574 11.3437 15.127 11.75C15.9573 12.1562 16.8702 12.7687 17.792 13.6904C18.274 14.1724 18.672 14.6517 19 15.1182V8.38086ZM4.52539 4.52539C4.54755 4.73308 4.58749 4.98349 4.66016 5.26758C4.88977 6.16516 5.4426 7.42308 6.76855 8.74902C8.09438 10.0747 9.3515 10.6278 10.249 10.8574C10.5325 10.9299 10.7828 10.968 10.9902 10.9902C10.968 10.7828 10.9299 10.5325 10.8574 10.249C10.6278 9.35151 10.0747 8.09438 8.74902 6.76855C7.42307 5.44261 6.16518 4.88977 5.26758 4.66016C4.98349 4.58749 4.73308 4.54755 4.52539 4.52539ZM18.9736 4.52539C18.7661 4.54757 18.5161 4.58761 18.2324 4.66016C17.3348 4.88977 16.0769 5.44261 14.751 6.76855C13.4253 8.09437 12.8721 9.35152 12.6426 10.249C12.5701 10.5326 12.531 10.7828 12.5088 10.9902C12.7164 10.9681 12.967 10.9301 13.251 10.8574C14.1485 10.6278 15.4056 10.0747 16.7314 8.74902C18.0574 7.42308 18.6102 6.16517 18.8398 5.26758C18.9125 4.98354 18.9515 4.73306 18.9736 4.52539ZM8.38184 4.5C8.84819 4.82783 9.3277 5.22518 9.80957 5.70703C10.7309 6.62837 11.3437 7.54102 11.75 8.37109C12.1563 7.54101 12.7691 6.62838 13.6904 5.70703C14.1723 5.22518 14.6518 4.82783 15.1182 4.5H8.38184Z" fill="#423E3E"/>
</svg>
