<svg width="24" height="24" viewBox="0 0 24 24" fill="none" xmlns="http://www.w3.org/2000/svg">
<path d="M14.573 23.001H10.998C10.7572 23.001 10.5553 22.9195 10.3923 22.7565C10.2295 22.5936 10.148 22.3918 10.148 22.151V15.901C10.148 15.6601 10.2295 15.4582 10.3923 15.2952C10.5553 15.1324 10.7572 15.051 10.998 15.051H12.023V11.726H3.49805C3.08555 11.726 2.73246 11.5791 2.4388 11.2852C2.14496 10.9916 1.99805 10.6385 1.99805 10.226V5.40098C1.99805 4.98848 2.14496 4.63531 2.4388 4.34148C2.73246 4.04781 3.08555 3.90098 3.49805 3.90098H5.57305V2.85098C5.57305 2.61014 5.65446 2.40831 5.8173 2.24548C5.9803 2.08248 6.18221 2.00098 6.42305 2.00098H19.148C19.3889 2.00098 19.5907 2.08248 19.7535 2.24548C19.9165 2.40831 19.998 2.61014 19.998 2.85098V6.65098C19.998 6.89181 19.9165 7.09364 19.7535 7.25648C19.5907 7.41948 19.3889 7.50098 19.148 7.50098H6.42305C6.18221 7.50098 5.9803 7.41948 5.8173 7.25648C5.65446 7.09364 5.57305 6.89181 5.57305 6.65098V5.40098H3.49805V10.226H12.023C12.4355 10.226 12.7887 10.3728 13.0825 10.6665C13.3762 10.9603 13.523 11.3135 13.523 11.726V15.051H14.573C14.8139 15.051 15.0157 15.1324 15.1785 15.2952C15.3415 15.4582 15.423 15.6601 15.423 15.901V22.151C15.423 22.3918 15.3415 22.5936 15.1785 22.7565C15.0157 22.9195 14.8139 23.001 14.573 23.001ZM11.648 21.501H13.923V16.551H11.648V21.501ZM7.07305 6.00098H18.498V3.50098H7.07305V6.00098Z" fill="#2C2E25"/>
</svg>
