<svg width="24" height="24" viewBox="0 0 24 24" fill="none" xmlns="http://www.w3.org/2000/svg">
<path d="M7.9315 18.2742C7.04314 18.2742 6.29405 17.9693 5.68425 17.3595C5.07444 16.7497 4.76953 16.0006 4.76953 15.1122V6.5297C4.76953 5.27997 5.34923 4.36525 6.50862 3.78556C7.66801 3.20586 9.49743 2.91602 11.9969 2.91602C14.5867 2.91602 16.4387 3.19457 17.5529 3.75168C18.6672 4.30879 19.2243 5.2348 19.2243 6.5297V15.1122C19.2243 16.0006 18.9194 16.7497 18.3096 17.3595C17.6997 17.9693 16.9507 18.2742 16.0623 18.2742L17.8465 19.4712C17.9821 19.5616 18.0235 19.6858 17.9708 19.8439C17.9181 20.002 17.8089 20.081 17.6433 20.081H6.35052C6.18489 20.081 6.07573 20.002 6.02303 19.8439C5.97033 19.6858 6.01174 19.5616 6.14725 19.4712L7.9315 18.2742ZM6.12466 10.4822H11.4097V6.98141H6.12466V10.4822ZM12.7648 10.4822H17.8691V6.98141H12.7648V10.4822ZM8.72335 15.6768C9.06876 15.6768 9.36192 15.5559 9.60283 15.3141C9.84375 15.0723 9.9642 14.7787 9.9642 14.4333C9.9642 14.0879 9.84329 13.7947 9.60148 13.5538C9.35966 13.3129 9.06605 13.1924 8.72064 13.1924C8.37524 13.1924 8.08207 13.3133 7.84116 13.5552C7.60025 13.797 7.47979 14.0906 7.47979 14.436C7.47979 14.7814 7.6007 15.0746 7.84252 15.3155C8.08433 15.5564 8.37795 15.6768 8.72335 15.6768ZM15.2732 15.6768C15.6186 15.6768 15.9117 15.5559 16.1526 15.3141C16.3935 15.0723 16.514 14.7787 16.514 14.4333C16.514 14.0879 16.3931 13.7947 16.1513 13.5538C15.9095 13.3129 15.6159 13.1924 15.2704 13.1924C14.925 13.1924 14.6319 13.3133 14.391 13.5552C14.1501 13.797 14.0296 14.0906 14.0296 14.436C14.0296 14.7814 14.1505 15.0746 14.3923 15.3155C14.6341 15.5564 14.9277 15.6768 15.2732 15.6768ZM7.9315 17.032H16.0623C16.5742 17.032 17.0034 16.8438 17.3497 16.4673C17.696 16.0909 17.8691 15.6392 17.8691 15.1122V11.8373H6.12466V15.1122C6.12466 15.6392 6.29782 16.0909 6.64413 16.4673C6.99044 16.8438 7.41957 17.032 7.9315 17.032ZM11.9969 4.27115C10.1901 4.27115 8.88763 4.38784 8.0896 4.62122C7.29158 4.85461 6.71941 5.18963 6.3731 5.62628H17.6885C17.4174 5.21974 16.8415 4.89225 15.9607 4.64381C15.0798 4.39537 13.7586 4.27115 11.9969 4.27115Z" fill="#2C2E25"/>
</svg>
