<svg width="32" height="32" viewBox="0 0 32 32" fill="none" xmlns="http://www.w3.org/2000/svg">
<path d="M16.0007 29.3336C13.0229 29.3336 10.5007 28.3002 8.43398 26.2336C6.36732 24.1669 5.33398 21.6447 5.33398 18.6669C5.33398 16.0891 6.12843 13.5891 7.71732 11.1669C9.30621 8.74467 11.4895 6.678 14.2673 4.96689C14.6451 4.72245 15.0284 4.71689 15.4173 4.95023C15.8062 5.18356 16.0007 5.53356 16.0007 6.00023V8.40023C16.0007 9.15578 16.2618 9.78912 16.784 10.3002C17.3062 10.8113 17.9451 11.0669 18.7007 11.0669C19.1007 11.0669 19.4729 10.9836 19.8173 10.8169C20.1618 10.6502 20.4673 10.4002 20.734 10.0669C20.9118 9.86689 21.1118 9.72801 21.334 9.65023C21.5562 9.57245 21.7673 9.60023 21.9673 9.73356C23.434 10.7336 24.584 12.0224 25.4173 13.6002C26.2507 15.178 26.6673 16.8669 26.6673 18.6669C26.6673 21.6447 25.634 24.1669 23.5673 26.2336C21.5007 28.3002 18.9784 29.3336 16.0007 29.3336ZM7.33398 18.6669C7.33398 20.0669 7.65065 21.3836 8.28398 22.6169C8.91732 23.8502 9.80065 24.878 10.934 25.7002C10.8451 25.4336 10.7784 25.1613 10.734 24.8836C10.6895 24.6058 10.6673 24.3336 10.6673 24.0669C10.6673 23.3558 10.8007 22.6891 11.0673 22.0669C11.334 21.4447 11.7229 20.878 12.234 20.3669L16.0007 16.6669L19.7673 20.3669C20.2784 20.878 20.6673 21.4447 20.934 22.0669C21.2007 22.6891 21.334 23.3558 21.334 24.0669C21.334 24.3336 21.3118 24.6058 21.2673 24.8836C21.2229 25.1613 21.1562 25.4336 21.0673 25.7002C22.2007 24.878 23.084 23.8502 23.7173 22.6169C24.3507 21.3836 24.6673 20.0669 24.6673 18.6669C24.6673 17.4669 24.4118 16.2947 23.9007 15.1502C23.3895 14.0058 22.6562 12.9558 21.7007 12.0002C21.234 12.3336 20.7451 12.5947 20.234 12.7836C19.7229 12.9725 19.2118 13.0669 18.7007 13.0669C17.3451 13.0669 16.2229 12.6058 15.334 11.6836C14.4451 10.7613 14.0007 9.60023 14.0007 8.20023V7.53356C11.9562 9.00023 10.334 10.7391 9.13398 12.7502C7.93398 14.7613 7.33398 16.7336 7.33398 18.6669ZM16.0007 19.4669L13.634 21.8002C13.3229 22.1113 13.084 22.4558 12.9173 22.8336C12.7507 23.2113 12.6673 23.6224 12.6673 24.0669C12.6673 24.978 12.9895 25.7502 13.634 26.3836C14.2784 27.0169 15.0673 27.3336 16.0007 27.3336C16.934 27.3336 17.7229 27.0169 18.3673 26.3836C19.0118 25.7502 19.334 24.978 19.334 24.0669C19.334 23.6224 19.2507 23.2113 19.084 22.8336C18.9173 22.4558 18.6784 22.1113 18.3673 21.8002L16.0007 19.4669Z" fill="#2C2E25"/>
</svg>
