<svg width="24" height="24" viewBox="0 0 24 24" fill="none" xmlns="http://www.w3.org/2000/svg">
<path d="M4.85078 16.9748L7.30078 19.4248C7.45078 19.5748 7.52578 19.7498 7.52578 19.9498C7.52578 20.1498 7.45078 20.3248 7.30078 20.4748C7.15078 20.6248 6.97578 20.6998 6.77578 20.6998C6.57578 20.6998 6.40078 20.6248 6.25078 20.4748L2.52578 16.7498C2.44245 16.6665 2.38411 16.5831 2.35078 16.4998C2.31745 16.4165 2.30078 16.3248 2.30078 16.2248C2.30078 16.1248 2.31745 16.0331 2.35078 15.9498C2.38411 15.8665 2.44245 15.7831 2.52578 15.6998L6.27578 11.9498C6.42578 11.7998 6.60078 11.7248 6.80078 11.7248C7.00078 11.7248 7.17578 11.7998 7.32578 11.9498C7.47578 12.0998 7.55078 12.2748 7.55078 12.4748C7.55078 12.6748 7.47578 12.8498 7.32578 12.9998L4.85078 15.4748H20.2508C20.4674 15.4748 20.6466 15.5456 20.7883 15.6873C20.9299 15.829 21.0008 16.0081 21.0008 16.2248C21.0008 16.4415 20.9299 16.6206 20.7883 16.7623C20.6466 16.904 20.4674 16.9748 20.2508 16.9748H4.85078ZM19.1508 8.5498H3.75078C3.53411 8.5498 3.35495 8.47897 3.21328 8.3373C3.07161 8.19564 3.00078 8.01647 3.00078 7.7998C3.00078 7.58314 3.07161 7.40397 3.21328 7.2623C3.35495 7.12064 3.53411 7.0498 3.75078 7.0498H19.1508L16.6758 4.5748C16.5258 4.4248 16.4508 4.2498 16.4508 4.0498C16.4508 3.8498 16.5258 3.6748 16.6758 3.5248C16.8258 3.3748 17.0008 3.2998 17.2008 3.2998C17.4008 3.2998 17.5758 3.3748 17.7258 3.5248L21.4758 7.2748C21.5591 7.35814 21.6174 7.44147 21.6508 7.5248C21.6841 7.60814 21.7008 7.6998 21.7008 7.7998C21.7008 7.8998 21.6841 7.99147 21.6508 8.0748C21.6174 8.15814 21.5591 8.24147 21.4758 8.3248L17.7508 12.0498C17.6008 12.1998 17.4258 12.2748 17.2258 12.2748C17.0258 12.2748 16.8508 12.1998 16.7008 12.0498C16.5508 11.8998 16.4758 11.7248 16.4758 11.5248C16.4758 11.3248 16.5508 11.1498 16.7008 10.9998L19.1508 8.5498Z" fill="#2C2E25"/>
</svg>
