<svg width="12" height="12" viewBox="0 0 12 12" fill="none" xmlns="http://www.w3.org/2000/svg">
<mask id="mask0_8486_58872" style="mask-type:alpha" maskUnits="userSpaceOnUse" x="0" y="0" width="12" height="12">
<rect width="12" height="12" fill="#D9D9D9"/>
</mask>
<g mask="url(#mask0_8486_58872)">
<path d="M6 11C5.3 11 4.64583 10.8687 4.0375 10.6062C3.42917 10.3438 2.9 9.9875 2.45 9.5375C2 9.0875 1.64583 8.55625 1.3875 7.94375C1.12917 7.33125 1 6.675 1 5.975C1 5.275 1.12917 4.62292 1.3875 4.01875C1.64583 3.41458 2 2.8875 2.45 2.4375C2.9 1.9875 3.42917 1.63542 4.0375 1.38125C4.64583 1.12708 5.3 1 6 1C6.7 1 7.35417 1.12708 7.9625 1.38125C8.57083 1.63542 9.1 1.9875 9.55 2.4375C10 2.8875 10.3542 3.41458 10.6125 4.01875C10.8708 4.62292 11 5.275 11 5.975C11 6.675 10.8708 7.33125 10.6125 7.94375C10.3542 8.55625 10 9.0875 9.55 9.5375C9.1 9.9875 8.57083 10.3438 7.9625 10.6062C7.35417 10.8687 6.7 11 6 11ZM6 10.275C6.29167 9.975 6.53542 9.63125 6.73125 9.24375C6.92708 8.85625 7.0875 8.39583 7.2125 7.8625H4.8C4.91667 8.3625 5.07292 8.8125 5.26875 9.2125C5.46458 9.6125 5.70833 9.96667 6 10.275ZM4.9375 10.125C4.72917 9.80833 4.55 9.46667 4.4 9.1C4.25 8.73333 4.125 8.32083 4.025 7.8625H2.15C2.46667 8.45417 2.83333 8.91875 3.25 9.25625C3.66667 9.59375 4.22917 9.88333 4.9375 10.125ZM7.075 10.1125C7.675 9.92083 8.21458 9.63333 8.69375 9.25C9.17292 8.86667 9.55833 8.40417 9.85 7.8625H7.9875C7.87917 8.3125 7.75208 8.72083 7.60625 9.0875C7.46042 9.45417 7.28333 9.79583 7.075 10.1125ZM1.9 7.1125H3.8875C3.8625 6.8875 3.84792 6.68542 3.84375 6.50625C3.83958 6.32708 3.8375 6.15 3.8375 5.975C3.8375 5.76667 3.84167 5.58125 3.85 5.41875C3.85833 5.25625 3.875 5.075 3.9 4.875H1.9C1.84167 5.075 1.80208 5.25417 1.78125 5.4125C1.76042 5.57083 1.75 5.75833 1.75 5.975C1.75 6.19167 1.76042 6.38542 1.78125 6.55625C1.80208 6.72708 1.84167 6.9125 1.9 7.1125ZM4.6625 7.1125H7.35C7.38333 6.85417 7.40417 6.64375 7.4125 6.48125C7.42083 6.31875 7.425 6.15 7.425 5.975C7.425 5.80833 7.42083 5.64792 7.4125 5.49375C7.40417 5.33958 7.38333 5.13333 7.35 4.875H4.6625C4.62917 5.13333 4.60833 5.33958 4.6 5.49375C4.59167 5.64792 4.5875 5.80833 4.5875 5.975C4.5875 6.15 4.59167 6.31875 4.6 6.48125C4.60833 6.64375 4.62917 6.85417 4.6625 7.1125ZM8.1 7.1125H10.1C10.1583 6.9125 10.1979 6.72708 10.2188 6.55625C10.2396 6.38542 10.25 6.19167 10.25 5.975C10.25 5.75833 10.2396 5.57083 10.2188 5.4125C10.1979 5.25417 10.1583 5.075 10.1 4.875H8.1125C8.1375 5.16667 8.15417 5.38958 8.1625 5.54375C8.17083 5.69792 8.175 5.84167 8.175 5.975C8.175 6.15833 8.16875 6.33125 8.15625 6.49375C8.14375 6.65625 8.125 6.8625 8.1 7.1125ZM7.975 4.125H9.85C9.575 3.55 9.19792 3.07083 8.71875 2.6875C8.23958 2.30417 7.6875 2.03333 7.0625 1.875C7.27083 2.18333 7.44792 2.51667 7.59375 2.875C7.73958 3.23333 7.86667 3.65 7.975 4.125ZM4.8 4.125H7.225C7.13333 3.68333 6.97917 3.25625 6.7625 2.84375C6.54583 2.43125 6.29167 2.06667 6 1.75C5.73333 1.975 5.50833 2.27083 5.325 2.6375C5.14167 3.00417 4.96667 3.5 4.8 4.125ZM2.15 4.125H4.0375C4.12917 3.675 4.24583 3.27292 4.3875 2.91875C4.52917 2.56458 4.70833 2.22083 4.925 1.8875C4.3 2.04583 3.75417 2.3125 3.2875 2.6875C2.82083 3.0625 2.44167 3.54167 2.15 4.125Z" fill="#1C1B1F"/>
</g>
</svg>
