<svg width="48" height="48" viewBox="0 0 48 48" fill="none" xmlns="http://www.w3.org/2000/svg">
<path d="M24 44.0003C19.5333 44.0003 15.75 42.4503 12.65 39.3503C9.55 36.2503 8 32.467 8 28.0003C8 24.1337 9.19167 20.3837 11.575 16.7503C13.9583 13.117 17.2333 10.017 21.4 7.45034C21.9667 7.08367 22.5417 7.07534 23.125 7.42534C23.7083 7.77534 24 8.30034 24 9.00034V12.6003C24 13.7337 24.3917 14.6837 25.175 15.4503C25.9583 16.217 26.9167 16.6003 28.05 16.6003C28.65 16.6003 29.2083 16.4753 29.725 16.2253C30.2417 15.9753 30.7 15.6003 31.1 15.1003C31.3667 14.8003 31.6667 14.592 32 14.4753C32.3333 14.3587 32.65 14.4003 32.95 14.6003C35.15 16.1003 36.875 18.0337 38.125 20.4003C39.375 22.767 40 25.3003 40 28.0003C40 32.467 38.45 36.2503 35.35 39.3503C32.25 42.4503 28.4667 44.0003 24 44.0003ZM11 28.0003C11 30.1003 11.475 32.0753 12.425 33.9253C13.375 35.7753 14.7 37.317 16.4 38.5503C16.2667 38.1503 16.1667 37.742 16.1 37.3253C16.0333 36.9087 16 36.5003 16 36.1003C16 35.0337 16.2 34.0337 16.6 33.1003C17 32.167 17.5833 31.317 18.35 30.5503L24 25.0003L29.65 30.5503C30.4167 31.317 31 32.167 31.4 33.1003C31.8 34.0337 32 35.0337 32 36.1003C32 36.5003 31.9667 36.9087 31.9 37.3253C31.8333 37.742 31.7333 38.1503 31.6 38.5503C33.3 37.317 34.625 35.7753 35.575 33.9253C36.525 32.0753 37 30.1003 37 28.0003C37 26.2003 36.6167 24.442 35.85 22.7253C35.0833 21.0087 33.9833 19.4337 32.55 18.0003C31.85 18.5003 31.1167 18.892 30.35 19.1753C29.5833 19.4587 28.8167 19.6003 28.05 19.6003C26.0167 19.6003 24.3333 18.9087 23 17.5253C21.6667 16.142 21 14.4003 21 12.3003V11.3003C17.9333 13.5003 15.5 16.1087 13.7 19.1253C11.9 22.142 11 25.1003 11 28.0003ZM24 29.2003L20.45 32.7003C19.9833 33.167 19.625 33.6837 19.375 34.2503C19.125 34.817 19 35.4337 19 36.1003C19 37.467 19.4833 38.6253 20.45 39.5753C21.4167 40.5253 22.6 41.0003 24 41.0003C25.4 41.0003 26.5833 40.5253 27.55 39.5753C28.5167 38.6253 29 37.467 29 36.1003C29 35.4337 28.875 34.817 28.625 34.2503C28.375 33.6837 28.0167 33.167 27.55 32.7003L24 29.2003Z" fill="#2C2E25"/>
</svg>
