<svg width="32" height="32" viewBox="0 0 32 32" fill="none" xmlns="http://www.w3.org/2000/svg">
<path d="M16.0007 17.6333L18.7673 19.7333C18.8784 19.7999 18.984 19.7999 19.084 19.7333C19.184 19.6666 19.2118 19.5777 19.1673 19.4666L18.0007 16.0333L20.9007 13.9666C21.0118 13.8999 21.0451 13.8055 21.0007 13.6833C20.9562 13.561 20.8784 13.4999 20.7673 13.4999H17.2673L16.234 10.1333C16.1895 10.0222 16.1118 9.9666 16.0007 9.9666C15.8895 9.9666 15.8118 10.0222 15.7673 10.1333L14.734 13.4999H11.234C11.1229 13.4999 11.0451 13.561 11.0007 13.6833C10.9562 13.8055 10.9895 13.8999 11.1007 13.9666L13.934 16.0333L12.734 19.4666C12.6895 19.5777 12.7173 19.6722 12.8173 19.7499C12.9173 19.8277 13.0229 19.8333 13.134 19.7666L16.0007 17.6333ZM16.0007 29.1999C15.8895 29.1999 15.784 29.1888 15.684 29.1666C15.584 29.1444 15.4784 29.111 15.3673 29.0666C12.2784 28.0222 9.83398 26.1499 8.03398 23.4499C6.23398 20.7499 5.33398 17.7888 5.33398 14.5666V8.03327C5.33398 7.61105 5.45621 7.22771 5.70065 6.88327C5.9451 6.53882 6.25621 6.28882 6.63398 6.13327L15.3007 2.89993C15.5451 2.81105 15.7784 2.7666 16.0007 2.7666C16.2229 2.7666 16.4562 2.81105 16.7007 2.89993L25.3673 6.13327C25.7451 6.28882 26.0562 6.53882 26.3007 6.88327C26.5451 7.22771 26.6673 7.61105 26.6673 8.03327V14.5666C26.6673 17.7888 25.7673 20.7499 23.9673 23.4499C22.1673 26.1499 19.7229 28.0222 16.634 29.0666C16.5229 29.111 16.4173 29.1444 16.3173 29.1666C16.2173 29.1888 16.1118 29.1999 16.0007 29.1999ZM16.0007 27.2333C18.5562 26.3888 20.6395 24.7944 22.2507 22.4499C23.8618 20.1055 24.6673 17.4777 24.6673 14.5666V8.03327L16.0007 4.7666L7.33398 8.03327V14.5666C7.33398 17.4777 8.13954 20.1055 9.75065 22.4499C11.3618 24.7944 13.4451 26.3888 16.0007 27.2333Z" fill="#2C2E25"/>
</svg>
