<svg width="24" height="24" viewBox="0 0 24 24" fill="none" xmlns="http://www.w3.org/2000/svg">
<path d="M4.2465 11.875C3.6155 11.875 3.08333 11.6572 2.65 11.2215C2.21667 10.7858 2 10.2525 2 9.6215C2 8.9905 2.21783 8.45833 2.6535 8.025C3.08917 7.59167 3.6225 7.375 4.2535 7.375C4.8845 7.375 5.41667 7.59283 5.85 8.0285C6.28333 8.46417 6.5 8.9975 6.5 9.6285C6.5 10.2595 6.28217 10.7917 5.8465 11.225C5.41083 11.6583 4.8775 11.875 4.2465 11.875ZM8.8715 7.625C8.2405 7.625 7.70833 7.40717 7.275 6.9715C6.84167 6.53583 6.625 6.0025 6.625 5.3715C6.625 4.7405 6.84283 4.20833 7.2785 3.775C7.71417 3.34167 8.2475 3.125 8.8785 3.125C9.5095 3.125 10.0417 3.34283 10.475 3.7785C10.9083 4.21417 11.125 4.7475 11.125 5.3785C11.125 6.0095 10.9072 6.54167 10.4715 6.975C10.0358 7.40833 9.5025 7.625 8.8715 7.625ZM15.1215 7.625C14.4905 7.625 13.9583 7.40717 13.525 6.9715C13.0917 6.53583 12.875 6.0025 12.875 5.3715C12.875 4.7405 13.0928 4.20833 13.5285 3.775C13.9642 3.34167 14.4975 3.125 15.1285 3.125C15.7595 3.125 16.2917 3.34283 16.725 3.7785C17.1583 4.21417 17.375 4.7475 17.375 5.3785C17.375 6.0095 17.1572 6.54167 16.7215 6.975C16.2858 7.40833 15.7525 7.625 15.1215 7.625ZM19.7465 11.875C19.1155 11.875 18.5833 11.6572 18.15 11.2215C17.7167 10.7858 17.5 10.2525 17.5 9.6215C17.5 8.9905 17.7178 8.45833 18.1535 8.025C18.5892 7.59167 19.1225 7.375 19.7535 7.375C20.3845 7.375 20.9167 7.59283 21.35 8.0285C21.7833 8.46417 22 8.9975 22 9.6285C22 10.2595 21.7822 10.7917 21.3465 11.225C20.9108 11.6583 20.3775 11.875 19.7465 11.875ZM6.65 22.125C5.95 22.125 5.375 21.8622 4.925 21.3368C4.475 20.8114 4.25 20.1908 4.25 19.475C4.25 18.775 4.4625 18.1542 4.8875 17.6125C5.3125 17.0708 5.76667 16.55 6.25 16.05C6.61667 15.6833 6.95833 15.2958 7.275 14.8875C7.59167 14.4792 7.89167 14.0583 8.175 13.625C8.65833 12.8917 9.2 12.2083 9.8 11.575C10.4 10.9417 11.1333 10.625 12 10.625C12.8667 10.625 13.6042 10.9417 14.2125 11.575C14.8208 12.2083 15.3667 12.9 15.85 13.65C16.1333 14.0833 16.4292 14.5 16.7375 14.9C17.0458 15.3 17.3833 15.6833 17.75 16.05C18.2333 16.55 18.6875 17.0708 19.1125 17.6125C19.5375 18.1542 19.75 18.775 19.75 19.475C19.75 20.1908 19.525 20.8114 19.075 21.3368C18.625 21.8622 18.05 22.125 17.35 22.125C16.45 22.125 15.5583 22.05 14.675 21.9C13.7917 21.75 12.9 21.675 12 21.675C11.1 21.675 10.2083 21.75 9.325 21.9C8.44167 22.05 7.55 22.125 6.65 22.125Z" fill="#2C2E25"/>
</svg>
