<svg width="24" height="24" viewBox="0 0 24 24" fill="none" xmlns="http://www.w3.org/2000/svg">
<path d="M6.65 8.325C6.16667 8.325 5.75833 8.15833 5.425 7.825C5.09167 7.49167 4.925 7.08333 4.925 6.6C4.925 6.11667 5.09167 5.70833 5.425 5.375C5.75833 5.04167 6.16667 4.875 6.65 4.875C7.13333 4.875 7.54167 5.04167 7.875 5.375C8.20833 5.70833 8.375 6.11667 8.375 6.6C8.375 7.08333 8.20833 7.49167 7.875 7.825C7.54167 8.15833 7.13333 8.325 6.65 8.325ZM3.5 22C3.08333 22 2.72917 21.8542 2.4375 21.5625C2.14583 21.2708 2 20.9167 2 20.5V13.425C2 13.2083 2.07083 13.0292 2.2125 12.8875C2.35417 12.7458 2.53333 12.675 2.75 12.675H5.05V11.275C5.05 10.7583 5.22917 10.3167 5.5875 9.95C5.94583 9.58333 6.38333 9.4 6.9 9.4C7.2 9.4 7.4875 9.46667 7.7625 9.6C8.0375 9.73333 8.275 9.91667 8.475 10.15L9.9 11.75C10.0667 11.9333 10.2417 12.1 10.425 12.25C10.6083 12.4 10.8 12.5417 11 12.675H21.25C21.4667 12.675 21.6458 12.7458 21.7875 12.8875C21.9292 13.0292 22 13.2083 22 13.425V20.5C22 20.9167 21.8542 21.2708 21.5625 21.5625C21.2708 21.8542 20.9167 22 20.5 22H3.5ZM19.25 10C19.0667 10 18.9083 9.92917 18.775 9.7875C18.6417 9.64583 18.5667 9.48333 18.55 9.3C18.5167 8.83333 18.4083 8.39583 18.225 7.9875C18.0417 7.57917 17.8167 7.18333 17.55 6.8C17.2167 6.35 16.9583 5.8625 16.775 5.3375C16.5917 4.8125 16.5 4.26667 16.5 3.7C16.5 3.51667 16.5708 3.35417 16.7125 3.2125C16.8542 3.07083 17.0167 3 17.2 3C17.3833 3 17.5375 3.07083 17.6625 3.2125C17.7875 3.35417 17.8583 3.51667 17.875 3.7C17.8917 4.13333 17.975 4.55417 18.125 4.9625C18.275 5.37083 18.4833 5.74167 18.75 6.075C19.1167 6.54167 19.4042 7.05 19.6125 7.6C19.8208 8.15 19.925 8.71667 19.925 9.3C19.925 9.48333 19.8583 9.64583 19.725 9.7875C19.5917 9.92917 19.4333 10 19.25 10ZM15.25 10C15.0667 10 14.9083 9.92917 14.775 9.7875C14.6417 9.64583 14.5667 9.48333 14.55 9.3C14.5167 8.83333 14.4083 8.39583 14.225 7.9875C14.0417 7.57917 13.8167 7.18333 13.55 6.8C13.2167 6.35 12.9583 5.8625 12.775 5.3375C12.5917 4.8125 12.5 4.26667 12.5 3.7C12.5 3.51667 12.5708 3.35417 12.7125 3.2125C12.8542 3.07083 13.0167 3 13.2 3C13.3833 3 13.5375 3.07083 13.6625 3.2125C13.7875 3.35417 13.8583 3.51667 13.875 3.7C13.8917 4.13333 13.975 4.55417 14.125 4.9625C14.275 5.37083 14.4833 5.74167 14.75 6.075C15.1167 6.54167 15.4042 7.05 15.6125 7.6C15.8208 8.15 15.925 8.71667 15.925 9.3C15.925 9.48333 15.8583 9.64583 15.725 9.7875C15.5917 9.92917 15.4333 10 15.25 10ZM17 20.5H19.75V14.175H17V20.5ZM12.75 20.5H15.5V14.175H12.75V20.5ZM8.5 20.5H11.25V14.175H8.5V20.5ZM4.25 20.5H7V14.175H4.25V20.5Z" fill="#2C2E25"/>
</svg>
