<svg width="24" height="24" viewBox="0 0 24 24" fill="none" xmlns="http://www.w3.org/2000/svg">
<path d="M8.92387 11.1752L11.1739 8.9252L9.29887 7.0502L8.62387 7.7252C8.47387 7.8752 8.29887 7.9502 8.09887 7.9502C7.89887 7.9502 7.72387 7.8752 7.57387 7.7252C7.42387 7.5752 7.34887 7.4002 7.34887 7.2002C7.34887 7.0002 7.42387 6.8252 7.57387 6.6752L8.24887 6.0002L6.37387 4.1502L4.12387 6.4002L8.92387 11.1752ZM17.5739 19.8752L19.8239 17.6002L17.9489 15.7252L17.2739 16.4002C17.1239 16.5502 16.9489 16.6252 16.7489 16.6252C16.5489 16.6252 16.3739 16.5502 16.2239 16.4002C16.0739 16.2502 15.9989 16.0752 15.9989 15.8752C15.9989 15.6752 16.0739 15.5002 16.2239 15.3502L16.8989 14.6752L15.0489 12.8252L12.7989 15.0752L17.5739 19.8752ZM3.74887 21.0002C3.5322 21.0002 3.35304 20.9294 3.21137 20.7877C3.0697 20.646 2.99887 20.4669 2.99887 20.2502V17.4002C2.99887 17.3002 3.01554 17.2085 3.04887 17.1252C3.0822 17.0419 3.14054 16.9585 3.22387 16.8752L7.84887 12.2502L2.79887 7.2002C2.56554 6.96686 2.45304 6.7002 2.46137 6.4002C2.4697 6.1002 2.5822 5.83353 2.79887 5.6002L5.54887 2.8002C5.7822 2.56686 6.04887 2.4502 6.34887 2.4502C6.64887 2.4502 6.91554 2.56686 7.14887 2.8002L12.2489 7.8752L16.6989 3.4252C16.8489 3.2752 17.0155 3.16686 17.1989 3.1002C17.3822 3.03353 17.5655 3.0002 17.7489 3.0002C17.9322 3.0002 18.1155 3.03353 18.2989 3.1002C18.4822 3.16686 18.6489 3.2752 18.7989 3.4252L20.5739 5.2002C20.7239 5.3502 20.8322 5.51686 20.8989 5.7002C20.9655 5.88353 20.9989 6.06686 20.9989 6.2502C20.9989 6.43353 20.9655 6.61686 20.8989 6.8002C20.8322 6.98353 20.7239 7.1502 20.5739 7.3002L16.1239 11.7502L21.1989 16.8252C21.4322 17.0585 21.5489 17.3252 21.5489 17.6252C21.5489 17.9252 21.4322 18.1919 21.1989 18.4252L18.4239 21.1752C18.1905 21.4085 17.9239 21.5252 17.6239 21.5252C17.3239 21.5252 17.0572 21.4085 16.8239 21.1752L11.7739 16.1252L7.12387 20.7752C7.04053 20.8585 6.9572 20.9169 6.87387 20.9502C6.79053 20.9835 6.69887 21.0002 6.59887 21.0002H3.74887ZM4.49887 19.5002H6.24887L16.0739 9.6502L14.3239 7.9002L4.49887 17.7502V19.5002Z" fill="#2C2E25"/>
</svg>
