<svg width="24" height="24" viewBox="0 0 24 24" fill="none" xmlns="http://www.w3.org/2000/svg">
<path d="M19.4508 22C19.2674 22 19.1216 21.9125 19.0133 21.7375C18.9049 21.5625 18.8841 21.375 18.9508 21.175C19.2674 20.1583 19.4799 19.1167 19.5883 18.05C19.6966 16.9833 19.6841 15.9167 19.5508 14.85C19.0008 16.4333 18.0383 17.6958 16.6633 18.6375C15.2883 19.5792 13.7591 20.05 12.0758 20.05C10.6591 20.05 9.37578 19.7125 8.22578 19.0375C7.07578 18.3625 6.10078 17.4667 5.30078 16.35C4.50078 15.2333 3.88411 13.9458 3.45078 12.4875C3.01745 11.0292 2.80078 9.525 2.80078 7.975C2.80078 7.09167 2.85078 6.22083 2.95078 5.3625C3.05078 4.50417 3.23411 3.65 3.50078 2.8C3.58411 2.56667 3.71745 2.375 3.90078 2.225C4.08411 2.075 4.30078 2 4.55078 2C4.73411 2 4.87995 2.0875 4.98828 2.2625C5.09661 2.4375 5.11745 2.625 5.05078 2.825C4.75078 3.84167 4.55495 4.88333 4.46328 5.95C4.37161 7.01667 4.36745 8.075 4.45078 9.125C5.01745 7.525 6.00078 6.2625 7.40078 5.3375C8.80078 4.4125 10.3591 3.95 12.0758 3.95C13.4924 3.95 14.7633 4.2875 15.8883 4.9625C17.0133 5.6375 17.9716 6.5375 18.7633 7.6625C19.5549 8.7875 20.1591 10.0708 20.5758 11.5125C20.9924 12.9542 21.2008 14.45 21.2008 16C21.2008 16.9 21.1508 17.7792 21.0508 18.6375C20.9508 19.4958 20.7674 20.35 20.5008 21.2C20.4174 21.4333 20.2841 21.625 20.1008 21.775C19.9174 21.925 19.7008 22 19.4508 22ZM12.0758 18.5C13.8924 18.5 15.4299 17.8708 16.6883 16.6125C17.9466 15.3542 18.5758 13.8167 18.5758 12C18.5758 10.1833 17.9466 8.64583 16.6883 7.3875C15.4299 6.12917 13.8924 5.5 12.0758 5.5C10.2591 5.5 8.72161 6.12917 7.46328 7.3875C6.20495 8.64583 5.57578 10.1833 5.57578 12C5.57578 13.8167 6.20495 15.3542 7.46328 16.6125C8.72161 17.8708 10.2591 18.5 12.0758 18.5ZM12.0758 15.75C13.1258 15.75 14.0133 15.3875 14.7383 14.6625C15.4633 13.9375 15.8258 13.05 15.8258 12C15.8258 10.95 15.4633 10.0625 14.7383 9.3375C14.0133 8.6125 13.1258 8.25 12.0758 8.25C11.0258 8.25 10.1383 8.6125 9.41328 9.3375C8.68828 10.0625 8.32578 10.95 8.32578 12C8.32578 13.05 8.68828 13.9375 9.41328 14.6625C10.1383 15.3875 11.0258 15.75 12.0758 15.75ZM12.0758 14.25C11.4424 14.25 10.9091 14.0333 10.4758 13.6C10.0424 13.1667 9.82578 12.6333 9.82578 12C9.82578 11.3667 10.0424 10.8333 10.4758 10.4C10.9091 9.96667 11.4424 9.75 12.0758 9.75C12.7091 9.75 13.2424 9.96667 13.6758 10.4C14.1091 10.8333 14.3258 11.3667 14.3258 12C14.3258 12.6333 14.1091 13.1667 13.6758 13.6C13.2424 14.0333 12.7091 14.25 12.0758 14.25Z" fill="#2C2E25"/>
</svg>
