<svg width="32" height="32" viewBox="0 0 32 32" fill="none" xmlns="http://www.w3.org/2000/svg">
<path d="M16.0345 28C15.7456 28 15.5067 27.9056 15.3178 27.7167C15.129 27.5278 15.0345 27.2889 15.0345 27V25.2C13.9678 25.0222 13.0567 24.6444 12.3012 24.0667C11.5456 23.4889 10.9567 22.7556 10.5345 21.8667C10.4234 21.6222 10.4234 21.3667 10.5345 21.1C10.6456 20.8333 10.8345 20.6444 11.1012 20.5333C11.3456 20.4222 11.5956 20.4222 11.8512 20.5333C12.1067 20.6444 12.3012 20.8222 12.4345 21.0667C12.8345 21.8222 13.3567 22.3889 14.0012 22.7667C14.6456 23.1444 15.3901 23.3333 16.2345 23.3333C17.3012 23.3333 18.179 23.0667 18.8678 22.5333C19.5567 22 19.9012 21.2667 19.9012 20.3333C19.9012 19.3556 19.5956 18.6 18.9845 18.0667C18.3734 17.5333 17.2234 16.9889 15.5345 16.4333C13.9345 15.9222 12.7401 15.2444 11.9512 14.4C11.1623 13.5556 10.7678 12.5 10.7678 11.2333C10.7678 10.0111 11.1623 8.98889 11.9512 8.16667C12.7401 7.34444 13.7678 6.87778 15.0345 6.76667V5C15.0345 4.71111 15.129 4.47222 15.3178 4.28333C15.5067 4.09444 15.7456 4 16.0345 4C16.3234 4 16.5623 4.09444 16.7512 4.28333C16.9401 4.47222 17.0345 4.71111 17.0345 5V6.76667C17.8345 6.87778 18.5512 7.12222 19.1845 7.5C19.8178 7.87778 20.3456 8.36667 20.7678 8.96667C20.9234 9.18889 20.9567 9.42778 20.8678 9.68333C20.779 9.93889 20.6012 10.1222 20.3345 10.2333C20.0901 10.3444 19.8345 10.3556 19.5678 10.2667C19.3012 10.1778 19.079 10.0111 18.9012 9.76667C18.5901 9.36667 18.2067 9.07222 17.7512 8.88333C17.2956 8.69444 16.7456 8.6 16.1012 8.6C15.0789 8.6 14.2678 8.83333 13.6678 9.3C13.0678 9.76667 12.7678 10.4 12.7678 11.2C12.7678 12.0444 13.1012 12.7278 13.7678 13.25C14.4345 13.7722 15.6678 14.3111 17.4678 14.8667C18.979 15.3333 20.0956 16.0056 20.8178 16.8833C21.5401 17.7611 21.9012 18.8667 21.9012 20.2C21.9012 21.6 21.4901 22.7278 20.6678 23.5833C19.8456 24.4389 18.6345 24.9889 17.0345 25.2333V27C17.0345 27.2889 16.9401 27.5278 16.7512 27.7167C16.5623 27.9056 16.3234 28 16.0345 28Z" fill="#FFFDFA"/>
</svg>
