<svg width="24" height="24" viewBox="0 0 24 24" fill="none" xmlns="http://www.w3.org/2000/svg">
<path d="M8.47245 7.75098C8.25879 7.75098 8.08112 7.67906 7.93945 7.53523C7.79779 7.39156 7.72695 7.21348 7.72695 7.00098V5.55098C7.72695 5.33848 7.79929 5.16031 7.94395 5.01648C8.08845 4.87281 8.26762 4.80098 8.48145 4.80098C8.69512 4.80098 8.87279 4.87281 9.01445 5.01648C9.15612 5.16031 9.22695 5.33848 9.22695 5.55098V7.00098C9.22695 7.21348 9.15462 7.39156 9.00995 7.53523C8.86545 7.67906 8.68629 7.75098 8.47245 7.75098ZM8.47245 16.776C8.25879 16.776 8.08112 16.7041 7.93945 16.5602C7.79779 16.4166 7.72695 16.2385 7.72695 16.026V12.626C7.72695 12.4135 7.79929 12.2353 7.94395 12.0915C8.08845 11.9478 8.26762 11.876 8.48145 11.876C8.69512 11.876 8.87279 11.9478 9.01445 12.0915C9.15612 12.2353 9.22695 12.4135 9.22695 12.626V16.026C9.22695 16.2385 9.15462 16.4166 9.00995 16.5602C8.86545 16.7041 8.68629 16.776 8.47245 16.776ZM5.50195 22.001C5.08945 22.001 4.73637 21.8541 4.4427 21.5602C4.14887 21.2666 4.00195 20.9135 4.00195 20.501V3.50098C4.00195 3.08848 4.14887 2.73531 4.4427 2.44148C4.73637 2.14781 5.08945 2.00098 5.50195 2.00098H18.502C18.9145 2.00098 19.2676 2.14781 19.5615 2.44148C19.8551 2.73531 20.002 3.08848 20.002 3.50098V20.501C20.002 20.9135 19.8551 21.2666 19.5615 21.5602C19.2676 21.8541 18.9145 22.001 18.502 22.001H5.50195ZM5.50195 20.501H18.502V10.551H5.50195V20.501ZM5.50195 9.05098H18.502V3.50098H5.50195V9.05098Z" fill="#2C2E25"/>
</svg>
