<svg width="14" height="14" viewBox="0 0 14 14" fill="none" xmlns="http://www.w3.org/2000/svg">
<path d="M2.50805 12.25C2.10186 12.25 1.81316 12.0604 1.64195 11.6812C1.47074 11.3021 1.52611 10.9569 1.80805 10.6458L5.42472 6.5625V2.625H4.66639C4.54243 2.625 4.43855 2.58281 4.35474 2.49842C4.27084 2.41413 4.22889 2.30961 4.22889 2.18488C4.22889 2.06024 4.27084 1.9566 4.35474 1.87396C4.43855 1.79132 4.54243 1.75 4.66639 1.75H9.33305C9.45701 1.75 9.56094 1.79219 9.64485 1.87658C9.72865 1.96087 9.77055 2.06539 9.77055 2.19012C9.77055 2.31476 9.72865 2.4184 9.64485 2.50104C9.56094 2.58368 9.45701 2.625 9.33305 2.625H8.57472V6.5625L12.1914 10.6458C12.4733 10.9569 12.5287 11.3021 12.3575 11.6812C12.1863 12.0604 11.8976 12.25 11.4914 12.25H2.50805ZM3.52889 10.9375H10.4706L8.13722 8.23958H5.86222L3.52889 10.9375ZM2.33305 11.375H11.6664L7.69972 6.88333V2.625H6.29972V6.88333L2.33305 11.375Z" fill="#FFF7EE"/>
</svg>
