<svg width="24" height="24" viewBox="0 0 24 24" fill="none" xmlns="http://www.w3.org/2000/svg">
<path d="M2.68555 19.6289V4.62891C2.68555 4.21641 2.83246 3.86324 3.1263 3.56941C3.41996 3.27574 3.77305 3.12891 4.18555 3.12891H19.1855C19.598 3.12891 19.9512 3.27574 20.245 3.56941C20.5387 3.86324 20.6855 4.21641 20.6855 4.62891V19.6289C20.6855 20.0414 20.5387 20.3945 20.245 20.6882C19.9512 20.982 19.598 21.1289 19.1855 21.1289H4.18555C3.77305 21.1289 3.41996 20.982 3.1263 20.6882C2.83246 20.3945 2.68555 20.0414 2.68555 19.6289ZM12.4355 12.8789V19.6289H19.1855V12.8789H12.4355ZM12.4355 11.3789H19.1855V4.62891H12.4355V11.3789ZM10.9355 11.3789V4.62891H4.18555V11.3789H10.9355ZM10.9355 12.8789H4.18555V19.6289H10.9355V12.8789Z" fill="#2C2E25"/>
</svg>
