<svg width="24" height="24" viewBox="0 0 24 24" fill="none" xmlns="http://www.w3.org/2000/svg">
<path d="M6.42422 21.1L7.32422 19.025C7.04089 18.825 6.78672 18.6292 6.56172 18.4375C6.33672 18.2458 6.10755 18.0333 5.87422 17.8C5.74089 17.8667 5.59505 17.9167 5.43672 17.95C5.27839 17.9833 5.13255 18 4.99922 18C4.46589 18 4.01172 17.8125 3.63672 17.4375C3.26172 17.0625 3.07422 16.6083 3.07422 16.075C3.07422 15.7417 3.15339 15.4292 3.31172 15.1375C3.47005 14.8458 3.66589 14.6333 3.89922 14.5C3.78255 14.0833 3.69089 13.6667 3.62422 13.25C3.55755 12.8333 3.52422 12.4083 3.52422 11.975C3.52422 11.525 3.55339 11.0958 3.61172 10.6875C3.67005 10.2792 3.76589 9.86667 3.89922 9.45C3.66589 9.28333 3.47005 9.0625 3.31172 8.7875C3.15339 8.5125 3.07422 8.20833 3.07422 7.875C3.07422 7.34167 3.26172 6.8875 3.63672 6.5125C4.01172 6.1375 4.46589 5.95 4.99922 5.95C5.13255 5.95 5.27422 5.96667 5.42422 6C5.57422 6.03333 5.71589 6.08333 5.84922 6.15C6.43255 5.55 7.07005 5.05 7.76172 4.65C8.45339 4.25 9.22422 3.94167 10.0742 3.725C10.1576 3.19167 10.3784 2.77083 10.7367 2.4625C11.0951 2.15417 11.5159 2 11.9992 2C12.4826 2 12.9076 2.15833 13.2742 2.475C13.6409 2.79167 13.8576 3.20833 13.9242 3.725C14.7742 3.94167 15.5742 4.22917 16.3242 4.5875C17.0742 4.94583 17.7326 5.44167 18.2992 6.075C18.4159 6.04167 18.5326 6.0125 18.6492 5.9875C18.7659 5.9625 18.8826 5.95 18.9992 5.95C19.5326 5.95 19.9867 6.1375 20.3617 6.5125C20.7367 6.8875 20.9242 7.34167 20.9242 7.875C20.9242 8.24167 20.8451 8.55833 20.6867 8.825C20.5284 9.09167 20.3326 9.3 20.0992 9.45C20.2326 9.88333 20.3284 10.3 20.3867 10.7C20.4451 11.1 20.4742 11.525 20.4742 11.975C20.4742 12.4083 20.4451 12.8292 20.3867 13.2375C20.3284 13.6458 20.2326 14.0583 20.0992 14.475C20.3826 14.6583 20.5909 14.9 20.7242 15.2C20.8576 15.5 20.9242 15.7917 20.9242 16.075C20.9242 16.6083 20.7367 17.0625 20.3617 17.4375C19.9867 17.8125 19.5326 18 18.9992 18C18.8659 18 18.7201 17.9833 18.5617 17.95C18.4034 17.9167 18.2659 17.8667 18.1492 17.8C17.9326 18.0333 17.7076 18.25 17.4742 18.45C17.2409 18.65 16.9909 18.8417 16.7242 19.025L17.6242 21.1C17.7076 21.3167 17.6867 21.5208 17.5617 21.7125C17.4367 21.9042 17.2492 22 16.9992 22C16.8659 22 16.7451 21.9667 16.6367 21.9C16.5284 21.8333 16.4492 21.7417 16.3992 21.625L15.5242 19.7C15.2409 19.8 14.9742 19.8917 14.7242 19.975C14.4742 20.0583 14.2076 20.1417 13.9242 20.225C13.8409 20.775 13.6201 21.2 13.2617 21.5C12.9034 21.8 12.4826 21.95 11.9992 21.95C11.5159 21.95 11.0951 21.8 10.7367 21.5C10.3784 21.2 10.1576 20.775 10.0742 20.225C9.79089 20.1417 9.52005 20.0583 9.26172 19.975C9.00339 19.8917 8.75755 19.7917 8.52422 19.675L7.59922 21.625C7.54922 21.7417 7.47005 21.8333 7.36172 21.9C7.25339 21.9667 7.13255 22 6.99922 22C6.76589 22 6.59089 21.9042 6.47422 21.7125C6.35755 21.5208 6.34089 21.3167 6.42422 21.1ZM7.87422 17.75L9.64922 13.875C9.41589 13.6083 9.24089 13.3208 9.12422 13.0125C9.00755 12.7042 8.94922 12.3667 8.94922 12C8.94922 11.1667 9.26172 10.45 9.88672 9.85C10.5117 9.25 11.2409 8.95 12.0742 8.95C12.9076 8.95 13.6117 9.25 14.1867 9.85C14.7617 10.45 15.0492 11.1667 15.0492 12C15.0492 12.3667 14.9951 12.7042 14.8867 13.0125C14.7784 13.3208 14.5992 13.6083 14.3492 13.875L16.1242 17.75C16.3076 17.6167 16.4951 17.4708 16.6867 17.3125C16.8784 17.1542 17.0576 16.9833 17.2242 16.8C17.1909 16.7 17.1576 16.5875 17.1242 16.4625C17.0909 16.3375 17.0742 16.2083 17.0742 16.075C17.0742 15.625 17.2242 15.2167 17.5242 14.85C17.8242 14.4833 18.2409 14.25 18.7742 14.15C18.8909 13.8167 18.9784 13.4667 19.0367 13.1C19.0951 12.7333 19.1242 12.3583 19.1242 11.975C19.1242 11.575 19.0951 11.1958 19.0367 10.8375C18.9784 10.4792 18.8992 10.1333 18.7992 9.8C18.2992 9.73333 17.8867 9.51667 17.5617 9.15C17.2367 8.78333 17.0742 8.35833 17.0742 7.875C17.0742 7.725 17.0867 7.59167 17.1117 7.475C17.1367 7.35833 17.1742 7.23333 17.2242 7.1C16.6909 6.58333 16.1326 6.15833 15.5492 5.825C14.9659 5.49167 14.3076 5.225 13.5742 5.025C13.4409 5.24167 13.2367 5.43333 12.9617 5.6C12.6867 5.76667 12.3659 5.85 11.9992 5.85C11.6326 5.85 11.3159 5.76667 11.0492 5.6C10.7826 5.43333 10.5742 5.24167 10.4242 5.025C9.69089 5.225 9.02005 5.49167 8.41172 5.825C7.80339 6.15833 7.25755 6.6 6.77422 7.15C6.84089 7.28333 6.88255 7.40417 6.89922 7.5125C6.91589 7.62083 6.92422 7.74167 6.92422 7.875C6.92422 8.40833 6.75339 8.84583 6.41172 9.1875C6.07005 9.52917 5.67422 9.73333 5.22422 9.8C5.10755 10.1333 5.02005 10.4792 4.96172 10.8375C4.90339 11.1958 4.87422 11.575 4.87422 11.975C4.87422 12.3583 4.90339 12.7333 4.96172 13.1C5.02005 13.4667 5.10755 13.8167 5.22422 14.15C5.75755 14.25 6.17422 14.4833 6.47422 14.85C6.77422 15.2167 6.92422 15.625 6.92422 16.075C6.92422 16.225 6.91172 16.3583 6.88672 16.475C6.86172 16.5917 6.83255 16.6917 6.79922 16.775C6.96589 16.9583 7.13672 17.1292 7.31172 17.2875C7.48672 17.4458 7.67422 17.6 7.87422 17.75ZM8.99922 18.425C9.19922 18.5083 9.42005 18.5958 9.66172 18.6875C9.90339 18.7792 10.1576 18.8583 10.4242 18.925C10.6076 18.6917 10.8242 18.4958 11.0742 18.3375C11.3242 18.1792 11.6326 18.1 11.9992 18.1C12.3659 18.1 12.6867 18.1792 12.9617 18.3375C13.2367 18.4958 13.4409 18.6917 13.5742 18.925C13.8576 18.8583 14.1117 18.7833 14.3367 18.7C14.5617 18.6167 14.7659 18.5333 14.9492 18.45L13.3242 14.675C13.1242 14.8083 12.9076 14.9042 12.6742 14.9625C12.4409 15.0208 12.2076 15.05 11.9742 15.05C11.7409 15.05 11.5076 15.0167 11.2742 14.95C11.0409 14.8833 10.8242 14.7833 10.6242 14.65L8.99922 18.425ZM11.9992 13.55C12.4326 13.55 12.7992 13.4 13.0992 13.1C13.3992 12.8 13.5492 12.4333 13.5492 12C13.5492 11.5667 13.3992 11.2 13.0992 10.9C12.7992 10.6 12.4326 10.45 11.9992 10.45C11.5659 10.45 11.1992 10.6 10.8992 10.9C10.5992 11.2 10.4492 11.5667 10.4492 12C10.4492 12.4333 10.5992 12.8 10.8992 13.1C11.1992 13.4 11.5659 13.55 11.9992 13.55Z" fill="#2C2E25"/>
</svg>
