<svg width="24" height="24" viewBox="0 0 24 24" fill="none" xmlns="http://www.w3.org/2000/svg">
<path d="M11.25 21.2498V8.9998H3.19998C3.01665 8.9998 2.89581 8.9123 2.83748 8.7373C2.77915 8.5623 2.82498 8.4248 2.97498 8.3248L11.575 2.2998C11.7111 2.21647 11.8536 2.1748 12.0022 2.1748C12.1507 2.1748 12.2916 2.21647 12.425 2.2998L21.025 8.3248C21.175 8.4248 21.2208 8.5623 21.1625 8.7373C21.1041 8.9123 20.9833 8.9998 20.8 8.9998H12.75V21.2498C12.75 21.4623 12.6776 21.6404 12.533 21.7841C12.3885 21.9279 12.2093 21.9998 11.9955 21.9998C11.7818 21.9998 11.6041 21.9279 11.4625 21.7841C11.3208 21.6404 11.25 21.4623 11.25 21.2498ZM2.99998 21.2498V16.7231L2.32498 13.0748C2.29165 12.8748 2.33748 12.6915 2.46248 12.5248C2.58748 12.3581 2.75298 12.2581 2.95898 12.2248C3.15298 12.1915 3.32915 12.229 3.48748 12.3373C3.64581 12.4456 3.74165 12.5998 3.77498 12.7998L4.44998 16.2498H7.74998C7.96248 16.2498 8.14065 16.3216 8.28448 16.4653C8.42815 16.6091 8.49998 16.7873 8.49998 16.9998V21.2498C8.49998 21.4623 8.42765 21.6404 8.28298 21.7841C8.13848 21.9279 7.95931 21.9998 7.74548 21.9998C7.53181 21.9998 7.35415 21.9279 7.21248 21.7841C7.07081 21.6404 6.99998 21.4623 6.99998 21.2498V17.7498H4.49998V21.2498C4.49998 21.4623 4.42765 21.6404 4.28298 21.7841C4.13848 21.9279 3.95931 21.9998 3.74548 21.9998C3.53181 21.9998 3.35415 21.9279 3.21248 21.7841C3.07081 21.6404 2.99998 21.4623 2.99998 21.2498ZM15.5 21.2498V16.9998C15.5 16.7873 15.5719 16.6091 15.7157 16.4653C15.8594 16.3216 16.0375 16.2498 16.25 16.2498H19.55L20.225 12.7998C20.2583 12.5998 20.3583 12.4456 20.525 12.3373C20.6916 12.229 20.875 12.1915 21.075 12.2248C21.275 12.2581 21.4333 12.3581 21.55 12.5248C21.6666 12.6915 21.7083 12.8748 21.675 13.0748L21 16.7231V21.2498C21 21.4623 20.9276 21.6404 20.783 21.7841C20.6385 21.9279 20.4593 21.9998 20.2455 21.9998C20.0318 21.9998 19.8541 21.9279 19.7125 21.7841C19.5708 21.6404 19.5 21.4623 19.5 21.2498V17.7498H17V21.2498C17 21.4623 16.9276 21.6404 16.783 21.7841C16.6385 21.9279 16.4593 21.9998 16.2455 21.9998C16.0318 21.9998 15.8541 21.9279 15.7125 21.7841C15.5708 21.6404 15.5 21.4623 15.5 21.2498ZM6.74998 7.4998H17.25L12 3.8248L6.74998 7.4998Z" fill="#2C2E25"/>
</svg>
