<svg width="14" height="14" viewBox="0 0 14 14" fill="none" xmlns="http://www.w3.org/2000/svg">
<mask id="mask0_8499_65101" style="mask-type:alpha" maskUnits="userSpaceOnUse" x="0" y="0" width="14" height="14">
<rect width="14" height="14" fill="#D9D9D9"/>
</mask>
<g mask="url(#mask0_8499_65101)">
<path d="M6.21263 11.2292V8.3709L3.73346 9.80007C3.53902 9.90701 3.33971 9.93618 3.13555 9.88757C2.93138 9.83895 2.77582 9.71743 2.66888 9.52298C2.56194 9.32854 2.53277 9.1268 2.58138 8.91777C2.62999 8.70875 2.75152 8.55076 2.94596 8.44381L5.42513 7.00007L2.96055 5.5709C2.7661 5.46395 2.64214 5.30597 2.58867 5.09694C2.5352 4.88791 2.56194 4.68618 2.66888 4.49173C2.77582 4.29729 2.93138 4.17576 3.13555 4.12715C3.33971 4.07854 3.53902 4.1077 3.73346 4.21465L6.21263 5.64382V2.7709C6.21263 2.54729 6.28798 2.36013 6.43867 2.20944C6.58937 2.05875 6.77652 1.9834 7.00013 1.9834C7.22374 1.9834 7.41089 2.05875 7.56159 2.20944C7.71228 2.36013 7.78763 2.54729 7.78763 2.7709V5.64382L10.2668 4.21465C10.4612 4.1077 10.6605 4.07854 10.8647 4.12715C11.0689 4.17576 11.2244 4.29729 11.3314 4.49173C11.4383 4.68618 11.4651 4.88791 11.4116 5.09694C11.3581 5.30597 11.2342 5.46395 11.0397 5.5709L8.57513 7.00007L11.0543 8.44381C11.2487 8.55076 11.3703 8.70875 11.4189 8.91777C11.4675 9.1268 11.4383 9.32854 11.3314 9.52298C11.2244 9.71743 11.0689 9.83895 10.8647 9.88757C10.6605 9.93618 10.4612 9.90701 10.2668 9.80007L7.78763 8.3709V11.2292C7.78763 11.4528 7.71228 11.64 7.56159 11.7907C7.41089 11.9414 7.22374 12.0167 7.00013 12.0167C6.77652 12.0167 6.58937 11.9414 6.43867 11.7907C6.28798 11.64 6.21263 11.4528 6.21263 11.2292Z" fill="#FFF7EE"/>
</g>
</svg>
