<svg width="32" height="32" viewBox="0 0 32 32" fill="none" xmlns="http://www.w3.org/2000/svg">
<path d="M18.5993 29.2337C18.3549 29.3448 18.0938 29.3559 17.816 29.267C17.5382 29.1781 17.3438 29.0114 17.2327 28.767L14.9327 24.167C14.8216 23.9225 14.8049 23.6614 14.8827 23.3837C14.9605 23.1059 15.1216 22.9114 15.366 22.8003C15.6105 22.6892 15.8716 22.6781 16.1493 22.767C16.4271 22.8559 16.6216 23.0225 16.7327 23.267L19.0327 27.867C19.1438 28.1114 19.1605 28.3725 19.0827 28.6503C19.0049 28.9281 18.8438 29.1225 18.5993 29.2337ZM26.5993 29.2003C26.3549 29.3114 26.0938 29.3225 25.816 29.2337C25.5382 29.1448 25.3438 28.9781 25.2327 28.7337L22.9327 24.1337C22.8216 23.8892 22.8049 23.6281 22.8827 23.3503C22.9605 23.0725 23.1216 22.8781 23.366 22.767C23.6105 22.6559 23.8716 22.6448 24.1493 22.7337C24.4271 22.8225 24.6216 22.9892 24.7327 23.2337L27.0327 27.8337C27.1438 28.0781 27.1605 28.3392 27.0827 28.617C27.0049 28.8948 26.8438 29.0892 26.5993 29.2003ZM10.5993 29.2003C10.3549 29.3114 10.0938 29.3281 9.81602 29.2503C9.53824 29.1725 9.34379 29.0114 9.23268 28.767L6.93268 24.167C6.82157 23.9225 6.81046 23.6614 6.89935 23.3837C6.98824 23.1059 7.1549 22.9114 7.39935 22.8003C7.64379 22.6892 7.9049 22.6725 8.18268 22.7503C8.46046 22.8281 8.6549 22.9892 8.76602 23.2337L11.066 27.867C11.1771 28.1114 11.1882 28.367 11.0993 28.6337C11.0105 28.9003 10.8438 29.0892 10.5993 29.2003ZM9.66602 20.667C7.73268 20.667 6.08268 19.9837 4.71602 18.617C3.34935 17.2503 2.66602 15.6003 2.66602 13.667C2.66602 11.9114 3.29379 10.3448 4.54935 8.96699C5.8049 7.58921 7.36602 6.83366 9.23268 6.70033C9.94379 5.45588 10.8827 4.47255 12.0493 3.75033C13.216 3.0281 14.5327 2.66699 15.9993 2.66699C18.0216 2.66699 19.716 3.30588 21.0827 4.58366C22.4493 5.86144 23.2882 7.44477 23.5993 9.33366C25.3549 9.42255 26.7493 10.017 27.7827 11.117C28.816 12.217 29.3327 13.5114 29.3327 15.0003C29.3327 16.5559 28.7827 17.8892 27.6827 19.0003C26.5827 20.1114 25.2438 20.667 23.666 20.667H9.66602ZM9.66602 18.667H23.666C24.6882 18.667 25.5549 18.3059 26.266 17.5837C26.9771 16.8614 27.3327 16.0003 27.3327 15.0003C27.3327 13.9781 26.9771 13.1114 26.266 12.4003C25.5549 11.6892 24.6882 11.3337 23.666 11.3337H21.666V10.3337C21.666 8.75588 21.116 7.41699 20.016 6.31699C18.916 5.21699 17.5771 4.66699 15.9993 4.66699C14.866 4.66699 13.8271 4.97255 12.8827 5.58366C11.9382 6.19477 11.2438 7.02255 10.7993 8.06699L10.5327 8.66699H9.59935C8.22157 8.71144 7.0549 9.21699 6.09935 10.1837C5.14379 11.1503 4.66602 12.3114 4.66602 13.667C4.66602 15.0448 5.1549 16.2225 6.13268 17.2003C7.11046 18.1781 8.28824 18.667 9.66602 18.667Z" fill="#2C2E25"/>
</svg>
