<svg width="24" height="24" viewBox="0 0 24 24" fill="none" xmlns="http://www.w3.org/2000/svg">
<path d="M3.75 21C3.5375 21 3.35942 20.9277 3.21575 20.783C3.07192 20.6385 3 20.4593 3 20.2455C3 20.0318 3.07192 19.8542 3.21575 19.7125C3.35942 19.5708 3.5375 19.5 3.75 19.5H5.3V3.75C5.3 3.5375 5.37192 3.35933 5.51575 3.2155C5.65942 3.07183 5.8375 3 6.05 3H14.3C14.5125 3 14.6907 3.07183 14.8345 3.2155C14.9782 3.35933 15.05 3.5375 15.05 3.75V4.125H17.975C18.1875 4.125 18.3657 4.19683 18.5095 4.3405C18.6532 4.48433 18.725 4.6625 18.725 4.875V19.5H20.25C20.4625 19.5 20.6407 19.5723 20.7845 19.717C20.9282 19.8615 21 20.0407 21 20.2545C21 20.4682 20.9282 20.6458 20.7845 20.7875C20.6407 20.9292 20.4625 21 20.25 21H17.975C17.7625 21 17.5844 20.9281 17.4408 20.7843C17.2969 20.6406 17.225 20.4625 17.225 20.25V5.625H15.05V20.25C15.05 20.4625 14.9782 20.6406 14.8345 20.7843C14.6907 20.9281 14.5125 21 14.3 21H3.75ZM12.275 12C12.275 11.7167 12.1792 11.4792 11.9875 11.2875C11.7958 11.0958 11.5583 11 11.275 11C10.9917 11 10.7542 11.0958 10.5625 11.2875C10.3708 11.4792 10.275 11.7167 10.275 12C10.275 12.2833 10.3708 12.5208 10.5625 12.7125C10.7542 12.9042 10.9917 13 11.275 13C11.5583 13 11.7958 12.9042 11.9875 12.7125C12.1792 12.5208 12.275 12.2833 12.275 12ZM6.8 19.5H13.55V4.5H6.8V19.5Z" fill="#2C2E25"/>
</svg>
