<svg width="24" height="24" viewBox="0 0 24 24" fill="none" xmlns="http://www.w3.org/2000/svg">
<path d="M5.50195 22C5.08945 22 4.73637 21.8531 4.4427 21.5592C4.14887 21.2656 4.00195 20.9125 4.00195 20.5V3.5C4.00195 3.0875 4.14887 2.73433 4.4427 2.4405C4.73637 2.14683 5.08945 2 5.50195 2H18.502C18.9145 2 19.2676 2.14683 19.5615 2.4405C19.8551 2.73433 20.002 3.0875 20.002 3.5V20.5C20.002 20.9125 19.8551 21.2656 19.5615 21.5592C19.2676 21.8531 18.9145 22 18.502 22H5.50195ZM5.50195 20.5H18.502V3.5H5.50195V20.5ZM12.002 19.025C13.3438 19.025 14.4876 18.5522 15.4335 17.6065C16.3791 16.6607 16.852 15.5168 16.852 14.175C16.852 12.8332 16.3791 11.6893 15.4335 10.7435C14.4876 9.79783 13.3438 9.325 12.002 9.325C10.6601 9.325 9.51629 9.79783 8.57045 10.7435C7.62479 11.6893 7.15195 12.8332 7.15195 14.175C7.15195 15.5168 7.62479 16.6607 8.57045 17.6065C9.51629 18.5522 10.6601 19.025 12.002 19.025ZM12.002 16.925C11.624 16.925 11.2569 16.8583 10.9007 16.725C10.5444 16.5917 10.2281 16.3917 9.95195 16.125L13.927 12.15C14.2103 12.4 14.4186 12.7047 14.552 13.064C14.6853 13.4233 14.752 13.7937 14.752 14.175C14.752 14.9388 14.4846 15.5882 13.95 16.123C13.4151 16.6577 12.7658 16.925 12.002 16.925ZM7.60645 6.3C7.82012 6.3 7.99779 6.22767 8.13945 6.083C8.28112 5.9385 8.35195 5.75933 8.35195 5.5455C8.35195 5.33183 8.27962 5.15417 8.13495 5.0125C7.99045 4.87083 7.81129 4.8 7.59745 4.8C7.38379 4.8 7.20612 4.87233 7.06445 5.017C6.92279 5.1615 6.85195 5.34067 6.85195 5.5545C6.85195 5.76817 6.92429 5.94583 7.06895 6.0875C7.21345 6.22917 7.39262 6.3 7.60645 6.3ZM10.9565 6.3C11.1701 6.3 11.3478 6.22767 11.4895 6.083C11.6311 5.9385 11.702 5.75933 11.702 5.5455C11.702 5.33183 11.6296 5.15417 11.485 5.0125C11.3405 4.87083 11.1613 4.8 10.9475 4.8C10.7338 4.8 10.5561 4.87233 10.4145 5.017C10.2728 5.1615 10.202 5.34067 10.202 5.5545C10.202 5.76817 10.2743 5.94583 10.419 6.0875C10.5635 6.22917 10.7426 6.3 10.9565 6.3Z" fill="#2C2E25"/>
</svg>
