<svg width="24" height="24" viewBox="0 0 24 24" fill="none" xmlns="http://www.w3.org/2000/svg">
<path d="M20.4998 8.575L15.3498 13.7C14.8165 14.2333 14.1665 14.5 13.3998 14.5C12.6331 14.5 11.9831 14.2333 11.4498 13.7L10.2748 12.525C10.0415 12.2917 9.7498 12.175 9.3998 12.175C9.0498 12.175 8.75814 12.2917 8.5248 12.525L3.5748 17.475C3.4248 17.625 3.2498 17.7 3.0498 17.7C2.8498 17.7 2.6748 17.625 2.5248 17.475C2.3748 17.325 2.2998 17.15 2.2998 16.95C2.2998 16.75 2.3748 16.575 2.5248 16.425L7.4748 11.475C8.00814 10.9417 8.65814 10.675 9.4248 10.675C10.1915 10.675 10.8415 10.9417 11.3748 11.475L12.5248 12.625C12.7748 12.875 13.0706 13 13.4123 13C13.754 13 14.0498 12.875 14.2998 12.625L19.4248 7.5H17.2498C17.0331 7.5 16.854 7.42917 16.7123 7.2875C16.5706 7.14583 16.4998 6.96667 16.4998 6.75C16.4998 6.53333 16.5706 6.35417 16.7123 6.2125C16.854 6.07083 17.0331 6 17.2498 6H21.2498C21.4665 6 21.6456 6.07083 21.7873 6.2125C21.929 6.35417 21.9998 6.53333 21.9998 6.75V10.75C21.9998 10.9667 21.929 11.1458 21.7873 11.2875C21.6456 11.4292 21.4665 11.5 21.2498 11.5C21.0331 11.5 20.854 11.4292 20.7123 11.2875C20.5706 11.1458 20.4998 10.9667 20.4998 10.75V8.575Z" fill="white"/>
</svg>
