<svg width="24" height="24" viewBox="0 0 24 24" fill="none" xmlns="http://www.w3.org/2000/svg">
<path d="M4.5 22C4.0875 22 3.73442 21.8531 3.44075 21.5592C3.14692 21.2656 3 20.9125 3 20.5V8.425C2.71667 8.325 2.47917 8.14675 2.2875 7.89025C2.09583 7.63375 2 7.337 2 7V3.5C2 3.0875 2.14692 2.73433 2.44075 2.4405C2.73442 2.14683 3.0875 2 3.5 2H20.5C20.9125 2 21.2657 2.14683 21.5595 2.4405C21.8532 2.73433 22 3.0875 22 3.5V7C22 7.337 21.9042 7.63375 21.7125 7.89025C21.5208 8.14675 21.2833 8.325 21 8.425V20.5C21 20.9125 20.8532 21.2656 20.5595 21.5592C20.2657 21.8531 19.9125 22 19.5 22H4.5ZM4.5 8.5V20.5H19.5V8.5H4.5ZM3.5 7H20.5V3.5H3.5V7ZM9.75 13.5H14.25C14.4625 13.5 14.6407 13.4277 14.7845 13.283C14.9282 13.1385 15 12.9593 15 12.7455C15 12.5318 14.9282 12.3542 14.7845 12.2125C14.6407 12.0708 14.4625 12 14.25 12H9.75C9.5375 12 9.35942 12.0723 9.21575 12.217C9.07192 12.3615 9 12.5407 9 12.7545C9 12.9682 9.07192 13.1458 9.21575 13.2875C9.35942 13.4292 9.5375 13.5 9.75 13.5Z" fill="#2C2E25"/>
</svg>
