<svg width="24" height="24" viewBox="0 0 24 24" fill="none" xmlns="http://www.w3.org/2000/svg">
<path d="M13.8246 9.5C13.6121 9.5 13.434 9.42767 13.2904 9.283C13.1465 9.1385 13.0746 8.95933 13.0746 8.7455C13.0746 8.53183 13.1465 8.35417 13.2904 8.2125C13.434 8.07083 13.6121 8 13.8246 8H18.0746C18.2871 8 18.4653 8.07233 18.6091 8.217C18.7528 8.3615 18.8246 8.54067 18.8246 8.7545C18.8246 8.96817 18.7528 9.14583 18.6091 9.2875C18.4653 9.42917 18.2871 9.5 18.0746 9.5H13.8246ZM13.8246 6.5C13.6121 6.5 13.434 6.42767 13.2904 6.283C13.1465 6.1385 13.0746 5.95933 13.0746 5.7455C13.0746 5.53183 13.1465 5.35417 13.2904 5.2125C13.434 5.07083 13.6121 5 13.8246 5H20.3246C20.5371 5 20.7153 5.07233 20.8591 5.217C21.0028 5.3615 21.0746 5.54067 21.0746 5.7545C21.0746 5.96817 21.0028 6.14583 20.8591 6.2875C20.7153 6.42917 20.5371 6.5 20.3246 6.5H13.8246ZM7.39961 20.975C6.14078 20.975 5.06778 20.5313 4.18061 19.644C3.29328 18.7568 2.84961 17.6838 2.84961 16.425C2.84961 15.625 3.04961 14.8708 3.44961 14.1625C3.84961 13.4542 4.39961 12.8833 5.09961 12.45V5.3C5.09961 4.66117 5.32261 4.11808 5.76861 3.67075C6.21478 3.22358 6.75644 3 7.39361 3C8.03094 3 8.57461 3.22358 9.02461 3.67075C9.47461 4.11808 9.69961 4.66117 9.69961 5.3V12.45C10.3996 12.8833 10.9496 13.4542 11.3496 14.1625C11.7496 14.8708 11.9496 15.625 11.9496 16.425C11.9496 17.6838 11.506 18.7568 10.6189 19.644C9.73153 20.5313 8.65844 20.975 7.39961 20.975ZM4.34961 16.425H10.4496C10.4496 15.7583 10.2913 15.1625 9.97461 14.6375C9.65794 14.1125 9.23294 13.7333 8.69961 13.5L8.19961 13.275V5.3C8.19961 5.07333 8.12294 4.88333 7.96961 4.73C7.81628 4.57667 7.62628 4.5 7.39961 4.5C7.17294 4.5 6.98294 4.57667 6.82961 4.73C6.67628 4.88333 6.59961 5.07333 6.59961 5.3V13.275L6.09961 13.5C5.56628 13.7333 5.14128 14.1167 4.82461 14.65C4.50794 15.1833 4.34961 15.775 4.34961 16.425Z" fill="#2C2E25"/>
</svg>
