<svg width="24" height="24" viewBox="0 0 24 24" fill="none" xmlns="http://www.w3.org/2000/svg">
<mask id="mask0_8026_302386" style="mask-type:alpha" maskUnits="userSpaceOnUse" x="0" y="0" width="24" height="24">
<rect width="24" height="24" fill="#D9D9D9"/>
</mask>
<g mask="url(#mask0_8026_302386)">
<path d="M5.3 17.2252V10.2502C5.3 10.0377 5.37233 9.85953 5.517 9.7157C5.6615 9.57203 5.84067 9.5002 6.0545 9.5002C6.26817 9.5002 6.44583 9.57203 6.5875 9.7157C6.72917 9.85953 6.8 10.0377 6.8 10.2502V17.2252C6.8 17.4377 6.72767 17.6158 6.583 17.7594C6.4385 17.9033 6.25933 17.9752 6.0455 17.9752C5.83183 17.9752 5.65417 17.9033 5.5125 17.7594C5.37083 17.6158 5.3 17.4377 5.3 17.2252ZM11.35 17.2252V10.2502C11.35 10.0377 11.4223 9.85953 11.567 9.7157C11.7115 9.57203 11.8907 9.5002 12.1045 9.5002C12.3182 9.5002 12.4958 9.57203 12.6375 9.7157C12.7792 9.85953 12.85 10.0377 12.85 10.2502V17.2252C12.85 17.4377 12.7777 17.6158 12.633 17.7594C12.4885 17.9033 12.3093 17.9752 12.0955 17.9752C11.8818 17.9752 11.7042 17.9033 11.5625 17.7594C11.4208 17.6158 11.35 17.4377 11.35 17.2252ZM2.75 20.9752C2.5375 20.9752 2.35942 20.9029 2.21575 20.7582C2.07192 20.6137 2 20.4345 2 20.2207C2 20.007 2.07192 19.8294 2.21575 19.6877C2.35942 19.546 2.5375 19.4752 2.75 19.4752H21.25C21.4625 19.4752 21.6407 19.5475 21.7845 19.6922C21.9282 19.8367 22 20.0159 22 20.2297C22 20.4434 21.9282 20.621 21.7845 20.7627C21.6407 20.9044 21.4625 20.9752 21.25 20.9752H2.75ZM17.2 17.2252V10.2502C17.2 10.0377 17.2723 9.85953 17.417 9.7157C17.5615 9.57203 17.7407 9.5002 17.9545 9.5002C18.1682 9.5002 18.3458 9.57203 18.4875 9.7157C18.6292 9.85953 18.7 10.0377 18.7 10.2502V17.2252C18.7 17.4377 18.6277 17.6158 18.483 17.7594C18.3385 17.9033 18.1593 17.9752 17.9455 17.9752C17.7318 17.9752 17.5542 17.9033 17.4125 17.7594C17.2708 17.6158 17.2 17.4377 17.2 17.2252ZM21.35 8.0002H2.575C2.41533 8.0002 2.27958 7.94428 2.16775 7.83244C2.05592 7.72061 2 7.58486 2 7.4252V7.0002C2 6.9002 2.02917 6.80436 2.0875 6.7127C2.14583 6.62103 2.21667 6.5502 2.3 6.5002L11.25 1.4002C11.4862 1.26686 11.7362 1.2002 12 1.2002C12.2638 1.2002 12.5138 1.26686 12.75 1.4002L21.675 6.4752C21.775 6.54186 21.8542 6.6252 21.9125 6.7252C21.9708 6.8252 22 6.9377 22 7.0627V7.31844C22 7.51161 21.9378 7.67353 21.8133 7.80419C21.6886 7.93486 21.5342 8.0002 21.35 8.0002ZM5.35 6.5002H18.65L12 2.7002L5.35 6.5002Z" fill="#2C2E25"/>
</g>
</svg>
