<svg width="24" height="24" viewBox="0 0 24 24" fill="none" xmlns="http://www.w3.org/2000/svg">
<path d="M2 11.65C2 11.2183 2.14167 10.8521 2.425 10.5512C2.70833 10.2504 3.06667 10.1 3.5 10.1H4.15V6.5C4.15 6.0875 4.29692 5.73433 4.59075 5.4405C4.88442 5.14683 5.2375 5 5.65 5H18.325C18.7375 5 19.0907 5.14683 19.3845 5.4405C19.6782 5.73433 19.825 6.0875 19.825 6.5V10.1H20.5C20.9125 10.1 21.2657 10.2468 21.5595 10.5405C21.8532 10.8343 22 11.1875 22 11.6V15.85C22 16.1667 21.8875 16.4375 21.6625 16.6625C21.4375 16.8875 21.1667 17 20.85 17L20.425 18.725C20.399 18.8097 20.3537 18.8767 20.289 18.926C20.2242 18.9753 20.1528 19 20.075 19H19.875C19.7972 19 19.7258 18.9753 19.661 18.926C19.5963 18.8767 19.551 18.8097 19.525 18.725L19.1 17H4.925L4.475 18.725C4.449 18.8097 4.40367 18.8767 4.339 18.926C4.27417 18.9753 4.20283 19 4.125 19H3.925C3.84717 19 3.77583 18.9753 3.711 18.926C3.64633 18.8767 3.601 18.8097 3.575 18.725L3.15 17C2.83333 17 2.5625 16.8875 2.3375 16.6625C2.1125 16.4375 2 16.1667 2 15.85V11.65ZM12.75 10.1H18.325V6.5H12.75V10.1ZM5.65 10.1H11.25V6.5H5.65V10.1ZM3.5 15.5H20.5V11.6H3.5V15.5Z" fill="#2C2E25"/>
</svg>
