<svg width="14" height="14" viewBox="0 0 14 14" fill="none" xmlns="http://www.w3.org/2000/svg">
<path d="M7.00065 7.7151L8.21107 8.63385C8.25968 8.66302 8.30586 8.66302 8.34961 8.63385C8.39336 8.60469 8.40551 8.5658 8.38607 8.51719L7.87565 7.0151L9.1444 6.11094C9.19301 6.08177 9.2076 6.04045 9.18815 5.98698C9.16871 5.93351 9.13468 5.90677 9.08607 5.90677H7.55482L7.10273 4.43385C7.08329 4.38524 7.04926 4.36094 7.00065 4.36094C6.95204 4.36094 6.91801 4.38524 6.89857 4.43385L6.44648 5.90677H4.91523C4.86662 5.90677 4.8326 5.93351 4.81315 5.98698C4.79371 6.04045 4.80829 6.08177 4.8569 6.11094L6.09648 7.0151L5.57148 8.51719C5.55204 8.5658 5.56419 8.60712 5.60794 8.64115C5.65169 8.67517 5.69787 8.6776 5.74648 8.64844L7.00065 7.7151ZM7.00065 12.7755C6.95204 12.7755 6.90586 12.7707 6.86211 12.7609C6.81836 12.7512 6.77218 12.7366 6.72357 12.7172C5.37218 12.2602 4.30273 11.4411 3.51523 10.2599C2.72773 9.07865 2.33398 7.78316 2.33398 6.37344V3.5151C2.33398 3.33038 2.38746 3.16267 2.4944 3.01198C2.60135 2.86128 2.73746 2.75191 2.90273 2.68385L6.6944 1.26927C6.80135 1.23038 6.90343 1.21094 7.00065 1.21094C7.09787 1.21094 7.19996 1.23038 7.3069 1.26927L11.0986 2.68385C11.2638 2.75191 11.4 2.86128 11.5069 3.01198C11.6138 3.16267 11.6673 3.33038 11.6673 3.5151V6.37344C11.6673 7.78316 11.2736 9.07865 10.4861 10.2599C9.69857 11.4411 8.62912 12.2602 7.27773 12.7172C7.22912 12.7366 7.18294 12.7512 7.13919 12.7609C7.09544 12.7707 7.04926 12.7755 7.00065 12.7755ZM7.00065 11.9151C8.11871 11.5457 9.03016 10.8481 9.73503 9.8224C10.4399 8.7967 10.7923 7.64705 10.7923 6.37344V3.5151L7.00065 2.08594L3.20898 3.5151V6.37344C3.20898 7.64705 3.56141 8.7967 4.26628 9.8224C4.97114 10.8481 5.8826 11.5457 7.00065 11.9151Z" fill="#FFF7EE"/>
</svg>
