<svg width="24" height="24" viewBox="0 0 24 24" fill="none" xmlns="http://www.w3.org/2000/svg">
<path d="M3 19.1847V8.65972C3 8.34855 3.08692 8.06547 3.26075 7.81047C3.43458 7.55531 3.66433 7.37172 3.95 7.25972L14.85 3.05972C15.1 2.95972 15.3333 2.9853 15.55 3.13647C15.7667 3.28747 15.875 3.49522 15.875 3.75972V11.6847H18C18 11.2722 18.1473 10.9191 18.442 10.6252C18.7365 10.3316 19.0907 10.1847 19.5045 10.1847C19.9182 10.1847 20.2708 10.3316 20.5625 10.6252C20.8542 10.9191 21 11.2722 21 11.6847V19.1847C21 19.5972 20.8532 19.9503 20.5595 20.244C20.2657 20.5378 19.9125 20.6847 19.5 20.6847H4.5C4.0875 20.6847 3.73442 20.5378 3.44075 20.244C3.14692 19.9503 3 19.5972 3 19.1847ZM4.5 19.1847H9.25V13.1847C9.25 12.7722 9.39692 12.4191 9.69075 12.1252C9.98442 11.8316 10.3375 11.6847 10.75 11.6847H14.375V4.85972L4.5 8.65972V19.1847ZM10.75 19.1847H14.375V17.1847C14.375 16.9722 14.4473 16.7941 14.592 16.6502C14.7365 16.5066 14.9157 16.4347 15.1295 16.4347C15.3432 16.4347 15.5208 16.5066 15.6625 16.6502C15.8042 16.7941 15.875 16.9722 15.875 17.1847V19.1847H19.5V13.1847H10.75V19.1847Z" fill="#2C2E25"/>
</svg>
