<svg width="24" height="24" viewBox="0 0 24 24" fill="none" xmlns="http://www.w3.org/2000/svg">
<path d="M5.12305 16.5752C4.67305 16.5752 4.30638 16.6835 4.02305 16.9002C3.73971 17.1169 3.44805 17.2919 3.14805 17.4252C2.83138 17.5752 2.56055 17.6085 2.33555 17.5252C2.11055 17.4419 1.99805 17.2585 1.99805 16.9752C1.99805 16.7919 2.06471 16.6252 2.19805 16.4752C2.33138 16.3252 2.53971 16.1502 2.82305 15.9502C3.22305 15.6669 3.63138 15.4502 4.04805 15.3002C4.46471 15.1502 4.85638 15.0752 5.22305 15.0752C5.98971 15.0752 6.58138 15.3002 6.99805 15.7502C7.41471 16.2002 7.94805 16.4252 8.59805 16.4252C9.24805 16.4252 9.78971 16.2002 10.223 15.7502C10.6564 15.3002 11.248 15.0752 11.998 15.0752C12.748 15.0752 13.3355 15.3002 13.7605 15.7502C14.1855 16.2002 14.723 16.4252 15.373 16.4252C16.023 16.4252 16.5605 16.2002 16.9855 15.7502C17.4105 15.3002 18.0147 15.0752 18.798 15.0752C19.1814 15.0752 19.5814 15.1502 19.998 15.3002C20.4147 15.4502 20.823 15.6669 21.223 15.9502C21.5064 16.1335 21.7064 16.3085 21.823 16.4752C21.9397 16.6419 21.998 16.8085 21.998 16.9752C21.998 17.2585 21.8855 17.4419 21.6605 17.5252C21.4355 17.6085 21.1647 17.5752 20.848 17.4252C20.548 17.2919 20.2564 17.1169 19.973 16.9002C19.6897 16.6835 19.323 16.5752 18.873 16.5752C18.173 16.5752 17.6022 16.8002 17.1605 17.2502C16.7189 17.7002 16.123 17.9252 15.373 17.9252C14.623 17.9252 14.0314 17.7002 13.598 17.2502C13.1647 16.8002 12.6314 16.5752 11.998 16.5752C11.3647 16.5752 10.8272 16.8002 10.3855 17.2502C9.94388 17.7002 9.34805 17.9252 8.59805 17.9252C7.84805 17.9252 7.25638 17.7002 6.82305 17.2502C6.38971 16.8002 5.82305 16.5752 5.12305 16.5752ZM5.12305 12.5752C4.67305 12.5752 4.30638 12.6835 4.02305 12.9002C3.73971 13.1169 3.44805 13.2919 3.14805 13.4252C2.83138 13.5752 2.56055 13.6085 2.33555 13.5252C2.11055 13.4419 1.99805 13.2585 1.99805 12.9752C1.99805 12.7919 2.07721 12.6127 2.23555 12.4377C2.39388 12.2627 2.65638 12.0502 3.02305 11.8002C3.42305 11.5335 3.77721 11.346 4.08555 11.2377C4.39388 11.1294 4.71471 11.0752 5.04805 11.0752C5.89805 11.0752 6.53971 11.3002 6.97305 11.7502C7.40638 12.2002 7.94805 12.4252 8.59805 12.4252C9.24805 12.4252 9.78971 12.2002 10.223 11.7502C10.6564 11.3002 11.248 11.0752 11.998 11.0752C12.748 11.0752 13.3355 11.3002 13.7605 11.7502C14.1855 12.2002 14.723 12.4252 15.373 12.4252C16.023 12.4252 16.5605 12.2002 16.9855 11.7502C17.4105 11.3002 18.0147 11.0752 18.798 11.0752C19.1814 11.0752 19.5814 11.1502 19.998 11.3002C20.4147 11.4502 20.823 11.6669 21.223 11.9502C21.5064 12.1335 21.7064 12.3085 21.823 12.4752C21.9397 12.6419 21.998 12.8085 21.998 12.9752C21.998 13.2585 21.8855 13.4419 21.6605 13.5252C21.4355 13.6085 21.1647 13.5752 20.848 13.4252C20.548 13.2919 20.2564 13.1169 19.973 12.9002C19.6897 12.6835 19.323 12.5752 18.873 12.5752C18.173 12.5752 17.6022 12.8002 17.1605 13.2502C16.7189 13.7002 16.123 13.9252 15.373 13.9252C14.623 13.9252 14.0314 13.7002 13.598 13.2502C13.1647 12.8002 12.6314 12.5752 11.998 12.5752C11.3647 12.5752 10.8272 12.8002 10.3855 13.2502C9.94388 13.7002 9.34805 13.9252 8.59805 13.9252C7.84805 13.9252 7.25638 13.7002 6.82305 13.2502C6.38971 12.8002 5.82305 12.5752 5.12305 12.5752ZM5.12305 8.5752C4.67305 8.5752 4.30638 8.68353 4.02305 8.9002C3.73971 9.11686 3.44805 9.29186 3.14805 9.4252C2.83138 9.5752 2.56055 9.60853 2.33555 9.5252C2.11055 9.44186 1.99805 9.25853 1.99805 8.9752C1.99805 8.79186 2.06471 8.62103 2.19805 8.4627C2.33138 8.30436 2.54805 8.1252 2.84805 7.9252C3.24805 7.65853 3.65638 7.4502 4.07305 7.3002C4.48971 7.1502 4.88138 7.0752 5.24805 7.0752C5.99805 7.0752 6.58138 7.3002 6.99805 7.7502C7.41471 8.2002 7.94805 8.4252 8.59805 8.4252C9.24805 8.4252 9.78971 8.2002 10.223 7.7502C10.6564 7.3002 11.248 7.0752 11.998 7.0752C12.748 7.0752 13.3355 7.3002 13.7605 7.7502C14.1855 8.2002 14.723 8.4252 15.373 8.4252C16.023 8.4252 16.5605 8.2002 16.9855 7.7502C17.4105 7.3002 18.0064 7.0752 18.773 7.0752C19.1397 7.0752 19.5314 7.1502 19.948 7.3002C20.3647 7.4502 20.773 7.66686 21.173 7.9502C21.4564 8.1502 21.6647 8.3252 21.798 8.4752C21.9314 8.6252 21.998 8.79186 21.998 8.9752C21.998 9.25853 21.8855 9.44186 21.6605 9.5252C21.4355 9.60853 21.1647 9.5752 20.848 9.4252C20.548 9.29186 20.2564 9.11686 19.973 8.9002C19.6897 8.68353 19.323 8.5752 18.873 8.5752C18.173 8.5752 17.6022 8.8002 17.1605 9.2502C16.7189 9.7002 16.123 9.9252 15.373 9.9252C14.623 9.9252 14.0314 9.7002 13.598 9.2502C13.1647 8.8002 12.6314 8.5752 11.998 8.5752C11.3647 8.5752 10.8272 8.8002 10.3855 9.2502C9.94388 9.7002 9.34805 9.9252 8.59805 9.9252C7.84805 9.9252 7.25638 9.7002 6.82305 9.2502C6.38971 8.8002 5.82305 8.5752 5.12305 8.5752Z" fill="#2C2E25"/>
</svg>
