<svg width="48" height="48" viewBox="0 0 48 48" fill="none" xmlns="http://www.w3.org/2000/svg">
<path d="M14.25 34.5V13.5C14.25 13.075 14.3947 12.7187 14.684 12.431C14.973 12.1437 15.3313 12 15.759 12C16.1863 12 16.5417 12.1437 16.825 12.431C17.1083 12.7187 17.25 13.075 17.25 13.5V34.5C17.25 34.925 17.1053 35.2812 16.816 35.5685C16.527 35.8562 16.1687 36 15.741 36C15.3137 36 14.9583 35.8562 14.675 35.5685C14.3917 35.2812 14.25 34.925 14.25 34.5ZM22.5 42.5V5.5C22.5 5.075 22.6447 4.71867 22.934 4.431C23.223 4.14367 23.5813 4 24.009 4C24.4363 4 24.7917 4.14367 25.075 4.431C25.3583 4.71867 25.5 5.075 25.5 5.5V42.5C25.5 42.925 25.3553 43.2812 25.066 43.5685C24.777 43.8562 24.4187 44 23.991 44C23.5637 44 23.2083 43.8562 22.925 43.5685C22.6417 43.2812 22.5 42.925 22.5 42.5ZM6 26.5V21.5C6 21.075 6.14467 20.7187 6.434 20.431C6.723 20.1437 7.08133 20 7.509 20C7.93633 20 8.29167 20.1437 8.575 20.431C8.85833 20.7187 9 21.075 9 21.5V26.5C9 26.925 8.85533 27.2812 8.566 27.5685C8.277 27.8562 7.91867 28 7.491 28C7.06367 28 6.70833 27.8562 6.425 27.5685C6.14167 27.2812 6 26.925 6 26.5ZM30.75 34.5V13.5C30.75 13.075 30.8947 12.7187 31.184 12.431C31.473 12.1437 31.8313 12 32.259 12C32.6863 12 33.0417 12.1437 33.325 12.431C33.6083 12.7187 33.75 13.075 33.75 13.5V34.5C33.75 34.925 33.6053 35.2812 33.316 35.5685C33.027 35.8562 32.6687 36 32.241 36C31.8137 36 31.4583 35.8562 31.175 35.5685C30.8917 35.2812 30.75 34.925 30.75 34.5ZM39 26.5V21.5C39 21.075 39.1447 20.7187 39.434 20.431C39.723 20.1437 40.0813 20 40.509 20C40.9363 20 41.2917 20.1437 41.575 20.431C41.8583 20.7187 42 21.075 42 21.5V26.5C42 26.925 41.8553 27.2812 41.566 27.5685C41.277 27.8562 40.9187 28 40.491 28C40.0637 28 39.7083 27.8562 39.425 27.5685C39.1417 27.2812 39 26.925 39 26.5Z" fill="#2C2E25"/>
</svg>
