<svg width="24" height="24" viewBox="0 0 24 24" fill="none" xmlns="http://www.w3.org/2000/svg">
<path d="M8.9955 11.5C8.78183 11.5 8.60417 11.4277 8.4625 11.283C8.32083 11.1385 8.25 10.9593 8.25 10.7455C8.25 10.5318 8.32233 10.3542 8.467 10.2125C8.6115 10.0708 8.79067 10 9.0045 10C9.21817 10 9.39583 10.0723 9.5375 10.217C9.67917 10.3615 9.75 10.5407 9.75 10.7545C9.75 10.9682 9.67767 11.1458 9.533 11.2875C9.3885 11.4292 9.20933 11.5 8.9955 11.5ZM14.9955 11.5C14.7818 11.5 14.6042 11.4277 14.4625 11.283C14.3208 11.1385 14.25 10.9593 14.25 10.7455C14.25 10.5318 14.3223 10.3542 14.467 10.2125C14.6115 10.0708 14.7907 10 15.0045 10C15.2182 10 15.3958 10.0723 15.5375 10.217C15.6792 10.3615 15.75 10.5407 15.75 10.7545C15.75 10.9682 15.6777 11.1458 15.533 11.2875C15.3885 11.4292 15.2093 11.5 14.9955 11.5ZM4.5 22C4.0875 22 3.73442 21.8531 3.44075 21.5592C3.14692 21.2656 3 20.9125 3 20.5V15.5C3 15.1667 3.09167 14.875 3.275 14.625C3.45833 14.375 3.7 14.1917 4 14.075V10C4 8.9 4.20833 7.8625 4.625 6.8875C5.04167 5.9125 5.6125 5.0625 6.3375 4.3375C7.0625 3.6125 7.9125 3.04167 8.8875 2.625C9.8625 2.20833 10.9 2 12 2C13.1 2 14.1375 2.20833 15.1125 2.625C16.0875 3.04167 16.9375 3.6125 17.6625 4.3375C18.3875 5.0625 18.9583 5.9125 19.375 6.8875C19.7917 7.8625 20 8.9 20 10V14.075C20.3 14.1917 20.5417 14.375 20.725 14.625C20.9083 14.875 21 15.1667 21 15.5V20.5C21 20.9125 20.8532 21.2656 20.5595 21.5592C20.2657 21.8531 19.9125 22 19.5 22H4.5ZM4.5 15.5V20.5H7.125V15.5H4.5ZM8.625 20.5H11.25V15.5H8.625V20.5ZM5.5 14H11.25V3.55C9.6 3.75 8.22917 4.45833 7.1375 5.675C6.04583 6.89167 5.5 8.33333 5.5 10V14ZM12.75 14H18.5V10C18.5 8.33333 17.9542 6.89167 16.8625 5.675C15.7708 4.45833 14.4 3.75 12.75 3.55V14ZM12.75 20.5H15.375V15.5H12.75V20.5ZM16.875 20.5H19.5V15.5H16.875V20.5Z" fill="#2C2E25"/>
</svg>
