<svg width="24" height="24" viewBox="0 0 24 24" fill="none" xmlns="http://www.w3.org/2000/svg">
<path d="M3.5 21C3.1 21 2.75 20.85 2.45 20.55C2.15 20.25 2 19.9 2 19.5V7.5C2 7.1 2.15 6.75 2.45 6.45C2.75 6.15 3.1 6 3.5 6H8V3.5C8 3.1 8.15 2.75 8.45 2.45C8.75 2.15 9.1 2 9.5 2H14.5C14.9 2 15.25 2.15 15.55 2.45C15.85 2.75 16 3.1 16 3.5V6H20.5C20.9 6 21.25 6.15 21.55 6.45C21.85 6.75 22 7.1 22 7.5V19.5C22 19.9 21.85 20.25 21.55 20.55C21.25 20.85 20.9 21 20.5 21H3.5ZM9.5 6H14.5V3.5H9.5V6ZM20.5 14.725H14.275V15.4795C14.275 15.6932 14.203 15.8708 14.059 16.0125C13.915 16.1542 13.7366 16.225 13.5238 16.225H10.5192C10.3064 16.225 10.1292 16.1531 9.9875 16.0092C9.84583 15.8656 9.775 15.6875 9.775 15.475V14.725H3.5V19.5H20.5V14.725ZM11.275 14.725H12.775V13.225H11.275V14.725ZM3.5 13.225H9.775V12.4705C9.775 12.2568 9.847 12.0792 9.991 11.9375C10.135 11.7958 10.3134 11.725 10.5262 11.725H13.5307C13.7436 11.725 13.9208 11.7968 14.0625 11.9405C14.2042 12.0843 14.275 12.2625 14.275 12.475V13.225H20.5V7.5H3.5V13.225Z" fill="#2C2E25"/>
</svg>
