<svg width="25" height="24" viewBox="0 0 25 24" fill="none" xmlns="http://www.w3.org/2000/svg">
<mask id="mask0_8026_302387" style="mask-type:alpha" maskUnits="userSpaceOnUse" x="0" y="0" width="25" height="24">
<rect x="0.5" width="24" height="24" fill="#D9D9D9"/>
</mask>
<g mask="url(#mask0_8026_302387)">
<path d="M9.375 21C9.175 21 8.97917 20.9583 8.7875 20.875C8.59583 20.7917 8.43333 20.6833 8.3 20.55L3.95 16.2C3.81667 16.0667 3.70833 15.9042 3.625 15.7125C3.54167 15.5208 3.5 15.325 3.5 15.125V8.875C3.5 8.675 3.54167 8.47917 3.625 8.2875C3.70833 8.09583 3.81667 7.93333 3.95 7.8L8.3 3.45C8.43333 3.31667 8.59583 3.20833 8.7875 3.125C8.97917 3.04167 9.175 3 9.375 3H15.625C15.825 3 16.0208 3.04167 16.2125 3.125C16.4042 3.20833 16.5667 3.31667 16.7 3.45L21.05 7.8C21.1833 7.93333 21.2917 8.09583 21.375 8.2875C21.4583 8.47917 21.5 8.675 21.5 8.875V15.125C21.5 15.325 21.4583 15.5208 21.375 15.7125C21.2917 15.9042 21.1833 16.0667 21.05 16.2L16.7 20.55C16.5667 20.6833 16.4042 20.7917 16.2125 20.875C16.0208 20.9583 15.825 21 15.625 21H9.375ZM9.375 19.5H15.625L20 15.125V8.875L15.625 4.5H9.375L5 8.875V15.125L9.375 19.5ZM12.5 13.05L15.05 15.6C15.2 15.75 15.375 15.825 15.575 15.825C15.775 15.825 15.95 15.75 16.1 15.6C16.25 15.45 16.325 15.275 16.325 15.075C16.325 14.875 16.25 14.7 16.1 14.55L13.55 12L16.1 9.45C16.25 9.3 16.325 9.125 16.325 8.925C16.325 8.725 16.25 8.55 16.1 8.4C15.95 8.25 15.775 8.175 15.575 8.175C15.375 8.175 15.2 8.25 15.05 8.4L12.5 10.95L9.95 8.4C9.8 8.25 9.625 8.175 9.425 8.175C9.225 8.175 9.05 8.25 8.9 8.4C8.75 8.55 8.675 8.725 8.675 8.925C8.675 9.125 8.75 9.3 8.9 9.45L11.45 12L8.9 14.55C8.75 14.7 8.675 14.875 8.675 15.075C8.675 15.275 8.75 15.45 8.9 15.6C9.05 15.75 9.225 15.825 9.425 15.825C9.625 15.825 9.8 15.75 9.95 15.6L12.5 13.05Z" fill="#2C2E25"/>
</g>
</svg>
