<svg width="24" height="24" viewBox="0 0 24 24" fill="none" xmlns="http://www.w3.org/2000/svg">
<path d="M5.75 21C5.31667 21 4.95833 20.8583 4.675 20.575C4.39167 20.2917 4.25 19.9333 4.25 19.5V10.325C3.6 9.95833 3.0625 9.4875 2.6375 8.9125C2.2125 8.3375 2 7.6 2 6.7C2 5.65 2.35417 4.77083 3.0625 4.0625C3.77083 3.35417 4.65 3 5.7 3H18.3C19.35 3 20.2292 3.35417 20.9375 4.0625C21.6458 4.77083 22 5.65 22 6.7C22 7.6 21.7875 8.3375 21.3625 8.9125C20.9375 9.4875 20.4083 9.95833 19.775 10.325V19.5C19.775 19.9333 19.6333 20.2917 19.35 20.575C19.0667 20.8583 18.7083 21 18.275 21H5.75ZM5.75 19.5H18.275V9.625L19.15 9.075C19.5333 8.84167 19.8542 8.53333 20.1125 8.15C20.3708 7.76667 20.5 7.28333 20.5 6.7C20.5 6.08333 20.2875 5.5625 19.8625 5.1375C19.4375 4.7125 18.9167 4.5 18.3 4.5H5.7C5.08333 4.5 4.5625 4.7125 4.1375 5.1375C3.7125 5.5625 3.5 6.08333 3.5 6.7C3.5 7.3 3.625 7.7875 3.875 8.1625C4.125 8.5375 4.45833 8.85 4.875 9.1L5.75 9.625V19.5ZM11.475 17.775C11.6417 17.9417 11.8208 18.025 12.0125 18.025C12.2042 18.025 12.3833 17.9417 12.55 17.775L16.8 13.525C16.9667 13.3583 17.05 13.1792 17.05 12.9875C17.05 12.7958 16.9667 12.6167 16.8 12.45L12.55 8.2C12.4167 8.06667 12.2375 8 12.0125 8C11.7875 8 11.6083 8.06667 11.475 8.2L7.225 12.45C7.05833 12.6167 6.975 12.7958 6.975 12.9875C6.975 13.1792 7.05833 13.3583 7.225 13.525L11.475 17.775ZM12 16.25L8.8 13.05L12 9.85L15.2 13.05L12 16.25Z" fill="#2C2E25"/>
</svg>
