<svg width="24" height="24" viewBox="0 0 24 24" fill="none" xmlns="http://www.w3.org/2000/svg">
<path d="M8.25 16.225L13.575 14.575C13.8083 14.4917 14.0083 14.3667 14.175 14.2C14.3417 14.0333 14.4667 13.8333 14.55 13.6L16.2 8.275C16.25 8.131 16.2208 8.00333 16.1125 7.892C16.0042 7.78067 15.875 7.75 15.725 7.8L10.4 9.45C10.1667 9.53333 9.96667 9.65833 9.8 9.825C9.63333 9.99167 9.50833 10.1917 9.425 10.425L7.775 15.75C7.725 15.894 7.75417 16.0217 7.8625 16.133C7.97083 16.2443 8.1 16.275 8.25 16.225ZM11.994 13C11.7147 13 11.4792 12.9022 11.2875 12.7065C11.0958 12.511 11 12.2735 11 11.994C11 11.7147 11.0978 11.4792 11.2935 11.2875C11.489 11.0958 11.7265 11 12.006 11C12.2853 11 12.5208 11.0978 12.7125 11.2935C12.9042 11.489 13 11.7265 13 12.006C13 12.2853 12.9022 12.5208 12.7065 12.7125C12.511 12.9042 12.2735 13 11.994 13ZM12.0068 22C10.6277 22 9.33192 21.7375 8.11925 21.2125C6.90642 20.6875 5.84583 19.9708 4.9375 19.0625C4.02917 18.1542 3.3125 17.093 2.7875 15.879C2.2625 14.665 2 13.3678 2 11.9875C2 10.6072 2.2625 9.31 2.7875 8.096C3.3125 6.882 4.02917 5.825 4.9375 4.925C5.84583 4.025 6.907 3.3125 8.121 2.7875C9.335 2.2625 10.6322 2 12.0125 2C13.3928 2 14.69 2.2625 15.904 2.7875C17.118 3.3125 18.175 4.025 19.075 4.925C19.975 5.825 20.6875 6.88333 21.2125 8.1C21.7375 9.31667 22 10.6144 22 11.9933C22 13.3723 21.7375 14.6681 21.2125 15.8807C20.6875 17.0936 19.975 18.1527 19.075 19.058C18.175 19.9632 17.1167 20.6798 15.9 21.208C14.6833 21.736 13.3856 22 12.0068 22ZM12.0122 20.5C14.3707 20.5 16.375 19.6709 18.025 18.0128C19.675 16.3548 20.5 14.3464 20.5 11.9878C20.5 9.62925 19.675 7.625 18.025 5.975C16.375 4.325 14.3707 3.5 12.0122 3.5C9.65358 3.5 7.64525 4.325 5.98725 5.975C4.32908 7.625 3.5 9.62925 3.5 11.9878C3.5 14.3464 4.32908 16.3548 5.98725 18.0128C7.64525 19.6709 9.65358 20.5 12.0122 20.5Z" fill="#2C2E25"/>
</svg>
