<svg width="24" height="24" viewBox="0 0 24 24" fill="none" xmlns="http://www.w3.org/2000/svg">
<path d="M6.875 18.3504C5.99167 18.3504 5.29583 18.6087 4.7875 19.1254C4.27917 19.6421 3.6 20.0087 2.75 20.2254C2.55 20.2754 2.375 20.2379 2.225 20.1129C2.075 19.9879 2 19.8171 2 19.6004C2 19.3837 2.07083 19.1921 2.2125 19.0254C2.35417 18.8587 2.53333 18.7337 2.75 18.6504C3.4 18.3837 3.9875 18.0171 4.5125 17.5504C5.0375 17.0837 5.825 16.8504 6.875 16.8504C7.49167 16.8504 8.01667 16.9546 8.45 17.1629C8.88333 17.3712 9.27917 17.6004 9.6375 17.8504C9.99583 18.1004 10.3583 18.3296 10.725 18.5379C11.0917 18.7462 11.5167 18.8504 12 18.8504C12.4833 18.8504 12.9083 18.7462 13.275 18.5379C13.6417 18.3296 14.0042 18.1004 14.3625 17.8504C14.7208 17.6004 15.1167 17.3712 15.55 17.1629C15.9833 16.9546 16.5083 16.8504 17.125 16.8504C18.175 16.8504 18.9542 17.0837 19.4625 17.5504C19.9708 18.0171 20.5583 18.3837 21.225 18.6504C21.4417 18.7337 21.625 18.8546 21.775 19.0129C21.925 19.1712 22 19.3671 22 19.6004C22 19.8171 21.9208 19.9879 21.7625 20.1129C21.6042 20.2379 21.425 20.2754 21.225 20.2254C20.375 20.0087 19.7 19.6421 19.2 19.1254C18.7 18.6087 18.0083 18.3504 17.125 18.3504C16.625 18.3504 16.1875 18.4546 15.8125 18.6629C15.4375 18.8712 15.0708 19.1004 14.7125 19.3504C14.3542 19.6004 13.9625 19.8296 13.5375 20.0379C13.1125 20.2462 12.6 20.3504 12 20.3504C11.4 20.3504 10.8875 20.2462 10.4625 20.0379C10.0375 19.8296 9.64583 19.6004 9.2875 19.3504C8.92917 19.1004 8.5625 18.8712 8.1875 18.6629C7.8125 18.4546 7.375 18.3504 6.875 18.3504ZM6.875 13.9504C5.99167 13.9504 5.29583 14.2087 4.7875 14.7254C4.27917 15.2421 3.6 15.6087 2.75 15.8254C2.55 15.8754 2.375 15.8379 2.225 15.7129C2.075 15.5879 2 15.4171 2 15.2004C2 14.9837 2.07083 14.7921 2.2125 14.6254C2.35417 14.4587 2.53333 14.3337 2.75 14.2504C3.4 13.9837 3.9875 13.6171 4.5125 13.1504C5.0375 12.6837 5.825 12.4504 6.875 12.4504C7.49167 12.4504 8.01667 12.5546 8.45 12.7629C8.88333 12.9712 9.27917 13.2004 9.6375 13.4504C9.99583 13.7004 10.3583 13.9296 10.725 14.1379C11.0917 14.3462 11.5167 14.4504 12 14.4504C12.4833 14.4504 12.9083 14.3462 13.275 14.1379C13.6417 13.9296 14.0042 13.7004 14.3625 13.4504C14.7208 13.2004 15.1167 12.9712 15.55 12.7629C15.9833 12.5546 16.5083 12.4504 17.125 12.4504C18.175 12.4504 18.9542 12.6837 19.4625 13.1504C19.9708 13.6171 20.5583 13.9837 21.225 14.2504C21.4417 14.3337 21.625 14.4546 21.775 14.6129C21.925 14.7712 22 14.9671 22 15.2004C22 15.4004 21.9167 15.5629 21.75 15.6879C21.5833 15.8129 21.4083 15.8504 21.225 15.8004C20.375 15.5504 19.7 15.1796 19.2 14.6879C18.7 14.1962 18.0083 13.9504 17.125 13.9504C16.625 13.9504 16.1917 14.0546 15.825 14.2629C15.4583 14.4712 15.0917 14.7004 14.725 14.9504C14.3583 15.2004 13.9625 15.4296 13.5375 15.6379C13.1125 15.8462 12.6 15.9504 12 15.9504C11.4 15.9504 10.8875 15.8462 10.4625 15.6379C10.0375 15.4296 9.64583 15.2004 9.2875 14.9504C8.92917 14.7004 8.5625 14.4712 8.1875 14.2629C7.8125 14.0546 7.375 13.9504 6.875 13.9504ZM6.875 9.55039C5.99167 9.55039 5.29583 9.80872 4.7875 10.3254C4.27917 10.8421 3.6 11.2087 2.75 11.4254C2.55 11.4754 2.375 11.4379 2.225 11.3129C2.075 11.1879 2 11.0171 2 10.8004C2 10.5837 2.075 10.4004 2.225 10.2504C2.375 10.1004 2.55 9.98372 2.75 9.90039C3.4 9.66706 3.9875 9.30039 4.5125 8.80039C5.0375 8.30039 5.825 8.05039 6.875 8.05039C7.49167 8.05039 8.01667 8.15456 8.45 8.36289C8.88333 8.57122 9.27917 8.80039 9.6375 9.05039C9.99583 9.30039 10.3583 9.52956 10.725 9.73789C11.0917 9.94622 11.5167 10.0504 12 10.0504C12.4833 10.0504 12.9083 9.94622 13.275 9.73789C13.6417 9.52956 14.0042 9.30039 14.3625 9.05039C14.7208 8.80039 15.1167 8.57122 15.55 8.36289C15.9833 8.15456 16.5083 8.05039 17.125 8.05039C18.175 8.05039 18.9542 8.30039 19.4625 8.80039C19.9708 9.30039 20.5583 9.66706 21.225 9.90039C21.4417 9.98372 21.625 10.1004 21.775 10.2504C21.925 10.4004 22 10.5837 22 10.8004C22 11.0171 21.9208 11.1879 21.7625 11.3129C21.6042 11.4379 21.425 11.4754 21.225 11.4254C20.375 11.2087 19.7 10.8421 19.2 10.3254C18.7 9.80872 18.0083 9.55039 17.125 9.55039C16.625 9.55039 16.1875 9.65456 15.8125 9.86289C15.4375 10.0712 15.0708 10.3004 14.7125 10.5504C14.3542 10.8004 13.9625 11.0296 13.5375 11.2379C13.1125 11.4462 12.6 11.5504 12 11.5504C11.4 11.5504 10.8875 11.4462 10.4625 11.2379C10.0375 11.0296 9.64583 10.8004 9.2875 10.5504C8.92917 10.3004 8.5625 10.0712 8.1875 9.86289C7.8125 9.65456 7.375 9.55039 6.875 9.55039ZM6.875 5.15039C5.99167 5.15039 5.29583 5.40872 4.7875 5.92539C4.27917 6.44206 3.6 6.80872 2.75 7.02539C2.55 7.07539 2.375 7.03789 2.225 6.91289C2.075 6.78789 2 6.61706 2 6.40039C2 6.18372 2.07083 5.99206 2.2125 5.82539C2.35417 5.65872 2.53333 5.53372 2.75 5.45039C3.4 5.18372 3.9875 4.81706 4.5125 4.35039C5.0375 3.88372 5.825 3.65039 6.875 3.65039C7.49167 3.65039 8.01667 3.75456 8.45 3.96289C8.88333 4.17122 9.27917 4.40039 9.6375 4.65039C9.99583 4.90039 10.3583 5.12956 10.725 5.33789C11.0917 5.54622 11.5167 5.65039 12 5.65039C12.4833 5.65039 12.9083 5.54622 13.275 5.33789C13.6417 5.12956 14.0042 4.90039 14.3625 4.65039C14.7208 4.40039 15.1167 4.17122 15.55 3.96289C15.9833 3.75456 16.5083 3.65039 17.125 3.65039C18.175 3.65039 18.9542 3.88372 19.4625 4.35039C19.9708 4.81706 20.5583 5.18372 21.225 5.45039C21.4417 5.53372 21.625 5.65456 21.775 5.81289C21.925 5.97122 22 6.16706 22 6.40039C22 6.61706 21.9208 6.78789 21.7625 6.91289C21.6042 7.03789 21.425 7.07539 21.225 7.02539C20.375 6.80872 19.7 6.44206 19.2 5.92539C18.7 5.40872 18.0083 5.15039 17.125 5.15039C16.625 5.15039 16.1875 5.25456 15.8125 5.46289C15.4375 5.67122 15.0708 5.90039 14.7125 6.15039C14.3542 6.40039 13.9625 6.62956 13.5375 6.83789C13.1125 7.04622 12.6 7.15039 12 7.15039C11.4 7.15039 10.8875 7.04622 10.4625 6.83789C10.0375 6.62956 9.64583 6.40039 9.2875 6.15039C8.92917 5.90039 8.5625 5.67122 8.1875 5.46289C7.8125 5.25456 7.375 5.15039 6.875 5.15039Z" fill="#2C2E25"/>
</svg>
