<svg width="24" height="24" viewBox="0 0 24 24" fill="none" xmlns="http://www.w3.org/2000/svg">
<path d="M9 14.6V19.5C9 19.9167 8.85417 20.2708 8.5625 20.5625C8.27083 20.8542 7.91667 21 7.5 21C7.08333 21 6.72917 20.8542 6.4375 20.5625C6.14583 20.2708 6 19.9167 6 19.5V4.5C6 4.08333 6.14583 3.72917 6.4375 3.4375C6.72917 3.14583 7.08333 3 7.5 3H13.2C14.8333 3 16.2083 3.55833 17.325 4.675C18.4417 5.79167 19 7.16667 19 8.8C19 10.4333 18.4417 11.8083 17.325 12.925C16.2083 14.0417 14.8333 14.6 13.2 14.6H9ZM9 11.6H13.2C14 11.6 14.6667 11.3333 15.2 10.8C15.7333 10.2667 16 9.6 16 8.8C16 8 15.7333 7.33333 15.2 6.8C14.6667 6.26667 14 6 13.2 6H9V11.6Z" fill="#2C2E25"/>
</svg>
