<svg width="24" height="24" viewBox="0 0 24 24" fill="none" xmlns="http://www.w3.org/2000/svg">
<path fill-rule="evenodd" clip-rule="evenodd" d="M11.3511 3.11479C11.6121 2.95077 11.9503 2.96255 12.2003 3.14995L22.2003 10.6499L22.2589 10.6993C22.5384 10.9569 22.5832 11.3896 22.3502 11.7002C22.1172 12.0108 21.6894 12.0892 21.3638 11.8931L21.2999 11.8501L18.5001 9.75005V20.25C18.5001 20.6643 18.1643 21 17.7501 21H5.75007C5.33592 21 5.00007 20.6642 5.00007 20.25V9.75005L2.20026 11.8501C1.86892 12.0986 1.3985 12.0315 1.14997 11.7002C0.901591 11.3689 0.968656 10.8985 1.29987 10.6499L11.2999 3.14995L11.3511 3.11479ZM6.50007 14.25H17.0001V9.00005H6.50007V14.25ZM8.00007 7.50005H15.5001L11.7501 4.68755L8.00007 7.50005Z" fill="#2C2E25"/>
</svg>
