<svg width="24" height="24" viewBox="0 0 24 24" fill="none" xmlns="http://www.w3.org/2000/svg">
<path d="M5.375 21.0746C4.81117 21.0746 4.2535 20.9788 3.702 20.7871C3.15067 20.5955 2.66667 20.283 2.25 19.8496C2.83333 19.6496 3.25 19.358 3.5 18.9746C3.75 18.5913 3.875 18.0746 3.875 17.4246C3.875 16.6955 4.13067 16.0756 4.642 15.5651C5.15317 15.0548 5.774 14.7996 6.5045 14.7996C7.23483 14.7996 7.85417 15.0548 8.3625 15.5651C8.87083 16.0756 9.125 16.6955 9.125 17.4246C9.125 18.4913 8.7625 19.3663 8.0375 20.0496C7.3125 20.733 6.425 21.0746 5.375 21.0746ZM5.375 19.5746C5.95833 19.5746 6.47917 19.3663 6.9375 18.9496C7.39583 18.533 7.625 18.0246 7.625 17.4246C7.625 17.0913 7.52083 16.8205 7.3125 16.6121C7.10417 16.4038 6.83333 16.2996 6.5 16.2996C6.16667 16.2996 5.89583 16.4038 5.6875 16.6121C5.47917 16.8205 5.375 17.0913 5.375 17.4246C5.375 18.0746 5.30417 18.5538 5.1625 18.8621C5.02083 19.1705 4.75833 19.358 4.375 19.4246C4.475 19.4413 4.64167 19.4705 4.875 19.5121C5.10833 19.5538 5.275 19.5746 5.375 19.5746ZM11.125 15.1496L8.875 12.7746L18.275 3.37462C18.5083 3.14129 18.7667 3.02046 19.05 3.01212C19.3333 3.00379 19.6 3.12462 19.85 3.37462L20.575 4.09962C20.825 4.34962 20.9458 4.62046 20.9375 4.91212C20.9292 5.20379 20.8083 5.46629 20.575 5.69962L11.125 15.1496Z" fill="#2C2E25"/>
</svg>
