<svg width="24" height="24" viewBox="0 0 24 24" fill="none" xmlns="http://www.w3.org/2000/svg">
<path d="M8.825 17.9C9.09167 17.9 9.32083 17.8042 9.5125 17.6125C9.70417 17.4208 9.8 17.1917 9.8 16.925C9.8 16.6583 9.70417 16.4292 9.5125 16.2375C9.32083 16.0458 9.09167 15.95 8.825 15.95C8.55833 15.95 8.32917 16.0458 8.1375 16.2375C7.94583 16.4292 7.85 16.6583 7.85 16.925C7.85 17.1917 7.94583 17.4208 8.1375 17.6125C8.32917 17.8042 8.55833 17.9 8.825 17.9ZM12 17.9C12.2667 17.9 12.4958 17.8042 12.6875 17.6125C12.8792 17.4208 12.975 17.1917 12.975 16.925C12.975 16.6583 12.8792 16.4292 12.6875 16.2375C12.4958 16.0458 12.2667 15.95 12 15.95C11.7333 15.95 11.5042 16.0458 11.3125 16.2375C11.1208 16.4292 11.025 16.6583 11.025 16.925C11.025 17.1917 11.1208 17.4208 11.3125 17.6125C11.5042 17.8042 11.7333 17.9 12 17.9ZM15.175 17.9C15.4417 17.9 15.6708 17.8042 15.8625 17.6125C16.0542 17.4208 16.15 17.1917 16.15 16.925C16.15 16.6583 16.0542 16.4292 15.8625 16.2375C15.6708 16.0458 15.4417 15.95 15.175 15.95C14.9083 15.95 14.6792 16.0458 14.4875 16.2375C14.2958 16.4292 14.2 16.6583 14.2 16.925C14.2 17.1917 14.2958 17.4208 14.4875 17.6125C14.6792 17.8042 14.9083 17.9 15.175 17.9ZM8.825 14.75C9.09167 14.75 9.32083 14.6542 9.5125 14.4625C9.70417 14.2708 9.8 14.0417 9.8 13.775C9.8 13.5083 9.70417 13.2792 9.5125 13.0875C9.32083 12.8958 9.09167 12.8 8.825 12.8C8.55833 12.8 8.32917 12.8958 8.1375 13.0875C7.94583 13.2792 7.85 13.5083 7.85 13.775C7.85 14.0417 7.94583 14.2708 8.1375 14.4625C8.32917 14.6542 8.55833 14.75 8.825 14.75ZM12 14.75C12.2667 14.75 12.4958 14.6542 12.6875 14.4625C12.8792 14.2708 12.975 14.0417 12.975 13.775C12.975 13.5083 12.8792 13.2792 12.6875 13.0875C12.4958 12.8958 12.2667 12.8 12 12.8C11.7333 12.8 11.5042 12.8958 11.3125 13.0875C11.1208 13.2792 11.025 13.5083 11.025 13.775C11.025 14.0417 11.1208 14.2708 11.3125 14.4625C11.5042 14.6542 11.7333 14.75 12 14.75ZM15.175 14.75C15.4417 14.75 15.6708 14.6542 15.8625 14.4625C16.0542 14.2708 16.15 14.0417 16.15 13.775C16.15 13.5083 16.0542 13.2792 15.8625 13.0875C15.6708 12.8958 15.4417 12.8 15.175 12.8C14.9083 12.8 14.6792 12.8958 14.4875 13.0875C14.2958 13.2792 14.2 13.5083 14.2 13.775C14.2 14.0417 14.2958 14.2708 14.4875 14.4625C14.6792 14.6542 14.9083 14.75 15.175 14.75ZM12 5.95C10.6167 5.95 9.4375 6.4375 8.4625 7.4125C7.4875 8.3875 7 9.56667 7 10.95C7 11.1333 7.06233 11.2875 7.187 11.4125C7.3115 11.5375 7.46583 11.6 7.65 11.6H16.35C16.5342 11.6 16.6886 11.5377 16.8133 11.413C16.9378 11.2885 17 11.1342 17 10.95C17 9.56667 16.5125 8.3875 15.5375 7.4125C14.5625 6.4375 13.3833 5.95 12 5.95ZM12 7.2C12.9167 7.2 13.7375 7.4875 14.4625 8.0625C15.1875 8.6375 15.6167 9.4 15.75 10.35H8.25C8.38333 9.4 8.8125 8.6375 9.5375 8.0625C10.2625 7.4875 11.0833 7.2 12 7.2ZM3.5 22C3.1 22 2.75 21.85 2.45 21.55C2.15 21.25 2 20.9 2 20.5V3.5C2 3.1 2.15 2.75 2.45 2.45C2.75 2.15 3.1 2 3.5 2H20.5C20.9 2 21.25 2.15 21.55 2.45C21.85 2.75 22 3.1 22 3.5V20.5C22 20.9 21.85 21.25 21.55 21.55C21.25 21.85 20.9 22 20.5 22H3.5ZM3.5 20.5H20.5V3.5H3.5V20.5Z" fill="#2C2E25"/>
</svg>
