<svg width="32" height="32" viewBox="0 0 32 32" fill="none" xmlns="http://www.w3.org/2000/svg">
<path fill-rule="evenodd" clip-rule="evenodd" d="M26.5 16.5415L16.01 6L5.5 16.5415H8.70565V26H23.301V16.5415H26.4994H26.5ZM20.0125 13.779C19.735 13.5083 19.2924 13.359 18.7591 13.359C17.88 13.359 17.3262 13.718 16.9453 14.0296L16.9381 14.0361C16.5571 14.3951 16.1212 14.8827 15.7609 15.8306C15.7669 15.622 15.7718 15.3507 15.7772 15.0782L15.782 14.8626C15.7959 14.3341 15.8026 13.8803 15.8026 13.8264C15.8026 13.7115 15.7198 13.5895 15.5396 13.5895H12.1259V13.8738L12.2166 13.8803C12.4929 13.9011 12.756 13.9277 12.9984 14.0972C13.213 14.2393 13.3448 14.436 13.386 14.686C13.4555 14.9775 13.4555 15.8306 13.4555 16.1961V21.0367C13.4555 21.5314 13.4416 22.2085 13.3654 22.6617C13.2269 23.1019 13.0812 23.2376 12.7838 23.3863C12.59 23.4685 12.3844 23.5211 12.1743 23.5421L12.0776 23.5486V23.8329H17.1732V23.5486L17.0838 23.5421C16.8878 23.5292 16.6955 23.4833 16.5154 23.4064C16.3637 23.3525 16.2319 23.2168 16.0934 22.9668C15.8927 22.5468 15.7681 22.0729 15.7681 20.9218V18.904C15.7681 18.295 15.7959 17.7062 15.8165 17.4485C16.045 15.8371 16.9381 14.5438 17.5197 14.5438C17.741 14.5438 17.8867 14.7808 18.0457 15.16C18.2331 15.5936 18.4961 16.0539 19.2507 16.0539C19.9986 16.0539 20.3934 15.4378 20.3934 14.8217C20.3995 14.4017 20.2755 14.0634 20.0125 13.779Z" fill="#D92228"/>
</svg>
