<svg width="24" height="24" viewBox="0 0 24 24" fill="none" xmlns="http://www.w3.org/2000/svg">
<path d="M10.175 14.425H12C12.2125 14.425 12.3907 14.3531 12.5345 14.2093C12.6782 14.0656 12.75 13.8875 12.75 13.675V11.1H14.575C14.7875 11.1 14.9657 11.0281 15.1095 10.8843C15.2532 10.7406 15.325 10.5625 15.325 10.35V7.75H17C17.2125 7.75 17.3907 7.67767 17.5345 7.533C17.6782 7.3885 17.75 7.20933 17.75 6.9955C17.75 6.78183 17.6782 6.60417 17.5345 6.4625C17.3907 6.32083 17.2125 6.25 17 6.25H14.575C14.3625 6.25 14.1844 6.32183 14.0408 6.4655C13.8969 6.60933 13.825 6.7875 13.825 7V9.575H12C11.7875 9.575 11.6094 9.64683 11.4658 9.7905C11.3219 9.93433 11.25 10.1125 11.25 10.325V12.9H9.425C9.2125 12.9 9.03442 12.9718 8.89075 13.1155C8.74692 13.2593 8.675 13.4375 8.675 13.65V16.25H7C6.7875 16.25 6.60942 16.3223 6.46575 16.467C6.32192 16.6115 6.25 16.7907 6.25 17.0045C6.25 17.2182 6.32192 17.3958 6.46575 17.5375C6.60942 17.6792 6.7875 17.75 7 17.75H9.425C9.6375 17.75 9.81567 17.6781 9.9595 17.5343C10.1032 17.3906 10.175 17.2125 10.175 17V14.425ZM4.5 21C4.1 21 3.75 20.85 3.45 20.55C3.15 20.25 3 19.9 3 19.5V4.5C3 4.1 3.15 3.75 3.45 3.45C3.75 3.15 4.1 3 4.5 3H19.5C19.9 3 20.25 3.15 20.55 3.45C20.85 3.75 21 4.1 21 4.5V19.5C21 19.9 20.85 20.25 20.55 20.55C20.25 20.85 19.9 21 19.5 21H4.5ZM4.5 19.5H19.5V4.5H4.5V19.5Z" fill="#2C2E25"/>
</svg>
