<svg width="24" height="24" viewBox="0 0 24 24" fill="none" xmlns="http://www.w3.org/2000/svg">
<path d="M22.4998 11.8715C22.3286 9.90824 21.6105 8.03233 20.427 6.45663C19.2435 4.88093 17.642 3.66855 15.8042 2.95707C13.9664 2.2456 11.9661 2.06352 10.03 2.43151C8.09404 2.7995 6.29996 3.70282 4.85141 5.03895C2.91759 6.81552 1.72284 9.25455 1.50453 11.8715C1.48673 12.0786 1.51218 12.2871 1.57925 12.4839C1.64633 12.6806 1.75356 12.8613 1.89416 13.0144C2.03476 13.1675 2.20566 13.2898 2.396 13.3733C2.58633 13.4569 2.79197 13.5 2.99985 13.4999H11.2498V18.7499C11.2498 19.5455 11.5659 20.3086 12.1285 20.8712C12.6911 21.4338 13.4542 21.7499 14.2498 21.7499C15.0455 21.7499 15.8086 21.4338 16.3712 20.8712C16.9338 20.3086 17.2498 19.5455 17.2498 18.7499C17.2498 18.551 17.1708 18.3602 17.0302 18.2196C16.8895 18.0789 16.6988 17.9999 16.4998 17.9999C16.3009 17.9999 16.1102 18.0789 15.9695 18.2196C15.8289 18.3602 15.7498 18.551 15.7498 18.7499C15.7498 19.1477 15.5918 19.5292 15.3105 19.8106C15.0292 20.0919 14.6477 20.2499 14.2498 20.2499C13.852 20.2499 13.4705 20.0919 13.1892 19.8106C12.9079 19.5292 12.7498 19.1477 12.7498 18.7499V13.4999H20.9998C21.2081 13.5007 21.4143 13.458 21.6052 13.3748C21.7961 13.2915 21.9675 13.1693 22.1086 13.0162C22.2497 12.863 22.3574 12.6821 22.4248 12.485C22.4921 12.2879 22.5177 12.079 22.4998 11.8715ZM2.99985 11.9999C3.16607 10.0679 3.9509 8.24096 5.23782 6.79039C6.52474 5.33981 8.24514 4.34292 10.1436 3.9477C9.04485 5.43739 7.67328 8.0727 7.51578 11.9999H2.99985ZM9.01391 11.9999C9.14422 9.1152 10.0011 7.04895 10.7295 5.78989C11.0887 5.16444 11.5146 4.57978 11.9998 4.04614C12.4841 4.57985 12.9091 5.16452 13.2673 5.78989C14.5123 7.94052 14.9061 10.2449 14.983 11.9999H9.01391ZM16.4811 11.9999C16.3236 8.0727 14.952 5.43739 13.8561 3.94302C15.7558 4.33735 17.4774 5.33461 18.7646 6.78633C20.0518 8.23806 20.8358 10.0666 20.9998 11.9999H16.4811Z" fill="#2C2E25"/>
</svg>
