<svg width="12" height="12" viewBox="0 0 12 12" fill="none" xmlns="http://www.w3.org/2000/svg">
<path fill-rule="evenodd" clip-rule="evenodd" d="M9.625 1.5C10.1082 1.5 10.5 1.89175 10.5 2.375V9.625C10.5 10.1082 10.1082 10.5 9.625 10.5H2.375C1.89175 10.5 1.5 10.1082 1.5 9.625V2.375C1.5 1.89175 1.89175 1.5 2.375 1.5H9.625ZM6 5.375C6 5.72018 5.72018 6 5.375 6H2.25V9.625C2.25 9.69404 2.30596 9.75 2.375 9.75H4.75V7.5H3.625C3.41789 7.5 3.25 7.33211 3.25 7.125C3.25 6.91789 3.41789 6.75 3.625 6.75H4.875C5.22018 6.75 5.5 7.02982 5.5 7.375V9.75H6.75V7.375C6.75 7.02982 7.02982 6.75 7.375 6.75H9.75V6H8.5C8.29289 6 8.125 5.83211 8.125 5.625C8.125 5.41789 8.29289 5.25 8.5 5.25H9.75V2.375C9.75 2.30596 9.69404 2.25 9.625 2.25H6V5.375ZM7.5 9.75H9.625C9.69404 9.75 9.75 9.69404 9.75 9.625V7.5H7.5V9.75ZM2.375 2.25C2.30596 2.25 2.25 2.30596 2.25 2.375V5.25H5.25V2.25H2.375Z" fill="#423E3E"/>
</svg>
