<svg width="32" height="32" viewBox="0 0 32 32" fill="none" xmlns="http://www.w3.org/2000/svg">
<path d="M16.0338 28C15.7449 28 15.5061 27.9056 15.3172 27.7167C15.1283 27.5278 15.0338 27.2889 15.0338 27V25.2C13.9672 25.0222 13.0561 24.6444 12.3005 24.0667C11.5449 23.4889 10.9561 22.7556 10.5338 21.8667C10.4227 21.6222 10.4227 21.3667 10.5338 21.1C10.6449 20.8333 10.8338 20.6444 11.1005 20.5333C11.3449 20.4222 11.5949 20.4222 11.8505 20.5333C12.1061 20.6444 12.3005 20.8222 12.4338 21.0667C12.8338 21.8222 13.3561 22.3889 14.0005 22.7667C14.6449 23.1444 15.3894 23.3333 16.2338 23.3333C17.3005 23.3333 18.1783 23.0667 18.8672 22.5333C19.5561 22 19.9005 21.2667 19.9005 20.3333C19.9005 19.3556 19.5949 18.6 18.9838 18.0667C18.3727 17.5333 17.2227 16.9889 15.5338 16.4333C13.9338 15.9222 12.7394 15.2444 11.9505 14.4C11.1616 13.5556 10.7672 12.5 10.7672 11.2333C10.7672 10.0111 11.1616 8.98889 11.9505 8.16667C12.7394 7.34444 13.7672 6.87778 15.0338 6.76667V5C15.0338 4.71111 15.1283 4.47222 15.3172 4.28333C15.5061 4.09444 15.7449 4 16.0338 4C16.3227 4 16.5616 4.09444 16.7505 4.28333C16.9394 4.47222 17.0338 4.71111 17.0338 5V6.76667C17.8338 6.87778 18.5505 7.12222 19.1838 7.5C19.8172 7.87778 20.3449 8.36667 20.7672 8.96667C20.9227 9.18889 20.9561 9.42778 20.8672 9.68333C20.7783 9.93889 20.6005 10.1222 20.3338 10.2333C20.0894 10.3444 19.8338 10.3556 19.5672 10.2667C19.3005 10.1778 19.0783 10.0111 18.9005 9.76667C18.5894 9.36667 18.2061 9.07222 17.7505 8.88333C17.2949 8.69444 16.7449 8.6 16.1005 8.6C15.0783 8.6 14.2672 8.83333 13.6672 9.3C13.0672 9.76667 12.7672 10.4 12.7672 11.2C12.7672 12.0444 13.1005 12.7278 13.7672 13.25C14.4338 13.7722 15.6672 14.3111 17.4672 14.8667C18.9783 15.3333 20.0949 16.0056 20.8172 16.8833C21.5394 17.7611 21.9005 18.8667 21.9005 20.2C21.9005 21.6 21.4894 22.7278 20.6672 23.5833C19.8449 24.4389 18.6338 24.9889 17.0338 25.2333V27C17.0338 27.2889 16.9394 27.5278 16.7505 27.7167C16.5616 27.9056 16.3227 28 16.0338 28Z" fill="white"/>
</svg>
