<svg width="24" height="24" viewBox="0 0 24 24" fill="none" xmlns="http://www.w3.org/2000/svg">
<mask id="mask0_63_11" style="mask-type:alpha" maskUnits="userSpaceOnUse" x="0" y="0" width="24" height="24">
<rect width="24" height="24" fill="#D9D9D9"/>
</mask>
<g mask="url(#mask0_63_11)">
<path d="M3.5 20C3.0875 20 2.73442 19.8531 2.44075 19.5592C2.14692 19.2656 2 18.9125 2 18.5V5.5C2 5.0875 2.14692 4.73433 2.44075 4.4405C2.73442 4.14683 3.0875 4 3.5 4H20.5C20.9125 4 21.2657 4.14683 21.5595 4.4405C21.8532 4.73433 22 5.0875 22 5.5V18.5C22 18.9125 21.8532 19.2656 21.5595 19.5592C21.2657 19.8531 20.9125 20 20.5 20H3.5ZM3.5 18.5H20.5V5.5H3.5V18.5ZM5.75 17H14.25C14.4625 17 14.6407 16.9281 14.7845 16.7843C14.9282 16.6406 15 16.4625 15 16.25V7.75C15 7.5375 14.9282 7.35933 14.7845 7.2155C14.6407 7.07183 14.4625 7 14.25 7H5.75C5.5375 7 5.35942 7.07183 5.21575 7.2155C5.07192 7.35933 5 7.5375 5 7.75V16.25C5 16.4625 5.07192 16.6406 5.21575 16.7843C5.35942 16.9281 5.5375 17 5.75 17ZM18.0045 17C18.2182 17 18.3958 16.9277 18.5375 16.783C18.6792 16.6385 18.75 16.4593 18.75 16.2455C18.75 16.0318 18.6777 15.8542 18.533 15.7125C18.3885 15.5708 18.2093 15.5 17.9955 15.5C17.7818 15.5 17.6042 15.5723 17.4625 15.717C17.3208 15.8615 17.25 16.0407 17.25 16.2545C17.25 16.4682 17.3223 16.6458 17.467 16.7875C17.6115 16.9292 17.7907 17 18.0045 17ZM6.5 15.5V8.5H13.5V15.5H6.5ZM18.0045 12.75C18.2182 12.75 18.3958 12.6777 18.5375 12.533C18.6792 12.3885 18.75 12.2093 18.75 11.9955C18.75 11.7818 18.6777 11.6042 18.533 11.4625C18.3885 11.3208 18.2093 11.25 17.9955 11.25C17.7818 11.25 17.6042 11.3223 17.4625 11.467C17.3208 11.6115 17.25 11.7907 17.25 12.0045C17.25 12.2182 17.3223 12.3958 17.467 12.5375C17.6115 12.6792 17.7907 12.75 18.0045 12.75ZM18.0045 8.5C18.2182 8.5 18.3958 8.42767 18.5375 8.283C18.6792 8.1385 18.75 7.95933 18.75 7.7455C18.75 7.53183 18.6777 7.35417 18.533 7.2125C18.3885 7.07083 18.2093 7 17.9955 7C17.7818 7 17.6042 7.07233 17.4625 7.217C17.3208 7.3615 17.25 7.54067 17.25 7.7545C17.25 7.96817 17.3223 8.14583 17.467 8.2875C17.6115 8.42917 17.7907 8.5 18.0045 8.5Z" fill="#423E3E"/>
</g>
</svg>
