<svg width="24" height="24" viewBox="0 0 24 24" fill="none" xmlns="http://www.w3.org/2000/svg">
<path fill-rule="evenodd" clip-rule="evenodd" d="M11.6011 3.11477C11.862 2.95076 12.2002 2.96258 12.4502 3.14993L22.4502 10.6499L22.5088 10.6992C22.7884 10.9569 22.8331 11.3895 22.6001 11.7002C22.3672 12.0108 21.9393 12.0892 21.6138 11.8931L21.5498 11.8501L18.75 9.75002V20.25C18.75 20.6642 18.4142 21 18 21C17.5858 21 17.25 20.6642 17.25 20.25V18.25H6.75003V20.25C6.75003 20.6642 6.41424 21 6.00003 21C5.58585 21 5.25003 20.6642 5.25003 20.25V9.75002L2.45023 11.8501C2.11888 12.0986 1.64846 12.0315 1.39993 11.7002C1.15161 11.3689 1.21866 10.8984 1.54983 10.6499L11.5498 3.14993L11.6011 3.11477ZM6.75003 13.75V16.75H17.25V13.75H6.75003ZM8.25003 7.50002H15.75L12 4.68752L8.25003 7.50002Z" fill="#423E3E"/>
</svg>
