<?xml version="1.0" encoding="utf-8"?>
<svg fill="none" height="16" viewBox="0 0 16 16" width="16" xmlns="http://www.w3.org/2000/svg">
<path d="M1.97201 7.49441C1.81645 7.49441 1.68034 7.43608 1.56367 7.31941C1.44701 7.20274 1.38867 7.06663 1.38867 6.91108V5.81247C1.38867 5.72983 1.4168 5.66054 1.47306 5.60461C1.52926 5.54873 1.59893 5.5208 1.68209 5.5208C1.76518 5.5208 1.83427 5.54873 1.88937 5.60461C1.94446 5.66054 1.97201 5.72983 1.97201 5.81247V6.91108H7.02756V5.81247C7.02756 5.72983 7.05569 5.66054 7.11195 5.60461C7.16814 5.54873 7.23782 5.5208 7.32098 5.5208C7.40407 5.5208 7.47316 5.54873 7.52826 5.60461C7.58335 5.66054 7.61089 5.72983 7.61089 5.81247V6.91108C7.61089 7.06663 7.55256 7.20274 7.43589 7.31941C7.31923 7.43608 7.18312 7.49441 7.02756 7.49441H1.97201ZM4.20812 2.39997L3.24562 3.36247C3.18858 3.4208 3.12085 3.44835 3.04242 3.44511C2.964 3.44186 2.89435 3.41108 2.83349 3.35274C2.77769 3.29441 2.74978 3.22473 2.74978 3.14372C2.74978 3.0627 2.77895 2.99302 2.83728 2.93469L4.29562 1.47635C4.32802 1.44395 4.36085 1.42126 4.3941 1.4083C4.42742 1.39534 4.46307 1.38885 4.50105 1.38885C4.53909 1.38885 4.57432 1.39534 4.60673 1.4083C4.63914 1.42126 4.67154 1.44395 4.70395 1.47635L6.17201 2.94441C6.23034 3.00274 6.25951 3.0708 6.25951 3.14858C6.25951 3.22636 6.2316 3.29441 6.1758 3.35274C6.11494 3.41108 6.044 3.44024 5.96298 3.44024C5.88196 3.44024 5.81228 3.41108 5.75395 3.35274L4.79145 2.39997V5.71524C4.79145 5.79788 4.76332 5.86714 4.70706 5.92301C4.65087 5.97894 4.58119 6.00691 4.49803 6.00691C4.41494 6.00691 4.34585 5.97894 4.29076 5.92301C4.23566 5.86714 4.20812 5.79788 4.20812 5.71524V2.39997Z" fill="#423E3E"/>
</svg>